<?xml version="1.0" encoding="utf-8"?>
<!-- Generator: Adobe Illustrator 22.0.1, SVG Export Plug-In . SVG Version: 6.00 Build 0)  -->
<svg version="1.1" id="Volta-layout-1" xmlns="http://www.w3.org/2000/svg" xmlns:xlink="http://www.w3.org/1999/xlink" x="0px"
	 y="0px" viewBox="0 0 131.6 31.4" preserveAspectRatio="xMinYMin meet" style="enable-background:new 0 0 131.6 31.4;" xml:space="preserve">
<path style="fill:#1494ED;" d="M19.5,5.2c0,2.9-2.2,5.2-4.9,5.2S9.7,8.1,9.7,5.2S11.9,0,14.6,0C17.3,0.1,19.5,2.4,19.5,5.2"/>
<path style="fill:#FF8F02;" d="M0.1,3.4c-0.5-2.1,1.3-2.2,1.7-1.2c4.6,9.5,10.6,20.9,12.9,20.9s8.2-11.4,12.8-20.9
	c0.4-1.1,2.2-0.8,1.7,1.1C25.5,15,19.8,30.1,14.8,30.1C9.5,30.1,3.8,15.1,0.1,3.4 M29.8,18c0-4.2,2.4-8.4,8.4-8.4s8.4,4.2,8.4,8.4
	c0,6.3-4.3,8.4-8.4,8.4S29.8,24.3,29.8,18 M43.1,17.9c0-3.7-2.3-5.2-4.9-5.2c-2.7,0-4.9,1.5-4.9,5.2c0,3.4,1.8,5.4,4.9,5.4
	S43.1,21.3,43.1,17.9 M50.8,10.1h3.4v2c1.1-1.1,2.6-2.5,5.6-2.5c3.1,0,5.9,1.4,5.9,6.2v10.1h-3.5v-8.8c0-3.1-0.9-4.4-3.2-4.4
	c-2.8,0-3.9,1.2-4.8,2.3v10.9h-3.5V10.1C50.7,10.1,50.8,10.1,50.8,10.1z M85.7,23.3c0,1.1,0.1,2.1,0.3,2.6h-3.5
	c-0.1-0.5-0.2-1.1-0.2-1.6c-1.5,0.9-3.6,2.1-6.6,2.1c-2,0-5.8-0.9-5.8-4.8c0-5.3,7.5-6.1,12.4-6.4v-0.7c0-1.2-1-2.1-3.9-2.1
	c-3.2,0-3.9,1.2-4.1,2.1h-3.6c0.8-4.3,4.8-5,7.6-5c7.2,0,7.4,3.7,7.4,5.9C85.7,15.4,85.7,23.3,85.7,23.3z M82.3,17.9
	c-2,0.1-3.8,0.4-5.4,0.8c-2.2,0.5-3.2,1.3-3.2,2.7c0,1.4,0.8,2.2,2.5,2.2c2.6,0,4.7-1.2,6.1-2.1V17.9z M107.1,12.7
	c-0.3-0.1-0.9-0.3-1.3-0.2c-0.4,0-0.9,0.2-1.1,0.3c0.2,0.3,0.7,1.3,0.7,2.6c0,4.3-3.6,5.8-7.6,5.8c-1.4,0-2.5-0.2-3.2-0.5
	c-0.4,0.3-1,0.7-1,1.3c0,0.6,0.3,0.9,3.4,0.9h4.7c3.4,0.1,5.3,1.1,5.3,3.6c0,3.8-5.2,4.9-9.8,4.9c-4.2,0-7.8-0.9-7.8-3.5
	c0-1.9,1.6-2.1,3-2.4v-0.1c-1.3-0.1-2.3-0.9-2.3-2.4c0-1.6,1.4-2.8,2.6-3v-0.2c-1.7-1-2.5-2.5-2.5-4.5c0-4.6,4.1-5.7,7.7-5.7
	c2.6,0,4.2,0.7,5.2,1.4c0.5-0.6,1.6-1.7,3.2-1.7h0.6v3.4H107.1L107.1,12.7z M95.3,26.1c-0.8,0-2,0.2-2,1.1c0,1.3,1.6,1.4,4.4,1.4
	c2.7,0,5.6-0.3,5.6-1.6c0-1.1-0.6-1-4.4-1h-3.6V26.1z M102,15.3c0-2.4-2.3-3.1-4.1-3.1c-1.9,0-4,0.7-4,3.1c0,2.5,2.2,3.1,4,3.1
	S102,17.7,102,15.3z M126.4,21.2c-0.3,1.3-2.3,5.3-7.8,5.3c-5.4,0-8.6-3.5-8.6-8.5c0-4.5,2.8-8.4,8.3-8.4c5.6,0.1,8.4,3.7,8.4,9.4
	h-13.2c0.1,1,0.7,4.3,4.9,4.5c2.2,0,3.6-1.1,4.1-2.3C122.5,21.2,126.4,21.2,126.4,21.2z M123,16.2c-0.5-2.7-2.3-3.7-4.7-3.7
	c-1.8,0-3.9,0.6-4.6,3.7C113.7,16.2,123,16.2,123,16.2z M126.4,10c0,1.5,1.2,2.7,2.6,2.7s2.6-1.2,2.6-2.7s-1.2-2.7-2.6-2.7
	C127.6,7.4,126.4,8.5,126.4,10z M126.9,10c0-1.3,0.9-2.3,2.1-2.3c1.2,0,2.1,1,2.1,2.3s-0.9,2.3-2.1,2.3
	C127.8,12.3,126.9,11.3,126.9,10z M128,11.6h0.5v-1.3h0.5l0.8,1.3h0.5l-0.9-1.4c0.4,0,0.8-0.3,0.8-0.9c0-0.6-0.3-0.9-1-0.9H128
	C128,8.4,128,11.6,128,11.6z M128.5,8.9h0.6c0.3,0,0.7,0.1,0.7,0.5c0,0.5-0.4,0.5-0.8,0.5h-0.5V8.9z"/>
</svg>
