<?xml version="1.0" encoding="utf-8"?>
<!-- Generator: Adobe Illustrator 22.0.1, SVG Export Plug-In . SVG Version: 6.00 Build 0)  -->
<svg version="1.1" id="Volta-layout-1" xmlns="http://www.w3.org/2000/svg" xmlns:xlink="http://www.w3.org/1999/xlink" x="0px"
	 y="0px" viewBox="0 0 29.3 30.1" style="enable-background:new 0 0 29.3 30.1;" xml:space="preserve">
<path style="fill:#1494ED;" d="M19.5,5.2c0,2.9-2.2,5.2-4.9,5.2S9.7,8.1,9.7,5.2S11.9,0,14.6,0C17.3,0.1,19.5,2.4,19.5,5.2"/>
<path style="fill:#FF8F02;" d="M0.1,3.4c-0.5-2.1,1.3-2.2,1.7-1.2c4.6,9.5,10.6,20.9,12.9,20.9s8.2-11.4,12.8-20.9
	c0.4-1.1,2.2-0.8,1.7,1.1C25.5,15,19.8,30.1,14.8,30.1C9.5,30.1,3.8,15.1,0.1,3.4"/>
</svg>
