<?xml version="1.0" encoding="utf-8"?>
<svg viewBox="0 0 126 29" id="vg-logo-2" width="100%" height="100%" xmlns="http://www.w3.org/2000/svg" xmlns:xlink="http://www.w3.org/1999/xlink"><g fill="none" fill-rule="evenodd"><path fill="#FFF" d="M28.456 16.657c0-3.88 2.318-7.708 8.021-7.708 5.703 0 8.022 3.828 8.022 7.708 0 5.764-4.102 7.733-8.022 7.733-3.916 0-8.021-1.97-8.021-7.733m12.685-.054c0-3.396-2.159-4.796-4.664-4.796-2.53 0-4.662 1.4-4.662 4.796 0 3.07 1.704 4.933 4.662 4.933s4.664-1.862 4.664-4.933m7.329-7.168h3.251v1.806c1.037-1.025 2.45-2.292 5.355-2.292 2.986 0 5.599 1.267 5.599 5.688v9.265h-3.306v-8.027c0-2.855-.852-4.068-3.064-4.068-2.638 0-3.704 1.104-4.532 2.128v9.967H48.47V9.435zM81.754 21.56c0 .97.057 1.938.268 2.342h-3.385a6.673 6.673 0 0 1-.187-1.452c-1.387.806-3.437 1.94-6.262 1.94-1.893 0-5.542-.808-5.542-4.365 0-4.878 7.196-5.578 11.804-5.846v-.65c0-1.102-.984-1.883-3.704-1.883-3.036 0-3.676 1.13-3.866 1.914h-3.435c.799-3.936 4.61-4.61 7.274-4.61 6.902 0 7.035 3.396 7.035 5.388v7.222zm-3.304-4.955c-1.919.08-3.597.349-5.14.728-2.053.482-3.015 1.183-3.041 2.449-.027 1.241.773 2.02 2.399 2.02 2.503 0 4.505-1.104 5.782-1.885v-3.312zm23.692-4.825c-.293-.08-.828-.27-1.199-.217-.374 0-.855.164-1.066.271.211.297.665 1.159.665 2.398 0 3.934-3.465 5.334-7.246 5.334-1.336 0-2.373-.212-3.013-.457-.374.245-.907.646-.907 1.16 0 .51.32.859 3.198.834h4.503c3.225.108 5.09 1.052 5.09 3.313 0 3.448-4.982 4.447-9.3 4.447-3.999 0-7.46-.808-7.46-3.21 0-1.721 1.517-1.965 2.877-2.231v-.057c-1.226-.109-2.157-.78-2.157-2.237 0-1.454 1.358-2.559 2.503-2.718v-.056c-1.598-.889-2.371-2.317-2.371-4.15 0-4.256 3.863-5.254 7.382-5.254 2.505 0 3.97.647 4.956 1.321.507-.54 1.573-1.562 3.012-1.562h.533v3.071zm-11.22 12.311c-.773 0-1.892.218-1.892 1.051 0 1.188 1.545 1.322 4.156 1.322 2.588 0 5.357-.299 5.357-1.455 0-.997-.585-.942-4.237-.918h-3.383zm6.369-9.86c0-2.156-2.185-2.803-3.942-2.803-1.814 0-3.838.647-3.838 2.832 0 2.262 2.051 2.826 3.809 2.826 1.76 0 3.97-.728 3.97-2.854zm23.292 5.335c-.243 1.185-2.16 4.823-7.462 4.823-5.117 0-8.183-3.233-8.183-7.759 0-4.097 2.667-7.682 7.941-7.682 5.385.057 7.969 3.423 7.969 8.65h-12.55c.133.918.638 3.938 4.715 4.097 2.078 0 3.466-.997 3.944-2.129h3.626zm-3.252-4.553c-.506-2.451-2.159-3.367-4.53-3.367-1.734 0-3.73.59-4.399 3.367h8.929zm3.257-5.635a2.44 2.44 0 0 0 2.448 2.469c1.322 0 2.434-1.056 2.434-2.469a2.427 2.427 0 0 0-2.434-2.44 2.433 2.433 0 0 0-2.448 2.44zm.442 0c0-1.173.87-2.08 2.006-2.08 1.122 0 1.994.907 1.994 2.08 0 1.202-.872 2.108-1.994 2.108-1.136 0-2.006-.906-2.006-2.108zm1.058 1.444h.443V9.588h.466l.773 1.234h.474l-.814-1.267c.424-.045.748-.262.748-.78 0-.551-.318-.821-.991-.821h-1.099v2.868zm.443-2.507h.583c.299 0 .624.06.624.44 0 .452-.36.475-.748.475h-.459v-.915z"></path><path fill="#1494ED" d="M18.667 4.668a4.667 4.667 0 1 1-9.333-.002 4.667 4.667 0 0 1 9.333.002"></path><path fill="#FFF" d="M.078 3.58c-.454-1.953 1.205-2.035 1.59-1.131C6.09 11.138 11.82 21.547 14.045 21.547c2.205 0 7.898-10.468 12.26-19.126.361-.963 2.09-.706 1.612 1.046C24.373 14.179 18.925 28 14.045 28 9.165 28 3.677 14.294.078 3.58"></path></g></svg>