<?xml version="1.0" encoding="UTF-8"?>
<svg width="20px" height="20px" viewBox="0 0 20 20" version="1.1" xmlns="http://www.w3.org/2000/svg" xmlns:xlink="http://www.w3.org/1999/xlink" fill="#ffffff">
    <path d="M11.0724799,2.10671245 C10.4574754,1.08170499 9.54231794,1.08204943 8.92752013,2.10671245 L1.50122634,14.4838688 C0.888689703,15.5047632 1.30878124,16.25 2.49257535,16.25 L17.5074247,16.25 C18.6877372,16.25 19.1093995,15.5015785 18.4987737,14.4838688 L11.0724799,2.10671245 Z M12.0014305,1.54934205 L19.4277243,13.9264984 C20.4707053,15.6647999 19.5315313,17.3333333 17.5074247,17.3333333 L2.49257535,17.3333333 C0.465636432,17.3333333 -0.472950267,15.6685416 0.572275667,13.9264984 L7.99856946,1.54934205 C9.03357081,-0.175660206 10.9650891,-0.177893775 12.0014305,1.54934205 Z" id="Rectangle-4" fill-rule="nonzero"></path>
    <path d="M9.25620833,5.79929167 L9.25620833,10.1597083 C9.25620833,10.5048863 9.53603036,10.7847083 9.88120833,10.7847083 C10.2263863,10.7847083 10.5062083,10.5048863 10.5062083,10.1597083 L10.5062083,5.79929167 C10.5062083,5.4541137 10.2263863,5.17429167 9.88120833,5.17429167 C9.53603036,5.17429167 9.25620833,5.4541137 9.25620833,5.79929167 Z" id="Stroke-4" fill-rule="nonzero"></path>
    <path d="M10.906375,13.0207917 C10.906375,13.5962083 10.440125,14.0624583 9.86470833,14.0624583 C9.28929167,14.0624583 8.82304167,13.5962083 8.82304167,13.0207917 C8.82304167,12.445375 9.28929167,11.979125 9.86470833,11.979125 C10.440125,11.979125 10.906375,12.445375 10.906375,13.0207917" id="Fill-6"></path>
</svg>