<?xml version="1.0" encoding="UTF-8"?>
<svg width="20px" height="20px" viewBox="0 0 20 20" version="1.1" xmlns="http://www.w3.org/2000/svg" xmlns:xlink="http://www.w3.org/1999/xlink" fill="#637381">
    <path fill="#637381" d="M17.0973207,4.33600997 C16.8972773,4.33600997 16.7082067,4.37771645 16.530109,4.44277855 L16.530109,3.59530293 C16.530109,2.71195974 15.8134978,1.99127181 14.9339821,1.99127181 L14.8225655,1.99127181 C14.6267424,1.99127181 14.4410481,2.03214416 14.2671707,2.09720627 C14.089917,1.37318182 13.4425192,0.8335 12.6685116,0.8335 C11.7577654,0.8335 11.0166763,1.57754356 11.0166763,2.4934178 L11.0166763,2.76200751 C10.8419549,2.6994478 10.6571046,2.65857545 10.4612815,2.65857545 C9.55053538,2.65857545 8.80944629,3.40345314 8.80944629,4.31849325 L8.80944629,6.33124785 C7.38972893,4.40774511 7.25636666,3.01057812 7.25636666,2.58433792 L7.25636666,1.4349074 C7.25636666,1.1354549 7.01074374,0.892723198 6.70688034,0.892723198 C6.40386099,0.892723198 6.15823807,1.1354549 6.15823807,1.4349074 L6.15823807,2.58433792 C6.15823807,3.1765699 6.3481527,5.32111697 8.78581247,8.03370626 C9.04494043,8.32064682 9.19011962,8.62093346 9.1664858,8.81528564 C9.16142141,8.85282147 9.14876043,8.95208289 8.97910336,9.0680269 C8.51908793,9.37999135 7.72144649,9.58852373 7.45303381,9.64274216 L6.69253123,9.79538786 L7.09177398,10.4526819 C7.1348213,10.5244171 7.5256234,11.1333317 8.31482419,11.3051623 C8.34436647,11.3268497 8.37475281,11.3568784 8.37812907,11.3810681 C8.38825785,11.4544715 8.30047509,11.6888619 7.89447981,12.0550448 L7.16520764,12.7098365 L8.11224859,12.976758 C8.27684127,13.0234692 8.54018955,13.1761149 8.55707085,13.2770446 C8.57057589,13.3662965 8.42117639,13.724138 7.56360633,14.2955168 L7.32135967,14.4573379 L7.32135967,15.8019547 C7.32135967,16.3891819 6.80057155,17.0172815 5.33865094,17.0172815 L2.60219216,17.0172815 C1.98602469,17.0172815 1.25,17.2967149 1.25,18.6246491 C1.25,18.9241016 1.49562292,19.1668333 1.79864226,19.1668333 C2.1016616,19.1668333 2.34728452,18.9241016 2.34728452,18.6246491 C2.34728452,18.102484 2.43759948,18.102484 2.60219216,18.102484 L5.33865094,18.102484 C7.0478826,18.102484 7.92739835,17.4026493 8.2591159,16.6035532 L9.17745864,17.5119203 C9.27114986,17.6028404 9.36990546,18.0107298 9.38087831,18.3493864 C9.39100709,18.6421658 9.63409782,18.8740539 9.92952057,18.8740539 L9.94640187,18.8740539 C10.2494212,18.8640443 10.4866035,18.6146396 10.4773188,18.3160212 C10.4722544,18.134181 10.4216105,17.2066289 9.95399846,16.7453553 L8.41948826,15.2289077 L8.41948826,15.0270484 C9.34120725,14.3605789 9.74045001,13.7308111 9.64000627,13.1068822 C9.58260985,12.7482065 9.37159359,12.4871239 9.13947572,12.3052837 C9.41295278,11.9257547 9.51930497,11.5562353 9.46022042,11.2008962 C9.37919018,10.7246082 9.03059133,10.4618574 8.84152076,10.3517523 C9.10318092,10.2466519 9.37159359,10.1173619 9.60033521,9.96137964 C10.078076,9.63690325 10.220723,9.23068216 10.2553297,8.94624398 C10.3042854,8.55336897 10.1802079,8.12379225 9.90673082,7.70422509 L9.90673082,4.31849325 C9.90673082,4.00152402 10.1548859,3.74377799 10.4612815,3.74377799 C10.7668331,3.74377799 11.0158322,4.00152402 11.0158322,4.31849325 L11.0158322,9.5960309 L12.1139608,9.5960309 L12.1139608,8.99045285 L12.1148049,8.99045285 L12.1148049,2.4934178 C12.1148049,2.17561444 12.36296,1.91870254 12.6685116,1.91870254 C12.9740631,1.91870254 13.2222182,2.17561444 13.2222182,2.4934178 L13.2222182,9.57517766 L13.2255945,9.57517766 L13.2255945,9.5818507 L14.3237231,9.5818507 L14.3237231,3.59530293 C14.3237231,3.31336715 14.5516206,3.07647435 14.8225655,3.07647435 L14.9339821,3.07647435 C15.2040829,3.07647435 15.4319804,3.31336715 15.4319804,3.59530293 L15.4319804,9.57267527 L16.530109,9.57267527 L16.530109,8.72686791 C16.5326412,8.70434641 16.543614,8.68516143 16.543614,8.66263994 L16.543614,5.99592777 C16.543614,5.67812441 16.7917692,5.42121251 17.0973207,5.42121251 C17.4028722,5.42121251 17.6518714,5.67812441 17.6518714,5.99592777 L17.6518714,11.856522 C17.6518714,13.6557394 17.2652896,15.1805282 17.0340158,16.0922318 C16.9631144,16.369997 16.9057179,16.5968802 16.8744875,16.7645402 C16.7309965,17.5269346 16.711583,18.3093482 16.711583,18.3418792 C16.7039864,18.6413317 16.9445449,18.8890682 17.2475643,18.8957412 C17.2517846,18.8965754 17.2551609,18.8965754 17.2593812,18.8965754 C17.5573361,18.8965754 17.8012709,18.6613508 17.8080234,18.366069 C17.8088675,18.3593959 17.8257488,17.6395421 17.9532026,16.9638972 C17.9819008,16.8112515 18.0342329,16.6068898 18.0983818,16.3558168 C18.3423166,15.3957336 18.75,13.7892001 18.75,11.856522 L18.75,5.99592777 C18.75,5.08088766 18.0080668,4.33600997 17.0973207,4.33600997"></path>
</svg>