<?xml version="1.0" encoding="UTF-8"?>
<svg width="20px" height="20px" viewBox="0 0 20 20" version="1.1" xmlns="http://www.w3.org/2000/svg" xmlns:xlink="http://www.w3.org/1999/xlink" fill="#ffffff">
    <path d="M17.1398551,15.8684596 C17.1398551,16.166651 16.8871014,16.4192089 16.5632609,16.4192089 C16.2631159,16.4192089 16.0103623,16.166651 16.0103623,15.8684596 L16.0103623,2.82356939 C16.0103623,2.52537799 16.2631159,2.2728201 16.5632609,2.2728201 L16.5869565,2.2728201 C16.8871014,2.2728201 17.1398551,2.52537799 17.1398551,2.82356939 L17.1398551,15.8684596 Z M2.51963768,10.3153332 L2.51963768,8.37669575 L14.9835507,4.43647801 L14.9835507,14.2201457 L2.51963768,10.3153332 Z M1.49282609,11.098184 C1.49282609,11.2240696 1.38619565,11.3302855 1.25981884,11.3302855 C1.13344203,11.3302855 1.02681159,11.2240696 1.02681159,11.098184 L1.02681159,7.57417536 C1.02681159,7.44828981 1.13344203,7.34207388 1.25981884,7.34207388 C1.38619565,7.34207388 1.49282609,7.44828981 1.49282609,7.57417536 L1.49282609,11.098184 Z M9.26894928,13.9872574 C9.22945652,14.1107826 9.11176812,14.1666443 9.01935507,14.1666443 C8.99328986,14.1666443 8.96801449,14.1627104 8.94273913,14.1548425 L4.29523188,12.6796212 C4.20755797,12.6520838 4.16332609,12.5875674 4.14436957,12.5513753 C4.1262029,12.51597 4.09855797,12.4420123 4.12699275,12.3554659 C4.16648551,12.2319407 4.28338406,12.176079 4.37658696,12.176079 C4.40186232,12.176079 4.42713768,12.180013 4.45241304,12.1878808 L9.10071014,13.6631021 C9.1875942,13.6906396 9.23182609,13.7551559 9.25078261,13.791348 C9.26894928,13.8275401 9.2965942,13.9007111 9.26894928,13.9872574 Z M16.5869565,1.25 L16.5632609,1.25 C15.6944203,1.25 14.9835507,1.95810622 14.9835507,2.82356939 L14.9835507,3.36409047 L2.49041304,7.31217606 C2.36877536,6.74726465 1.86247826,6.31925378 1.25981884,6.31925378 C0.567115942,6.31925378 0,6.88416519 0,7.57417536 L0,11.098184 C0,11.788981 0.567115942,12.3531056 1.25981884,12.3531056 C1.85615942,12.3531056 2.35692754,11.9337493 2.48488406,11.3774926 L3.36162319,11.6520804 C3.27078986,11.7677378 3.19575362,11.8975573 3.14836232,12.044686 C2.93352174,12.7166001 3.30949275,13.440442 3.98323913,13.6544475 L8.63153623,15.1296688 C8.76028261,15.1705816 8.8906087,15.1894644 9.01935507,15.1894644 C9.56435507,15.1894644 10.0730217,14.8409188 10.2467899,14.2980374 C10.2973406,14.1406804 10.3123478,13.9817499 10.3020797,13.8259665 L14.9835507,15.2925332 L14.9835507,15.8684596 C14.9835507,16.7339228 15.6944203,17.442029 16.5632609,17.442029 L16.5869565,17.442029 C17.4557971,17.442029 18.1666667,16.7339228 18.1666667,15.8684596 L18.1666667,2.82356939 C18.1666667,1.95810622 17.4557971,1.25 16.5869565,1.25 Z" id="Fill-1"></path>
</svg>