<?xml version="1.0" encoding="UTF-8"?>
<svg width="20px" height="20px" viewBox="0 0 20 20" version="1.1" xmlns="http://www.w3.org/2000/svg" xmlns:xlink="http://www.w3.org/1999/xlink" fill="#ffffff">
    <path d="M10,18.0485833 C7.875,18.0485833 5.9475,17.2185833 4.50916667,15.87275 L16.0475,4.70025 C17.2891667,6.11691667 18.0483333,7.96775 18.0483333,10.00025 C18.0483333,14.44525 14.445,18.0485833 10,18.0485833 M1.95166667,10.00025 C1.95166667,5.55525 5.555,1.95108333 10,1.95108333 C12.0225,1.95108333 13.8658333,2.70275 15.28,3.93525 L3.76416667,15.0860833 C2.63166667,13.6994167 1.95166667,11.9294167 1.95166667,10.00025 M10,0.833583333 C4.9375,0.833583333 0.833333333,4.93775 0.833333333,10.00025 C0.833333333,12.2319167 1.6325,14.2760833 2.95833333,15.8660833 L2.95666667,15.86775 L3.01916667,15.93275 C4.7,17.9094167 7.20166667,19.1669167 10,19.1669167 C15.0625,19.1669167 19.1666667,15.06275 19.1666667,10.00025 C19.1666667,4.93775 15.0625,0.833583333 10,0.833583333" id="Fill-1"></path>
</svg>