<?xml version="1.0" encoding="utf-8"?>
<!-- Generator: Adobe Illustrator 22.0.1, SVG Export Plug-In . SVG Version: 6.00 Build 0)  -->
<svg version="1.1" id="Layer_1" xmlns="http://www.w3.org/2000/svg" xmlns:xlink="http://www.w3.org/1999/xlink" x="0px" y="0px"
	 viewBox="0 0 230 200" style="enable-background:new 0 0 230 200;" xml:space="preserve">
<g>
	<path style="fill:#637381;fill-opacity:5.000000e-02;" d="M115,195c52.5,0,95-42.5,95-95S167.5,5,115,5s-95,42.5-95,95
		S62.5,195,115,195z"/>
	<g transform="translate(65 83)">
		<path style="fill:#E7EBEE;" d="M78.9-17L100,17v35c0,3.3-2.7,6-6,6H6c-3.3,0-6-2.7-6-6V17l21.1-34H78.9z"/>
		<path style="opacity:5.000000e-02;enable-background:new    ;" d="M20.6-16L0,18v12.4h20.6V-16z M77.4-16L98,18v12.4H77.4V-16z"/>
		<g>
			<path id="a" style="fill:#E7EBEE;" d="M37-11h25c2.2,0,4,1.8,4,4v22.5c0,2.2-1.8,4-4,4H37c-2.2,0-4-1.8-4-4V-7
				C33-9.2,34.8-11,37-11z"/>
		</g>
		<g>
			<path style="fill:#C4CDD5;" d="M61,19.5H38c-2.8,0-5-2.2-5-5V-6c0-2.8,2.2-5,5-5h23c2.8,0,5,2.2,5,5v20.5
				C66,17.3,63.8,19.5,61,19.5z M38-9c-1.7,0-3,1.3-3,3v20.5c0,1.7,1.3,3,3,3h23c1.7,0,3-1.3,3-3V-6c0-1.7-1.3-3-3-3H38z"/>
		</g>
		<g>
			<path id="b" style="fill:#E7EBEE;" d="M27-3h45c2.2,0,4,1.8,4,4v22.5c0,2.2-1.8,4-4,4H27c-2.2,0-4-1.8-4-4V1C23-1.2,24.8-3,27-3z
				"/>
		</g>
		<g>
			<path style="fill:#C4CDD5;" d="M71,27.5H28c-2.8,0-5-2.2-5-5V2c0-2.8,2.2-5,5-5h43c2.8,0,5,2.2,5,5v20.5
				C76,25.3,73.8,27.5,71,27.5z M28-1c-1.7,0-3,1.3-3,3v20.5c0,1.7,1.3,3,3,3h43c1.7,0,3-1.3,3-3V2c0-1.7-1.3-3-3-3H28z"/>
		</g>
		<g>
			<path id="c" style="fill:#E7EBEE;" d="M17,8h65c2.2,0,4,1.8,4,4v22.5c0,2.2-1.8,4-4,4H17c-2.2,0-4-1.8-4-4V12C13,9.8,14.8,8,17,8
				z"/>
		</g>
		<g>
			<path style="fill:#C4CDD5;" d="M81,37.5H18c-2.8,0-5-2.2-5-5V12c0-2.8,2.2-5,5-5h63c2.8,0,5,2.2,5,5v20.5
				C86,35.3,83.8,37.5,81,37.5z M18,9c-1.7,0-3,1.3-3,3v20.5c0,1.7,1.3,3,3,3h63c1.7,0,3-1.3,3-3V12c0-1.7-1.3-3-3-3H18z"/>
		</g>
		<g>
			<path style="fill:#C4CDD5;" d="M94,58H6c-3.3,0-6-2.7-6-6V17l0.1-0.2L21-17h58l21,34v35C100,55.3,97.3,58,94,58z M2,17.6V52
				c0,2.2,1.8,4,4,4h88c2.2,0,4-1.8,4-4V17.6L77.9-15H22.1L2,17.6z"/>
		</g>
		<path style="opacity:5.000000e-02;enable-background:new    ;" d="M7,43h86c3.9,0,7,3.1,7,7v8c0,3.9-3.1,7-7,7H7c-3.9,0-7-3.1-7-7
			v-8C0,46.1,3.1,43,7,43z"/>
		<g>
			<g>
				<path id="d" style="fill:#FFFFFF;" d="M32,17v8.5c0,4.7,3.8,8.5,8.5,8.5h19c4.7,0,8.5-3.8,8.5-8.5c0,0,0,0,0,0V17h32v34
					c0,5-4,9-9,9H9c-5,0-9-4-9-9V17H32z"/>
			</g>
			<g>
				<path style="fill:#C4CDD5;" d="M9,60c-5,0-9-4-9-9V17h32v8.5c0,4.7,3.8,8.5,8.5,8.5h19c4.7,0,8.5-3.8,8.5-8.5V17h32v34
					c0,5-4,9-9,9c0,0,0,0,0,0H9z M2,19v32c0,3.9,3.1,7,7,7h82c0,0,0,0,0,0c3.9,0,7-3.1,7-7V19H70v6.5C70,31.3,65.3,36,59.5,36h-19
					C34.7,36,30,31.3,30,25.5V19H2z"/>
			</g>
		</g>
	</g>
	<g transform="translate(96 63)">
		<ellipse style="fill:none;stroke:#C4CDD5;stroke-width:2;" cx="2.9" cy="-7.9" rx="2.9" ry="2.9"/>
		<ellipse style="fill:none;stroke:#C4CDD5;stroke-width:2;" cx="33.4" cy="-7.4" rx="2.3" ry="2.4"/>
		<ellipse style="fill:#C4CDD5;" cx="43.7" cy="-14.6" rx="2.3" ry="2.3"/>
	</g>
</g>
</svg>
