<?xml version="1.0" encoding="utf-8"?>
<!-- Generator: Adobe Illustrator 22.0.1, SVG Export Plug-In . SVG Version: 6.00 Build 0)  -->
<svg version="1.1" id="Layer_1" xmlns="http://www.w3.org/2000/svg" xmlns:xlink="http://www.w3.org/1999/xlink" x="0px" y="0px"
	 viewBox="0 0 230 200" style="enable-background:new 0 0 230 200;" xml:space="preserve">
<g>
	<path style="fill:#637381;fill-opacity:5.000000e-02;" d="M115,195c52.5,0,95-42.5,95-95S167.5,5,115,5s-95,42.5-95,95
		S62.5,195,115,195z"/>
	<path style="fill:#C4CDD5;" d="M130.2,61.8c-0.3,0.3-0.8,0.3-1.2,0l0,0l-8.5-8.4c0.4-0.4,0.9-0.8,1.2-1.3l8.4,8.4
		C130.5,61,130.5,61.5,130.2,61.8 M98.8,42.7c0-6.7,5.4-12.1,12.1-12.1S123,36,123,42.7s-5.4,12.1-12.1,12.1
		C104.3,54.8,98.8,49.4,98.8,42.7 M131.8,59.1l-8.6-8.7c1.5-2.3,2.2-5,2.2-7.7c0-8-6.5-14.4-14.4-14.4s-14.4,6.5-14.4,14.5
		s6.5,14.4,14.4,14.4c2.7,0,5.4-0.8,7.7-2.3l8.7,8.6c0.6,0.6,1.4,0.9,2.2,0.9s1.6-0.3,2.2-0.9C133,62.3,133,60.3,131.8,59.1"/>
</g>
<g transform="translate(65 83)">
	<path style="fill:#E7EBEE;" d="M78.9-0.3l21.1,34v35c0,3.3-2.7,6-6,6h-88c-3.3,0-6-2.7-6-6v-35L21-0.3H78.9z"/>
	<path style="opacity:5.000000e-02;enable-background:new    ;" d="M20.6,0.7l-20.6,34v12.4h20.6V0.7z M77.3,0.7l20.6,34v12.4H77.3
		V0.7z"/>
	<g>
		<path id="a_1_" style="fill:#E7EBEE;" d="M36.9,5.7h25c2.2,0,4,1.8,4,4v22.5c0,2.2-1.8,4-4,4h-25c-2.2,0-4-1.8-4-4V9.7
			C32.9,7.5,34.7,5.7,36.9,5.7z"/>
	</g>
	<g>
		<path style="fill:#C4CDD5;" d="M60.9,36.2h-23c-2.8,0-5-2.2-5-5V10.7c0-2.8,2.2-5,5-5h23c2.8,0,5,2.2,5,5v20.5
			C65.9,34,63.7,36.2,60.9,36.2z M37.9,7.7c-1.7,0-3,1.3-3,3v20.5c0,1.7,1.3,3,3,3h23c1.7,0,3-1.3,3-3V10.7c0-1.7-1.3-3-3-3H37.9z"
			/>
	</g>
	<g>
		<path id="b_1_" style="fill:#E7EBEE;" d="M26.9,13.7h45c2.2,0,4,1.8,4,4v22.5c0,2.2-1.8,4-4,4h-45c-2.2,0-4-1.8-4-4V17.7
			C22.9,15.5,24.7,13.7,26.9,13.7z"/>
	</g>
	<g>
		<path style="fill:#C4CDD5;" d="M70.9,44.2h-43c-2.8,0-5-2.2-5-5V18.7c0-2.8,2.2-5,5-5h43c2.8,0,5,2.2,5,5v20.5
			C75.9,42,73.7,44.2,70.9,44.2z M27.9,15.7c-1.7,0-3,1.3-3,3v20.5c0,1.7,1.3,3,3,3h43c1.7,0,3-1.3,3-3V18.7c0-1.7-1.3-3-3-3H27.9z"
			/>
	</g>
	<g>
		<path id="c_1_" style="fill:#E7EBEE;" d="M16.9,24.7h65c2.2,0,4,1.8,4,4v22.5c0,2.2-1.8,4-4,4h-65c-2.2,0-4-1.8-4-4V28.7
			C12.9,26.5,14.7,24.7,16.9,24.7z"/>
	</g>
	<g>
		<path style="fill:#C4CDD5;" d="M80.9,54.2h-63c-2.8,0-5-2.2-5-5V28.7c0-2.8,2.2-5,5-5h63c2.8,0,5,2.2,5,5v20.5
			C85.9,52,83.7,54.2,80.9,54.2z M17.9,25.7c-1.7,0-3,1.3-3,3v20.5c0,1.7,1.3,3,3,3h63c1.7,0,3-1.3,3-3V28.7c0-1.7-1.3-3-3-3H17.9z"
			/>
	</g>
	<g>
		<path style="fill:#C4CDD5;" d="M93.9,74.7h-88c-3.3,0-6-2.7-6-6v-35l0.1-0.2L20.9-0.3h58l21,34v35C99.9,72.1,97.2,74.7,93.9,74.7z
			 M1.9,34.3v34.4c0,2.2,1.8,4,4,4h88c2.2,0,4-1.8,4-4V34.3L77.8,1.7H22L1.9,34.3z"/>
	</g>
	<path style="opacity:5.000000e-02;enable-background:new    ;" d="M6.9,59.7h86c3.9,0,7,3.1,7,7v8c0,3.9-3.1,7-7,7h-86
		c-3.9,0-7-3.1-7-7v-8C-0.1,62.9,3.1,59.7,6.9,59.7z"/>
	<g>
		<g>
			<path id="d_1_" style="fill:#FFFFFF;" d="M31.9,33.7v8.5c0,4.7,3.8,8.5,8.5,8.5h19c4.7,0,8.5-3.8,8.5-8.5c0,0,0,0,0,0v-8.5h32v34
				c0,5-4,9-9,9h-82c-5,0-9-4-9-9v-34H31.9z"/>
		</g>
		<g>
			<path style="fill:#C4CDD5;" d="M8.9,76.7c-5,0-9-4-9-9v-34h32v8.5c0,4.7,3.8,8.5,8.5,8.5h19c4.7,0,8.5-3.8,8.5-8.5v-8.5h32v34
				c0,5-4,9-9,9c0,0,0,0,0,0H8.9z M1.9,35.7v32c0,3.9,3.1,7,7,7h82c0,0,0,0,0,0c3.9,0,7-3.1,7-7v-32h-28v6.5
				c0,5.8-4.7,10.5-10.5,10.5h-19c-5.8,0-10.5-4.7-10.5-10.5v-6.5H1.9z"/>
		</g>
	</g>
</g>
<g transform="translate(96 63)">
	<ellipse style="fill:none;stroke:#C4CDD5;stroke-width:2;" cx="2.8" cy="8.8" rx="2.9" ry="2.9"/>
	<ellipse style="fill:none;stroke:#C4CDD5;stroke-width:2;" cx="33.3" cy="9.3" rx="2.3" ry="2.4"/>
	<ellipse style="fill:#C4CDD5;" cx="43.6" cy="2.1" rx="2.3" ry="2.3"/>
</g>
</svg>
