<svg width="16px" height="16px" viewBox="0 0 16 16" version="1.1" xmlns="http://www.w3.org/2000/svg" xmlns:xlink="http://www.w3.org/1999/xlink" >
    <path fill="#F25A6B" d="M8,16 C3.581722,16 0,12.418278 0,8 C0,3.581722 3.581722,0 8,0 C12.418278,0 16,3.581722 16,8 C16,12.418278 12.418278,16 8,16 Z M8,4 C7.44771525,4 7,4.44771525 7,5 L7,7.5 C7,8.05228475 7.44771525,8.5 8,8.5 C8.55228475,8.5 9,8.05228475 9,7.5 L9,5 C9,4.44771525 8.55228475,4 8,4 Z M8,12 C8.55228475,12 9,11.5522847 9,11 C9,10.4477153 8.55228475,10 8,10 C7.44771525,10 7,10.4477153 7,11 C7,11.5522847 7.44771525,12 8,12 Z"></path>
</svg>