<?xml version="1.0" encoding="UTF-8"?>
<svg width="25px" height="24px" viewBox="0 0 25 24" version="1.1" xmlns="http://www.w3.org/2000/svg" xmlns:xlink="http://www.w3.org/1999/xlink">
    <!-- Generator: Sketch 48.2 (47327) - http://www.bohemiancoding.com/sketch -->
    <title>Group 5</title>
    <desc>Created with Sketch.</desc>
    <defs></defs>
    <g id="Attachments---Documents---Uploading" stroke="none" stroke-width="1" fill="none" fill-rule="evenodd" transform="translate(-578.000000, -246.000000)">
        <g id="Group-3" transform="translate(467.000000, 124.000000)" fill="" fill-rule="nonzero">
            <g id="Group-10" transform="translate(111.000000, 122.000000)">
                <path d="M13,22.5 C12.1715729,22.5 11.5,21.8284271 11.5,21 C11.5,20.1715729 12.1715729,19.5 13,19.5 C17.1421356,19.5 20.5,16.1421356 20.5,12 C20.5,7.85786438 17.1421356,4.5 13,4.5 C8.85786438,4.5 5.5,7.85786438 5.5,12 C5.5,14.9867342 7.26136471,17.6514251 9.94089692,18.8502136 C10.697095,19.188527 11.0358575,20.0758038 10.6975441,20.8320019 C10.3592308,21.5882 9.47195389,21.9269625 8.7157558,21.5886491 C4.96598665,19.9110503 2.5,16.1803679 2.5,12 C2.5,6.20101013 7.20101013,1.5 13,1.5 C18.7989899,1.5 23.5,6.20101013 23.5,12 C23.5,17.7989899 18.7989899,22.5 13,22.5 Z" id="progress-spinner"></path>
            </g>
        </g>
    </g>
</svg>