<?xml version="1.0" encoding="utf-8"?>
<!-- Generator: Adobe Illustrator 22.0.1, SVG Export Plug-In . SVG Version: 6.00 Build 0)  -->
<svg version="1.1" id="Layer_1" xmlns="http://www.w3.org/2000/svg" xmlns:xlink="http://www.w3.org/1999/xlink" x="0px" y="0px"
	 viewBox="0 0 505.7 90.8" style="enable-background:new 0 0 505.7 90.8;" xml:space="preserve">
<style type="text/css">
	.st0{fill:none;}
	.st1{fill:#FFFFFF;}
</style>
<g>
	<g id="Desktop-HD">
		<g id="Page-1" transform="translate(0.000000, -0.807977)">
			<g id="Group-721" transform="translate(0.000000, 0.422214)">
				<g id="Clip-136">
				</g>
				<g id="Clip-145">
				</g>
				<g id="Clip-194">
				</g>
				<g id="Clip-217">
				</g>
				<g id="Clip-230">
				</g>
				<g id="Clip-259">
				</g>
				<g id="Clip-266">
				</g>
				<g id="Clip-283">
				</g>
				<g id="Clip-354">
				</g>
				<g id="Clip-357">
				</g>
				<g id="Clip-386">
				</g>
				<g id="Clip-425">
				</g>
				<g id="Clip-430">
				</g>
				<g id="Clip-609">
				</g>
				<g id="Clip-636">
				</g>
				<g id="Clip-641">
				</g>
				<g id="Clip-662">
				</g>
				<g id="Clip-693">
				</g>
				<g id="Clip-712">
				</g>
				<g id="Clip-719">
				</g>
			</g>
		</g>
		<g id="Page-1_1_" transform="translate(482.000000, -233.307977)">
			<g id="Group-721_1_" transform="translate(0.000000, 0.414825)">
				<g id="Clip-145_1_">
				</g>
				<g id="Clip-194_1_">
				</g>
				<g id="Clip-259_1_">
				</g>
				<g id="Clip-266_1_">
				</g>
				<g id="Clip-283_1_">
				</g>
				<g id="Clip-354_1_">
				</g>
				<g id="Clip-357_1_">
				</g>
				<g id="Clip-425_1_">
				</g>
				<g id="Clip-609_1_">
				</g>
				<g id="Clip-636_1_">
				</g>
				<g id="Clip-641_1_">
				</g>
				<g id="Clip-693_1_">
				</g>
			</g>
		</g>
		<g id="Page-1-Copy" transform="translate(482.000000, 239.692023)">
			<g id="Group-721_2_" transform="translate(0.000000, 0.414825)">
				<g id="Clip-136_1_">
				</g>
				<g id="Clip-217_1_">
				</g>
				<g id="Clip-230_1_">
				</g>
				<g id="Group-267_2_" transform="translate(5.000000, 240.657524)">
				</g>
				<g id="Clip-386_1_">
				</g>
				<g id="Clip-430_1_">
				</g>
				<g id="Clip-662_1_">
				</g>
				<g id="Clip-712_1_">
				</g>
				<g id="Clip-719_1_">
				</g>
			</g>
		</g>
	</g>
</g>
<g>
	<path class="st0" d="M59.1,76.9L57,78.1c0.3,0.2,0.6,0.4,0.8,0.7L66.7,90h3.9l-10-12.6C60.1,76.8,59.5,76.7,59.1,76.9z"/>
	<path class="st0" d="M448.7,87.4c-0.3-0.1-0.7,0-1,0.1h-0.1l-3,1.8c0.5,0.2,0.9,0.4,1.2,0.7h4.5c0-0.1,0-0.2,0-0.3
		C450.3,89.2,450.1,87.8,448.7,87.4z"/>
	<path class="st0" d="M35.5,89.7c-0.4,0-0.7,0.1-1,0.3h2.3c-0.2-0.1-0.4-0.2-0.6-0.2C35.9,89.7,35.7,89.7,35.5,89.7z"/>
	<path class="st0" d="M55.8,78.9C55.8,78.9,55.8,78.9,55.8,78.9l-1.1,0.6l-11.3,8.1l1.9,2.5h19.8l-8.4-10.5
		C56.6,79.1,56.2,78.9,55.8,78.9z"/>
	<path class="st0" d="M73.6,70.6c-0.2,0-0.4-0.1-0.5-0.1c-0.3,0-0.6,0.1-0.8,0.3c-0.3,0.2-0.5,0.6-0.5,1.1c0,1.1,1,2.4,2.1,2.7
		c0.5,0.1,1,0.1,1.3-0.2c0.3-0.2,0.5-0.6,0.5-1.1C75.7,72.2,74.7,70.9,73.6,70.6z"/>
	<path class="st0" d="M148.4,62.7c0.3,0.1,0.5,0.1,0.7,0.1c1,0,1.7-0.6,1.6-1.7c0-1.5-1.3-3.1-2.8-3.5c-0.3-0.1-0.5-0.1-0.7-0.1
		c-1,0-1.6,0.6-1.6,1.7C145.6,60.7,146.9,62.3,148.4,62.7z"/>
	<polygon class="st0" points="43.2,90 43.9,90 43.2,89.2 	"/>
	<path class="st0" d="M20.4,90h5.2l-4.4-1.2C21,89.3,20.7,89.7,20.4,90z"/>
	<path class="st0" d="M17.3,84.4c-0.3-0.1-0.5-0.1-0.7-0.1c-1,0-1.6,0.6-1.6,1.7c0,1.5,1.3,3.1,2.8,3.5c0.3,0.1,0.5,0.1,0.7,0.1
		c1,0,1.6-0.7,1.6-1.7C20.1,86.4,18.8,84.8,17.3,84.4z"/>
	<path class="st0" d="M79,62.1c0-1.6-1.4-3.4-3-3.8l-36.2-9.7c-0.6-0.1-1.1-0.1-1.6,0.1l-0.3,0.2l0,0c0,0,0,0-0.1,0
		c-0.5,0.4-0.7,1-0.7,1.7v5.6L79,67.4V62.1z M64.5,60.7c-0.3,0.3-0.7,0.4-1.1,0.4c-0.2,0-0.3,0-0.5-0.1l-10-2.7
		C51.8,58,51,57,51,55.9c0-0.6,0.2-1.1,0.6-1.4c0.4-0.3,1-0.4,1.6-0.3l10,2.7c1.1,0.3,1.9,1.3,1.9,2.4
		C65.1,59.9,64.9,60.4,64.5,60.7z M70.5,62.2c-0.3,0.3-0.7,0.4-1,0.4c-0.2,0-0.3,0-0.5-0.1c-1-0.3-1.7-1.2-1.7-2.2
		c0-0.5,0.2-1,0.6-1.3c0.4-0.3,0.9-0.4,1.5-0.3c1,0.3,1.7,1.2,1.7,2.2C71.1,61.4,70.9,61.9,70.5,62.2z"/>
	<path class="st0" d="M69,60c-0.1-0.1-0.1-0.1-0.2-0.1s-0.2,0-0.2,0.1c-0.1,0.1-0.1,0.2-0.1,0.3c0,0.4,0.4,0.9,0.9,1.1
		c0.2,0,0.3,0,0.4,0c0.1-0.1,0.1-0.2,0.1-0.3C69.9,60.7,69.5,60.2,69,60z"/>
	<path class="st0" d="M37.1,57.4v31.5c0.6,0.2,1.2,0.7,1.7,1.2H42v-1.8c0-0.6,0.3-1.2,0.7-1.5l11.4-8.2l0,0l0.2-0.1l0.4-0.3
		c0.1-0.1,0.3-0.2,0.4-0.2l3.3-1.9c0.9-0.6,2.2-0.3,3.1,0.8L72,90h7V68.7L37.1,57.4z M76,75.3c-0.5,0.4-1,0.5-1.6,0.5
		c-0.3,0-0.5,0-0.8-0.1c-1.7-0.5-3-2.1-3-3.8c0-0.9,0.3-1.6,1-2.1c0.6-0.5,1.5-0.6,2.4-0.4c1.7,0.5,3,2.1,3,3.8
		C77,74.1,76.7,74.8,76,75.3z"/>
	<path class="st0" d="M83,59.1c0-1.6-1.4-3.4-3-3.8l-36.2-9.7c-1.2-0.3-1.9,0.2-1.9,0.3l-2.1,1.6c0.1,0,0.2,0,0.3,0l36.2,9.6
		c2.2,0.6,3.9,2.8,3.9,5V90H83V59.1z"/>
	<path class="st0" d="M62.9,58.1l-10-2.7c-0.1,0-0.1,0-0.2,0c-0.1,0-0.2,0-0.3,0.1c-0.1,0.1-0.2,0.3-0.2,0.4c0,0.5,0.5,1.1,1,1.3
		l10,2.7c0.2,0.1,0.4,0,0.5-0.1c0.1-0.1,0.2-0.3,0.2-0.4C63.9,58.9,63.4,58.3,62.9,58.1z"/>
	<path class="st0" d="M250.6,17.6c-0.9-0.2-1.8-0.3-2.6-0.3c-1.7,0-3.2,0.5-4.5,1.4c-1.8,1.4-2.7,3.5-2.7,6.1
		c0,5.6,4.5,11.3,10.1,12.8c2.7,0.7,5.2,0.3,7.1-1.1c1.8-1.4,2.7-3.5,2.7-6.1C260.7,24.8,256.2,19.1,250.6,17.6z"/>
	<path class="st0" d="M266.5,25.1c-0.3-0.1-0.5-0.1-0.7-0.1c-1,0-1.6,0.6-1.6,1.7c0,1.5,1.3,3.1,2.8,3.5c0.3,0.1,0.5,0.1,0.7,0.1
		c1,0,1.6-0.7,1.6-1.7C269.3,27.1,268,25.5,266.5,25.1z"/>
	<path class="st0" d="M151.9,60.6L172,66V27.5v-0.7c-1.3-0.6-2.4-2-2.6-3.4l-0.6-0.2l-20-5.4v38.8C150.4,57.3,151.7,59,151.9,60.6z"
		/>
	<path class="st0" d="M232.1,80.6c-1,0-1.6,0.6-1.6,1.7c0,1.5,1.3,3.1,2.8,3.5c0.3,0.1,0.5,0.1,0.7,0.1c1,0,1.7-0.7,1.6-1.7
		c0-1.5-1.3-3.1-2.8-3.5C232.5,80.6,232.3,80.6,232.1,80.6z"/>
	<path class="st0" d="M301.6,57.1c0.3,0.1,0.5,0.1,0.7,0.1c1,0,1.6-0.7,1.6-1.7c0-1.5-1.3-3.1-2.8-3.5c-1.3-0.4-2.3,0.3-2.3,1.6
		C298.8,55.1,300.1,56.7,301.6,57.1z"/>
	<path class="st0" d="M266.7,31.4c-2-0.5-3.6-2.6-3.6-4.6c0-1.3,0.7-2.3,1.7-2.7c-0.8-1.6-1.7-3.1-2.8-4.4
		c-6.4-8.1-16.3-10.8-22.7-6.2c-2.5,1.8-4.1,4.6-4.6,7.9c-0.7,4.8,0.9,10.2,4.5,14.8c0.4,0.5,7.5,9.5,11.6,14.7c1.2-0.9,2.6-1.9,4-3
		l0,0c0.7-0.5,1.6-1.1,2.4-1.7c2.7-1.9,4.9-3.6,5.1-3.7C265.5,40.1,267.1,36.1,266.7,31.4C266.8,31.4,266.7,31.4,266.7,31.4z
		 M258.7,37.5c-1.5,1.1-3.3,1.7-5.2,1.7c-0.9,0-1.9-0.1-2.9-0.4c-6.1-1.6-11-7.9-11-14c0-2.9,1.1-5.4,3.2-7c2.2-1.7,5-2.1,8.1-1.3
		c6.1,1.6,11,7.9,11,14C261.9,33.4,260.8,35.9,258.7,37.5z"/>
	<path class="st0" d="M322.5,63.4c0.3,0.1,0.5,0.1,0.7,0.1c1,0,1.6-0.7,1.6-1.7c0-1.5-1.3-3.1-2.8-3.5c-0.3-0.1-0.5-0.1-0.7-0.1
		c-1,0-1.6,0.6-1.6,1.7C319.7,61.4,321,63,322.5,63.4z"/>
	<path class="st0" d="M320.2,87.2c-0.5,0.4-0.8,1-0.8,1.7V90h14.8l-12.1-3.2C321.5,86.6,320.8,86.8,320.2,87.2z"/>
	<path class="st0" d="M302.3,39.6c1,0,1.6-0.7,1.6-1.7c0-1.5-1.3-3.1-2.8-3.5c-0.3-0.1-0.5-0.1-0.7-0.1c-1,0-1.6,0.6-1.6,1.7
		c0,1.5,1.3,3.1,2.8,3.5C301.9,39.6,302.1,39.6,302.3,39.6z"/>
	<path class="st0" d="M230.5,61c0,1.5,1.3,3.1,2.8,3.5h0.4v0.1c0.1,0,0.2,0,0.3,0c1,0,1.7-0.7,1.6-1.7c0-1.5-1.3-3.1-2.8-3.5
		c-0.3-0.1-0.5-0.1-0.7-0.1C231.1,59.3,230.5,59.9,230.5,61z"/>
	<path class="st0" d="M70.6,18.1C70.3,18,70.1,18,69.9,18c-1,0-1.6,0.6-1.6,1.7c0,1.5,1.3,3.1,2.8,3.5c0.3,0.1,0.5,0.1,0.7,0.1
		c0.9,0,1.6-0.7,1.6-1.7C73.4,20.1,72.1,18.5,70.6,18.1z"/>
	<path class="st0" d="M172.9,25.8c0.9,0.2,1.5-0.2,1.5-1.1c0-1.2-1.1-2.6-2.3-2.9c-0.1,0-0.3,0-0.5,0c-0.7,0-1,0.4-1,1.1
		C170.6,24.1,171.7,25.5,172.9,25.8z"/>
	<path class="st0" d="M173.2,79.6c0,0.8,0.5,1.5,1.2,1.9c0.7,0.4,1.6,0.3,2.2-0.2l12.8-9.4l-16.2-4.3V79.6z"/>
	<path class="st0" d="M19.8,21.9c-0.3-0.1-0.5-0.1-0.7-0.1c-1,0-1.6,0.6-1.6,1.7c0,1.5,1.3,3.1,2.8,3.5c0.3,0.1,0.5,0.1,0.7,0.1
		c1,0,1.7-0.7,1.6-1.7C22.6,23.9,21.3,22.3,19.8,21.9z"/>
	<path class="st0" d="M232.2,79.5c0.1,0,0.2,0,0.3,0v-14c-1.8-0.7-3.1-2.6-3.1-4.4c0-1.7,1.2-2.9,2.8-2.9c0.1,0,0.3,0,0.4,0V46.1
		c0-0.8-0.5-1.5-1.2-1.9c-0.7-0.4-1.6-0.3-2.2,0.2l-37,27.1l37.3,10C229.9,80.3,230.9,79.5,232.2,79.5z"/>
	<path class="st0" d="M42.1,10c-0.3-0.1-0.5-0.1-0.7-0.1c-1,0-1.6,0.6-1.6,1.7c0,1.5,1.3,3.1,2.8,3.5c0.3,0.1,0.5,0.1,0.7,0.1
		c1,0,1.6-0.6,1.6-1.7C44.9,12,43.6,10.4,42.1,10z"/>
	<path class="st0" d="M319.5,86.2c0.8-0.6,1.9-0.8,2.9-0.6L339,90h18.4l15.5-11.3c0.7-0.5,1-1.3,0.8-2.1s-0.8-1.5-1.6-1.7
		l-46.2-12.4c-0.3,1.3-1.3,2.2-2.7,2.2c-0.3,0-0.6,0-1-0.1c-0.8-0.2-1.6-0.7-2.2-1.3l-13.8,10.1c-0.6,0.5-1.3,0.7-2,0.7
		c-0.5,0-1-0.1-1.5-0.4c-1.1-0.6-1.8-1.7-1.8-3V58.2c-0.7-0.3-1.4-0.7-1.9-1.3l-20.8,15.3c-1.2,0.8-2.5,1.3-3.9,1.3
		c-0.6,0-1.1-0.1-1.7-0.2l-35.8-9.6c-0.2,1.3-1.3,2.2-2.8,2.2c-0.1,0-0.2,0-0.3,0v14c1.8,0.7,3.1,2.6,3.1,4.4
		c0.1,1.7-1.1,2.9-2.8,2.9c-0.3,0-0.6,0-1-0.1c-1.9-0.5-3.4-2.4-3.6-4.3L191,72.4l-13.7,10c-0.6,0.4-1.3,0.6-2,0.6
		c-0.5,0-1-0.1-1.5-0.4c-1.1-0.6-1.8-1.7-1.8-3V67.3l-20.2-5.4c-0.3,1.3-1.3,2.1-2.7,2.1c-0.3,0-0.6,0-1-0.1c-1.8-0.4-3.3-2.2-3.5-4
		l-15.9-4.2c-0.6-0.2-1.3,0-1.9,0.4c-0.5,0.4-0.8,1-0.8,1.7c0,0,0,17.1,0,32.2h192.2v-1.1C318.2,87.9,318.7,86.9,319.5,86.2z"/>
	<path class="st0" d="M392.9,32.7c0-1.5-1.3-3.1-2.8-3.5c-0.3-0.1-0.5-0.1-0.7-0.1c-1,0-1.6,0.6-1.6,1.7c0,1.5,1.3,3.1,2.8,3.5
		c0.3,0.1,0.5,0.1,0.7,0.1C392.3,34.4,392.9,33.7,392.9,32.7z"/>
	<path class="st0" d="M484.7,3.2c-1.3-0.4-2.3,0.3-2.3,1.6c0,1.4,1.2,3,2.7,3.4c0.2,0.1,0.4,0.1,0.6,0.1c1,0,1.7-0.7,1.7-1.7
		C487.4,5.2,486.2,3.6,484.7,3.2z"/>
	<path class="st0" d="M425.1,76c0.3,0.1,0.5,0.1,0.7,0.1c1,0,1.6-0.6,1.6-1.7c0-1.5-1.3-3.1-2.8-3.5c0,0,0,0,0,0h-0.3v-0.1
		c-1.1-0.2-2,0.5-2,1.7C422.3,74,423.6,75.6,425.1,76z"/>
	<path class="st0" d="M462.4,67c0.3,0.1,0.5,0.1,0.7,0.1c1,0,1.6-0.7,1.6-1.7c0-1.5-1.3-3.1-2.8-3.5c-0.3-0.1-0.5-0.1-0.7-0.1
		c-1,0-1.6,0.6-1.6,1.7C459.6,65,460.9,66.6,462.4,67z"/>
	<path class="st1" d="M250.9,16.5c-3.1-0.8-5.9-0.4-8.1,1.3c-2.1,1.6-3.2,4.1-3.2,7c0,6.1,4.9,12.4,11,14c1,0.3,2,0.4,2.9,0.4
		c1.9,0,3.7-0.6,5.2-1.7c2.1-1.6,3.2-4.1,3.2-7C261.9,24.4,257,18.1,250.9,16.5z M258,36.5c-1.9,1.4-4.4,1.8-7.1,1.1
		c-5.6-1.5-10.1-7.2-10.1-12.8c0-2.6,0.9-4.7,2.7-6.1c1.3-0.9,2.8-1.4,4.5-1.4c0.8,0,1.7,0.1,2.6,0.3c5.6,1.5,10.1,7.2,10.1,12.8
		C260.7,33,259.8,35.1,258,36.5z"/>
	<path class="st1" d="M74,69.4c-0.9-0.2-1.8-0.1-2.4,0.4c-0.7,0.5-1,1.2-1,2.1c0,1.7,1.3,3.3,3,3.8c0.3,0.1,0.5,0.1,0.8,0.1
		c0.6,0,1.1-0.1,1.6-0.5c0.7-0.5,1-1.2,1-2.1C77,71.5,75.7,69.9,74,69.4z M75.2,74.4c-0.3,0.3-0.8,0.3-1.3,0.2
		c-1.1-0.3-2.1-1.6-2.1-2.7c0-0.5,0.2-0.9,0.5-1.1c0.2-0.2,0.5-0.3,0.8-0.3c0.1,0,0.3,0.1,0.5,0.1c1.1,0.3,2.1,1.6,2.1,2.7
		C75.7,73.8,75.5,74.2,75.2,74.4z"/>
	<path class="st1" d="M43.2,89.2l0.7,0.9h1.5l-1.9-2.5l11.3-8.1l1-0.6c0,0,0.1,0,0.1,0c0.4,0,0.8,0.2,1,0.6L65.2,90h1.6l-8.9-11.2
		c-0.2-0.3-0.5-0.5-0.8-0.7l2.1-1.2c0.4-0.2,1-0.1,1.5,0.5l10,12.6H72L61.5,76.8c-0.9-1.1-2.2-1.4-3.1-0.8l-3.3,1.9
		C55,78,54.9,78,54.7,78.1l-0.4,0.3l-0.2,0.1l0,0l-11.4,8.2C42.3,87,42,87.6,42,88.2V90h1.2V89.2z"/>
	<path class="st1" d="M69.4,58.7c-0.6-0.1-1.1,0-1.5,0.3c-0.4,0.3-0.6,0.8-0.6,1.3c0,1,0.7,1.9,1.7,2.2c0.2,0.1,0.3,0.1,0.5,0.1
		c0.3,0,0.7-0.1,1-0.4c0.4-0.3,0.6-0.8,0.6-1.3C71.1,59.9,70.4,59,69.4,58.7z M69.8,61.4c-0.1,0-0.2,0-0.4,0
		c-0.5-0.2-0.9-0.7-0.9-1.1c0-0.1,0-0.2,0.1-0.3c0-0.1,0.1-0.1,0.2-0.1s0.1,0,0.2,0.1c0.5,0.2,0.9,0.7,0.9,1.1
		C69.9,61.2,69.9,61.3,69.8,61.4z"/>
	<path class="st1" d="M63.2,56.9l-10-2.7c-0.6-0.1-1.2,0-1.6,0.3c-0.4,0.3-0.6,0.8-0.6,1.4c0,1.1,0.8,2.1,1.9,2.4l10,2.7
		c0.2,0.1,0.3,0.1,0.5,0.1c0.4,0,0.8-0.1,1.1-0.4c0.4-0.3,0.6-0.8,0.6-1.4C65.1,58.2,64.3,57.2,63.2,56.9z M63.7,59.8
		c-0.1,0.1-0.3,0.2-0.5,0.1l-10-2.7c-0.5-0.2-1-0.8-1-1.3c0-0.1,0.1-0.3,0.2-0.4c0.1-0.1,0.2-0.1,0.3-0.1c0.1,0,0.1,0,0.2,0l10,2.7
		c0.5,0.2,1,0.8,1,1.3C63.9,59.5,63.8,59.7,63.7,59.8z"/>
	<path class="st1" d="M444.6,89.3l3-1.8h0.1c0.3-0.1,0.7-0.2,1-0.1c1.4,0.4,1.6,1.8,1.6,2.3c0,0.1,0,0.2,0,0.3h1.1
		c0-0.2,0-0.3,0-0.4c0-1.7-0.9-3-2.5-3.4c-0.4-0.1-0.8-0.1-1.2,0v-0.1l-5.4,3.2l0.1,0.2c-0.1,0.1-0.2,0.1-0.3,0.2
		c-0.1,0.1-0.2,0.2-0.4,0.3h4.1C445.5,89.7,445.1,89.5,444.6,89.3z"/>
	<path class="st1" d="M422.6,75.8c0.6,0.6,1.4,1.1,2.2,1.4c0.4,0.1,0.7,0.1,1,0.1c1.6,0,2.8-1.2,2.8-2.9c0-0.8-0.3-1.7-0.7-2.4
		l13.8-10.1c1.3-1,3-1.3,4.6-0.9l12.3,3.4c0.4,1.7,1.8,3.3,3.5,3.8c0.4,0.1,0.7,0.1,1,0.1c1.3,0,2.4-0.8,2.7-2.1l14.9,4l0.3-1.2
		L465.9,65c-0.2-1.7-1.4-3.4-3.1-4V40.3c0-3-2-5.6-4.9-6.4l-7.4-2c-2.4-0.6-4-2.8-4-5.2V0h-1.2v26.6c0,3,2,5.6,4.9,6.4l7.4,2
		c2.4,0.6,4,2.8,4,5.2v20.5c-0.1,0-0.2,0-0.3,0c-1.4,0-2.6,1-2.8,2.4l-11.9-3.2c-1.9-0.6-4-0.2-5.6,1l-13.9,10.2
		c-0.5-0.5-1-0.8-1.6-1.1V57.6c0-3-2-5.6-4.9-6.4L395,44.3c-2.4-0.6-4-2.8-4-5.2v-3.5c0.1,0,0.2,0,0.3,0c1.7,0,2.8-1.2,2.8-2.9
		c0-1.8-1.3-3.7-3.1-4.4v-1.7c0-1.7,0.8-3.3,2.2-4.3L423.8,0h-2l-29.2,21.4c-1.7,1.2-2.7,3.2-2.7,5.3V28c-0.1,0-0.2,0-0.3,0
		c-1.4,0-2.5,0.9-2.7,2.2l-28.2-7.5c-0.9-0.3-1.6-1.1-1.6-2.1V0h-1.2v20.6c0,1.5,1,2.8,2.5,3.2l28.5,7.6c0.2,1.7,1.5,3.3,3,3.9v3.8
		c0,3,2,5.6,4.9,6.4l25.6,6.9c2.4,0.6,4,2.8,4,5.2v12.1c-0.1,0-0.2,0-0.3,0c-1.6,0-2.8,1.2-2.8,2.9c0,0.8,0.2,1.6,0.7,2.3L401.2,90
		h2L422.6,75.8z M461.2,61.8c0.2,0,0.4,0,0.7,0.1c1.5,0.4,2.8,2,2.8,3.5c0,1-0.6,1.7-1.6,1.7c-0.2,0-0.4,0-0.7-0.1
		c-1.5-0.4-2.8-2-2.8-3.5C459.6,62.4,460.2,61.8,461.2,61.8z M387.8,30.8c0-1.1,0.6-1.7,1.6-1.7c0.2,0,0.4,0,0.7,0.1
		c1.5,0.4,2.8,2,2.8,3.5c0,1-0.6,1.7-1.6,1.7c-0.2,0-0.4,0-0.7-0.1C389.1,33.9,387.8,32.3,387.8,30.8z M424.3,70.8L424.3,70.8
		l0.3,0.1c0,0,0,0,0,0c1.5,0.4,2.8,2,2.8,3.5c0,1.1-0.6,1.7-1.6,1.7c-0.2,0-0.4,0-0.7-0.1c-1.5-0.4-2.8-2-2.8-3.5
		C422.3,71.3,423.2,70.6,424.3,70.8z"/>
	<path class="st1" d="M35.5,89.7c0.2,0,0.4,0,0.7,0.1c0.2,0.1,0.4,0.1,0.6,0.2h2c-0.5-0.5-1.1-0.9-1.7-1.2V57.4L79,68.7V90h1.2V62.1
		c0-2.2-1.7-4.4-3.9-5l-36.2-9.6c-0.1,0-0.2,0-0.3,0l2.1-1.6c0-0.1,0.7-0.6,1.9-0.3L80,55.3c1.6,0.4,3,2.2,3,3.8V90h1.2V59.1
		c0-2.2-1.7-4.4-3.9-5l-36.1-9.7c-1.9-0.5-3,0.5-3,0.5l-4,3l0,0c0,0-0.1,0-0.1,0.1c-0.8,0.6-1.2,1.5-1.2,2.6v38c-0.1,0-0.2,0-0.3,0
		c-1.1,0-2,0.6-2.4,1.4h1.3C34.8,89.8,35.1,89.7,35.5,89.7z M37.1,50.6c0-0.7,0.2-1.3,0.7-1.7c0,0,0,0,0.1,0l0,0l0.3-0.2
		c0.4-0.2,1-0.2,1.6-0.1L76,58.3c1.6,0.4,3,2.2,3,3.8v5.3L37.1,56.2V50.6z"/>
	<path class="st1" d="M126,57.8c0-0.7,0.3-1.3,0.8-1.7c0.6-0.4,1.3-0.6,1.9-0.4l15.9,4.2c0.3,1.8,1.7,3.5,3.5,4
		c0.4,0.1,0.7,0.1,1,0.1c1.4,0,2.5-0.8,2.7-2.1l20.2,5.4v12.3c0,1.3,0.7,2.4,1.8,3c0.5,0.3,1,0.4,1.5,0.4c0.7,0,1.4-0.2,2-0.6
		l13.7-10l38.4,10.3c0.1,1.9,1.7,3.9,3.6,4.3c0.4,0.1,0.7,0.1,1,0.1c1.7,0,2.9-1.2,2.8-2.9c0-1.8-1.3-3.7-3.1-4.4v-14
		c0.1,0,0.2,0,0.3,0c1.5,0,2.5-0.9,2.8-2.2l35.8,9.6c0.6,0.1,1.1,0.2,1.7,0.2c1.4,0,2.7-0.5,3.9-1.3L299,56.8
		c0.5,0.6,1.2,1.1,1.9,1.3v12.5c0,1.3,0.7,2.4,1.8,3c0.5,0.3,1,0.4,1.5,0.4c0.7,0,1.4-0.2,2-0.7L320,63.3c0.6,0.6,1.3,1.1,2.2,1.3
		c0.4,0.1,0.7,0.1,1,0.1c1.5,0,2.5-0.9,2.7-2.2l46.2,12.4c0.8,0.2,1.4,0.9,1.6,1.7s-0.1,1.6-0.8,2.1L357.4,90h2l14.2-10.4
		c1-0.7,1.5-2,1.3-3.3c-0.2-1.2-1.2-2.3-2.4-2.6L326,61.2c-0.3-1.8-1.7-3.5-3.5-4c-0.4-0.1-0.7-0.1-1-0.1c-1.6,0-2.8,1.2-2.8,2.9
		c0,0.8,0.3,1.6,0.7,2.3l-13.8,10.1c-0.6,0.5-1.5,0.6-2.2,0.2c-0.7-0.4-1.2-1.1-1.2-1.9V58.4c0.1,0,0.1,0,0.2,0
		c1.7,0,2.8-1.2,2.8-2.9c0-1.8-1.3-3.7-3.1-4.4V40.8c0.1,0,0.2,0,0.3,0c1.7,0,2.8-1.2,2.8-2.9c0-1.8-1.3-3.7-3.1-4.4V0h-1.2v33.2
		c-0.1,0-0.2,0-0.3,0c-1.3,0-2.4,0.9-2.7,2.1L270.5,28c-0.3-1.8-1.7-3.6-3.5-4c-0.3-0.1-0.6-0.1-0.9-0.1c-0.8-1.8-1.8-3.5-3-5
		c-5.2-6.5-12.6-9.7-18.8-8.7c6.4-4.1,15.9-1.3,22.1,6.6c2.3,2.9,3.9,6.3,4.5,9.7l1.2-0.3c-0.7-3.5-2.3-7.1-4.8-10.2
		c-6.8-8.6-17.5-11.4-24.3-6.4l-4.6,3.1l0.1,0.1c-2.5,2-4.2,4.9-4.7,8.4c-0.7,5.1,1,10.8,4.7,15.7c0.2,0.4,0.7,1.1,1.8,2.4
		l10.4,13.2l7.3-5.3c6.8-4.7,8.8-6.2,9.4-6.7v0.1c2.4-1.9,4.1-4.6,4.7-7.8l-1.2-0.2c-0.6,2.9-2,5.3-4.2,7c0,0-0.2,0.2-0.5,0.3
		c1.4-2.4,2-5.3,1.9-8.5c1.3-0.1,2.2-1,2.5-2.2l27.3,7.3c0.2,1.7,1.4,3.3,3.1,4v10.3c-0.1,0-0.2,0-0.3,0c-1.6,0-2.8,1.2-2.8,2.9
		c0,0.7,0.2,1.5,0.6,2.1l-20.8,15.3c-1.3,1-3,1.3-4.6,0.9l-36.2-9.7c-0.2-1.6-1.4-3.1-2.9-3.8V46c0-1.3-0.7-2.4-1.8-3
		c-1.1-0.6-2.5-0.4-3.5,0.3L190.6,71l-17.4-4.7V27.7v-0.6c0.1,0,0.1,0,0.2,0c1.3,0,2.2-0.9,2.2-2.3c0-1.8-1.4-3.6-3.2-4.1
		c-0.2-0.1-0.5-0.1-0.8-0.1c-1,0-1.8,0.6-2.1,1.5L169,22l-20.2-5.4V0h-1.2v16.3L101,3.8c-1-0.2-2.1-0.1-2.9,0.6
		c-0.8,0.7-1.3,1.7-1.3,2.7v16.7c0,0.7-0.3,1.3-0.8,1.7c-0.6,0.4-1.3,0.6-1.9,0.4l-19.6-5.2C74.1,19,72.7,17.4,71,17
		c-0.4-0.1-0.7-0.1-1-0.1c-1.3,0-2.3,0.8-2.7,2l-21.3-5.7c-0.2-1.7-1.4-3.4-3.1-4.1V0h-1.2v8.8c-0.1,0-0.2,0-0.3,0
		c-1.6,0-2.8,1.2-2.8,2.9c0,2,1.6,4.1,3.6,4.6c0.4,0.1,0.7,0.1,1,0.1c1.3,0,2.3-0.8,2.7-2l21.3,5.7c0.1,1.7,1.3,3.4,3,4.1v10.2
		c0,0.7-0.3,1.3-0.8,1.7c-0.6,0.4-1.3,0.6-1.9,0.4L23.8,24.8c-0.3-1.8-1.7-3.5-3.5-4c-0.4-0.1-0.7-0.1-1-0.1c-1.4,0-2.4,0.9-2.7,2.2
		L0,18.5v1.2l16.5,4.4c0.2,1.7,1.5,3.3,3.1,3.9v24c0,0.7-0.3,1.3-0.8,1.7c-0.6,0.4-1.3,0.6-1.9,0.4L0,49.7V51l16.5,4.4
		c0.3,0.1,0.6,0.1,0.9,0.1c0.7,0,1.5-0.3,2-0.7c0.8-0.7,1.3-1.7,1.3-2.7V28.3c0.1,0,0.2,0,0.3,0c1.5,0,2.5-0.9,2.8-2.2l43.4,11.7
		c0.3,0.1,0.6,0.1,0.9,0.1c0.7,0,1.5-0.3,2-0.7c0.8-0.7,1.3-1.7,1.3-2.7v-10c0.1,0,0.3,0,0.4,0c1.5,0,2.6-1.1,2.8-2.5l19.2,5.2
		c0.3,0.1,0.6,0.1,0.9,0.1c0.7,0,1.4-0.3,2-0.7c0.8-0.7,1.3-1.7,1.3-2.7V7.1c0-0.7,0.3-1.3,0.8-1.7c0.6-0.4,1.3-0.6,1.9-0.4
		l46.9,12.5v38.9c-0.1,0-0.2,0-0.3,0c-1.4,0-2.5,0.9-2.7,2.2L129,54.5c-1-0.2-2.1,0-2.9,0.6c-0.8,0.7-1.3,1.7-1.3,2.7V90h1.2
		C126,74.9,126,57.8,126,57.8z M321.3,58.2c0.2,0,0.4,0,0.7,0.1c1.5,0.4,2.8,2,2.8,3.5c0,1-0.6,1.7-1.6,1.7c-0.2,0-0.4,0-0.7-0.1
		c-1.5-0.4-2.8-2-2.8-3.5C319.7,58.8,320.3,58.2,321.3,58.2z M262.3,42.5c-0.2,0.1-2.4,1.7-5.1,3.7c-0.9,0.6-1.7,1.2-2.4,1.7l0,0
		c-1.4,1.1-2.9,2.1-4,3c-4.1-5.2-11.2-14.2-11.6-14.7c-3.6-4.6-5.2-10-4.5-14.8c0.5-3.3,2.1-6.1,4.6-7.9c6.4-4.6,16.3-1.9,22.7,6.2
		c1.1,1.3,2,2.8,2.8,4.4c-1,0.4-1.7,1.4-1.7,2.7c0,2,1.6,4.1,3.6,4.6c0,0,0,0,0.1,0C267.1,36.1,265.5,40.1,262.3,42.5z M267.7,30.3
		c-0.2,0-0.4,0-0.7-0.1c-1.5-0.4-2.8-2-2.8-3.5c0-1.1,0.6-1.7,1.6-1.7c0.2,0,0.4,0,0.7,0.1c1.5,0.4,2.8,2,2.8,3.5
		C269.3,29.6,268.7,30.3,267.7,30.3z M298.8,36c0-1.1,0.6-1.7,1.6-1.7c0.2,0,0.4,0,0.7,0.1c1.5,0.4,2.8,2,2.8,3.5
		c0,1-0.6,1.7-1.6,1.7c-0.2,0-0.4,0-0.7-0.1C300.1,39.1,298.8,37.5,298.8,36z M301.1,52c1.5,0.4,2.8,2,2.8,3.5c0,1-0.6,1.7-1.6,1.7
		c-0.2,0-0.4,0-0.7-0.1c-1.5-0.4-2.8-2-2.8-3.5C298.8,52.3,299.8,51.6,301.1,52z M235.6,84.2c0.1,1-0.6,1.7-1.6,1.7
		c-0.2,0-0.4,0-0.7-0.1c-1.5-0.4-2.8-2-2.8-3.5c0-1.1,0.6-1.7,1.6-1.7c0.2,0,0.4,0,0.7,0.1C234.3,81.1,235.6,82.7,235.6,84.2z
		 M232.8,59.4c1.5,0.4,2.8,2,2.8,3.5c0.1,1-0.6,1.7-1.6,1.7c-0.1,0-0.2,0-0.3,0v-0.1h-0.4c-1.5-0.4-2.8-2-2.8-3.5
		c0-1.1,0.6-1.7,1.6-1.7C232.3,59.3,232.5,59.3,232.8,59.4z M229.2,44.4c0.6-0.5,1.5-0.6,2.2-0.2c0.7,0.4,1.2,1.1,1.2,1.9v12.1
		c-0.1,0-0.3,0-0.4,0c-1.6,0-2.8,1.2-2.8,2.9c0,1.8,1.3,3.7,3.1,4.4v14c-0.1,0-0.2,0-0.3,0c-1.3,0-2.3,0.8-2.7,2l-37.3-10
		L229.2,44.4z M43.3,15.2c-0.2,0-0.4,0-0.7-0.1c-1.5-0.4-2.8-2-2.8-3.5c0-1.1,0.6-1.7,1.6-1.7c0.2,0,0.4,0,0.7,0.1
		c1.5,0.4,2.8,2,2.8,3.5C44.9,14.6,44.3,15.2,43.3,15.2z M21,27.1c-0.2,0-0.4,0-0.7-0.1c-1.5-0.4-2.8-2-2.8-3.5
		c0-1.1,0.6-1.7,1.6-1.7c0.2,0,0.4,0,0.7,0.1c1.5,0.4,2.8,2,2.8,3.5C22.7,26.4,22,27.1,21,27.1z M71.8,23.3c-0.2,0-0.4,0-0.7-0.1
		c-1.5-0.4-2.8-2-2.8-3.5c0-1.1,0.6-1.7,1.6-1.7c0.2,0,0.4,0,0.7,0.1c1.5,0.4,2.8,2,2.8,3.5C73.4,22.6,72.7,23.3,71.8,23.3z
		 M189.4,71.9l-12.8,9.4c-0.6,0.5-1.5,0.6-2.2,0.2c-0.7-0.4-1.2-1.1-1.2-1.9v-12L189.4,71.9z M171.6,21.8c0.2,0,0.4,0,0.5,0
		c1.2,0.3,2.3,1.7,2.3,2.9c0,0.9-0.6,1.3-1.5,1.1c-1.2-0.3-2.3-1.7-2.3-2.9C170.6,22.2,170.9,21.8,171.6,21.8z M148.8,17.9l20,5.4
		l0.6,0.2c0.2,1.4,1.2,2.8,2.6,3.4v0.7V66l-20.1-5.4c-0.2-1.7-1.4-3.3-3.1-4V17.9z M147.2,57.5c0.2,0,0.4,0,0.7,0.1
		c1.5,0.4,2.8,2,2.8,3.5c0.1,1.1-0.6,1.7-1.6,1.7c-0.2,0-0.4,0-0.7-0.1c-1.5-0.4-2.8-2-2.8-3.5C145.6,58.1,146.2,57.5,147.2,57.5z"
		/>
	<path class="st1" d="M322.4,85.6c-1-0.2-2.1,0-2.9,0.6c-0.8,0.7-1.3,1.7-1.3,2.7V90h1.2v-1.1c0-0.7,0.3-1.3,0.8-1.7
		c0.6-0.4,1.3-0.6,1.9-0.4l12.1,3.2h4.8L322.4,85.6z"/>
	<path class="st1" d="M21.2,88.9l4.4,1.2h4.6l-8.9-2.4c-0.1-2-1.6-4-3.6-4.4c-0.4-0.1-0.7-0.1-1-0.1c-1.5,0-2.6,1-2.8,2.6L0,81.9
		v1.2l14,3.8c0.3,1.2,1.1,2.4,2.2,3.1h4.1C20.7,89.7,21,89.3,21.2,88.9z M18.5,89.6c-0.2,0-0.4,0-0.7-0.1c-1.5-0.4-2.8-2-2.8-3.5
		c0-1.1,0.6-1.7,1.6-1.7c0.2,0,0.4,0,0.7,0.1c1.5,0.4,2.8,2,2.8,3.5C20.1,88.9,19.5,89.6,18.5,89.6z"/>
	<path class="st1" d="M488.4,5.8c-0.3-1.7-1.8-3.4-3.5-3.8c-0.4-0.1-0.7-0.1-1-0.1c-1.7,0-2.8,1.2-2.8,2.9c0,2,1.6,4.1,3.6,4.6
		c0.4,0.1,0.7,0.1,1,0.1c1.5,0,2.6-1,2.8-2.4l17.2,4.6v-1.2L488.4,5.8z M485.7,8.3c-0.2,0-0.4,0-0.6-0.1c-1.5-0.4-2.7-2-2.7-3.4
		c0-1.3,1-2,2.3-1.6c1.5,0.4,2.7,2,2.7,3.4C487.4,7.6,486.7,8.3,485.7,8.3z"/>
	<path class="st1" d="M502.2,48.2L502.2,48.2c-0.1,0.2-0.3,0.3-0.4,0.4c-0.5,0.6-0.8,1.5-0.5,2.5l4.3,16.6v-4.1l-0.8-3.2l0.8,0.2
		v-1.2l-1.2-0.3l-2.1-8.1c-0.1-0.6,0-1.1,0.3-1.4c0.3-0.3,0.8-0.4,1.3-0.3l1.6,0.4v-1.3v-0.4v-1.3c-0.8,0.3-1.8,0.8-3,1.4
		L502.2,48.2z"/>
	<path class="st1" d="M33.2,90h-3l2.7,0.7C33,90.5,33.1,90.3,33.2,90z"/>
</g>
<rect x="-0.7" y="-0.4" class="st0" width="506.1" height="90"/>
</svg>
