<?xml version="1.0" encoding="utf-8"?>
<svg version="1.1" id="Layer_1" xmlns="http://www.w3.org/2000/svg" xmlns:xlink="http://www.w3.org/1999/xlink" x="0px" y="0px"
	 viewBox="0 0 800 250" style="enable-background:new 0 0 800 250;" xml:space="preserve" fill="#ffffff">
<g>
	<path class="st0" d="M522.5,51.1c0,0.2-0.1,0.4-0.2,0.5L390.4,189.5v60h59.3l5.9-6.2v-10.7c0-0.2,0.1-0.4,0.2-0.5l16.6-17.3
		c0.1-0.1,0.3-0.2,0.5-0.2h207.8c0.2,0,0.4,0.1,0.5,0.2l33.3,34.8H730l-46.5-48.6H457.8l-27.6,28.8v3.4c0,0,0,0,0,0
		c2.7,0,4.9,2.3,4.9,5.1c0,2.8-2.2,5.1-4.9,5.1c-2.7,0-4.9-2.3-4.9-5.1c0-2.3,1.4-4.2,3.4-4.9v-4c0-0.2,0.1-0.4,0.2-0.5l28-29.3
		c0.1-0.1,0.3-0.2,0.5-0.2h226.3c0.2,0,0.4,0.1,0.5,0.2l47.7,49.9h71.2v-0.2h-62.5c-0.2,0-0.4-0.1-0.5-0.2l-56.5-58.4H453.9
		l-35,36.7v5.9c2.4,0.4,4.2,2.5,4.2,5.1c0,2.8-2.2,5.1-4.9,5.1c-2.7,0-4.9-2.3-4.9-5.1c0-2.6,1.8-4.7,4.2-5.1V227
		c0-0.2,0.1-0.4,0.2-0.5l35.5-37.1c0.1-0.1,0.3-0.2,0.5-0.2H684c0.2,0,0.4,0.1,0.5,0.2l56.5,58.4h62.2V153h-32l-18.3,19.2
		c-0.1,0.1-0.3,0.2-0.5,0.2h-15.5c-0.2,0-0.4-0.1-0.5-0.2l-23.2-24.3h-75.3c-0.2,0-0.4-0.1-0.5-0.2L584.1,92
		c-0.1-0.1-0.2-0.3-0.2-0.5V49.8c-2.2-0.5-3.8-2.6-3.8-5c0-2.8,2.2-5.1,4.9-5.1c2.7,0,4.9,2.3,4.9,5.1c0,2.7-2,4.9-4.6,5.1v41.2
		l52.8,55.3h75.3c0.2,0,0.4,0.1,0.5,0.2l23.2,24.3h14.9l18.3-19.2c0.1-0.1,0.3-0.2,0.5-0.2h32.3v-18.2H662.6c-0.2,0-0.4-0.1-0.5-0.2
		L640,110c-0.1-0.1-0.2-0.3-0.2-0.5V54.4L614.6,28c-0.6,0.3-1.3,0.5-2,0.5c-2.7,0-4.9-2.3-4.9-5.1c0-2.8,2.2-5.1,4.9-5.1
		c2.7,0,4.9,2.3,4.9,5.1c0,1.5-0.6,2.9-1.6,3.8L641,53.5c0.1,0.1,0.2,0.3,0.2,0.5v55.1l21.6,22.6h140.4v-8.5H680.7
		c-0.2,0-0.4-0.1-0.5-0.2l-19.9-20.8c-0.1-0.1-0.2-0.3-0.2-0.5V51.3L615,4.2c-0.7,0.5-1.6,0.7-2.5,0.7c-2.7,0-4.9-2.3-4.9-5.1
		c0-0.2,0-0.3,0-0.5H566l-16.6,17.4v86.2l57.3,60h92.6c0.2,0,0.4,0.1,0.5,0.2l14.1,14.7c0.8-0.6,1.8-1,2.9-1c2.7,0,4.9,2.3,4.9,5.1
		c0,2.8-2.2,5.1-4.9,5.1c-2.7,0-4.9-2.3-4.9-5.1c0-1.1,0.4-2.2,1-3L699,164.4h-92.6c-0.2,0-0.4-0.1-0.5-0.2l-57.8-60.4
		c-0.1-0.1-0.2-0.3-0.2-0.5V16.4c0-0.2,0.1-0.4,0.2-0.5l15.8-16.6h-26.6l-14.9,15.5V51.1z M759.6,219.2c2.5,0,4.5,1.9,4.8,4.4h38.8
		v1.5h-38.8c-0.4,2.5-2.4,4.4-4.8,4.4c-2.7,0-4.9-2.3-4.9-5.1C754.6,221.5,756.8,219.2,759.6,219.2z M612.8,76.6
		c2.7,0,4.9,2.3,4.9,5.1c0,2.8-2.2,5.1-4.9,5.1c-2.7,0-4.9-2.3-4.9-5.1C607.9,78.9,610.1,76.6,612.8,76.6z"/>
	<path class="st0" d="M99,22.5c2,0,3.6-1.7,3.6-3.7c0-2.1-1.6-3.7-3.6-3.7s-3.6,1.7-3.6,3.7C95.4,20.8,97,22.5,99,22.5z"/>
	<path class="st0" d="M394.7,56.1c0,2.1,1.6,3.7,3.6,3.7s3.6-1.7,3.6-3.7c0-2.1-1.6-3.7-3.6-3.7S394.7,54.1,394.7,56.1z"/>
	<path class="st0" d="M296.5,161.7l-66-69.1h-60c-0.2,0-0.4-0.1-0.5-0.2l-5.9-6.2H28.5c-0.2,0-0.4-0.1-0.5-0.2L-0.1,56.6v17.3
		l19.1,20h141.7c0.2,0,0.4,0.1,0.5,0.2l6.2,6.5h39.8c0.2,0,0.4,0.1,0.5,0.2l81.1,84.9c0.1,0.1,0.2,0.3,0.2,0.5v35.4
		c0,0.2-0.1,0.4-0.2,0.5l-26.1,27.3c-0.1,0.1-0.1,0.1-0.2,0.1h10.3l23.6-24.7V161.7z"/>
	<path class="st0" d="M510.9,44.6c0,0.2-0.1,0.4-0.2,0.5l-131.9,138v66.4H389v-60.4c0-0.2,0.1-0.4,0.2-0.5L521,50.8V14.5
		c0-0.2,0.1-0.4,0.2-0.5l14-14.7h-18.8l-5.6,5.8V44.6z"/>
	<path class="st0" d="M496.3,47.4c0,0.2-0.1,0.4-0.2,0.5L371.5,178.2v71.3h5.9v-66.7c0-0.2,0.1-0.4,0.2-0.5l131.9-138V4.8
		c0-0.2,0.1-0.4,0.2-0.5l4.8-5h-12l-6.2,6.5V47.4z"/>
	<path class="st0" d="M247.9,248.1h14l25.7-26.9v-34.8L206.9,102h-39.8c-0.2,0-0.4-0.1-0.5-0.2l-6.2-6.5H18.7
		c-0.2,0-0.4-0.1-0.5-0.2L-0.1,76v9.9L14.3,101h142.5c0.2,0,0.4,0.1,0.5,0.2l7.2,7.5h34.9c0.2,0,0.4,0.1,0.5,0.2l11.5,12.1
		c0.1,0.1,0.2,0.3,0.2,0.5v39l14.9,15.6c0.1,0.1,0.2,0.3,0.2,0.5v24.9c2.4,0.4,4.2,2.5,4.2,5.1c0,2.8-2.2,5.1-4.9,5.1
		s-4.9-2.3-4.9-5.1c0-2.6,1.8-4.7,4.2-5.1V177l-14.9-15.6c-0.1-0.1-0.2-0.3-0.2-0.5v-39l-11.1-11.6h-34.9c-0.2,0-0.4-0.1-0.5-0.2
		l-7.2-7.5H14c-0.2,0-0.4-0.1-0.5-0.2L-0.1,88V102l9.5,9.9h143.2c0.2,0,0.4,0.1,0.5,0.2l9.6,10h23.4c0.2,0,0.4,0.1,0.5,0.2
		l12.9,13.5c0.1,0.1,0.2,0.3,0.2,0.5V237c0,0.2-0.1,0.4-0.2,0.5l-2,2.1c0.3,0.7,0.5,1.4,0.5,2.2c0,2.8-2.2,5.1-4.9,5.1
		c-2.7,0-4.9-2.3-4.9-5.1c0-2.8,2.2-5.1,4.9-5.1c1.4,0,2.7,0.7,3.6,1.7l1.6-1.7v-100l-12.4-13h-23.4c-0.2,0-0.4-0.1-0.5-0.2l-9.6-10
		H9.1c-0.2,0-0.4-0.1-0.5-0.2l-8.7-9.1v12.6l14.4,15.1h49.5l11-11.5c0.1-0.1,0.3-0.2,0.5-0.2h77.5c0.2,0,0.4,0.1,0.5,0.2l22.2,23.2
		c0.1,0.1,0.2,0.3,0.2,0.5v100.7l4.7,4.9h65.7l1.2-1.2C247.5,248.2,247.7,248.1,247.9,248.1z"/>
	<path class="st0" d="M148.6,43.8c2,0,3.6-1.7,3.6-3.7c0-2.1-1.6-3.7-3.6-3.7S145,38,145,40.1C145,42.2,146.6,43.8,148.6,43.8z"/>
	<path class="st0" d="M148.6,15.7c2,0,3.6-1.7,3.6-3.7c0-2.1-1.6-3.7-3.6-3.7s-3.6,1.7-3.6,3.7C145,14,146.6,15.7,148.6,15.7z"/>
	<path class="st0" d="M612.8,85.5c2,0,3.6-1.7,3.6-3.7c0-2.1-1.6-3.7-3.6-3.7c-2,0-3.6,1.7-3.6,3.7
		C609.2,83.8,610.8,85.5,612.8,85.5z"/>
	<path class="st0" d="M368.1,136.6c0,0.2-0.1,0.4-0.2,0.5l-55.7,58.2v54.2h38.9v-78.1c0-0.2,0.1-0.4,0.2-0.5L421,98.1V-0.7h-22v51.8
		c2.4,0.4,4.2,2.5,4.2,5.1c0,2.8-2.2,5.1-4.9,5.1c-2.7,0-4.9-2.3-4.9-5.1c0-2.6,1.8-4.7,4.2-5.1V-0.7h-23.8l-5.6,5.8V136.6z
		 M382.3,75.9c2.7,0,4.9,2.3,4.9,5.1c0,2.8-2.2,5.1-4.9,5.1c-2.7,0-4.9-2.3-4.9-5.1C377.3,78.2,379.6,75.9,382.3,75.9z"/>
	<path class="st0" d="M515,239c-2,0-3.6,1.7-3.6,3.7c0,2.1,1.6,3.7,3.6,3.7c2,0,3.6-1.7,3.6-3.7C518.6,240.6,517,239,515,239z"/>
	<path class="st0" d="M481.2,239c-2,0-3.6,1.7-3.6,3.7c0,2.1,1.6,3.7,3.6,3.7c2,0,3.6-1.7,3.6-3.7C484.8,240.6,483.2,239,481.2,239z
		"/>
	<path class="st0" d="M138.7,156.8H7.3c-0.2,0-0.4-0.1-0.5-0.2l-6.9-7.2v23h27.4l8.2-8.6c0.1-0.1,0.3-0.2,0.5-0.2h98
		c0.2,0,0.4,0.1,0.5,0.2l12.5,13c0.1,0.1,0.2,0.3,0.2,0.5v72.2h5.3v-78.3L138.7,156.8z"/>
	<path class="st0" d="M477.5,52.3L361.7,173.5v76.1h8.4v-71.7c0-0.2,0.1-0.4,0.2-0.5L494.8,47.1V5.4c0-0.2,0.1-0.4,0.2-0.5l5.4-5.6
		h-22.7v52.5C477.7,52,477.7,52.2,477.5,52.3z"/>
	<path class="st0" d="M127.6,240.7c-2,0-3.6,1.7-3.6,3.7c0,2.1,1.6,3.7,3.6,3.7c2,0,3.6-1.7,3.6-3.7
		C131.1,242.4,129.5,240.7,127.6,240.7z"/>
	<path class="st0" d="M142.8,149.3H14.3c-0.2,0-0.4-0.1-0.5-0.2l-13.9-14.5v12.7l7.7,8H139c0.2,0,0.4,0.1,0.5,0.2l14.3,14.9
		c0.1,0.1,0.2,0.3,0.2,0.5v78.6h6.7V168L142.8,149.3z"/>
	<path class="st0" d="M132.1,173.9H49.2l-7.4,7.7c-0.1,0.1-0.3,0.2-0.5,0.2H-0.1v31h28.3c0.2,0,0.4,0.1,0.5,0.2l10.6,11.1h29.8
		c0.2,0,0.4,0.1,0.5,0.2l9,9.5h6.1l6.4-6.7c0.1-0.1,0.3-0.2,0.5-0.2h19.4c0.2,0,0.4,0.1,0.5,0.2l12.9,13.5c0.9-0.7,1.9-1.2,3.1-1.2
		c2.7,0,4.9,2.3,4.9,5.1c0,2.7-2.1,5-4.7,5.1h10.4v-69.2L132.1,173.9z"/>
	<path class="st0" d="M133.8,165.1H36.3l-8.2,8.6c-0.1,0.1-0.3,0.2-0.5,0.2H-0.1v6.3H41l7.4-7.7c0.1-0.1,0.3-0.2,0.5-0.2h83.5
		c0.2,0,0.4,0.1,0.5,0.2l6.6,6.9c0.1,0.1,0.2,0.3,0.2,0.5v69.6h6.1v-71.9L133.8,165.1z"/>
	<path class="st0" d="M382.3,84.8c2,0,3.6-1.7,3.6-3.7c0-2.1-1.6-3.7-3.6-3.7s-3.6,1.7-3.6,3.7C378.7,83.1,380.3,84.8,382.3,84.8z"
		/>
	<path class="st0" d="M174.4,245V144.3l-21.8-22.8H75.7l-11,11.5c-0.1,0.1-0.3,0.2-0.5,0.2H14c-0.2,0-0.4-0.1-0.5-0.2l-13.6-14.2
		v13.5l14.7,15.4h128.5c0.2,0,0.4,0.1,0.5,0.2l18.4,19.2c0.1,0.1,0.2,0.3,0.2,0.5v81.9h6.4v-99.1l-19.8-20.7H91.2
		c-0.4,2.5-2.4,4.4-4.8,4.4c-2.7,0-4.9-2.3-4.9-5.1s2.2-5.1,4.9-5.1c2.5,0,4.5,1.9,4.8,4.4H149c0.2,0,0.4,0.1,0.5,0.2l20.3,21.2
		c0.1,0.1,0.2,0.3,0.2,0.5v99.4h8.4l-3.8-4C174.5,245.4,174.4,245.2,174.4,245z"/>
	<path class="st0" d="M86.4,125.2c-2,0-3.6,1.7-3.6,3.7c0,2.1,1.6,3.7,3.6,3.7c2,0,3.6-1.7,3.6-3.7C90,126.9,88.4,125.2,86.4,125.2z
		"/>
	<path class="st0" d="M450.6,19.8c2,0,3.6-1.7,3.6-3.7c0-2.1-1.6-3.7-3.6-3.7s-3.6,1.7-3.6,3.7C447.1,18.1,448.7,19.8,450.6,19.8z"
		/>
	<path class="st0" d="M332.2,57.8c2,0,3.6-1.7,3.6-3.7c0-2.1-1.6-3.7-3.6-3.7c-2,0-3.6,1.7-3.6,3.7
		C328.6,56.1,330.2,57.8,332.2,57.8z"/>
	<path class="st0" d="M303.3,51.1c2,0,3.6-1.7,3.6-3.7c0-2.1-1.6-3.7-3.6-3.7s-3.6,1.7-3.6,3.7C299.8,49.4,301.4,51.1,303.3,51.1z"
		/>
	<path class="st0" d="M303.3,67c2,0,3.6-1.7,3.6-3.7c0-2.1-1.6-3.7-3.6-3.7s-3.6,1.7-3.6,3.7C299.8,65.3,301.4,67,303.3,67z"/>
	<path class="st0" d="M774.5,69.3c0,2.1,1.6,3.7,3.6,3.7c2,0,3.6-1.7,3.6-3.7c0-2.1-1.6-3.7-3.6-3.7
		C776.1,65.5,774.5,67.2,774.5,69.3z"/>
	<path class="st0" d="M612.5,19.6c-2,0-3.6,1.7-3.6,3.7c0,2.1,1.6,3.7,3.6,3.7c2,0,3.6-1.7,3.6-3.7
		C616.1,21.3,614.5,19.6,612.5,19.6z"/>
	<path class="st0" d="M333.7,96c2,0,3.6-1.7,3.6-3.7c0-2.1-1.6-3.7-3.6-3.7c-2,0-3.6,1.7-3.6,3.7C330.1,94.3,331.7,96,333.7,96z"/>
	<path class="st0" d="M612.5,3.5c2,0,3.6-1.7,3.6-3.7c0-0.2,0-0.3,0-0.5h-7c0,0.2,0,0.3,0,0.5C608.9,1.8,610.5,3.5,612.5,3.5z"/>
	<path class="st0" d="M725.9,74.2c-2,0-3.6,1.7-3.6,3.7c0,2.1,1.6,3.7,3.6,3.7s3.6-1.7,3.6-3.7C729.5,75.9,727.9,74.2,725.9,74.2z"
		/>
	<path class="st0" d="M711.8,11.6c0-2.1-1.6-3.7-3.6-3.7c-2,0-3.6,1.7-3.6,3.7c0,2.1,1.6,3.7,3.6,3.7
		C710.2,15.4,711.8,13.7,711.8,11.6z"/>
	<path class="st0" d="M616.1,3.2l45.2,47.2c0.1,0.1,0.2,0.3,0.2,0.5v50.5l19.4,20.3h122.3V-0.7h-24.4v64.9c2.4,0.4,4.2,2.5,4.2,5.1
		c0,2.8-2.2,5.1-4.9,5.1c-2.7,0-4.9-2.3-4.9-5.1c0-2.6,1.8-4.7,4.2-5.1V-0.7h-39v43.6l17.5,18.3c0.1,0.1,0.2,0.3,0.2,0.5v19.3
		c2.4,0.4,4.2,2.5,4.2,5.1c0,2.8-2.2,5.1-4.9,5.1c-2.7,0-4.9-2.3-4.9-5.1c0-2.6,1.8-4.7,4.2-5.1v-19l-17.5-18.3
		c-0.1-0.1-0.2-0.3-0.2-0.5v-44h-59.2v87.4l16.2,17h109.3v1.5H693.6c-0.2,0-0.4-0.1-0.5-0.2l-16.7-17.4c-0.1-0.1-0.2-0.3-0.2-0.5
		V-0.7h-58.9c0,0.2,0,0.3,0,0.5C617.4,1.1,616.9,2.3,616.1,3.2z M725.9,83.1c-2.7,0-4.9-2.3-4.9-5.1c0-0.8,0.2-1.5,0.5-2.2
		l-13.8-14.4c-0.1-0.1-0.2-0.3-0.2-0.5V16.7c-2.4-0.4-4.2-2.5-4.2-5.1c0-2.8,2.2-5.1,4.9-5.1c2.7,0,4.9,2.3,4.9,5.1
		c0,2.6-1.8,4.7-4.2,5.1v43.8l13.4,14c0.9-1,2.2-1.7,3.6-1.7c2.7,0,4.9,2.3,4.9,5.1C730.9,80.8,728.6,83.1,725.9,83.1z"/>
	<path class="st0" d="M751.8,86.1c0,2.1,1.6,3.7,3.6,3.7s3.6-1.7,3.6-3.7c0-2.1-1.6-3.7-3.6-3.7S751.8,84.1,751.8,86.1z"/>
	<path class="st0" d="M122.7,244.4c0-1,0.3-2,0.8-2.8l-12.7-13.3H92l-6.4,6.7c-0.1,0.1-0.3,0.2-0.5,0.2h-6.7c-0.2,0-0.4-0.1-0.5-0.2
		l-9-9.5H39c-0.2,0-0.4-0.1-0.5-0.2l-10.6-11.1h-28v7.7h23.7c0.2,0,0.4,0.1,0.5,0.2l9.7,10.1h31.5c0.2,0,0.4,0.1,0.5,0.2l10.7,11.1
		h17.4c0.4-2.5,2.4-4.4,4.8-4.4c2.7,0,4.9,2.3,4.9,5.1c0,2.7-2.1,5-4.7,5.1h28.5C124.7,249.4,122.7,247.2,122.7,244.4z"/>
	<path class="st0" d="M219.8,66.1c2,0,3.6-1.7,3.6-3.7c0-2.1-1.6-3.7-3.6-3.7c-2,0-3.6,1.7-3.6,3.7
		C216.3,64.4,217.9,66.1,219.8,66.1z"/>
	<path class="st0" d="M473.3,216.1L457.1,233v10.7c0,0.2-0.1,0.4-0.2,0.5l-5.1,5.3h11.7l1.2-1.3v-10.3c0-0.2,0.1-0.4,0.2-0.5
		l13-13.6c0.1-0.1,0.3-0.2,0.5-0.2h198.2c0.2,0,0.4,0.1,0.5,0.2l24.7,25.8h10.7l-32-33.5H473.3z"/>
	<path class="st0" d="M759.6,228c2,0,3.6-1.7,3.6-3.7c0-2.1-1.6-3.7-3.6-3.7c-2,0-3.6,1.7-3.6,3.7C756,226.4,757.6,228,759.6,228z"
		/>
	<path class="st0" d="M716.8,185.6c2,0,3.6-1.7,3.6-3.7c0-2.1-1.6-3.7-3.6-3.7s-3.6,1.7-3.6,3.7C713.2,184,714.8,185.6,716.8,185.6z
		"/>
	<path class="st0" d="M583.1,239c-2,0-3.6,1.7-3.6,3.7c0,2.1,1.6,3.7,3.6,3.7c2,0,3.6-1.7,3.6-3.7C586.7,240.6,585.1,239,583.1,239z
		"/>
	<path class="st0" d="M331.4,32.4c2,0,3.6-1.7,3.6-3.7c0-2.1-1.6-3.7-3.6-3.7c-2,0-3.6,1.7-3.6,3.7
		C327.9,30.7,329.5,32.4,331.4,32.4z"/>
	<path class="st0" d="M478.8,225.1l-12.6,13.2v10.3c0,0.2-0.1,0.4-0.2,0.5l-0.4,0.5h234.2l-23.4-24.5H478.8z M481.2,247.8
		c-2.7,0-4.9-2.3-4.9-5.1s2.2-5.1,4.9-5.1c2.7,0,4.9,2.3,4.9,5.1S483.9,247.8,481.2,247.8z M515,247.8c-2.7,0-4.9-2.3-4.9-5.1
		s2.2-5.1,4.9-5.1c2.7,0,4.9,2.3,4.9,5.1S517.7,247.8,515,247.8z M583.1,247.8c-2.7,0-4.9-2.3-4.9-5.1s2.2-5.1,4.9-5.1
		c2.7,0,4.9,2.3,4.9,5.1S585.8,247.8,583.1,247.8z"/>
	<path class="st0" d="M414.5,238.3c0,2.1,1.6,3.7,3.6,3.7c2,0,3.6-1.7,3.6-3.7c0-2.1-1.6-3.7-3.6-3.7
		C416.1,234.6,414.5,236.2,414.5,238.3z"/>
	<path class="st0" d="M588.5,44.8c0-2.1-1.6-3.7-3.6-3.7c-2,0-3.6,1.7-3.6,3.7c0,2.1,1.6,3.7,3.6,3.7
		C586.9,48.5,588.5,46.8,588.5,44.8z"/>
	<path class="st0" d="M218.2,42.1c2,0,3.6-1.7,3.6-3.7c0-2.1-1.6-3.7-3.6-3.7s-3.6,1.7-3.6,3.7C214.6,40.5,216.2,42.1,218.2,42.1z"
		/>
	<ellipse class="st0" cx="430.2" cy="238.3" rx="3.6" ry="3.7"/>
	<path class="st0" d="M333.7,121.2c2,0,3.6-1.7,3.6-3.7c0-2.1-1.6-3.7-3.6-3.7c-2,0-3.6,1.7-3.6,3.7
		C330.1,119.5,331.7,121.2,333.7,121.2z"/>
	<path class="st0" d="M40.1,15c-2,0-3.6,1.7-3.6,3.7c0,2.1,1.6,3.7,3.6,3.7c2,0,3.6-1.7,3.6-3.7C43.7,16.7,42.1,15,40.1,15z"/>
	<path class="st0" d="M29.9,242.3c-0.2,0-0.4-0.1-0.5-0.2l-9-9.4H-0.1v9.3h5.5c0.4-2.5,2.4-4.4,4.8-4.4c2.7,0,4.9,2.3,4.9,5.1
		s-2.2,5.1-4.9,5.1c-2.5,0-4.5-1.9-4.8-4.4h-5.5v6H21l1.8-1.9c0.1-0.1,0.3-0.2,0.5-0.2h37.1c0.2,0,0.4,0.1,0.5,0.2l1.8,1.9h6.4
		l-6.9-7.2H29.9z"/>
	<path class="st0" d="M168.8,55.2c2,0,3.6-1.7,3.6-3.7c0-2.1-1.6-3.7-3.6-3.7c-2,0-3.6,1.7-3.6,3.7
		C165.2,53.5,166.8,55.2,168.8,55.2z"/>
	<path class="st0" d="M10.3,246.5c2,0,3.6-1.7,3.6-3.7c0-2.1-1.6-3.7-3.6-3.7s-3.6,1.7-3.6,3.7C6.7,244.8,8.3,246.5,10.3,246.5z"/>
	<polygon class="st0" points="23.6,249 23.1,249.6 60.7,249.6 60.1,249 	"/>
	<path class="st0" d="M66,22.5c2,0,3.6-1.7,3.6-3.7c0-2.1-1.6-3.7-3.6-3.7c-2,0-3.6,1.7-3.6,3.7C62.4,20.8,64,22.5,66,22.5z"/>
	<path class="st0" d="M28.8,84.7h135.5c0.2,0,0.4,0.1,0.5,0.2l5.9,6.2h60c0.2,0,0.4,0.1,0.5,0.2l66.5,69.5c0.1,0.1,0.2,0.3,0.2,0.5
		v63.8c0,0.2-0.1,0.4-0.2,0.5L275,249.6h35.8v-54.5c0-0.2,0.1-0.4,0.2-0.5l55.7-58.2V4.8c0-0.2,0.1-0.4,0.2-0.5l4.8-5h-46.5
		l-0.4,0.4v21.5l3.4,3.6c0.9-0.8,2-1.3,3.2-1.3c2.7,0,4.9,2.3,4.9,5.1c0,2.8-2.2,5.1-4.9,5.1c-2.7,0-4.9-2.3-4.9-5.1
		c0-1,0.3-1.9,0.8-2.7l-3.7-3.9c-0.1-0.1-0.2-0.3-0.2-0.5V-0.7c0,0,0,0,0-0.1h-7.8v36.9l13.4,14c0.9-0.8,2-1.3,3.2-1.3
		c2.7,0,4.9,2.3,4.9,5.1c0,2.8-2.2,5.1-4.9,5.1c-2.7,0-4.9-2.3-4.9-5.1c0-1,0.3-1.9,0.8-2.7L314.3,37c-0.1-0.1-0.2-0.3-0.2-0.5V-0.7
		h-24.5l-6.5,6.8v32.8l7.4,7.8h8c0.4-2.5,2.4-4.4,4.8-4.4c2.7,0,4.9,2.3,4.9,5.1s-2.2,5.1-4.9,5.1c-2.5,0-4.5-1.9-4.8-4.4h-8.3
		c-0.2,0-0.4-0.1-0.5-0.2l-7.8-8.2c-0.1-0.1-0.2-0.3-0.2-0.5V5.8c0-0.2,0.1-0.4,0.2-0.5l5.7-6h-12.4l-0.6,0.6v44.5l16.9,17.7h7
		c0.5-2.3,2.4-4,4.8-4c2.7,0,4.9,2.3,4.9,5.1s-2.2,5.1-4.9,5.1c-2.6,0-4.7-2.1-4.9-4.7h-7.3c-0.2,0-0.4-0.1-0.5-0.2l-17.4-18.2
		c-0.1-0.1-0.2-0.3-0.2-0.5V-0.4c0-0.1,0-0.2,0.1-0.3h-17v68.9l22.4,23.4h50.4c0.4-2.5,2.4-4.4,4.8-4.4c2.7,0,4.9,2.3,4.9,5.1
		s-2.2,5.1-4.9,5.1c-2.5,0-4.5-1.9-4.8-4.4h-50.7c-0.2,0-0.4-0.1-0.5-0.2L254.9,69c-0.1-0.1-0.2-0.3-0.2-0.5V-0.7h-10.3v74.7
		l31.5,32.9h48.5c0.2,0,0.4,0.1,0.5,0.2l6,6.2c0.8-0.6,1.8-1,2.9-1c2.7,0,4.9,2.3,4.9,5.1s-2.2,5.1-4.9,5.1c-2.7,0-4.9-2.3-4.9-5.1
		c0-1.2,0.4-2.2,1-3.1l-5.7-6h-48.5c-0.2,0-0.4-0.1-0.5-0.2l-31.9-33.4c-0.1-0.1-0.2-0.3-0.2-0.5v-75h-45V38l5.7,6h7.3l3-3.1
		c-0.4-0.7-0.6-1.6-0.6-2.5c0-2.8,2.2-5.1,4.9-5.1c2.7,0,4.9,2.3,4.9,5.1s-2.2,5.1-4.9,5.1c-1.3,0-2.5-0.6-3.4-1.4l-3,3.2
		c-0.1,0.1-0.3,0.2-0.5,0.2h-7.9c-0.2,0-0.4-0.1-0.5-0.2l-6.1-6.4c-0.1-0.1-0.2-0.3-0.2-0.5V-0.7h-8.4v44.4l10.5,11h14.8
		c0.2,0,0.4,0.1,0.5,0.2l3.1,3.3c0.8-0.6,1.7-0.9,2.8-0.9c2.7,0,4.9,2.3,4.9,5.1c0,2.8-2.2,5.1-4.9,5.1c-2.7,0-4.9-2.3-4.9-5.1
		c0-1.2,0.4-2.3,1.1-3.2l-2.9-3h-14.8c-0.2,0-0.4-0.1-0.5-0.2l-10.9-11.4c-0.1-0.1-0.2-0.3-0.2-0.5V-0.7h-52.6v11.9h9.7
		c0.4-2.5,2.4-4.4,4.8-4.4c2.7,0,4.9,2.3,4.9,5.1s-2.2,5.1-4.9,5.1c-2.5,0-4.5-1.9-4.8-4.4h-10.4c-0.4,0-0.7-0.3-0.7-0.8V-0.7h-11.1
		V12l23.5,24.6c0.9-1,2.2-1.6,3.6-1.6c2.7,0,4.9,2.3,4.9,5.1s-2.2,5.1-4.9,5.1c-2.7,0-4.9-2.3-4.9-5.1c0-0.8,0.2-1.6,0.5-2.3
		l-23.9-25c-0.1-0.1-0.2-0.3-0.2-0.5v-13H86.6v6.9l8.8,9.2c0.9-1.1,2.2-1.8,3.7-1.8c2.7,0,4.9,2.3,4.9,5.1s-2.2,5.1-4.9,5.1
		c-2.7,0-4.9-2.3-4.9-5.1c0-0.7,0.2-1.4,0.4-2.1L85.3,7c-0.1-0.1-0.2-0.3-0.2-0.5v-7.2H58.7v10.8l4.3,4.5c0.8-0.6,1.8-1,2.9-1
		c2.7,0,4.9,2.3,4.9,5.1s-2.2,5.1-4.9,5.1c-2.7,0-4.9-2.3-4.9-5.1c0-1.1,0.4-2.2,1-3l-4.5-4.8c-0.1-0.1-0.2-0.3-0.2-0.5V-0.7h-8.2
		V9.6c0,0.2-0.1,0.4-0.2,0.5l-5.1,5.3c0.8,0.9,1.2,2.1,1.2,3.4c0,2.8-2.2,5.1-4.9,5.1c-2.7,0-4.9-2.3-4.9-5.1s2.2-5.1,4.9-5.1
		c1,0,1.8,0.3,2.6,0.8l4.9-5.2v-10H21v24.1l36.5,38.2h101.6l6.2-6.5c-0.9-0.9-1.4-2.2-1.4-3.6c0-2.8,2.2-5.1,4.9-5.1
		c2.7,0,4.9,2.3,4.9,5.1s-2.2,5.1-4.9,5.1c-0.8,0-1.6-0.2-2.3-0.6l-6.6,6.9c-0.1,0.1-0.3,0.2-0.5,0.2H57.2c-0.2,0-0.4-0.1-0.5-0.2
		L19.7,24.2c-0.1-0.1-0.2-0.3-0.2-0.5V-0.7H7.8v29.4L51,73.8h105.8c0.4-2.5,2.4-4.4,4.8-4.4c2.7,0,4.9,2.3,4.9,5.1
		c0,2.8-2.2,5.1-4.9,5.1c-2.5,0-4.5-1.9-4.8-4.4H50.7c-0.2,0-0.4-0.1-0.5-0.2L6.6,29.5c-0.1-0.1-0.2-0.3-0.2-0.5V-0.7h-6.4v55.1
		L28.8,84.7z M303.3,19.8c-2.7,0-4.9-2.3-4.9-5.1s2.2-5.1,4.9-5.1c2.7,0,4.9,2.3,4.9,5.1S306,19.8,303.3,19.8z M210.3,19.8
		c-2.7,0-4.9-2.3-4.9-5.1s2.2-5.1,4.9-5.1s4.9,2.3,4.9,5.1S213,19.8,210.3,19.8z M99,52.2c-2.7,0-4.9-2.3-4.9-5.1
		c0-2.8,2.2-5.1,4.9-5.1c2.7,0,4.9,2.3,4.9,5.1C103.9,49.9,101.7,52.2,99,52.2z"/>
	<path class="st0" d="M99,43.3c-2,0-3.6,1.7-3.6,3.7c0,2.1,1.6,3.7,3.6,3.7c2,0,3.6-1.7,3.6-3.7C102.6,45,101,43.3,99,43.3z"/>
	<path class="st0" d="M210.3,10.9c-2,0-3.6,1.7-3.6,3.7c0,2.1,1.6,3.7,3.6,3.7c2,0,3.6-1.7,3.6-3.7
		C213.9,12.6,212.3,10.9,210.3,10.9z"/>
	<path class="st0" d="M303.3,10.9c-2,0-3.6,1.7-3.6,3.7c0,2.1,1.6,3.7,3.6,3.7c2,0,3.6-1.7,3.6-3.7
		C306.9,12.6,305.3,10.9,303.3,10.9z"/>
	<path class="st0" d="M161.6,78.3c2,0,3.6-1.7,3.6-3.7c0-2.1-1.6-3.7-3.6-3.7c-2,0-3.6,1.7-3.6,3.7C158,76.6,159.6,78.3,161.6,78.3z
		"/>
	<ellipse class="st0" cx="226.1" cy="206.7" rx="3.6" ry="3.7"/>
	<path class="st0" d="M193,238.1c-2,0-3.6,1.7-3.6,3.7c0,2.1,1.6,3.7,3.6,3.7c2,0,3.6-1.7,3.6-3.7C196.6,239.7,195,238.1,193,238.1z
		"/>
	<path class="st0" d="M93.7,245.2H76.1c-0.2,0-0.4-0.1-0.5-0.2l-10.7-11.1H33.4c-0.2,0-0.4-0.1-0.5-0.2l-9.7-10.1H-0.1v7.7h20.8
		c0.2,0,0.4,0.1,0.5,0.2l9,9.4h32.4c0.2,0,0.4,0.1,0.5,0.2l8.2,8.5h27C96,249.4,94.1,247.6,93.7,245.2z"/>
	<path class="st0" d="M98.6,240.7c-2,0-3.6,1.7-3.6,3.7c0,2.1,1.6,3.7,3.6,3.7s3.6-1.7,3.6-3.7C102.1,242.4,100.5,240.7,98.6,240.7z
		"/>
	<path class="st0" d="M422.2,98.9l-69.6,72.8v77.8h7.7v-76.4c0-0.2,0.1-0.4,0.2-0.5L476.3,51.5V-0.7h-53.9v99.1
		C422.4,98.6,422.3,98.8,422.2,98.9z M450.6,10.9c2.7,0,4.9,2.3,4.9,5.1c0,2.8-2.2,5.1-4.9,5.1c-2.7,0-4.9-2.3-4.9-5.1
		C445.7,13.2,447.9,10.9,450.6,10.9z"/>
	<path class="st1" d="M684.5,189.4c-0.1-0.1-0.3-0.2-0.5-0.2H453.6c-0.2,0-0.4,0.1-0.5,0.2l-35.5,37.1c-0.1,0.1-0.2,0.3-0.2,0.5v6.2
		c-2.4,0.4-4.2,2.5-4.2,5.1c0,2.8,2.2,5.1,4.9,5.1c2.7,0,4.9-2.3,4.9-5.1c0-2.6-1.8-4.7-4.2-5.1v-5.9l35-36.7h229.9l56.5,58.4
		c0.1,0.1,0.3,0.2,0.5,0.2h62.5v-1.5h-62.2L684.5,189.4z M421.7,238.3c0,2.1-1.6,3.7-3.6,3.7c-2,0-3.6-1.7-3.6-3.7
		c0-2.1,1.6-3.7,3.6-3.7C420.1,234.6,421.7,236.2,421.7,238.3z"/>
	<path class="st1" d="M683.8,199.4H457.5c-0.2,0-0.4,0.1-0.5,0.2l-28,29.3c-0.1,0.1-0.2,0.3-0.2,0.5v4c-2,0.7-3.4,2.6-3.4,4.9
		c0,2.8,2.2,5.1,4.9,5.1c2.7,0,4.9-2.3,4.9-5.1c0-2.8-2.2-5.1-4.9-5.1c0,0,0,0,0,0v-3.4l27.6-28.8h225.7l46.5,48.6h2.1l-47.7-49.9
		C684.2,199.5,684,199.4,683.8,199.4z M430.2,234.6c2,0,3.6,1.7,3.6,3.7c0,2.1-1.6,3.7-3.6,3.7c-2,0-3.6-1.7-3.6-3.7
		C426.7,236.2,428.3,234.6,430.2,234.6z"/>
	<path class="st1" d="M680.8,214.6H473c-0.2,0-0.4,0.1-0.5,0.2l-16.6,17.3c-0.1,0.1-0.2,0.3-0.2,0.5v10.7l-5.9,6.2h2.1l5.1-5.3
		c0.1-0.1,0.2-0.3,0.2-0.5V233l16.1-16.9h207.2l32,33.5h2.1l-33.3-34.8C681.2,214.6,681,214.6,680.8,214.6z"/>
	<path class="st1" d="M676.7,223.5H478.5c-0.2,0-0.4,0.1-0.5,0.2l-13,13.6c-0.1,0.1-0.2,0.3-0.2,0.5v10.3l-1.2,1.3h2.1l0.4-0.5
		c0.1-0.1,0.2-0.3,0.2-0.5v-10.3l12.6-13.2h197.5l23.4,24.5h2.1l-24.7-25.8C677,223.6,676.9,223.5,676.7,223.5z"/>
	<path class="st1" d="M132.5,244.4c0-2.8-2.2-5.1-4.9-5.1c-1.2,0-2.3,0.5-3.1,1.2l-12.9-13.5c-0.1-0.1-0.3-0.2-0.5-0.2H91.7
		c-0.2,0-0.4,0.1-0.5,0.2l-6.4,6.7h-6.1l-9-9.5c-0.1-0.1-0.3-0.2-0.5-0.2H39.3L28.7,213c-0.1-0.1-0.3-0.2-0.5-0.2H-0.1v1.5h28
		l10.6,11.1c0.1,0.1,0.3,0.2,0.5,0.2h29.8l9,9.5c0.1,0.1,0.3,0.2,0.5,0.2h6.7c0.2,0,0.4-0.1,0.5-0.2l6.4-6.7h18.8l12.7,13.3
		c-0.5,0.8-0.8,1.8-0.8,2.8c0,2.7,2.1,5,4.7,5.1h0.5C130.4,249.4,132.5,247.2,132.5,244.4z M127.6,248.2c-2,0-3.6-1.7-3.6-3.7
		c0-2.1,1.6-3.7,3.6-3.7c2,0,3.6,1.7,3.6,3.7C131.1,246.5,129.5,248.2,127.6,248.2z"/>
	<path class="st1" d="M60.4,247.4H23.3c-0.2,0-0.4,0.1-0.5,0.2l-1.8,1.9h2.1l0.6-0.6h36.5l0.6,0.6h2.1l-1.8-1.9
		C60.8,247.5,60.6,247.4,60.4,247.4z"/>
	<path class="st1" d="M10.3,247.9c2.7,0,4.9-2.3,4.9-5.1s-2.2-5.1-4.9-5.1c-2.5,0-4.5,1.9-4.8,4.4h-5.5v1.5h5.5
		C5.8,246,7.8,247.9,10.3,247.9z M10.3,239c2,0,3.6,1.7,3.6,3.7c0,2.1-1.6,3.7-3.6,3.7s-3.6-1.7-3.6-3.7C6.7,240.7,8.3,239,10.3,239
		z"/>
	<path class="st1" d="M62.6,240.8H30.2l-9-9.4c-0.1-0.1-0.3-0.2-0.5-0.2H-0.1v1.5h20.5l9,9.4c0.1,0.1,0.3,0.2,0.5,0.2h32.4l6.9,7.2
		h2.1l-8.2-8.5C62.9,240.9,62.8,240.8,62.6,240.8z"/>
	<path class="st1" d="M103.5,244.4c0-2.8-2.2-5.1-4.9-5.1c-2.5,0-4.5,1.9-4.8,4.4H76.4l-10.7-11.1c-0.1-0.1-0.3-0.2-0.5-0.2H33.7
		l-9.7-10.1c-0.1-0.1-0.3-0.2-0.5-0.2H-0.1v1.5h23.4l9.7,10.1c0.1,0.1,0.3,0.2,0.5,0.2h31.5L75.6,245c0.1,0.1,0.3,0.2,0.5,0.2h17.7
		c0.3,2.4,2.2,4.2,4.6,4.4h0.5C101.4,249.4,103.5,247.2,103.5,244.4z M98.6,248.2c-2,0-3.6-1.7-3.6-3.7c0-2.1,1.6-3.7,3.6-3.7
		s3.6,1.7,3.6,3.7C102.1,246.5,100.5,248.2,98.6,248.2z"/>
	<path class="st1" d="M139.5,179.5l-6.6-6.9c-0.1-0.1-0.3-0.2-0.5-0.2H48.9c-0.2,0-0.4,0.1-0.5,0.2l-7.4,7.7H-0.1v1.5h41.4
		c0.2,0,0.4-0.1,0.5-0.2l7.4-7.7h82.9l6.2,6.5v69.2h1.5V180C139.7,179.8,139.6,179.6,139.5,179.5z"/>
	<path class="st1" d="M147.1,176.8l-12.5-13c-0.1-0.1-0.3-0.2-0.5-0.2H36c-0.2,0-0.4,0.1-0.5,0.2l-8.2,8.6H-0.1v1.5h27.7
		c0.2,0,0.4-0.1,0.5-0.2l8.2-8.6h97.4l12,12.6v71.9h1.5v-72.2C147.3,177.2,147.2,177,147.1,176.8z"/>
	<path class="st1" d="M153.8,170.5l-14.3-14.9c-0.1-0.1-0.3-0.2-0.5-0.2H7.6l-7.7-8v2.2l6.9,7.2c0.1,0.1,0.3,0.2,0.5,0.2h131.4
		l13.9,14.5v78.3h1.5V171C154,170.8,153.9,170.6,153.8,170.5z"/>
	<path class="st1" d="M162,167.2L143.6,148c-0.1-0.1-0.3-0.2-0.5-0.2H14.6l-14.7-15.4v2.2l13.9,14.5c0.1,0.1,0.3,0.2,0.5,0.2h128.5
		l17.9,18.8v81.5h1.5v-81.9C162.2,167.5,162.1,167.3,162,167.2z"/>
	<path class="st1" d="M9.1,113.4h143.2l9.6,10c0.1,0.1,0.3,0.2,0.5,0.2h23.4l12.4,13v100l-1.6,1.7c-0.9-1-2.2-1.7-3.6-1.7
		c-2.7,0-4.9,2.3-4.9,5.1c0,2.8,2.2,5.1,4.9,5.1c2.7,0,4.9-2.3,4.9-5.1c0-0.8-0.2-1.5-0.5-2.2l2-2.1c0.1-0.1,0.2-0.3,0.2-0.5V136.3
		c0-0.2-0.1-0.4-0.2-0.5l-12.9-13.5c-0.1-0.1-0.3-0.2-0.5-0.2h-23.4l-9.6-10c-0.1-0.1-0.3-0.2-0.5-0.2H9.4l-9.5-9.9v2.2l8.7,9.1
		C8.7,113.3,8.9,113.4,9.1,113.4z M193,245.5c-2,0-3.6-1.7-3.6-3.7c0-2.1,1.6-3.7,3.6-3.7c2,0,3.6,1.7,3.6,3.7
		C196.6,243.9,195,245.5,193,245.5z"/>
	<path class="st1" d="M14,102.5h142.5l7.2,7.5c0.1,0.1,0.3,0.2,0.5,0.2h34.9l11.1,11.6v39c0,0.2,0.1,0.4,0.2,0.5l14.9,15.6v24.6
		c-2.4,0.4-4.2,2.5-4.2,5.1c0,2.8,2.2,5.1,4.9,5.1s4.9-2.3,4.9-5.1c0-2.6-1.8-4.7-4.2-5.1v-24.9c0-0.2-0.1-0.4-0.2-0.5l-14.9-15.6
		v-39c0-0.2-0.1-0.4-0.2-0.5l-11.5-12.1c-0.1-0.1-0.3-0.2-0.5-0.2h-34.9l-7.2-7.5c-0.1-0.1-0.3-0.2-0.5-0.2H14.3L-0.1,85.9V88
		l13.6,14.2C13.6,102.4,13.8,102.5,14,102.5z M229.7,206.7c0,2.1-1.6,3.7-3.6,3.7c-2,0-3.6-1.7-3.6-3.7c0-2.1,1.6-3.7,3.6-3.7
		C228.1,202.9,229.7,204.6,229.7,206.7z"/>
	<path class="st1" d="M6.6,29.5l43.6,45.6c0.1,0.1,0.3,0.2,0.5,0.2h106.1c0.4,2.5,2.4,4.4,4.8,4.4c2.7,0,4.9-2.3,4.9-5.1
		c0-2.8-2.2-5.1-4.9-5.1c-2.5,0-4.5,1.9-4.8,4.4H51L7.8,28.6V-0.7H6.3V29C6.3,29.2,6.4,29.4,6.6,29.5z M161.6,70.8
		c2,0,3.6,1.7,3.6,3.7c0,2.1-1.6,3.7-3.6,3.7c-2,0-3.6-1.7-3.6-3.7C158,72.5,159.6,70.8,161.6,70.8z"/>
	<path class="st1" d="M19.7,24.2l36.9,38.6c0.1,0.1,0.3,0.2,0.5,0.2h102.2c0.2,0,0.4-0.1,0.5-0.2l6.6-6.9c0.7,0.4,1.5,0.6,2.3,0.6
		c2.7,0,4.9-2.3,4.9-5.1s-2.2-5.1-4.9-5.1c-2.7,0-4.9,2.3-4.9,5.1c0,1.4,0.5,2.7,1.4,3.6l-6.2,6.5H57.5L21,23.4V-0.7h-1.5v24.4
		C19.5,23.9,19.6,24.1,19.7,24.2z M165.2,51.4c0-2.1,1.6-3.7,3.6-3.7c2,0,3.6,1.7,3.6,3.7c0,2.1-1.6,3.7-3.6,3.7
		C166.8,55.2,165.2,53.5,165.2,51.4z"/>
	<path class="st1" d="M42.7,14.4c-0.8-0.5-1.6-0.8-2.6-0.8c-2.7,0-4.9,2.3-4.9,5.1s2.2,5.1,4.9,5.1c2.7,0,4.9-2.3,4.9-5.1
		c0-1.3-0.5-2.5-1.2-3.4l5.1-5.3c0.1-0.1,0.2-0.3,0.2-0.5V-0.7h-1.5v10L42.7,14.4z M40.1,22.5c-2,0-3.6-1.7-3.6-3.7
		c0-2.1,1.6-3.7,3.6-3.7c2,0,3.6,1.7,3.6,3.7C43.7,20.8,42.1,22.5,40.1,22.5z"/>
	<path class="st1" d="M57.5,10.9l4.5,4.8c-0.6,0.9-1,1.9-1,3c0,2.8,2.2,5.1,4.9,5.1c2.7,0,4.9-2.3,4.9-5.1s-2.2-5.1-4.9-5.1
		c-1.1,0-2.1,0.4-2.9,1l-4.3-4.5V-0.7h-1.5v11.1C57.3,10.6,57.4,10.8,57.5,10.9z M66,15c2,0,3.6,1.7,3.6,3.7c0,2.1-1.6,3.7-3.6,3.7
		c-2,0-3.6-1.7-3.6-3.7C62.4,16.7,64,15,66,15z"/>
	<path class="st1" d="M85.3,7l9.2,9.6c-0.3,0.6-0.4,1.3-0.4,2.1c0,2.8,2.2,5.1,4.9,5.1c2.7,0,4.9-2.3,4.9-5.1s-2.2-5.1-4.9-5.1
		c-1.5,0-2.8,0.7-3.7,1.8l-8.8-9.2v-6.9h-1.5v7.2C85.1,6.7,85.2,6.9,85.3,7z M99,15c2,0,3.6,1.7,3.6,3.7c0,2.1-1.6,3.7-3.6,3.7
		s-3.6-1.7-3.6-3.7C95.4,16.7,97,15,99,15z"/>
	<path class="st1" d="M120.3,12.8l23.9,25c-0.3,0.7-0.5,1.4-0.5,2.3c0,2.8,2.2,5.1,4.9,5.1c2.7,0,4.9-2.3,4.9-5.1s-2.2-5.1-4.9-5.1
		c-1.4,0-2.7,0.6-3.6,1.6L121.5,12V-0.7h-1.5v13C120.1,12.5,120.2,12.7,120.3,12.8z M148.6,36.4c2,0,3.6,1.7,3.6,3.7
		c0,2.1-1.6,3.7-3.6,3.7s-3.6-1.7-3.6-3.7C145,38,146.6,36.4,148.6,36.4z"/>
	<path class="st1" d="M133.3,12.7h10.4c0.4,2.5,2.4,4.4,4.8,4.4c2.7,0,4.9-2.3,4.9-5.1s-2.2-5.1-4.9-5.1c-2.5,0-4.5,1.9-4.8,4.4
		h-9.7V-0.7h-1.5v12.7C132.6,12.4,132.9,12.7,133.3,12.7z M148.6,8.2c2,0,3.6,1.7,3.6,3.7c0,2.1-1.6,3.7-3.6,3.7S145,14,145,11.9
		C145,9.9,146.6,8.2,148.6,8.2z"/>
	<path class="st1" d="M288.9,222.1c0.1-0.1,0.2-0.3,0.2-0.5v-35.4c0-0.2-0.1-0.4-0.2-0.5l-81.1-84.9c-0.1-0.1-0.3-0.2-0.5-0.2h-39.8
		l-6.2-6.5c-0.1-0.1-0.3-0.2-0.5-0.2H19l-19.1-20V76l18.3,19.1c0.1,0.1,0.3,0.2,0.5,0.2h141.7l6.2,6.5c0.1,0.1,0.3,0.2,0.5,0.2h39.8
		l80.7,84.4v34.8l-25.7,26.9h-14c-0.2,0-0.4,0.1-0.5,0.2l-1.2,1.2h16.3c0.1,0,0.1-0.1,0.2-0.1L288.9,222.1z"/>
	<path class="st1" d="M186.8,44.5l10.9,11.4c0.1,0.1,0.3,0.2,0.5,0.2h14.8l2.9,3c-0.7,0.9-1.1,2-1.1,3.2c0,2.8,2.2,5.1,4.9,5.1
		c2.7,0,4.9-2.3,4.9-5.1c0-2.8-2.2-5.1-4.9-5.1c-1,0-2,0.3-2.8,0.9l-3.1-3.3c-0.1-0.1-0.3-0.2-0.5-0.2h-14.8l-10.5-11V-0.7h-1.5
		v44.7C186.6,44.1,186.7,44.3,186.8,44.5z M219.8,58.6c2,0,3.6,1.7,3.6,3.7c0,2.1-1.6,3.7-3.6,3.7c-2,0-3.6-1.7-3.6-3.7
		C216.3,60.3,217.9,58.6,219.8,58.6z"/>
	<path class="st1" d="M196.7,38.9l6.1,6.4c0.1,0.1,0.3,0.2,0.5,0.2h7.9c0.2,0,0.4-0.1,0.5-0.2l3-3.2c0.9,0.9,2.1,1.4,3.4,1.4
		c2.7,0,4.9-2.3,4.9-5.1s-2.2-5.1-4.9-5.1c-2.7,0-4.9,2.3-4.9,5.1c0,0.9,0.2,1.7,0.6,2.5l-3,3.1h-7.3l-5.7-6V-0.7h-1.5v39.1
		C196.5,38.5,196.6,38.7,196.7,38.9z M218.2,34.7c2,0,3.6,1.7,3.6,3.7c0,2.1-1.6,3.7-3.6,3.7s-3.6-1.7-3.6-3.7
		C214.6,36.4,216.2,34.7,218.2,34.7z"/>
	<path class="st1" d="M243.2,74.8l31.9,33.4c0.1,0.1,0.3,0.2,0.5,0.2h48.5l5.7,6c-0.6,0.9-1,1.9-1,3.1c0,2.8,2.2,5.1,4.9,5.1
		c2.7,0,4.9-2.3,4.9-5.1s-2.2-5.1-4.9-5.1c-1.1,0-2,0.4-2.9,1l-6-6.2c-0.1-0.1-0.3-0.2-0.5-0.2h-48.5l-31.5-32.9V-0.7h-1.5v75
		C242.9,74.4,243,74.6,243.2,74.8z M333.7,113.7c2,0,3.6,1.7,3.6,3.7c0,2.1-1.6,3.7-3.6,3.7c-2,0-3.6-1.7-3.6-3.7
		C330.1,115.4,331.7,113.7,333.7,113.7z"/>
	<path class="st1" d="M254.9,69l22.8,23.8c0.1,0.1,0.3,0.2,0.5,0.2h50.7c0.4,2.5,2.4,4.4,4.8,4.4c2.7,0,4.9-2.3,4.9-5.1
		s-2.2-5.1-4.9-5.1c-2.5,0-4.5,1.9-4.8,4.4h-50.4l-22.4-23.4V-0.7h-1.5v69.2C254.7,68.7,254.7,68.8,254.9,69z M333.7,88.5
		c2,0,3.6,1.7,3.6,3.7c0,2.1-1.6,3.7-3.6,3.7c-2,0-3.6-1.7-3.6-3.7C330.1,90.2,331.7,88.5,333.7,88.5z"/>
	<path class="st1" d="M273.1,44.8c0,0.2,0.1,0.4,0.2,0.5l17.4,18.2c0.1,0.1,0.3,0.2,0.5,0.2h7.3c0.2,2.6,2.3,4.7,4.9,4.7
		c2.7,0,4.9-2.3,4.9-5.1s-2.2-5.1-4.9-5.1c-2.4,0-4.3,1.7-4.8,4h-7l-16.9-17.7V-0.1l0.6-0.6h-2c0,0.1-0.1,0.2-0.1,0.3V44.8z
		 M303.3,59.5c2,0,3.6,1.7,3.6,3.7c0,2.1-1.6,3.7-3.6,3.7s-3.6-1.7-3.6-3.7C299.8,61.2,301.4,59.5,303.3,59.5z"/>
	<path class="st1" d="M281.6,5.8v33.4c0,0.2,0.1,0.4,0.2,0.5l7.8,8.2c0.1,0.1,0.3,0.2,0.5,0.2h8.3c0.4,2.5,2.4,4.4,4.8,4.4
		c2.7,0,4.9-2.3,4.9-5.1s-2.2-5.1-4.9-5.1c-2.5,0-4.5,1.9-4.8,4.4h-8l-7.4-7.8V6.1l6.5-6.8h-2.1l-5.7,6
		C281.7,5.4,281.6,5.6,281.6,5.8z M303.3,43.6c2,0,3.6,1.7,3.6,3.7c0,2.1-1.6,3.7-3.6,3.7s-3.6-1.7-3.6-3.7
		C299.8,45.3,301.4,43.6,303.3,43.6z"/>
	<path class="st1" d="M314.3,37L328,51.3c-0.5,0.8-0.8,1.7-0.8,2.7c0,2.8,2.2,5.1,4.9,5.1c2.7,0,4.9-2.3,4.9-5.1
		c0-2.8-2.2-5.1-4.9-5.1c-1.2,0-2.3,0.5-3.2,1.3l-13.4-14V-0.7h-1.5v37.2C314.1,36.7,314.2,36.8,314.3,37z M332.2,50.3
		c2,0,3.6,1.7,3.6,3.7c0,2.1-1.6,3.7-3.6,3.7c-2,0-3.6-1.7-3.6-3.7C328.6,52,330.2,50.3,332.2,50.3z"/>
	<path class="st1" d="M323.3,21.5c0,0.2,0.1,0.4,0.2,0.5l3.7,3.9c-0.5,0.8-0.8,1.7-0.8,2.7c0,2.8,2.2,5.1,4.9,5.1
		c2.7,0,4.9-2.3,4.9-5.1c0-2.8-2.2-5.1-4.9-5.1c-1.2,0-2.3,0.5-3.2,1.3l-3.4-3.6V-0.3l0.4-0.4h-1.8c0,0,0,0,0,0.1V21.5z M331.4,24.9
		c2,0,3.6,1.7,3.6,3.7c0,2.1-1.6,3.7-3.6,3.7c-2,0-3.6-1.7-3.6-3.7C327.9,26.6,329.5,24.9,331.4,24.9z"/>
	<path class="st1" d="M351.3,170.9c-0.1,0.1-0.2,0.3-0.2,0.5v78.1h1.5v-77.8l69.6-72.8c0.1-0.1,0.2-0.3,0.2-0.5V-0.7H421v98.8
		L351.3,170.9z"/>
	<path class="st1" d="M547.9,16.4v86.8c0,0.2,0.1,0.4,0.2,0.5l57.8,60.4c0.1,0.1,0.3,0.2,0.5,0.2H699l13.9,14.5c-0.6,0.9-1,1.9-1,3
		c0,2.8,2.2,5.1,4.9,5.1c2.7,0,4.9-2.3,4.9-5.1c0-2.8-2.2-5.1-4.9-5.1c-1.1,0-2.1,0.4-2.9,1l-14.1-14.7c-0.1-0.1-0.3-0.2-0.5-0.2
		h-92.6l-57.3-60V16.7L566-0.7h-2.1l-15.8,16.6C548,16,547.9,16.2,547.9,16.4z M716.8,178.2c2,0,3.6,1.7,3.6,3.7
		c0,2.1-1.6,3.7-3.6,3.7s-3.6-1.7-3.6-3.7C713.2,179.8,714.8,178.2,716.8,178.2z"/>
	<path class="st1" d="M360.4,172.6c-0.1,0.1-0.2,0.3-0.2,0.5v76.4h1.5v-76.1L477.5,52.3c0.1-0.1,0.2-0.3,0.2-0.5V-0.7h-1.5v52.2
		L360.4,172.6z"/>
	<path class="st1" d="M393.3,56.1c0,2.8,2.2,5.1,4.9,5.1c2.7,0,4.9-2.3,4.9-5.1c0-2.6-1.8-4.7-4.2-5.1V-0.7h-1.5v51.8
		C395.2,51.4,393.3,53.6,393.3,56.1z M401.8,56.1c0,2.1-1.6,3.7-3.6,3.7s-3.6-1.7-3.6-3.7c0-2.1,1.6-3.7,3.6-3.7
		S401.8,54.1,401.8,56.1z"/>
	<path class="st1" d="M450.6,21.2c2.7,0,4.9-2.3,4.9-5.1c0-2.8-2.2-5.1-4.9-5.1c-2.7,0-4.9,2.3-4.9,5.1
		C445.7,18.9,447.9,21.2,450.6,21.2z M450.6,12.3c2,0,3.6,1.7,3.6,3.7c0,2.1-1.6,3.7-3.6,3.7s-3.6-1.7-3.6-3.7
		C447.1,14,448.7,12.3,450.6,12.3z"/>
	<path class="st1" d="M481.2,237.5c-2.7,0-4.9,2.3-4.9,5.1s2.2,5.1,4.9,5.1c2.7,0,4.9-2.3,4.9-5.1S483.9,237.5,481.2,237.5z
		 M481.2,246.4c-2,0-3.6-1.7-3.6-3.7c0-2.1,1.6-3.7,3.6-3.7c2,0,3.6,1.7,3.6,3.7C484.8,244.7,483.2,246.4,481.2,246.4z"/>
	<path class="st1" d="M515,237.5c-2.7,0-4.9,2.3-4.9,5.1s2.2,5.1,4.9,5.1c2.7,0,4.9-2.3,4.9-5.1S517.7,237.5,515,237.5z M515,246.4
		c-2,0-3.6-1.7-3.6-3.7c0-2.1,1.6-3.7,3.6-3.7c2,0,3.6,1.7,3.6,3.7C518.6,244.7,517,246.4,515,246.4z"/>
	<path class="st1" d="M583.1,237.5c-2.7,0-4.9,2.3-4.9,5.1s2.2,5.1,4.9,5.1c2.7,0,4.9-2.3,4.9-5.1S585.8,237.5,583.1,237.5z
		 M583.1,246.4c-2,0-3.6-1.7-3.6-3.7c0-2.1,1.6-3.7,3.6-3.7c2,0,3.6,1.7,3.6,3.7C586.7,244.7,585.1,246.4,583.1,246.4z"/>
	<path class="st1" d="M382.3,86.2c2.7,0,4.9-2.3,4.9-5.1c0-2.8-2.2-5.1-4.9-5.1c-2.7,0-4.9,2.3-4.9,5.1
		C377.3,83.9,379.6,86.2,382.3,86.2z M382.3,77.4c2,0,3.6,1.7,3.6,3.7c0,2.1-1.6,3.7-3.6,3.7s-3.6-1.7-3.6-3.7
		C378.7,79,380.3,77.4,382.3,77.4z"/>
	<path class="st1" d="M297.9,225.2v-63.8c0-0.2-0.1-0.4-0.2-0.5l-66.5-69.5c-0.1-0.1-0.3-0.2-0.5-0.2h-60l-5.9-6.2
		c-0.1-0.1-0.3-0.2-0.5-0.2H28.8L-0.1,54.4v2.2L28,86c0.1,0.1,0.3,0.2,0.5,0.2H164l5.9,6.2c0.1,0.1,0.3,0.2,0.5,0.2h60l66,69.1v63.2
		l-23.6,24.7h2.1l22.8-23.8C297.9,225.6,297.9,225.4,297.9,225.2z"/>
	<path class="st1" d="M366.7,4.8v131.5L311,194.5c-0.1,0.1-0.2,0.3-0.2,0.5v54.5h1.5v-54.2l55.7-58.2c0.1-0.1,0.2-0.3,0.2-0.5V5.1
		l5.6-5.8h-2.1l-4.8,5C366.8,4.4,366.7,4.6,366.7,4.8z"/>
	<path class="st1" d="M494.8,5.4v41.6L370.2,177.4c-0.1,0.1-0.2,0.3-0.2,0.5v71.7h1.5v-71.3L496,47.9c0.1-0.1,0.2-0.3,0.2-0.5V5.8
		l6.2-6.5h-2.1L495,4.9C494.9,5,494.8,5.2,494.8,5.4z"/>
	<path class="st1" d="M509.5,4.8v39.5l-131.9,138c-0.1,0.1-0.2,0.3-0.2,0.5v66.7h1.5v-66.4l131.9-138c0.1-0.1,0.2-0.3,0.2-0.5V5.1
		l5.6-5.8h-2.1l-4.8,5C509.6,4.4,509.5,4.6,509.5,4.8z"/>
	<path class="st1" d="M521,14.5v36.3L389.2,188.7c-0.1,0.1-0.2,0.3-0.2,0.5v60.4h1.5v-60L522.3,51.6c0.1-0.1,0.2-0.3,0.2-0.5V14.8
		l14.9-15.5h-2.1l-14,14.7C521.1,14.1,521,14.3,521,14.5z"/>
	<path class="st1" d="M169.8,149.6l-20.3-21.2c-0.1-0.1-0.3-0.2-0.5-0.2H91.2c-0.4-2.5-2.4-4.4-4.8-4.4c-2.7,0-4.9,2.3-4.9,5.1
		s2.2,5.1,4.9,5.1c2.5,0,4.5-1.9,4.8-4.4h57.5l19.8,20.7v99.1h1.5v-99.4C170,149.9,170,149.8,169.8,149.6z M86.4,132.7
		c-2,0-3.6-1.7-3.6-3.7c0-2.1,1.6-3.7,3.6-3.7c2,0,3.6,1.7,3.6,3.7C90,131,88.4,132.7,86.4,132.7z"/>
	<path class="st1" d="M303.3,9.5c-2.7,0-4.9,2.3-4.9,5.1s2.2,5.1,4.9,5.1c2.7,0,4.9-2.3,4.9-5.1S306,9.5,303.3,9.5z M303.3,18.4
		c-2,0-3.6-1.7-3.6-3.7c0-2.1,1.6-3.7,3.6-3.7c2,0,3.6,1.7,3.6,3.7C306.9,16.7,305.3,18.4,303.3,18.4z"/>
	<path class="st1" d="M210.3,9.5c-2.7,0-4.9,2.3-4.9,5.1s2.2,5.1,4.9,5.1s4.9-2.3,4.9-5.1S213,9.5,210.3,9.5z M210.3,18.4
		c-2,0-3.6-1.7-3.6-3.7c0-2.1,1.6-3.7,3.6-3.7c2,0,3.6,1.7,3.6,3.7C213.9,16.7,212.3,18.4,210.3,18.4z"/>
	<path class="st1" d="M99,41.9c-2.7,0-4.9,2.3-4.9,5.1c0,2.8,2.2,5.1,4.9,5.1c2.7,0,4.9-2.3,4.9-5.1C103.9,44.2,101.7,41.9,99,41.9z
		 M99,50.8c-2,0-3.6-1.7-3.6-3.7c0-2.1,1.6-3.7,3.6-3.7c2,0,3.6,1.7,3.6,3.7C102.6,49.1,101,50.8,99,50.8z"/>
	<path class="st1" d="M175.9,144c0-0.2-0.1-0.4-0.2-0.5l-22.2-23.2c-0.1-0.1-0.3-0.2-0.5-0.2H75.4c-0.2,0-0.4,0.1-0.5,0.2l-11,11.5
		H14.3l-14.4-15.1v2.2l13.6,14.2c0.1,0.1,0.3,0.2,0.5,0.2h50.1c0.2,0,0.4-0.1,0.5-0.2l11-11.5h76.9l21.8,22.8V245
		c0,0.2,0.1,0.4,0.2,0.5l3.8,4h2.1l-4.7-4.9V144z"/>
	<path class="st1" d="M641.2,109.2V54c0-0.2-0.1-0.4-0.2-0.5l-25.2-26.4c1-0.9,1.6-2.3,1.6-3.8c0-2.8-2.2-5.1-4.9-5.1
		c-2.7,0-4.9,2.3-4.9,5.1c0,2.8,2.2,5.1,4.9,5.1c0.7,0,1.4-0.2,2-0.5l25.2,26.4v55.1c0,0.2,0.1,0.4,0.2,0.5l22.1,23.1
		c0.1,0.1,0.3,0.2,0.5,0.2h140.7v-1.5H662.9L641.2,109.2z M612.5,27c-2,0-3.6-1.7-3.6-3.7c0-2.1,1.6-3.7,3.6-3.7
		c2,0,3.6,1.7,3.6,3.7C616.1,25.4,614.5,27,612.5,27z"/>
	<path class="st1" d="M612.5,4.9c0.9,0,1.8-0.3,2.5-0.7l45.1,47.1v50.5c0,0.2,0.1,0.4,0.2,0.5l19.9,20.8c0.1,0.1,0.3,0.2,0.5,0.2
		h122.6v-1.5H681l-19.4-20.3V51c0-0.2-0.1-0.4-0.2-0.5L616.1,3.2c0.8-0.9,1.3-2.1,1.3-3.4c0-0.2,0-0.3,0-0.5H616c0,0.2,0,0.3,0,0.5
		c0,2.1-1.6,3.7-3.6,3.7c-2,0-3.6-1.7-3.6-3.7c0-0.2,0-0.3,0-0.5h-1.3c0,0.2,0,0.3,0,0.5C607.6,2.6,609.8,4.9,612.5,4.9z"/>
	<path class="st1" d="M676.5,87.5l16.7,17.4c0.1,0.1,0.3,0.2,0.5,0.2h109.6v-1.5H693.9l-16.2-17V-0.7h-1.5V87
		C676.2,87.2,676.3,87.4,676.5,87.5z"/>
	<path class="st1" d="M773.2,69.3c0,2.8,2.2,5.1,4.9,5.1c2.7,0,4.9-2.3,4.9-5.1c0-2.6-1.8-4.7-4.2-5.1V-0.7h-1.5v64.9
		C775,64.6,773.2,66.7,773.2,69.3z M781.7,69.3c0,2.1-1.6,3.7-3.6,3.7c-2,0-3.6-1.7-3.6-3.7c0-2.1,1.6-3.7,3.6-3.7
		C780.1,65.5,781.7,67.2,781.7,69.3z"/>
	<path class="st1" d="M737.1,43.8l17.5,18.3v19c-2.4,0.4-4.2,2.5-4.2,5.1c0,2.8,2.2,5.1,4.9,5.1c2.7,0,4.9-2.3,4.9-5.1
		c0-2.6-1.8-4.7-4.2-5.1V61.8c0-0.2-0.1-0.4-0.2-0.5l-17.5-18.3V-0.7h-1.5v44C736.9,43.4,737,43.6,737.1,43.8z M758.9,86.1
		c0,2.1-1.6,3.7-3.6,3.7s-3.6-1.7-3.6-3.7c0-2.1,1.6-3.7,3.6-3.7S758.9,84.1,758.9,86.1z"/>
	<path class="st1" d="M725.9,72.8c-1.4,0-2.7,0.7-3.6,1.7l-13.4-14V16.7c2.4-0.4,4.2-2.5,4.2-5.1c0-2.8-2.2-5.1-4.9-5.1
		c-2.7,0-4.9,2.3-4.9,5.1c0,2.6,1.8,4.7,4.2,5.1v44.1c0,0.2,0.1,0.4,0.2,0.5l13.8,14.4c-0.3,0.7-0.5,1.4-0.5,2.2
		c0,2.8,2.2,5.1,4.9,5.1c2.7,0,4.9-2.3,4.9-5.1C730.9,75.1,728.6,72.8,725.9,72.8z M704.6,11.6c0-2.1,1.6-3.7,3.6-3.7
		c2,0,3.6,1.7,3.6,3.7c0,2.1-1.6,3.7-3.6,3.7C706.2,15.4,704.6,13.7,704.6,11.6z M725.9,81.7c-2,0-3.6-1.7-3.6-3.7
		c0-2.1,1.6-3.7,3.6-3.7s3.6,1.7,3.6,3.7C729.5,80,727.9,81.7,725.9,81.7z"/>
	<path class="st1" d="M770.4,151.7l-18.3,19.2h-14.9L714,146.6c-0.1-0.1-0.3-0.2-0.5-0.2h-75.3l-52.8-55.3V49.9
		c2.5-0.2,4.6-2.4,4.6-5.1c0-2.8-2.2-5.1-4.9-5.1c-2.7,0-4.9,2.3-4.9,5.1c0,2.4,1.6,4.5,3.8,5v41.6c0,0.2,0.1,0.4,0.2,0.5l53.2,55.7
		c0.1,0.1,0.3,0.2,0.5,0.2h75.3l23.2,24.3c0.1,0.1,0.3,0.2,0.5,0.2h15.5c0.2,0,0.4-0.1,0.5-0.2l18.3-19.2h32v-1.5H771
		C770.8,151.5,770.6,151.6,770.4,151.7z M581.4,44.8c0-2.1,1.6-3.7,3.6-3.7c2,0,3.6,1.7,3.6,3.7c0,2.1-1.6,3.7-3.6,3.7
		C583,48.5,581.4,46.8,581.4,44.8z"/>
	<path class="st1" d="M612.8,86.9c2.7,0,4.9-2.3,4.9-5.1c0-2.8-2.2-5.1-4.9-5.1c-2.7,0-4.9,2.3-4.9,5.1
		C607.9,84.6,610.1,86.9,612.8,86.9z M612.8,78c2,0,3.6,1.7,3.6,3.7c0,2.1-1.6,3.7-3.6,3.7c-2,0-3.6-1.7-3.6-3.7
		C609.2,79.7,610.8,78,612.8,78z"/>
	<path class="st1" d="M759.6,229.4c2.5,0,4.5-1.9,4.8-4.4h38.8v-1.5h-38.8c-0.4-2.5-2.4-4.4-4.8-4.4c-2.7,0-4.9,2.3-4.9,5.1
		C754.6,227.1,756.8,229.4,759.6,229.4z M759.6,220.6c2,0,3.6,1.7,3.6,3.7c0,2.1-1.6,3.7-3.6,3.7c-2,0-3.6-1.7-3.6-3.7
		C756,222.2,757.6,220.6,759.6,220.6z"/>
</g>
</svg>
