<svg version="1.1" id="Brand-icon-facebook-color" xmlns="http://www.w3.org/2000/svg" xmlns:xlink="http://www.w3.org/1999/xlink" x="0px" y="0px" viewBox="0 0 24 24" style="enable-background:new 0 0 24 24;" xml:space="preserve"><path style="fill:#3D5A98;" d="M21.8,1H2.2C1.5,1,1,1.5,1,2.2v19.6C1,22.5,1.5,23,2.2,23h10.5v-8.5H9.9v-3.3&#xA;&#x9;h2.9V8.7c0-2.8,1.7-4.4,4.3-4.4c0.9,0,1.7,0,2.6,0.1v3h-1.8c-1.4,0-1.6,0.7-1.6,1.6v2.1h3.3L19,14.5h-2.9V23h5.6&#xA;&#x9;c0.7,0,1.2-0.5,1.2-1.2V2.2C23,1.5,22.5,1,21.8,1z"/></svg>