<svg version="1.1" id="Brand-icon-ruby" xmlns="http://www.w3.org/2000/svg" xmlns:xlink="http://www.w3.org/1999/xlink" x="0px" y="0px" viewBox="0 0 24 24" style="enable-background:new 0 0 24 24;" xml:space="preserve"><path d="M7,20.8c4.9,0.7,9.7,1.4,14.5,2.1c-1.7-2.9-3.3-5.7-4.9-8.5C16.6,14.3,7,20.8,7,20.8z M22.9,4.8&#xA;&#x9;c-0.4,0.7-0.9,1.3-1.3,2c-1.5,2.3-2.9,4.6-4.4,6.9c-0.1,0.1-0.2,0.2-0.1,0.4c1.4,2.4,2.8,4.9,4.2,7.4c0.2,0.4,0.4,0.8,0.7,1.1&#xA;&#x9;C22.4,16.7,22.7,10.7,22.9,4.8C23,4.8,22.9,4.8,22.9,4.8z M3.5,12.4c0.1,0.1,0.2,0.1,0.3,0.1c1.4-0.7,2.7-1.4,4.1-2.1&#xA;&#x9;c0.4-0.2,0.8-0.7,1.1-1c1.2-1.2,2.5-2.4,3.7-3.6c0.1-0.1,0.2-0.1,0.2-0.2c0.4-0.9,0.9-1.8,1.3-2.8c-0.5-0.2-1.1-0.4-1.6-0.6&#xA;&#x9;c-0.1,0-0.2,0-0.3,0.1c-1.2,0.7-2.4,1.4-3.6,2.1C8.3,4.7,7.9,5.3,7.3,5.7C6.5,6.5,5.7,7.3,4.9,8.1C4.7,8.3,4.5,8.6,4.3,8.8&#xA;&#x9;c-0.6,0.8-1.1,1.7-1.7,2.6C2.9,11.8,3.2,12.1,3.5,12.4z M8.5,11.3c-0.7,3-1.4,6-2,9c3.3-2.2,6.5-4.3,9.6-6.5&#xA;&#x9;C13.6,13,11.1,12.1,8.5,11.3z M22.1,4.8c-2.8,0.5-5.5,1-8.2,1.4c0.9,2.4,1.8,4.7,2.8,7C18.5,10.4,20.3,7.7,22.1,4.8z M8.6,10.6&#xA;&#x9;c2.5,0.8,4.9,1.7,7.4,2.5c-0.9-2.4-1.8-4.6-2.7-7C11.7,7.7,10.2,9.1,8.6,10.6z M3.6,14.2c-0.9,2.2-1.7,4.3-2.6,6.5&#xA;&#x9;c1.7-0.1,3.3-0.1,5-0.2C5.2,18.4,4.4,16.3,3.6,14.2z M6,19L6,19c0.7-2.6,1.3-5.2,1.9-7.8c-1.4,0.7-2.6,1.4-4,2.2&#xA;&#x9;C4.6,15.1,5.3,17.1,6,19z M21.1,4.4c-0.8-0.2-1.6-0.4-2.4-0.7c-1.1-0.3-2.3-0.6-3.4-0.9c-0.1,0-0.2-0.1-0.3,0.1&#xA;&#x9;c-0.4,0.9-0.8,1.7-1.2,2.6c0,0,0,0.1,0,0.1C16.2,5.2,18.7,4.8,21.1,4.4C21.1,4.4,21.1,4.4,21.1,4.4z M16.5,2.4L23,4.3&#xA;&#x9;c-0.4-1.1-0.7-2.1-1.1-3.2L16.5,2.4C16.5,2.4,16.5,2.4,16.5,2.4z M6.6,21.2c-0.8-0.1-1.6,0-2.4,0c-0.7,0-1.3,0-2,0.1&#xA;&#x9;c-0.1,0-0.1,0-0.2,0.1c5.5,0.5,11,1.1,16.5,1.6l0-0.1c-1.8-0.3-3.5-0.5-5.3-0.8C11,21.9,8.8,21.5,6.6,21.2z M1.1,18.7&#xA;&#x9;c0.7-1.7,1.4-3.4,2.1-5.1c0.1-0.2,0.1-0.3-0.1-0.4c-0.3-0.3-0.6-0.6-0.9-1c-0.4,2.3-0.9,4.5-1.3,6.7l0,0C1.1,18.8,1.1,18.7,1.1,18.7&#xA;&#x9;z M15.1,2c1.2-0.3,2.4-0.6,3.6-0.9c0.1,0,0.2,0,0.2-0.1l0-0.1c-1.7,0.2-3.4,0.5-5.2,0.7C14.2,1.9,14.6,2.1,15.1,2z"/></svg>