<svg version="1.1" id="Brand-icon-curl" xmlns="http://www.w3.org/2000/svg" xmlns:xlink="http://www.w3.org/1999/xlink" x="0px" y="0px" viewBox="0 0 24 24" style="enable-background:new 0 0 24 24;" xml:space="preserve"><path id="plain" d="M12,1H0.4l2,17.1L12,23h0l9.6-4.9l2-17.1H12z M20.4,11.7c0,0.2,0,0.3-0.2,0.4l-6.4,3.1l-0.5,0.2&#xA;&#x9;l-0.1-0.6v-1.2l0-0.3l0.2-0.1l4.5-2l-4.2-1.9l-1.8,3.6L11,14.9l-0.2,0.4l-0.4-0.2l-6.6-3c-0.2-0.1-0.3-0.2-0.3-0.4v-1.1&#xA;&#x9;c0-0.2,0.1-0.3,0.3-0.4l6.7-3.1l0.6-0.3v1.9l0,0.3l-0.3,0.1l-4.6,2l4.3,1.9l1.6-3.1l1.2-2.5L13.5,7l0.4,0.2l6.4,3&#xA;&#x9;c0.1,0.1,0.1,0.2,0.1,0.4L20.4,11.7z"/></svg>