<svg version="1.1" id="Brand-icon-android" xmlns="http://www.w3.org/2000/svg" xmlns:xlink="http://www.w3.org/1999/xlink" x="0px" y="0px" viewBox="0 0 24 24" style="enable-background:new 0 0 24 24;" xml:space="preserve"><path d="M4,8.1c-0.7,0-1.4,0.6-1.4,1.4l0,5.7c0,0.8,0.6,1.4,1.4,1.4c0.8,0,1.4-0.6,1.4-1.4V9.5&#xA;&#x9;C5.3,8.7,4.7,8.1,4,8.1 M14.9,3l0.9-1.7c0.1-0.1,0-0.2-0.1-0.3c-0.1,0-0.2,0-0.3,0.1l-1,1.7c-0.8-0.4-1.7-0.6-2.7-0.6&#xA;&#x9;c-1,0-1.9,0.2-2.7,0.6l-1-1.7C8.2,1,8.1,1,8,1C7.9,1.1,7.9,1.2,8,1.3L8.9,3C7.1,4,5.8,5.8,5.8,7.9l12.2,0C18,5.8,16.8,4,14.9,3&#xA;&#x9; M9.1,5.7c-0.3,0-0.5-0.2-0.5-0.5c0-0.3,0.2-0.5,0.5-0.5c0.3,0,0.5,0.2,0.5,0.5C9.6,5.5,9.4,5.7,9.1,5.7 M14.7,5.7&#xA;&#x9;c-0.3,0-0.5-0.2-0.5-0.5c0-0.3,0.2-0.5,0.5-0.5c0.3,0,0.5,0.2,0.5,0.5C15.2,5.5,15,5.7,14.7,5.7 M5.8,8.4l0,8.8&#xA;&#x9;c0,0.8,0.6,1.4,1.4,1.4l1,0l0,3c0,0.7,0.6,1.4,1.4,1.4c0.8,0,1.4-0.6,1.4-1.4l0-3l1.8,0l0,3c0,0.7,0.6,1.4,1.4,1.4&#xA;&#x9;c0.8,0,1.4-0.6,1.4-1.4l0-3l1,0c0.8,0,1.4-0.6,1.4-1.4l0-8.8L5.8,8.4L5.8,8.4z M21.2,9.5c0-0.8-0.6-1.4-1.4-1.4&#xA;&#x9;c-0.7,0-1.4,0.6-1.4,1.4l0,5.7c0,0.8,0.6,1.4,1.4,1.4c0.7,0,1.4-0.6,1.4-1.4C21.2,15.2,21.2,9.5,21.2,9.5z"/></svg>