<svg version="1.1" id="Brand-icon-node-color" xmlns="http://www.w3.org/2000/svg" xmlns:xlink="http://www.w3.org/1999/xlink" x="0px" y="0px" viewBox="0 0 24 24" style="enable-background:new 0 0 24 24;" xml:space="preserve"><path fill="#83CD29" d="M21.1,5.9l-8-4.7c-0.5-0.3-1.2-0.3-1.7,0L3.3,5.9C2.8,6.2,2.4,6.7,2.4,7.3v9.3c0,0.6,0.4,1.2,0.9,1.5l2.1,1.2&#xA;&#x9;c1,0.5,1.3,0.5,1.8,0.5c1.5,0,2.3-0.9,2.3-2.5V8.1c0-0.1,0.1-0.3,0-0.3h-1C8.3,7.8,8,8,8,8.1v9.2c0,0.7-0.7,1.4-1.9,0.8L4,16.9&#xA;&#x9;c-0.1,0-0.1-0.1-0.1-0.2V7.3c0-0.1,0.1-0.2,0.2-0.2l8.1-4.7c0.1,0,0.2,0,0.3,0l8,4.6c0.1,0,0.1,0.1,0.1,0.2v9.3c0,0.1,0,0.2-0.1,0.2&#xA;&#x9;l-8,4.7c-0.1,0-0.2,0-0.2,0L10,20.3c-0.1,0-0.1,0-0.2,0c-0.6,0.3-0.7,0.4-1.2,0.6c-0.1,0-0.3,0.1,0.1,0.4l2.7,1.6&#xA;&#x9;c0.3,0.1,0.6,0.2,0.8,0.2c0.3,0,0.6-0.1,0.8-0.2l8-4.7c0.5-0.3,0.8-0.9,0.8-1.5V7.3C21.9,6.7,21.6,6.2,21.1,5.9z M14.7,15.2&#xA;&#x9;c-2.1,0-2.6-0.6-2.8-1.6c0-0.1-0.1-0.3-0.2-0.3h-1c-0.1,0-0.2,0.2-0.2,0.3c0,1.4,0.7,3,4.3,3c2.6,0,4-1,4-2.7c0-1.7-1.2-2.2-3.7-2.5&#xA;&#x9;c-2.5-0.3-2.8-0.5-2.8-1.1c0-0.5,0.2-1.1,2.1-1.1c1.7,0,2.3,0.4,2.5,1.5c0,0.1,0.1,0.2,0.2,0.2h1c0.1,0,0.1,0,0.2-0.1&#xA;&#x9;c0,0,0.1-0.1,0.1-0.2c-0.2-1.9-1.4-2.8-4-2.8c-2.3,0-3.7,1-3.7,2.6c0,1.8,1.4,2.3,3.6,2.5c2.6,0.3,2.8,0.6,2.8,1.2&#xA;&#x9;C17.1,14.8,16.4,15.2,14.7,15.2z"/></svg>