<svg version="1.1" id="Brand-icon-twitter-color" xmlns="http://www.w3.org/2000/svg" xmlns:xlink="http://www.w3.org/1999/xlink" x="0px" y="0px" viewBox="0 0 24 24" style="enable-background:new 0 0 24 24;" xml:space="preserve"><path id="original" style="fill:#1DA1F2;" d="M7.9,21c8.3,0,12.8-6.9,12.8-12.9c0-0.2,0-0.4,0-0.6C21.6,6.8,22.4,6,23,5.1&#xA;&#x9;c-0.8,0.4-1.7,0.6-2.6,0.7c0.9-0.6,1.6-1.5,2-2.5c-0.9,0.5-1.9,0.9-2.9,1.1c-1.7-1.8-4.6-1.9-6.4-0.2C12,5.3,11.5,7,11.8,8.6&#xA;&#x9;c-3.6-0.2-7-1.9-9.3-4.7C1.3,5.9,1.9,8.6,3.9,9.9c-0.7,0-1.4-0.2-2-0.6c0,0,0,0,0,0.1c0,2.2,1.5,4,3.6,4.5c-0.7,0.2-1.4,0.2-2,0.1&#xA;&#x9;c0.6,1.9,2.3,3.1,4.2,3.2C6.1,18.3,4.1,19,2.1,19C1.7,19,1.4,19,1,19C3.1,20.3,5.5,21,7.9,21"/></svg>