<svg version="1.1" id="Brand-icon-google-color" xmlns="http://www.w3.org/2000/svg" xmlns:xlink="http://www.w3.org/1999/xlink" x="0px" y="0px" viewBox="0 0 24 24" style="enable-background:new 0 0 24 24;" xml:space="preserve"><path style="fill:#FFFFFF;" d="M8.6,1.6c-5.9,2-9,8.3-6.9,14c1.2,3.4,4.1,6.1,7.7,7c1.9,0.5,3.9,0.5,5.7,0.1&#xA;&#x9;&#x9;c1.7-0.4,3.3-1.2,4.6-2.3c1.4-1.2,2.3-2.8,2.8-4.6c0.5-1.9,0.6-3.9,0.3-5.8H12.2c0,1.4,0,2.9,0,4.3h6.1c-0.2,1.4-1.1,2.6-2.2,3.4&#xA;&#x9;&#x9;c-0.7,0.5-1.6,0.8-2.5,1c-0.9,0.2-1.8,0.2-2.7,0C10,18.4,9.2,18,8.4,17.5c-1.2-0.8-2.1-2-2.6-3.4c-0.5-1.4-0.5-2.9,0-4.3&#xA;&#x9;&#x9;c0.3-1,0.9-1.9,1.6-2.6c1.7-1.7,4.3-2.4,6.6-1.7c0.9,0.3,1.7,0.7,2.4,1.4c0.7-0.7,1.4-1.3,2.1-2c0.4-0.4,0.7-0.7,1.1-1.1&#xA;&#x9;&#x9;c-1-1-2.3-1.7-3.6-2.2C13.7,0.8,11,0.8,8.6,1.6z"/><path style="fill:#E33629;" d="M8.6,1.6c2.5-0.8,5.1-0.8,7.6,0.1c1.3,0.5,2.6,1.2,3.6,2.2c-0.4,0.4-0.7,0.7-1.1,1.1&#xA;&#x9;&#x9;c-0.7,0.7-1.4,1.3-2.1,2c-0.7-0.6-1.5-1.1-2.4-1.4c-2.4-0.7-4.9,0-6.6,1.7C6.8,8,6.2,8.9,5.9,9.9L2.2,7.1C3.5,4.5,5.8,2.5,8.6,1.6z&#xA;&#x9;&#x9;"/><path style="fill:#F8BD00;" d="M1.2,9.8c0.2-1,0.5-1.9,1-2.8l3.7,2.8c-0.5,1.4-0.5,2.9,0,4.3c-1.2,0.9-2.5,1.9-3.7,2.8&#xA;&#x9;&#x9;C1.1,14.7,0.7,12.2,1.2,9.8z"/><path style="fill:#587DBD;" d="M12.2,9.9h10.6c0.4,1.9,0.3,3.9-0.3,5.8c-0.5,1.7-1.5,3.3-2.8,4.6c-1.2-0.9-2.4-1.8-3.6-2.7&#xA;&#x9;&#x9;c1.2-0.8,2-2,2.2-3.4h-6.1C12.2,12.8,12.2,11.4,12.2,9.9z"/><path style="fill:#319F43;" d="M2.2,16.9c1.2-0.9,2.5-1.9,3.7-2.8c0.5,1.4,1.4,2.5,2.6,3.4c0.7,0.5,1.6,0.9,2.5,1.1&#xA;&#x9;&#x9;c0.9,0.2,1.8,0.2,2.7,0c0.9-0.1,1.7-0.5,2.5-1c1.2,0.9,2.4,1.8,3.6,2.7c-1.3,1.2-2.9,2-4.6,2.3c-1.9,0.4-3.9,0.4-5.7-0.1&#xA;&#x9;&#x9;c-1.5-0.4-2.9-1.1-4.1-2C4,19.6,2.9,18.4,2.2,16.9z"/></svg>