<svg version="1.1" xmlns="http://www.w3.org/2000/svg" xmlns:xlink="http://www.w3.org/1999/xlink" x="0px" y="0px" viewBox="0 0 24 24" style="enable-background:new 0 0 24 24;" xml:space="preserve" id="Brand-icon-java-color"><path fill="#0074BD" d="M15,16.5c-2.8,0.5-4.4,0.5-6.4,0.3c-1.5-0.1-0.5-0.9-0.5-0.9c-4.1,1.4,2.3,2.9,7.9,1.2C15.4,16.9,15,16.5,15,16.5z"/><path fill="#0074BD" d="M8.7,18.6c-3.7,1,2.2,3.1,7,1.1c-0.7-0.3-1.3-0.6-1.3-0.6c-2.1,0.4-3.1,0.4-5,0.2C7.8,19.1,8.7,18.6,8.7,18.6z"/><path fill="#EA2D2E" d="M17.2,4.9c0,0-8.2,2.1-4.3,6.6c1.2,1.3-0.3,2.5-0.3,2.5s2.9-1.5,1.6-3.4C12.9,8.8,12,7.9,17.2,4.9z"/><path fill="#0074BD" d="M16.9,17.6v0.1c6-1.6,3.8-5.6,0.9-4.6c-0.3,0.1-0.4,0.3-0.4,0.3s0.1,0,0.5-0.1C19.3,13,21.4,15.3,16.9,17.6z"/><path fill="#0074BD" d="M19.2,20.5c0,0,0.7,0.6-0.7,1c-2.7,0.8-11.3,1.1-13.7,0c-0.9-0.4,0.7-0.9,1.3-1c0.5-0.1,0.8-0.1,0.8-0.1&#xA;&#x9;&#x9;c-1-0.7-6.2,1.3-2.6,1.9C13.8,23.9,21.6,21.6,19.2,20.5z"/><path fill="#0074BD" d="M15.9,14.6C16.4,14.3,17,14,17,14s-1.8,0.3-3.6,0.5c-2.2,0.2-4.6,0.3-5.8,0.1c-2.9-0.4,1.5-1.4,1.5-1.4S7.4,13.1,5.4,14&#xA;&#x9;&#x9;C2.9,15.2,11.5,15.8,15.9,14.6z"/><path fill="#EA2D2E" d="M11.8,13.1c-0.9-2-3.9-3.7,0-6.8C16.7,2.5,14.2,0,14.2,0c1,4-3.5,5.2-5.2,7.6C7.9,9.3,9.6,11.1,11.8,13.1z"/><path fill="#0074BD" d="M17.1,23.1c-3.7,0.7-8.2,0.6-10.9,0.2c0,0,0.5,0.4,3.4,0.6c4.3,0.3,11-0.2,11.1-2.2C20.7,21.7,20.4,22.5,17.1,23.1z"/></svg>