<svg version="1.1" id="Brand-icon-dotnet-color" xmlns="http://www.w3.org/2000/svg" xmlns:xlink="http://www.w3.org/1999/xlink" x="0px" y="0px" viewBox="0 0 24 24" style="enable-background:new 0 0 24 24;" xml:space="preserve"><path fill="#1384C8" d="M15.2,14.5c0.1-0.2,0.2-0.4,0.3-0.6c0.4-1.2,0.8-2.5,1.2-3.7c0.2-0.5,0.3-0.9,0.6-1.4c0.5-0.6,1.1-1,1.9-1.1&#xA;&#x9;c0.3,0,0.6-0.1,0.9-0.1c0.9,0,1.8,0,2.8,0c0,0,0.1,0,0.2,0c0,0.1,0,0.1-0.1,0.1c-0.3,0.6-0.7,1.2-1,1.8c-0.6,1.1-1.2,2.1-1.9,3.2&#xA;&#x9;c-0.4,0.7-0.8,1.3-1.3,1.9c-0.4,0.4-0.8,0.9-1.3,1.2c-0.3,0.2-0.7,0.3-1.1,0.3c-1.5,0-2.9,0-4.4,0c-0.4,0-0.8-0.2-1.1-0.5&#xA;&#x9;c-0.4-0.4-0.7-0.9-0.9-1.5c-0.4-1-0.6-2.1-0.9-3.2c-0.1-0.5-0.3-1-0.4-1.5c0,0,0-0.1,0-0.1L8.5,9.5C8,10.1,7.5,10.7,7,11.4&#xA;&#x9;c-0.1,0.2-0.2,0.4-0.2,0.6c-0.2,0.8-0.5,1.6-0.7,2.4c-0.3,0.7-0.7,1.3-1.4,1.7c-0.4,0.2-0.9,0.3-1.3,0.3c-0.7,0-1.4,0-2.1,0&#xA;&#x9;c-0.2,0-0.2,0-0.1-0.2C1.3,15.1,1.7,14,2.2,13c0.5-1.1,1.1-2.1,1.8-3.1c0.5-0.6,1-1.2,1.7-1.7C6,8,6.4,7.8,6.8,7.8&#xA;&#x9;c0.1,0,0.1,0,0.2,0c1.5,0,3,0,4.5,0c0.8,0,1.4,0.3,1.8,1c0.3,0.4,0.5,0.8,0.6,1.3c0.3,0.9,0.5,1.8,0.8,2.8c0.1,0.5,0.3,1.1,0.4,1.6&#xA;&#x9;C15.1,14.5,15.1,14.5,15.2,14.5L15.2,14.5L15.2,14.5z"/></svg>