<svg version="1.1" id="Brand-icon-slack" xmlns="http://www.w3.org/2000/svg" xmlns:xlink="http://www.w3.org/1999/xlink" x="0px" y="0px" viewBox="0 0 24 24" style="enable-background:new 0 0 24 24;" xml:space="preserve"><path d="M2.9,12.6c-0.8,0-1.5-0.5-1.8-1.3c0,0,0-0.1,0-0.1c-0.3-1,0.3-2,1.2-2.3l15.6-5.3&#xA;&#x9;&#x9;c0.2-0.1,0.4-0.1,0.6-0.1c0.8,0,1.6,0.5,1.8,1.3l0,0.1c0.3,1-0.4,1.9-1.3,2.2L3.5,12.5C3.3,12.6,3.1,12.6,2.9,12.6z"/><path d="M5.5,20.3c-0.8,0-1.5-0.5-1.8-1.2c0,0,0-0.1,0-0.1c-0.3-1,0.3-2,1.2-2.4l15.6-5.3&#xA;&#x9;&#x9;c0.2-0.1,0.4-0.1,0.6-0.1c0.8,0,1.5,0.5,1.8,1.3l0,0.1c0.1,0.5,0.1,1.1-0.2,1.6c-0.2,0.4-0.9,0.7-0.9,0.7L6.1,20.2&#xA;&#x9;&#x9;C5.9,20.3,5.7,20.3,5.5,20.3L5.5,20.3z"/><path d="M18.4,20.4c-0.8,0-1.6-0.5-1.8-1.3L11.4,3.5l0-0.1c-0.3-1,0.4-2.1,1.4-2.3c1-0.2,1.9,0.3,2.3,1.2&#xA;&#x9;&#x9;l5.2,15.6l0,0.1c0.3,1-0.3,2.1-1.3,2.4C18.8,20.3,18.6,20.4,18.4,20.4L18.4,20.4z"/><path d="M10.7,23c-0.8,0-1.6-0.5-1.8-1.3L3.7,6.1l0-0.1C3.4,5,3.9,4,4.9,3.7c0.2-0.1,0.4-0.1,0.6-0.1&#xA;&#x9;&#x9;c0.8,0,1.6,0.5,1.8,1.3l5.2,15.6c0,0,0,0.1,0,0.1c0.3,1-0.3,2.1-1.3,2.4C11.1,23,10.9,23,10.7,23C10.7,23,10.7,23,10.7,23z"/><path d="M15.9,16.9l3.6-1.2l-1.2-3.5l-3.6,1.2L15.9,16.9z"/><path d="M8.2,19.5l3.6-1.2l-1.2-3.6L7,15.9L8.2,19.5z"/><path d="M13.3,9.1l3.6-1.2l-1.2-3.5l-3.6,1.2L13.3,9.1z"/><path d="M5.6,11.8l3.6-1.2L8,7L4.4,8.2L5.6,11.8z"/></svg>