<svg version="1.1" id="Brand-icon-github-color" xmlns="http://www.w3.org/2000/svg" xmlns:xlink="http://www.w3.org/1999/xlink" x="0px" y="0px" viewBox="0 0 24 24" style="enable-background:new 0 0 24 24;" xml:space="preserve"><g><path fill="#181616" d="M12,1C5.9,1,1,6,1,12.3c0,5,3.2,9.2,7.5,10.7c0.5,0.1,0.8-0.2,0.8-0.5c0-0.3,0-1.2,0-2.1C6.2,21,5.6,19,5.6,19&#xA;&#x9;&#x9;c-0.5-1.3-1.2-1.7-1.2-1.7c-1-0.7,0.1-0.7,0.1-0.7c1.1,0.1,1.7,1.2,1.7,1.2c1,1.7,2.6,1.2,3.2,0.9c0.1-0.7,0.4-1.2,0.7-1.5&#xA;&#x9;&#x9;C7.5,17,5,16,5,11.7c0-1.2,0.4-2.2,1.1-3C6,8.4,5.6,7.2,6.2,5.7c0,0,0.9-0.3,3,1.2c0.9-0.3,1.8-0.4,2.8-0.4c0.9,0,1.9,0.1,2.8,0.4&#xA;&#x9;&#x9;c2.1-1.5,3-1.2,3-1.2c0.6,1.6,0.2,2.7,0.1,3c0.7,0.8,1.1,1.8,1.1,3c0,4.3-2.6,5.3-5,5.6c0.4,0.4,0.7,1,0.7,2.1c0,1.5,0,2.7,0,3.1&#xA;&#x9;&#x9;c0,0.3,0.2,0.7,0.8,0.5c4.4-1.5,7.5-5.7,7.5-10.7C23,6,18.1,1,12,1L12,1z"/></g></svg>