<svg version="1.1" id="Brand-icon-php" xmlns="http://www.w3.org/2000/svg" xmlns:xlink="http://www.w3.org/1999/xlink" x="0px" y="0px" viewBox="0 0 24 24" style="enable-background:new 0 0 24 24;" xml:space="preserve"><path d="M12,6C5.9,6,1,8.5,1,11.6s4.9,5.6,11,5.6s11-2.5,11-5.6S18.1,6,12,6z M9.1,12.7c-0.3,0.2-0.6,0.3-0.9,0.5&#xA;&#x9;c-0.3,0.1-0.7,0.1-1.2,0.1H5.9L5.6,15H4.3l1.2-6.1H8c0.8,0,1.3,0.2,1.7,0.6s0.5,1,0.3,1.7c-0.1,0.3-0.2,0.6-0.3,0.8&#xA;&#x9;C9.5,12.2,9.4,12.5,9.1,12.7z M13,13.2l0.5-2.6c0.1-0.3,0-0.5-0.1-0.6c-0.1-0.1-0.3-0.2-0.7-0.2h-1l-0.7,3.4H9.8l1.2-5.9h1.3&#xA;&#x9;l-0.3,1.6h1.2c0.7,0,1.2,0.1,1.5,0.4c0.3,0.3,0.4,0.6,0.2,1.2l-0.5,2.7H13z M20.2,11.2c-0.1,0.3-0.2,0.6-0.3,0.8&#xA;&#x9;c-0.1,0.2-0.3,0.5-0.5,0.7c-0.3,0.2-0.6,0.3-0.9,0.5c-0.3,0.1-0.7,0.1-1.2,0.1h-1.1L15.9,15h-1.3l1.2-6.1h2.5c0.8,0,1.3,0.2,1.7,0.6&#xA;&#x9;C20.3,9.9,20.4,10.5,20.2,11.2z M17.7,9.8h-0.9l-0.5,2.5h0.8c0.5,0,0.9-0.1,1.2-0.3c0.3-0.2,0.4-0.5,0.5-1c0.1-0.4,0-0.8-0.1-1&#xA;&#x9;C18.6,9.9,18.2,9.8,17.7,9.8z M7.5,9.8H6.6l-0.5,2.5h0.8c0.5,0,0.9-0.1,1.2-0.3c0.3-0.2,0.4-0.5,0.5-1c0.1-0.4,0-0.8-0.1-1&#xA;&#x9;C8.3,9.9,8,9.8,7.5,9.8z"/></svg>