<svg version="1.1" id="Brand-icon-python" xmlns="http://www.w3.org/2000/svg" xmlns:xlink="http://www.w3.org/1999/xlink" x="0px" y="0px" viewBox="0 0 24 24" style="enable-background:new 0 0 24 24;" xml:space="preserve"><path d="M22.4,9.3c-0.4-1.5-1.1-2.7-2.6-2.7h-1.9v2.3c0,1.8-1.6,3.2-3.3,3.2H9.2c-1.4,0-2.6,1.3-2.6,2.8v5&#xA;&#x9;c0,1.4,1.2,2.3,2.6,2.7c1.7,0.5,3.2,0.6,5.2,0c1.3-0.4,2.6-1.2,2.6-2.7v-2h-5.2v-0.7h7.9c1.5,0,2.1-1,2.6-2.6&#xA;&#x9;C22.9,12.9,22.9,11.4,22.4,9.3L22.4,9.3z M14.8,19.3c0.5,0,1,0.4,1,1c0,0.6-0.4,1-1,1c-0.5,0-1-0.4-1-1&#xA;&#x9;C13.8,19.7,14.3,19.3,14.8,19.3z"/><path d="M14.5,1.2C13.6,1.1,12.6,1,11.7,1C10.8,1,10,1.1,9.2,1.2C7,1.6,6.7,2.4,6.7,3.9v1.9h5.2v0.7H4.6&#xA;&#x9;c-1.5,0-2.9,0.9-3.3,2.7c-0.5,2-0.5,3.2,0,5.3c0.4,1.6,1.3,2.6,2.8,2.6h1.8v-2.3c0-1.7,1.5-3.2,3.3-3.2h5.3c1.5,0,2.6-1.2,2.6-2.7&#xA;&#x9;v-5C17.1,2.5,15.9,1.4,14.5,1.2z M8.9,4.6c-0.5,0-1-0.4-1-1c0-0.6,0.4-1,1-1s1,0.4,1,1C9.9,4.2,9.4,4.6,8.9,4.6z"/></svg>