<svg version="1.1" id="Brand-icon-javascript" xmlns="http://www.w3.org/2000/svg" xmlns:xlink="http://www.w3.org/1999/xlink" x="0px" y="0px" viewBox="0 0 24 24" style="enable-background:new 0 0 24 24;" xml:space="preserve"><path d="M1,1v22h22V1H1z M12.6,19.9c-0.4,0.7-1,1.1-1.7,1.3c-1.1,0.2-2.1,0.1-2.9-0.4c-0.5-0.3-0.9-0.8-1.2-1.5l1.7-1&#xA;&#x9;c0,0,0,0.1,0.1,0.2c0.3,0.4,0.4,0.6,0.8,0.8c0.3,0.1,1.1,0.2,1.4-0.4c0.2-0.3,0.1-1.4,0.1-2.5v-5.3H13c0,1.9,0,3.8,0,5.7&#xA;&#x9;C13,18,13.1,19,12.6,19.9z M21.1,19.5c-0.7,2.4-4.7,2.5-6.3,0.9c-0.3-0.4-0.5-0.6-0.7-1c0.9-0.5,0.9-0.5,1.7-1&#xA;&#x9;c0.4,0.7,0.9,1,1.6,1.2c1,0.1,2-0.2,1.8-1.3c-0.2-0.8-2.1-1.1-3.3-2c-1.2-0.9-1.5-2.9-0.5-4.1c0.4-0.4,1-0.7,1.6-0.9l0.6-0.1&#xA;&#x9;c1.3-0.1,2,0.3,2.6,0.9c0.1,0.2,0.3,0.3,0.5,0.7c-0.7,0.4-0.7,0.4-1.6,1c-0.2-0.4-0.5-0.7-0.9-0.8c-0.6-0.2-1.3,0-1.4,0.6&#xA;&#x9;c-0.1,0.1-0.1,0.3,0,0.6c0.2,0.5,0.9,0.7,1.6,1c2,0.8,2.6,1.6,2.8,2.6C21.4,18.6,21.2,19.2,21.1,19.5z"/></svg>