<svg version="1.1" id="Brand-icon-javascript-color" xmlns="http://www.w3.org/2000/svg" xmlns:xlink="http://www.w3.org/1999/xlink" x="0px" y="0px" viewBox="0 0 24 24" style="enable-background:new 0 0 24 24;" xml:space="preserve"><path style="fill:#F0DB4F;" d="M1,1h22v22H1L1,1z"/><path style="fill:#323330;" d="M21.2,17.8c-0.2-1-0.8-1.8-2.8-2.6c-0.7-0.3-1.4-0.5-1.6-1c-0.1-0.3-0.1-0.5,0-0.6&#xA;&#x9;c0.1-0.6,0.8-0.8,1.4-0.6c0.4,0.1,0.7,0.4,0.9,0.8c0.9-0.6,0.9-0.6,1.6-1c-0.2-0.4-0.4-0.5-0.5-0.7c-0.6-0.6-1.3-1-2.6-0.9l-0.6,0.1&#xA;&#x9;c-0.6,0.2-1.2,0.5-1.6,0.9c-1,1.2-0.7,3.2,0.5,4.1c1.2,0.9,3.1,1.2,3.3,2c0.2,1.1-0.8,1.4-1.8,1.3c-0.7-0.2-1.2-0.5-1.6-1.2&#xA;&#x9;c-0.8,0.5-0.8,0.5-1.7,1c0.2,0.4,0.4,0.6,0.7,1c1.6,1.6,5.6,1.5,6.3-0.9C21.2,19.2,21.4,18.6,21.2,17.8z M13,11.1h-2.1l0,5.3&#xA;&#x9;c0,1.1,0.1,2.2-0.1,2.5c-0.3,0.6-1.1,0.5-1.4,0.4c-0.4-0.2-0.5-0.4-0.8-0.8c-0.1-0.1-0.1-0.2-0.1-0.2l-1.7,1C7.1,20,7.5,20.5,8,20.8&#xA;&#x9;c0.8,0.5,1.8,0.6,2.9,0.4c0.7-0.2,1.3-0.6,1.7-1.3c0.5-0.9,0.4-1.9,0.4-3.1C13,14.9,13,13,13,11.1z"/></svg>