<svg version="1.1" id="Vlt-icon-rocket" xmlns="http://www.w3.org/2000/svg" xmlns:xlink="http://www.w3.org/1999/xlink" x="0px" y="0px" viewBox="0 0 24 24" style="enable-background:new 0 0 24 24;" xml:space="preserve"><path d="M1.1,23c-0.2,0-0.3-0.1-0.4-0.2c-0.2-0.1-0.2-0.4-0.1-0.6c1.8-4.7,3.6-7,5.5-7c0.6,0,1.2,0.3,1.7,0.8&#xA;&#x9;c0.8,0.8,0.9,1.6,0.7,2.1c-0.4,1.7-2.8,3.3-7.3,4.8C1.2,23,1.1,23,1.1,23C1.1,23,1.1,23,1.1,23z M6.1,16.3c-0.6,0-1.2,0.5-1.9,1.4&#xA;&#x9;c-0.7,0.9-1.4,2.2-2.1,3.8c1.5-0.6,2.8-1.2,3.7-1.8c1.2-0.8,1.6-1.4,1.7-1.8c0.1-0.4-0.1-0.7-0.4-1.1C6.7,16.5,6.4,16.3,6.1,16.3&#xA;&#x9;L6.1,16.3z M22.9,1L22.9,1h0.6v0.5c0,2.9-0.5,5.4-1.5,7.6c-0.8,1.7-2,3.3-3.4,4.5c-0.3,0.2-0.5,0.4-0.8,0.6&#xA;&#x9;c-0.1,0.9-0.5,1.9-1.2,2.9c-0.6,0.8-1.4,1.6-2.5,2.4c-1.8,1.4-3.5,2.2-3.6,2.2c-0.3,0.1-0.6,0.1-0.7-0.2c-0.2-0.2-0.1-0.5,0.1-0.7&#xA;&#x9;c0,0,0.5-0.5,1.1-1.4c0.4-0.7,1-1.9,1-3.3c-0.9-0.3-2-1.3-2.5-1.8C8.9,14,7.9,12.9,7.5,12c-1.4,0.1-2.6,0.6-3.4,1&#xA;&#x9;c-0.9,0.5-1.5,1-1.5,1c-0.2,0.2-0.5,0.2-0.7,0.1c-0.2-0.2-0.3-0.4-0.2-0.7c0-0.1,0.9-1.7,2.3-3.4c0.8-1,1.7-1.8,2.6-2.4&#xA;&#x9;c1-0.7,2-1.1,3-1.1C9.8,6.2,10,6,10.3,5.7c1.3-1.4,2.9-2.5,4.7-3.3C17.3,1.5,19.9,1,22.9,1z M4.1,11.8c1.1-0.5,2.2-0.8,3.4-0.9&#xA;&#x9;C7.6,10.2,8,9,8.7,7.8C6.8,8.4,5.2,10.3,4.1,11.8z M12.2,19.6L12.2,19.6c1.6-1,3.6-2.7,4.2-4.5c-1.3,0.7-2.5,1.1-3.3,1.2&#xA;&#x9;C13.1,17.5,12.7,18.6,12.2,19.6L12.2,19.6z M17.8,12.8L17.8,12.8c2.9-2.4,4.4-6.1,4.5-10.7c-4.8,0.1-8.7,1.6-11.2,4.3&#xA;&#x9;c-2.1,2.3-2.6,4.7-2.6,5c0,0,0,0.2,0.5,0.8c0.3,0.4,0.8,0.9,1.2,1.4c0.5,0.5,1,0.9,1.4,1.2c0.6,0.4,0.9,0.4,0.9,0.4&#xA;&#x9;C12.9,15.3,15.4,14.8,17.8,12.8z M16,10.9c-1.6,0-2.9-1.2-2.9-2.8c0-1.5,1.3-2.8,2.9-2.8s2.9,1.2,2.9,2.8&#xA;&#x9;C18.9,9.7,17.6,10.9,16,10.9L16,10.9z M16,6.5c-1,0-1.7,0.7-1.7,1.7s0.8,1.6,1.7,1.6s1.7-0.7,1.7-1.6S17,6.5,16,6.5z"/></svg>