<svg version="1.1" id="Vlt-icon-pie-chart" xmlns="http://www.w3.org/2000/svg" xmlns:xlink="http://www.w3.org/1999/xlink" x="0px" y="0px" viewBox="0 0 24 24" style="enable-background:new 0 0 24 24;" xml:space="preserve"><path d="M15.4,21.1L12.8,12l2.7-9c3.6,1.4,6.2,4.9,6.2,9C21.7,16.2,19.1,19.7,15.4,21.1 M2.3,12.7h9.3l2.5,8.8&#xA;&#x9;c-0.7,0.2-1.4,0.2-2.1,0.2C6.9,21.7,2.7,17.7,2.3,12.7 M12,2.3c0.8,0,1.5,0.1,2.3,0.3l-2.7,8.8H2.3C2.6,6.3,6.9,2.3,12,2.3 M12,1&#xA;&#x9;C5.9,1,1,5.9,1,12s4.9,11,11,11c6.1,0,11-4.9,11-11S18.1,1,12,1"/></svg>