<svg version="1.1" id="Vlt-icon-asterisk" xmlns="http://www.w3.org/2000/svg" xmlns:xlink="http://www.w3.org/1999/xlink" x="0px" y="0px" viewBox="0 0 24 24" style="enable-background:new 0 0 24 24;" xml:space="preserve"><path id="path-1_1_" d="M9.7,13.4H1.3c-0.7,0-1.3-0.6-1.3-1.3s0.6-1.3,1.3-1.3h8.4L5.5,3.6c-0.2-0.3-0.2-0.7-0.1-1S5.7,2,6,1.8&#xA;&#x9;c0.6-0.4,1.5-0.1,1.8,0.5L12,9.5l4.2-7.2c0.4-0.6,1.2-0.9,1.8-0.5c0.3,0.2,0.5,0.5,0.6,0.8s0,0.7-0.1,1l-4.2,7.2h8.4&#xA;&#x9;c0.7,0,1.3,0.6,1.3,1.3s-0.6,1.3-1.3,1.3h-8.4l4.2,7.2c0.2,0.3,0.2,0.7,0.1,1s-0.3,0.6-0.6,0.8c-0.6,0.4-1.5,0.1-1.8-0.5L12,14.7&#xA;&#x9;l-4.2,7.2c-0.4,0.6-1.2,0.9-1.8,0.5c-0.3-0.2-0.5-0.5-0.6-0.8s0-0.7,0.1-1L9.7,13.4L9.7,13.4z"/></svg>