<svg version="1.1" id="Vlt-icon-print" xmlns="http://www.w3.org/2000/svg" xmlns:xlink="http://www.w3.org/1999/xlink" x="0px" y="0px" viewBox="0 0 24 24" style="enable-background:new 0 0 24 24;" xml:space="preserve"><path id="path-1_1_" d="M17.5,17.1H6.3v5.3h11.1L17.5,17.1C17.4,17.1,17.5,17.1,17.5,17.1z M13.6,1.7H6.3v6.4h11.1v-2h-2.7&#xA;&#x9;c-0.6,0-1.1-0.5-1.1-1.1C13.6,5,13.6,1.7,13.6,1.7z M14.9,2.8v1.9h1.7L14.9,2.8z M5,17.1H4.3v-1.3h15.3v1.3h-0.8v1.1h3.5v-8&#xA;&#x9;c0-0.4-0.4-0.8-0.8-0.8H2.3c-0.4,0-0.7,0.4-0.7,0.8v8h3.5L5,17.1L5,17.1z M2.6,8.1V7.3c0-0.9,0.8-1.6,1.7-1.6h0.8V1.6&#xA;&#x9;C5,1,5.5,0.4,6.2,0.4h8.4l4.2,4.7v0.6h0.8c0.9,0,1.6,0.7,1.6,1.6v0.8h0.3c1.2,0,2.1,0.9,2.1,2.1v9.2h-4.8v3.2c0,0.6-0.5,1.1-1.1,1.1&#xA;&#x9;H6.2c-0.6,0-1.1-0.5-1.1-1.1v-3.2H0.3v-9.2c0-1.2,0.9-2.1,2-2.1C2.3,8.1,2.6,8.1,2.6,8.1z M3.9,8.1H5V7H4.3C4.1,7,4,7.1,4,7.3&#xA;&#x9;L3.9,8.1L3.9,8.1z M19.9,8.1V7.3c0-0.2-0.1-0.3-0.3-0.3h-0.8v1.1H19.9z M8.6,19.4h6.7v-1.3H8.6V19.4z M8.6,21.4h6.7v-1.3H8.6V21.4z&#xA;&#x9; M3.3,11.8v-1.3h2.9v1.3H3.3z"/></svg>