<svg version="1.1" id="Vlt-icon-bin" xmlns="http://www.w3.org/2000/svg" xmlns:xlink="http://www.w3.org/1999/xlink" x="0px" y="0px" viewBox="0 0 24 24" style="enable-background:new 0 0 24 24;" xml:space="preserve"><path id="path-1" d="M18.7,5.8H5.3l0.7,13.4c0.1,1.4,1.3,2.5,2.7,2.5h6.4c1.4,0,2.6-1.1,2.7-2.6L18.7,5.8z M4,5.8H2.7&#xA;&#x9;C2.3,5.8,2,5.5,2,5.2c0-0.4,0.3-0.7,0.7-0.7H8v-2c0-0.9,0.7-1.6,1.7-1.6h4.6c0.9,0,1.7,0.7,1.7,1.6v2h5.4c0.4,0,0.6,0.3,0.6,0.7&#xA;&#x9;c0,0.4-0.3,0.6-0.6,0.6H20l-0.7,13.4c-0.1,2.1-1.9,3.8-4,3.8H8.8c-2.1,0-3.9-1.7-4-3.8L4,5.8z M9.4,4.5h5.3v-2&#xA;&#x9;c0-0.2-0.2-0.3-0.4-0.3H9.7c-0.2,0-0.3,0.2-0.3,0.3V4.5z M9,9h1.3v9H9V9z M13.7,9H15v9h-1.3V9z"/></svg>