<svg version="1.1" id="Vlt-icon-credit-card" xmlns="http://www.w3.org/2000/svg" xmlns:xlink="http://www.w3.org/1999/xlink" x="0px" y="0px" viewBox="0 0 24 24" style="enable-background:new 0 0 24 24;" xml:space="preserve"><path d="M20.5,4C21.9,4,23,5.1,23,6.6v11.2c0,1.4-1.1,2.5-2.5,2.6H3.5c-1.4,0-2.5-1.1-2.5-2.6V6.6C1,5.1,2.1,4,3.5,4&#xA;&#x9;C3.5,4,20.5,4,20.5,4z M20.5,19c0.7,0,1.3-0.6,1.3-1.3V9H2.2v8.7c0,0.7,0.6,1.3,1.3,1.3H20.5z M3.5,5.2c-0.7,0-1.3,0.6-1.3,1.3v1.2&#xA;&#x9;h19.5V6.6c0-0.7-0.6-1.3-1.3-1.3L3.5,5.2L3.5,5.2z M12.2,15.6v-1.2h7.2v1.2C19.5,15.6,12.2,15.6,12.2,15.6z"/></svg>