<svg version="1.1" id="Vlt-icon-calendar-2" xmlns="http://www.w3.org/2000/svg" xmlns:xlink="http://www.w3.org/1999/xlink" x="0px" y="0px" viewBox="0 0 24 24" style="enable-background:new 0 0 24 24;" xml:space="preserve"><path id="path-1_1_" d="M21.7,17.2V3c0-0.5-0.4-0.9-0.8-0.9h-1.5c0.5,0.6,0.7,1.4,0.6,2.1c-0.2,0.9-0.9,1.6-1.8,1.8&#xA;&#x9;&#x9;&#x9;&#x9;&#x9;c-0.7,0.2-1.5,0-2.1-0.5s-0.9-1.1-0.9-1.9c0-0.6,0.2-1.2,0.6-1.6h-1.9c0.5,0.7,0.8,1.5,0.6,2.3c-0.2,0.9-0.9,1.6-1.8,1.8&#xA;&#x9;&#x9;&#x9;&#x9;&#x9;c-0.7,0.2-1.5,0-2.1-0.5c-0.5-0.4-0.8-1.1-0.8-1.9C9.8,3,10,2.5,10.4,2h-2C8.9,2.7,9.2,3.5,9,4.2C8.8,5.2,8.1,5.8,7.2,6.1&#xA;&#x9;&#x9;&#x9;&#x9;&#x9;c-0.7,0.2-1.5,0-2.1-0.5C4.6,5.2,4.3,4.4,4.3,3.7C4.3,3,4.5,2.5,4.9,2h-2C2.4,2,2,2.5,2,3v18c0,0.5,0.4,0.8,0.9,0.8h14.4v-2.3&#xA;&#x9;&#x9;&#x9;&#x9;&#x9;c0-1.2,1-2.2,2.2-2.2H21.7z M20.8,18.5h-1.4c-0.5,0-0.8,0.4-0.8,0.8v1.4L20.8,18.5z M16.2,11.4L11,16.9l-3-2.4l0.8-1l2,1.6&#xA;&#x9;&#x9;&#x9;&#x9;&#x9;l7.9-8.2l0.9,0.9l-2.5,2.6c0.6,0.9,0.9,2,0.9,3.2c0.1,3.3-2.7,6.1-6.1,6.1s-6.1-2.8-6.1-6.2s2.8-6.1,6.1-6.1&#xA;&#x9;&#x9;&#x9;&#x9;&#x9;c1.1,0,2.2,0.3,3.2,0.9l-0.7,1.1c-0.8-0.5-1.6-0.7-2.5-0.7C9.2,8.6,7,10.9,7,13.6s2.2,4.8,4.9,4.8s4.8-2.2,4.8-4.8&#xA;&#x9;&#x9;&#x9;&#x9;&#x9;C16.7,12.8,16.5,12.1,16.2,11.4z M18.2,23.1H2.9c-1.2,0-2.1-1-2.1-2.2V3c0-1.2,1-2.1,2.1-2.1h3.6v1.7L6.2,2.8&#xA;&#x9;&#x9;&#x9;&#x9;&#x9;C5.8,3,5.6,3.3,5.6,3.8c0,0.3,0.2,0.7,0.4,0.9c0.3,0.2,0.6,0.3,1,0.2s0.7-0.4,0.8-0.8C7.9,3.5,7.6,3,7.2,2.8L6.8,2.5V0.9h5.3&#xA;&#x9;&#x9;&#x9;&#x9;&#x9;v1.7l-0.4,0.2c-0.4,0.2-0.6,0.6-0.6,1c0,0.3,0.2,0.7,0.4,0.9c0.3,0.2,0.6,0.3,1,0.2s0.7-0.4,0.8-0.8c0.1-0.6-0.2-1.1-0.6-1.3&#xA;&#x9;&#x9;&#x9;&#x9;&#x9;l-0.4-0.2V0.9h5.3v1.7l-0.4,0.2c-0.4,0.2-0.6,0.6-0.6,1c0,0.3,0.2,0.7,0.4,0.9c0.3,0.2,0.6,0.3,1,0.2s0.7-0.4,0.8-0.8&#xA;&#x9;&#x9;&#x9;&#x9;&#x9;c0.1-0.6-0.2-1.1-0.6-1.3l-0.4-0.2V0.9H21c1.2,0,2.2,1,2.2,2.1v15.3L18.2,23.1z"/></svg>