<svg version="1.1" id="Vlt-icon-light-bulb" xmlns="http://www.w3.org/2000/svg" xmlns:xlink="http://www.w3.org/1999/xlink" x="0px" y="0px" viewBox="0 0 24 24" style="enable-background:new 0 0 24 24;" xml:space="preserve"><path id="path-1" d="M19.1,11.8c0-3.5-2.5-6.4-5.9-7S6.4,6.2,5.3,9.5s0.4,6.9,3.4,8.5c-0.2,0.2-0.2,0.5-0.2,0.8v1.5c0,1.7,1.4,3,3,3&#xA;&#x9;h1c1.7,0,3-1.4,3-3v-1.5c0-0.3-0.1-0.6-0.2-0.8C17.6,16.8,19.1,14.4,19.1,11.8z M14,18.9v0.5h-2.5c-0.4,0-0.8,0.3-0.8,0.8&#xA;&#x9;c0,0.4,0.3,0.8,0.8,0.8h2.4c-0.2,0.6-0.8,1-1.4,1h-1c-0.8,0-1.5-0.7-1.5-1.5v-1.5H14z M12,17.3c-3.1,0-5.6-2.5-5.6-5.6&#xA;&#x9;S8.9,6.2,12,6.2s5.6,2.5,5.6,5.6c0,1.5-0.6,2.9-1.6,3.9S13.4,17.3,12,17.3L12,17.3z M11.7,2.9c-0.4,0-0.8-0.3-0.8-0.8v-1&#xA;&#x9;c0-0.4,0.3-0.8,0.8-0.8c0.4,0,0.8,0.3,0.8,0.8v1C12.5,2.6,12.1,2.9,11.7,2.9z M22.6,9.8c0.4,0,0.8,0.3,0.8,0.8&#xA;&#x9;c0,0.4-0.3,0.8-0.8,0.8h-1c-0.4,0-0.8-0.3-0.8-0.8c0-0.4,0.3-0.8,0.8-0.8H22.6z M3.1,10.5c0,0.4-0.3,0.8-0.8,0.8h-1&#xA;&#x9;c-0.4,0-0.8-0.3-0.8-0.8c0-0.4,0.3-0.8,0.8-0.8h1C2.8,9.8,3.1,10.1,3.1,10.5z M18.8,5.5c-0.3,0-0.6-0.2-0.7-0.5&#xA;&#x9;c-0.1-0.3-0.1-0.6,0.2-0.8l0.7-0.7c0.3-0.3,0.8-0.3,1.1,0c0.3,0.3,0.3,0.8,0,1.1l-0.7,0.7C19.2,5.4,19,5.5,18.8,5.5z M5.2,4.2&#xA;&#x9;c0.3,0.3,0.3,0.8,0,1.1s-0.8,0.3-1.1,0L3.4,4.6c-0.3-0.3-0.3-0.8,0-1.1s0.8-0.3,1.1,0L5.2,4.2z M20.3,16.3L21,17&#xA;&#x9;c0.3,0.3,0.3,0.8,0,1.1c-0.3,0.3-0.8,0.3-1.1,0l-0.7-0.7c-0.3-0.3-0.3-0.8,0-1.1C19.5,16.1,20,16,20.3,16.3z M3.1,16.3&#xA;&#x9;c0.3-0.3,0.8-0.3,1.1,0c0.3,0.3,0.3,0.8,0,1.1l-0.7,0.7c-0.3,0.3-0.8,0.3-1.1,0c-0.3-0.3-0.3-0.8,0-1.1L3.1,16.3z M12,7.5&#xA;&#x9;c-0.4,0-0.8,0.3-0.8,0.8C11.2,8.7,11.6,9,12,9c1.5,0,2.8,1.2,2.8,2.8c0,0.4,0.3,0.8,0.8,0.8s0.8-0.3,0.8-0.8&#xA;&#x9;C16.3,9.4,14.3,7.5,12,7.5z"/></svg>