<svg version="1.1" id="Vlt-icon-method-get" xmlns="http://www.w3.org/2000/svg" xmlns:xlink="http://www.w3.org/1999/xlink" x="0px" y="0px" viewBox="0 0 24 24" style="enable-background:new 0 0 24 24;" xml:space="preserve"><path id="Get" d="M6.5,8.4c0.1-0.2,0.2-0.3,0.3-0.3C6.9,8,7,8,7.1,8c0.2,0,0.4,0.1,0.4,0.2c0.1,0.1,0.1,0.3,0.1,0.6v1.7&#xA;&#x9;c0,0.3,0,0.5-0.1,0.6S7.2,11.3,7,11.3s-0.3,0-0.4-0.1S6.4,11,6.4,10.7C6.3,10.3,6.1,10,5.9,9.8s-0.6-0.3-1-0.3&#xA;&#x9;c-0.7,0-1.1,0.2-1.5,0.7S2.9,11.1,2.9,12s0.2,1.5,0.5,1.9c0.4,0.5,0.9,0.7,1.5,0.7c0.2,0,0.3,0,0.5-0.1c0.2,0,0.4-0.1,0.7-0.2v-1&#xA;&#x9;H5.4c-0.3,0-0.5-0.1-0.6-0.2c-0.1-0.1-0.2-0.3-0.2-0.5c0-0.3,0.1-0.4,0.2-0.5C4.9,12,5.1,12,5.4,12h2.3c0.3,0,0.5,0,0.7,0.1&#xA;&#x9;c0.1,0.1,0.2,0.3,0.2,0.5S8.5,13,8.4,13.1s-0.3,0.2-0.5,0.2H7.7V15c0,0.1,0,0.2,0,0.3s-0.1,0.1-0.2,0.2c-0.2,0.1-0.6,0.3-1.1,0.4&#xA;&#x9;c-0.5,0.1-1.1,0.2-1.6,0.2c-1.1,0-2-0.4-2.7-1.1c-0.7-0.7-1-1.7-1-2.9c0-1.1,0.3-2.1,1-2.8C2.8,8.4,3.7,8,4.7,8C5,8,5.3,8,5.6,8.1&#xA;&#x9;C5.9,8.2,6.2,8.3,6.5,8.4z M10.7,13.2c0.1,0.5,0.3,0.8,0.6,1.1c0.3,0.2,0.7,0.3,1.3,0.3s1-0.1,1.6-0.4s0.8-0.4,0.9-0.4&#xA;&#x9;c0.2,0,0.3,0.1,0.4,0.2s0.1,0.3,0.1,0.4c0,0.4-0.3,0.7-0.9,1c-0.6,0.3-1.3,0.4-2.2,0.4c-1,0-1.9-0.3-2.5-0.9c-0.6-0.6-1-1.3-1-2.2&#xA;&#x9;s0.3-1.6,1-2.2c0.6-0.6,1.5-0.9,2.5-0.9c0.9,0,1.7,0.3,2.3,0.8s0.9,1.2,0.9,2c0,0.2-0.1,0.4-0.2,0.5C15.4,13,15.1,13,14.8,13h-4.1&#xA;&#x9;C10.7,13,10.7,13.2,10.7,13.2z M14.1,12.2c-0.1-0.4-0.3-0.7-0.6-0.9S12.8,11,12.3,11s-0.8,0.1-1.1,0.3s-0.5,0.5-0.6,0.9H14.1z&#xA;&#x9; M19.8,10.2h1.9c0.3,0,0.5,0.1,0.6,0.2s0.2,0.3,0.2,0.5s-0.1,0.4-0.2,0.5s-0.3,0.2-0.6,0.2h-1.9v1.6c0,0.5,0.1,0.8,0.2,0.9&#xA;&#x9;s0.4,0.3,0.7,0.3c0.3,0,0.7-0.1,1.2-0.3s0.7-0.3,0.9-0.3c0.2,0,0.3,0.1,0.4,0.2s0.2,0.3,0.2,0.5c0,0.3-0.3,0.6-0.9,0.9&#xA;&#x9;c-0.6,0.3-1.3,0.4-2,0.4c-0.4,0-0.8-0.1-1.1-0.2s-0.6-0.3-0.8-0.5c-0.1-0.2-0.2-0.4-0.3-0.6c-0.1-0.2-0.1-0.6-0.1-1.2v-1.8h-0.6&#xA;&#x9;c-0.3,0-0.5-0.1-0.6-0.2s-0.2-0.3-0.2-0.5s0.1-0.4,0.2-0.5s0.3-0.2,0.6-0.2h0.6V8.8c0-0.3,0.1-0.5,0.2-0.6S18.7,8,19,8&#xA;&#x9;s0.5,0.1,0.6,0.2s0.2,0.3,0.2,0.6C19.8,8.8,19.8,10.2,19.8,10.2z"/></svg>