<svg version="1.1" id="Vlt-icon-file-gear" xmlns="http://www.w3.org/2000/svg" xmlns:xlink="http://www.w3.org/1999/xlink" x="0px" y="0px" viewBox="0 0 24 24" style="enable-background:new 0 0 24 24;" xml:space="preserve"><path d="M4.1,22.1c0,0.2,0.2,0.4,0.4,0.4h9.8v1.1H4.6C3.7,23.7,3,23,3,22.1V2.6C3,1.7,3.7,1,4.6,1h11l6.2,6.2v5.6h-1.1V8h-5.9V2.1&#xA;&#x9;H4.6c-0.2,0-0.4,0.2-0.4,0.4V22.1L4.1,22.1z M15.9,3v3.9h3.9C19.8,6.9,15.9,3,15.9,3z M6.5,8.8V7.7h5.9v1.1H6.5z M6.5,11.7v-1.1&#xA;&#x9;h11.8v1.1L6.5,11.7L6.5,11.7z M6.5,14.6v-1.1h6.9v1.1L6.5,14.6L6.5,14.6z M6.5,17.5v-1.1h6.9v1.1L6.5,17.5L6.5,17.5z M22.6,19&#xA;&#x9;l1.2,1.1l-1.2,2.2l-1.8-0.6l-0.2,1.8h-2.5l-0.2-1.7l-1.7,0.7l-1.3-2.1l1.3-1.2l-1.4-1.1l1.4-2.2l1.8,0.6l0.2-1.8h2.5l0.2,1.7&#xA;&#x9;l1.7-0.7l1.3,2.1L22.6,19z M22.1,20.7l0.2-0.4l-0.7-0.6c-0.5-0.5-0.5-1.3,0-1.7c0,0,0,0,0,0l0.7-0.6L22.1,17l-0.9,0.3&#xA;&#x9;c-0.7,0.3-1.4-0.2-1.4-0.9l-0.1-0.9h-0.4l-0.1,1c-0.1,0.8-0.8,1.2-1.4,1l-1.1-0.3l-0.2,0.4l0.7,0.6c0.5,0.5,0.5,1.3,0,1.7&#xA;&#x9;c0,0,0,0,0,0l-0.7,0.6l0.2,0.4l0.9-0.3c0.7-0.3,1.4,0.2,1.4,0.9l0.1,0.9h0.4l0.1-1c0.1-0.8,0.8-1.2,1.4-1&#xA;&#x9;C21.1,20.4,22.1,20.7,22.1,20.7z"/></svg>