<svg version="1.1" id="Vlt-icon-microphone-mute" xmlns="http://www.w3.org/2000/svg" xmlns:xlink="http://www.w3.org/1999/xlink" x="0px" y="0px" viewBox="0 0 24 24" style="enable-background:new 0 0 24 24;" xml:space="preserve"><path d="M20.8,2.1C21,2.3,21.1,2.7,20.8,3L4.1,22.5c-0.2,0.3-0.6,0.3-0.9,0.1S2.9,22,3.2,21.7L19.9,2.2C20.1,1.9,20.5,1.9,20.8,2.1z&#xA;&#x9; M5.3,16.2c-0.4-0.3-0.7-0.7-1-1.1c-0.2-0.3-0.1-0.7,0.1-0.9s0.7-0.1,0.9,0.1c0.2,0.3,0.5,0.6,0.8,0.9L5.3,16.2L5.3,16.2z&#xA;&#x9; M18.9,14.4c0.2-0.3,0.6-0.3,0.9-0.1c0,0,0,0,0,0c0.3,0.2,0.3,0.6,0.1,0.9c-1.7,2.3-4.3,3.7-7.2,3.8v3.3h2.2c0.3,0,0.6,0.3,0.6,0.6&#xA;&#x9;c0,0.3-0.3,0.6-0.6,0.6l0,0H9.3c-0.3,0-0.6-0.3-0.6-0.6c0-0.3,0.3-0.6,0.6-0.6h2.2V19c-0.5,0-1-0.1-1.5-0.2l0.9-1.1&#xA;&#x9;c0.4,0.1,0.8,0.1,1.2,0.1C14.8,17.7,17.3,16.5,18.9,14.4z M8.9,12l-1,1.2c-0.2-0.5-0.3-1-0.3-1.5V5c0-2.5,2-4.5,4.5-4.5&#xA;&#x9;c1.9,0,3.5,1.2,4.2,2.9l-1,1.2c-0.2-1.6-1.5-2.8-3.2-2.8c-1.8,0-3.2,1.4-3.2,3.2v6.7C8.9,11.8,8.9,11.9,8.9,12L8.9,12z M12.1,16.2&#xA;&#x9;L12.1,16.2l1.3-1.6c0.8-0.4,1.5-1.1,1.7-2l1.4-1.6v0.7C16.6,14.2,14.5,16.2,12.1,16.2z"/></svg>