<svg version="1.1" id="Vlt-icon-meeting" xmlns="http://www.w3.org/2000/svg" xmlns:xlink="http://www.w3.org/1999/xlink" x="0px" y="0px" viewBox="0 0 24 24" style="enable-background:new 0 0 24 24;" xml:space="preserve"><path id="path-1_1_" d="M8.8,1.6C8.4,1.6,8.2,1.4,8.2,1s0.3-0.6,0.6-0.6H23c0.4,0,0.6,0.3,0.6,0.6v13.7c0,0.4-0.3,0.7-0.6,0.7&#xA;&#x9;&#x9;&#x9;&#x9;&#x9;H11.4c-0.4,0-0.6-0.3-0.6-0.7c0-0.4,0.3-0.6,0.6-0.6h11V1.6H8.8z M7.5,23.4c0,0.3-0.3,0.6-0.6,0.6h-4c-0.3,0-0.6-0.3-0.6-0.6&#xA;&#x9;&#x9;&#x9;&#x9;&#x9;l-0.5-7.2c-0.9-0.1-1.6-1-1.4-2l0.7-5.7c0.2-1.4,1.3-2.5,2.7-2.5h2.6c1.4,0,2.5,1.1,2.7,2.5l0.7,5.7c0.1,1-0.5,1.8-1.4,2&#xA;&#x9;&#x9;&#x9;&#x9;&#x9;L7.5,23.4z M11.3,10.7c-0.2,0.3-0.6,0.4-0.9,0.2c-0.3-0.2-0.4-0.6-0.2-0.9L12,7.4c0.2-0.3,0.7-0.4,1-0.1l1.2,1.1l1.6-2.5&#xA;&#x9;&#x9;&#x9;&#x9;&#x9;c0.2-0.3,0.7-0.4,1-0.1l1.4,1.4L20,4.4c0.2-0.3,0.6-0.4,0.9-0.2c0.3,0.2,0.4,0.6,0.2,0.9l-2.3,3.3c-0.2,0.3-0.7,0.4-1,0.1&#xA;&#x9;&#x9;&#x9;&#x9;&#x9;l-1.4-1.3l-1.6,2.5c-0.2,0.3-0.7,0.4-1,0.1l-1.2-1.2L11.3,10.7z M7.6,2.7c0,1.5-1.2,2.7-2.7,2.7S2.2,4.2,2.2,2.7&#xA;&#x9;&#x9;&#x9;&#x9;&#x9;s1.2-2.7,2.7-2.7S7.6,1.3,7.6,2.7z M6.2,2.7c0-0.7-0.6-1.4-1.3-1.4S3.5,2,3.5,2.7s0.6,1.3,1.4,1.3S6.2,3.5,6.2,2.7z M6.3,22.7&#xA;&#x9;&#x9;&#x9;&#x9;&#x9;l0.5-7.1c0-0.3,0.3-0.6,0.6-0.6h0.4c0.2,0,0.4-0.2,0.4-0.5L7.6,8.7C7.5,8,6.9,7.4,6.2,7.4H3.6C2.9,7.4,2.3,8,2.2,8.7l-0.7,5.7&#xA;&#x9;&#x9;&#x9;&#x9;&#x9;c0,0.3,0.2,0.5,0.4,0.5h0.4c0.3,0,0.6,0.3,0.6,0.6l0.5,7.1H6.3z"/></svg>