<svg version="1.1" id="Vlt-icon-sidebar" xmlns="http://www.w3.org/2000/svg" xmlns:xlink="http://www.w3.org/1999/xlink" x="0px" y="0px" viewBox="0 0 24 24" style="enable-background:new 0 0 24 24;" xml:space="preserve"><path d="M21.4,1H2.6C1.8,1,1,1.8,1,2.6v18.8C1,22.2,1.7,23,2.6,23h18.8c0.8,0,1.6-0.7,1.6-1.6V2.6C23,1.8,22.2,1,21.4,1z M2.6,2.3&#xA;&#x9;h18.8c0.2,0,0.3,0.2,0.3,0.3v2.2H2.3V2.6C2.3,2.4,2.4,2.3,2.6,2.3z M2.3,21.4V6.1h5.8v15.7H2.6C2.4,21.7,2.3,21.6,2.3,21.4L2.3,21.4&#xA;&#x9;z M21.4,21.7h-12V6.1h12.4v15.3C21.7,21.6,21.6,21.7,21.4,21.7z M16.7,4.4c-0.5,0-0.8-0.4-0.8-0.8c0,0,0,0,0,0&#xA;&#x9;c0-0.5,0.4-0.8,0.8-0.8s0.8,0.4,0.8,0.8S17.2,4.4,16.7,4.4L16.7,4.4z M16.7,3.2c-0.2,0-0.4,0.2-0.4,0.4c0,0.2,0.2,0.4,0.4,0.4&#xA;&#x9;c0.2,0,0.4-0.2,0.4-0.4C17.1,3.3,16.9,3.2,16.7,3.2z M18.6,4.4c-0.5,0-0.8-0.4-0.8-0.8c0,0,0,0,0,0c0-0.5,0.4-0.8,0.8-0.8&#xA;&#x9;s0.8,0.4,0.8,0.8S19.1,4.4,18.6,4.4z M18.6,3.2c-0.2,0-0.4,0.2-0.4,0.4c0,0.2,0.2,0.4,0.4,0.4c0.2,0,0.4-0.2,0.4-0.4&#xA;&#x9;C18.9,3.3,18.8,3.2,18.6,3.2z M20.5,4.4c-0.5,0-0.8-0.4-0.8-0.8c0,0,0,0,0,0c0-0.5,0.4-0.8,0.8-0.8c0.5,0,0.8,0.4,0.8,0.8&#xA;&#x9;S20.9,4.4,20.5,4.4L20.5,4.4z M20.5,3.2c-0.2,0-0.4,0.2-0.4,0.4c0,0.2,0.2,0.4,0.4,0.4c0.2,0,0.4-0.2,0.4-0.4&#xA;&#x9;C20.8,3.3,20.7,3.2,20.5,3.2L20.5,3.2z"/></svg>