<svg version="1.1" id="Vlt-icon-history" xmlns="http://www.w3.org/2000/svg" xmlns:xlink="http://www.w3.org/1999/xlink" x="0px" y="0px" viewBox="0 0 24 24" style="enable-background:new 0 0 24 24;" xml:space="preserve"><title>Vlt-icon-history</title><desc>Created with Sketch.</desc><path id="path-1_1_" d="M20.8,7.9V6.4c0-0.3,0.3-0.6,0.6-0.6S22,6.1,22,6.4v3.1c0,0.3-0.3,0.6-0.6,0.6h-3.1c-0.3,0-0.6-0.3-0.6-0.6&#xA;&#x9;c0-0.3,0.3-0.6,0.6-0.6H20c-1.9-3.3-4.4-5.1-7.6-5.1C7.7,3.8,4,7.6,4,12.2s3.8,8.4,8.4,8.4s8.4-3.8,8.4-8.4c0-0.3,0.3-0.6,0.6-0.6&#xA;&#x9;s0.6,0.3,0.6,0.7c0,5.3-4.3,9.7-9.7,9.7s-9.7-4.3-9.7-9.7S7,2.6,12.4,2.6C15.9,2.6,18.7,4.5,20.8,7.9z M9.4,15.5l3.1-3.2V8.1&#xA;&#x9;c0-0.3,0.3-0.6,0.6-0.6s0.6,0.3,0.6,0.6v4.7l-3.4,3.5c-0.2,0.2-0.6,0.2-0.9,0C9.2,16.2,9.2,15.8,9.4,15.5z"/></svg>