<svg version="1.1" id="Vlt-icon-fax-inbound" xmlns="http://www.w3.org/2000/svg" xmlns:xlink="http://www.w3.org/1999/xlink" x="0px" y="0px" viewBox="0 0 24 24" style="enable-background:new 0 0 24 24;" xml:space="preserve"><g><polygon points="13.7,12.2 8.8,12.2 15.2,5.9 14.2,5 7.9,11.3 8,6.5 6.7,6.5 6.6,13.6 13.7,13.5 &#x9;"/><path d="M0.5,2.2v1.3h2.4v16.8c0,0.9,0.7,1.7,1.6,1.7h10.1c0.5,0,0.9-0.2,1.2-0.5l4.9-5.5c0.3-0.3,0.4-0.7,0.4-1.1V3.5h2.3V2.2H0.5&#xA;&#x9;&#x9;z M15.7,19.6v-3.4c0-0.2,0.2-0.4,0.3-0.4h3L15.7,19.6z M19.8,14.6H16c-0.9,0-1.6,0.8-1.6,1.7v4.5H4.5c-0.2,0-0.3-0.2-0.3-0.4V3.5&#xA;&#x9;&#x9;h15.7V14.6z"/></g></svg>