<svg version="1.1" id="Vlt-icon-code" xmlns="http://www.w3.org/2000/svg" xmlns:xlink="http://www.w3.org/1999/xlink" x="0px" y="0px" viewBox="0 0 24 24" style="enable-background:new 0 0 24 24;" xml:space="preserve"><path d="M0,12.3l6.1-6.1c0.3-0.3,0.7-0.3,1,0s0.3,0.7,0,1l-5,5l5,5c0.3,0.3,0.3,0.7,0,1c-0.3,0.3-0.7,0.3-1,0L0,12.3z M24,12.3&#xA;&#x9;l-6.1,6.1c-0.3,0.3-0.7,0.3-1,0c-0.3-0.3-0.3-0.7,0-1l5-5l-5-5c-0.3-0.3-0.3-0.7,0-1c0.3-0.3,0.7-0.3,1,0L24,12.3z M9.7,20.5&#xA;&#x9;c-0.1,0.4-0.5,0.6-0.9,0.5c-0.3-0.2-0.5-0.5-0.4-0.9L14,4.5c0.2-0.3,0.6-0.6,0.9-0.4c0.3,0.2,0.5,0.5,0.4,0.9L9.7,20.5z"/></svg>