<svg xmlns="http://www.w3.org/2000/svg" width="24" height="24" viewBox="0 0 24 24" id="Vlt-icon-edit"><path fill="#000" fill-rule="nonzero" d="M20.225 5.9l-1.708 1.713-3.139-3.147 1.71-1.714c.53-.534 1.461-.536 1.996 0l1.141 1.145c.268.267.414.623.414 1.001 0 .379-.146.735-.414 1.002zM4.422 15.88l2.71 2.718-4.301 1.574 1.59-4.292zm3.889 1.97L5.172 14.7l9.245-9.27 3.138 3.148-9.244 9.27zM21.188 2.932l-1.14-1.145c-1.05-1.05-2.878-1.05-3.923.001L3.605 14.342a.692.692 0 0 0-.155.245L1.042 21.08a.686.686 0 0 0 .155.718.679.679 0 0 0 .716.161l6.508-2.38a.674.674 0 0 0 .248-.159L21.187 6.865A2.765 2.765 0 0 0 22 4.898c0-.743-.289-1.441-.812-1.966z"/></svg>