<svg width="24px" height="24px" viewBox="0 0 24 24" version="1.1" xmlns="http://www.w3.org/2000/svg" xmlns:xlink="http://www.w3.org/1999/xlink" id="Vlt-icon-atoms"><path d="M12.35,6.65 C12.35,3.69498509 9.95501491,1.3 6.99999999,1.3 C4.04498508,1.3 1.64999999,3.69498509 1.64999999,6.65 C1.64999999,9.60501491 4.04498508,12 6.99999999,12 C9.95501491,12 12.35,9.60501491 12.35,6.65 Z M13.1011179,4 L15.5114024,4 C16.0100367,2.267434 17.6070033,1 19.5,1 C21.7919851,1 23.65,2.85801491 23.65,5.15 C23.65,7.44198509 21.7919851,9.3 19.5,9.3 C17.2582282,9.3 15.4316198,7.52250485 15.3526604,5.3 L13.5129134,5.3 C13.6027859,5.73592498 13.65,6.1874436 13.65,6.65 C13.65,8.25238124 13.0834028,9.72230271 12.1396059,10.8703671 L13.9648277,12.6955889 C14.9903442,11.6492661 16.4194715,11 18,11 C21.1199851,11 23.65,13.5300149 23.65,16.65 C23.65,19.7699851 21.1199851,22.3 18,22.3 C14.8800149,22.3 12.35,19.7699851 12.35,16.65 C12.35,15.581892 12.6465162,14.5829282 13.161709,13.7309479 L11.2203671,11.7896059 C10.0723027,12.7334029 8.60238124,13.3 6.99999999,13.3 C6.92188782,13.3 6.84409041,13.2986536 6.76662972,13.2959827 L7.05886643,15.049403 C8.53215956,15.313081 9.64999999,16.6007426 9.64999999,18.15 C9.64999999,19.8899851 8.23998508,21.3 6.49999999,21.3 C4.76001491,21.3 3.34999999,19.8899851 3.34999999,18.15 C3.34999999,16.6692793 4.37112505,15.4275212 5.74775789,15.090343 L5.41781241,13.1106702 C2.50879526,12.4008481 0.349999994,9.77776696 0.349999994,6.65 C0.349999994,2.97701491 3.32701491,0 6.99999999,0 C9.73105755,0 12.0773338,1.64590356 13.1011179,4 Z M22.35,16.65 C22.35,14.2479851 20.4020149,12.3 18,12.3 C15.5979851,12.3 13.65,14.2479851 13.65,16.65 C13.65,19.0520149 15.5979851,21 18,21 C20.4020149,21 22.35,19.0520149 22.35,16.65 Z M22.35,5.15 C22.35,3.57598509 21.0740149,2.3 19.5,2.3 C17.9259851,2.3 16.65,3.57598509 16.65,5.15 C16.65,6.72401491 17.9259851,8 19.5,8 C21.0740149,8 22.35,6.72401491 22.35,5.15 Z M8.34999999,18.15 C8.34999999,17.1279851 7.52201491,16.3 6.49999999,16.3 C5.47798508,16.3 4.64999999,17.1279851 4.64999999,18.15 C4.64999999,19.1720149 5.47798508,20 6.49999999,20 C7.52201491,20 8.34999999,19.1720149 8.34999999,18.15 Z" id="path-1"/></svg>