<svg version="1.1" id="Vlt-icon-van" xmlns="http://www.w3.org/2000/svg" xmlns:xlink="http://www.w3.org/1999/xlink" x="0px" y="0px" viewBox="0 0 24 24" style="enable-background:new 0 0 24 24;" xml:space="preserve"><path d="M1.8,15.1v4.2c0,0.2,0.2,0.4,0.3,0.4h0.5V21H2.1c-0.9,0-1.6-0.7-1.6-1.6c0,0,0,0,0,0V3.7C0.5,2.7,1.2,2,2.1,2c0,0,0,0,0,0&#xA;&#x9;H14c0.9,0,1.6,0.7,1.6,1.7c0,0,0,0,0,0v4.1l5.7,2.6c1.3,0.6,2.2,1.9,2.2,3.4v6.1c0,0.6-0.5,1.1-1.1,1.1c0,0,0,0,0,0h-1v-1.3h0.8v-6&#xA;&#x9;c0-1-0.5-1.8-1.4-2.2l-5.2-2.3v8.1h-1.3v-2.2C14.3,15.1,1.8,15.1,1.8,15.1z M1.8,13.8h12.5V3.7c0-0.2-0.2-0.4-0.3-0.4H2.1&#xA;&#x9;c-0.2,0-0.3,0.2-0.3,0.4L1.8,13.8L1.8,13.8z M14.5,19.7V21H9.5v-1.3C9.5,19.7,14.5,19.7,14.5,19.7z M17.9,23c-1.4,0-2.6-1.2-2.6-2.7&#xA;&#x9;c0-1.5,1.2-2.7,2.6-2.7c1.4,0,2.6,1.2,2.6,2.7C20.5,21.8,19.4,23,17.9,23z M17.9,21.7c0.7,0,1.3-0.6,1.3-1.4c0-0.8-0.6-1.4-1.3-1.4&#xA;&#x9;c-0.7,0-1.3,0.6-1.3,1.4C16.6,21.1,17.2,21.7,17.9,21.7z M6.1,23c-1.4,0-2.6-1.2-2.6-2.7c0-1.5,1.2-2.7,2.6-2.7&#xA;&#x9;c1.4,0,2.6,1.2,2.6,2.7C8.7,21.8,7.5,23,6.1,23z M6.1,21.7c0.7,0,1.3-0.6,1.3-1.4c0-0.8-0.6-1.4-1.3-1.4c-0.7,0-1.3,0.6-1.3,1.4&#xA;&#x9;C4.7,21.1,5.3,21.7,6.1,21.7z"/></svg>