<svg version="1.1" id="Vlt-icon-pin-2" xmlns="http://www.w3.org/2000/svg" xmlns:xlink="http://www.w3.org/1999/xlink" x="0px" y="0px" viewBox="0 0 24 24" style="enable-background:new 0 0 24 24;" xml:space="preserve"><path id="path-1_1_" d="M13.8,12.5L13.8,12.5l-0.1,0.2c0,0-0.1,0-0.2,0c-0.5,0-1.2-0.2-2.1-0.7c-0.9-0.5-1.4-1-1.6-1.4&#xA;&#x9;c-0.1-0.1-0.1-0.2-0.1-0.2l0.1-0.2l0,0l2-3.4c0.4,0.6,1,1.2,1.7,1.6C14.2,8.8,15,9,15.8,9.1L13.8,12.5z M14.5,17.3&#xA;&#x9;c-0.1,0.1-0.3,0.2-0.8,0.2c-1,0-2.5-0.4-4.6-1.6S6,13.7,5.5,12.7c-0.2-0.4-0.2-0.6-0.2-0.7c0.6-0.9,1.7-1.5,3.1-1.5&#xA;&#x9;c0,0.2,0.1,0.5,0.2,0.7c0.4,0.6,1,1.3,2.2,1.9c1.1,0.6,2,0.9,2.7,0.9c0.3,0,0.6-0.1,0.7-0.1C14.9,15.1,15,16.3,14.5,17.3z M16.3,3.6&#xA;&#x9;c1.5,0.9,2.4,1.7,2.9,2.5c0.1,0.1,0.1,0.2,0.2,0.3c-0.1,0-0.2,0-0.3,0c-0.9,0-2.1-0.4-3.6-1.3c-1.6-0.9-2.5-1.7-3-2.5&#xA;&#x9;c-0.1-0.1-0.1-0.2-0.2-0.3c0.1,0,0.2,0,0.3,0C13.6,2.3,14.8,2.7,16.3,3.6z M14.2,7.2c-1.3-0.7-2.2-2.1-2.3-3.3&#xA;&#x9;c0.6,0.8,1.6,1.5,2.9,2.3s2.5,1.2,3.4,1.4C17.1,8,15.5,8,14.2,7.2z M20.7,7.1L20.7,7.1c0-0.1,0.1-0.2,0.1-0.2l0,0&#xA;&#x9;c0-0.3-0.1-0.9-0.5-1.5c-0.6-0.9-1.7-1.9-3.4-2.9S13.9,1,12.7,1c-0.7,0-1.2,0.1-1.5,0.3l0,0c-0.1,0.1-0.1,0.1-0.2,0.2l0,0l0,0l0,0&#xA;&#x9;c-0.7,1.2-0.6,2.7,0,4l0,0L8.9,9.2c-2-0.1-3.8,0.7-4.7,2.2v0.1c-0.2,0.4-0.1,1,0.3,1.8c0.6,1.1,1.7,2.2,3.6,3.3l-3.4,5.9&#xA;&#x9;c-0.2,0.3-0.1,0.7,0.2,0.9c0.3,0.2,0.7,0.1,0.9-0.2l3.4-5.9c2,1.1,3.5,1.5,4.7,1.4c0.9,0,1.5-0.3,1.7-0.7l0.1-0.1&#xA;&#x9;c0.9-1.5,0.7-3.5-0.4-5.2l2.1-3.6c0,0,0,0,0-0.1C18.7,9,20,8.3,20.7,7.1C20.7,7.2,20.7,7.2,20.7,7.1C20.7,7.2,20.7,7.1,20.7,7.1z"/></svg>