<svg version="1.1" id="Vlt-icon-file-3" xmlns="http://www.w3.org/2000/svg" xmlns:xlink="http://www.w3.org/1999/xlink" x="0px" y="0px" viewBox="0 0 24 24" style="enable-background:new 0 0 24 24;" xml:space="preserve"><path d="M7.8,12.9h2.7c0.4,0,0.8-0.3,0.8-0.8c0-0.4-0.3-0.8-0.8-0.8H7.8c-0.4,0-0.8,0.3-0.8,0.8C7,12.6,7.3,12.9,7.8,12.9z"/><path d="M16,17H7.8C7.3,17,7,17.3,7,17.8c0,0.4,0.3,0.8,0.8,0.8H16c0.4,0,0.8-0.3,0.8-0.8C16.8,17.3,16.5,17,16,17z"/><path d="M16,0H4.4C3.1,0,2,1.1,2,2.4v19.1C2,22.9,3.1,24,4.4,24h15.1c1.3,0,2.4-1.1,2.4-2.4V6.2L16,0z M16,1.8l4.2,4.4H16V1.8z&#xA;&#x9;&#x9;&#x9;&#x9; M20.7,21.6c0,0.6-0.5,1.1-1.1,1.1H4.4c-0.6,0-1.1-0.5-1.1-1.1V2.4c0-0.6,0.5-1.1,1.1-1.1h10.3v5.6c0,0.4,0.3,0.7,0.6,0.7h5.4&#xA;&#x9;&#x9;&#x9;&#x9;V21.6z"/><path d="M7,15c0,0.4,0.3,0.8,0.8,0.8H16c0.4,0,0.8-0.3,0.8-0.8c0-0.4-0.3-0.8-0.8-0.8H7.8C7.3,14.2,7,14.5,7,15z"/></svg>