<svg version="1.1" id="Vlt-icon-group-6" xmlns="http://www.w3.org/2000/svg" xmlns:xlink="http://www.w3.org/1999/xlink" x="0px" y="0px" viewBox="0 0 24 24" style="enable-background:new 0 0 24 24;" xml:space="preserve"><g><path d="M18.8,7.5c1.4,0,2.6-1.2,2.6-2.6s-1.1-2.6-2.6-2.6c-1.4,0-2.6,1.2-2.6,2.6C16.2,6.3,17.4,7.5,18.8,7.5z M18.8,3.7&#xA;&#x9;&#x9;c0.7,0,1.3,0.6,1.3,1.3s-0.6,1.3-1.3,1.3S17.5,5.7,17.5,5C17.5,4.2,18.1,3.7,18.8,3.7z"/><path d="M23.3,8.4c-0.4,0-0.7,0.3-0.7,0.7v7.2c0,1.6-1.3,3-3,3h-2.3c-0.4,0-0.7,0.3-0.7,0.7s0.3,0.7,0.7,0.7h2.3&#xA;&#x9;&#x9;c2.4,0,4.3-1.9,4.3-4.3V9.1C24,8.7,23.7,8.4,23.3,8.4z"/><path d="M17,16.8h2.1V17c1.4,0,2.6-1.2,2.6-2.6V10c0-1-0.8-1.9-1.9-1.9h-0.7c-0.5,0-1,0.2-1.4,0.6l-1.4,1.4V8.7&#xA;&#x9;&#x9;c0-0.9-0.6-1.6-1.5-1.9c-1.8-0.5-3.7-0.5-5.5,0c-0.9,0.3-1.5,1-1.5,1.9v1.5L6.3,8.7C5.9,8.3,5.4,8.1,4.9,8.1H4.2&#xA;&#x9;&#x9;c-1,0-1.9,0.8-1.9,1.9v4.4c0,1.4,1.2,2.6,2.6,2.6H7c0.2,0,0.3,0.1,0.4,0.2l1.7,5.5c0.1,0.3,0.3,0.5,0.6,0.5c0.1,0,0.1,0,0.2,0&#xA;&#x9;&#x9;c0.3-0.1,0.5-0.5,0.4-0.8l-1.7-5.5c-0.2-0.7-0.9-1.1-1.6-1.1H4.9c-0.7,0-1.3-0.6-1.3-1.3V10c0-0.3,0.3-0.6,0.6-0.6h0.7&#xA;&#x9;&#x9;c0.2,0,0.3,0.1,0.5,0.2l1.8,1.8c0.4,0.4,1,0.7,1.6,0.7H10c0.1,0,0.3,0,0.4,0.1c0.1,0.1,0.1,0.2,0.1,0.3c0,0.2-0.1,0.6-0.5,0.6H6.9&#xA;&#x9;&#x9;c-0.1,0-0.2,0-0.3-0.1l-0.9-1c-0.2-0.3-0.7-0.3-0.9,0c-0.3,0.2-0.3,0.7,0,0.9l0.9,1c0.3,0.3,0.7,0.5,1.2,0.5h2.2&#xA;&#x9;&#x9;c0.3,0.1,0.6,0.3,0.8,1c0.2,0.6,0.6,1.8,1.4,3.8c0.1,0.3,0.3,0.4,0.6,0.4s0.5-0.2,0.6-0.4c0.8-2.1,1.3-3.4,1.4-3.8&#xA;&#x9;&#x9;c0.2-0.6,0.6-1,0.8-1.1H17c0.5,0,0.9-0.2,1.2-0.5l0.9-1c0.2-0.3,0.2-0.7,0-0.9c-0.3-0.2-0.7-0.2-0.9,0l-0.9,0.9&#xA;&#x9;&#x9;C17.2,13,17.2,13,17.1,13H14c-0.4,0-0.5-0.4-0.5-0.6c0-0.1,0-0.2,0.1-0.3C13.7,12,13.9,12,14,12h1.3c0.6,0,1.2-0.2,1.6-0.7l1.8-1.8&#xA;&#x9;&#x9;c0.1-0.1,0.3-0.2,0.5-0.2h0.7c0.3,0,0.6,0.3,0.6,0.6v4.4c0,0.7-0.6,1.3-1.3,1.3H17c-0.7,0-1.4,0.5-1.6,1.2l-1.7,5.5&#xA;&#x9;&#x9;c-0.1,0.3,0.1,0.7,0.4,0.8c0.1,0,0.1,0,0.2,0c0.3,0,0.5-0.2,0.6-0.5l1.7-5.5C16.7,16.9,16.8,16.8,17,16.8z M13.9,10.7&#xA;&#x9;&#x9;c-0.7,0-1.1,0.3-1.4,0.5c-0.3,0.3-0.5,0.7-0.5,1.2c0,0.7,0.4,1.3,1,1.7c-0.2,0.4-0.4,0.7-0.4,0.8c-0.1,0.3-0.4,1-0.8,2.1&#xA;&#x9;&#x9;c-0.4-1-0.6-1.7-0.7-2.1c-0.1-0.3-0.2-0.6-0.4-0.8c0.7-0.3,1-1,1-1.7c0-0.5-0.2-0.9-0.5-1.2c-0.2-0.2-0.7-0.5-1.4-0.5H9.1v-2&#xA;&#x9;&#x9;c0-0.3,0.2-0.5,0.5-0.6c1.5-0.4,3.2-0.4,4.7,0c0.3,0.1,0.5,0.3,0.5,0.6v2H13.9z"/><path d="M5.2,7.5c1.4,0,2.6-1.2,2.6-2.6S6.7,2.3,5.2,2.3c-1.4,0-2.6,1.2-2.6,2.6C2.7,6.3,3.8,7.5,5.2,7.5z M5.2,3.7&#xA;&#x9;&#x9;c0.7,0,1.3,0.6,1.3,1.3S5.9,6.3,5.2,6.3C4.5,6.2,4,5.6,4,4.9S4.5,3.7,5.2,3.7z"/><path d="M12,5.6c1.4,0,2.6-1.2,2.6-2.6S13.5,0.4,12,0.4c-1.4,0-2.6,1.2-2.6,2.6C9.5,4.5,10.6,5.6,12,5.6z M12,1.8&#xA;&#x9;&#x9;c0.7,0,1.3,0.6,1.3,1.3S12.7,4.4,12,4.4s-1.3-0.6-1.3-1.3C10.8,2.4,11.3,1.8,12,1.8z"/><path d="M6.6,19.3H4.3c-1.6,0-3-1.3-3-3V9.1c0-0.4-0.3-0.7-0.7-0.7C0.2,8.4,0,8.7,0,9.1v7.2c0,2.4,1.9,4.3,4.3,4.3h2.3&#xA;&#x9;&#x9;c0.4,0,0.7-0.3,0.7-0.7C7.2,19.6,6.9,19.3,6.6,19.3z"/></g></svg>