<svg version="1.1" id="Vlt-icon-duplicate" xmlns="http://www.w3.org/2000/svg" xmlns:xlink="http://www.w3.org/1999/xlink" x="0px" y="0px" viewBox="0 0 24 24" style="enable-background:new 0 0 24 24;" xml:space="preserve"><path d="M21.6,19.8v-1.8H23v1.8H21.6z M21.6,13.3v-1.8H23v1.8L21.6,13.3L21.6,13.3z M21.6,16.6v-1.8H23v1.8H21.6z M21.6,21.6&#xA;&#x9;L21.6,21.6l1.4,0v0.8c0,0.4-0.3,0.7-0.7,0.7l0,0h-0.7C21.6,23,21.6,21.6,21.6,21.6z M17.9,23v-1.4h1.9V23H17.9L17.9,23z M14.6,23&#xA;&#x9;v-1.4h1.9V23H14.6z M11.2,23v-1.4h1.9V23H11.2L11.2,23z M9.8,21.6L9.8,21.6L9.8,21.6l0,1.4H9.1c-0.4,0-0.7-0.3-0.7-0.7l0,0v-0.7&#xA;&#x9;L9.8,21.6L9.8,21.6z M8.3,19.8v-1.9h1.4v1.9C9.8,19.8,8.3,19.8,8.3,19.8z M4.2,15.7v-1.4h1.9v1.4H4.2z M2.4,14.2l0,1.5H1.7&#xA;&#x9;c-0.4,0-0.7-0.3-0.7-0.7v-0.8L2.4,14.2L2.4,14.2z M1,12.5v-1.8h1.4v1.8H1z M1,9.3V7.4h1.4v1.8L1,9.3L1,9.3z M1,6.1V4.2h1.4v1.8&#xA;&#x9;L1,6.1L1,6.1z M2.4,2.4L1,2.4V1.7C1,1.3,1.3,1,1.7,1h0.7L2.4,2.4L2.4,2.4L2.4,2.4z M10.9,2.4V1h1.9v1.4L10.9,2.4L10.9,2.4z M7.5,2.4&#xA;&#x9;V1h1.9v1.4L7.5,2.4L7.5,2.4z M4.2,2.4V1h1.9v1.4L4.2,2.4L4.2,2.4z M14.2,2.4L14.2,2.4l0-1.4h0.7c0.4,0,0.7,0.3,0.7,0.7v0.7H14.2z&#xA;&#x9; M14.2,6.1V4.2h1.4v1.9L14.2,6.1L14.2,6.1z M17.9,9.8V8.3h1.9v1.4L17.9,9.8L17.9,9.8z M22.3,8.3c0.4,0,0.7,0.3,0.7,0.7v0.7h-1.4h0&#xA;&#x9;V8.3L22.3,8.3L22.3,8.3z M8.3,16.4v-0.8H7.6v-1.4h0.8V9.1c0-0.4,0.3-0.7,0.7-0.7h5.2V7.6h1.4v0.8h0.8v1.4h-0.8v5.2&#xA;&#x9;c0,0.4-0.3,0.7-0.7,0.7H9.8v0.8L8.3,16.4L8.3,16.4z M9.8,14.2h4.4V9.8H9.8L9.8,14.2L9.8,14.2z"/></svg>