<svg version="1.1" id="Vlt-icon-refresh-dollar" xmlns="http://www.w3.org/2000/svg" xmlns:xlink="http://www.w3.org/1999/xlink" x="0px" y="0px" viewBox="0 0 24 24" style="enable-background:new 0 0 24 24;" xml:space="preserve"><path id="path-1_1_" d="M11.2,16c-0.7-0.1-1.1-0.4-1.3-0.7s-0.4-0.5-0.4-0.5l0.4-0.2l0.4-0.2c0,0,0.1,0.1,0.2,0.2s0.3,0.3,0.6,0.4&#xA;&#x9;v-1.3v-1.3H11h-0.1c-0.7-0.2-1.1-0.6-1.3-1s-0.3-0.9-0.2-1.3C9.7,9.7,9.9,9.3,10.1,9c0.3-0.3,0.6-0.5,1.1-0.6V8.1V7.7h0.5h0.5V8v0.4&#xA;&#x9;c0.6,0.1,0.9,0.4,1.2,0.6s0.3,0.5,0.3,0.5l-0.4,0.2l-0.4,0.2c0,0-0.1-0.1-0.1-0.2c-0.1-0.1-0.3-0.2-0.5-0.3v1.1v1.2&#xA;&#x9;c0.8,0.4,1.2,0.9,1.4,1.4s0.1,0.9,0.1,1.2c0,0.4-0.2,0.8-0.4,1.2s-0.6,0.5-1.1,0.6v0.4v0.3h-0.5h-0.5v-0.4V16H11.2z M12.2,15&#xA;&#x9;c0.2-0.1,0.3-0.2,0.4-0.3c0.1-0.1,0.2-0.3,0.2-0.5c0.1-0.2,0-0.4-0.1-0.6c-0.1-0.2-0.3-0.4-0.5-0.6v1C12.2,14,12.2,15,12.2,15z&#xA;&#x9; M11.2,9.4c-0.2,0.1-0.3,0.2-0.5,0.4s-0.2,0.3-0.2,0.4c-0.1,0.2,0,0.4,0.1,0.6c0.1,0.2,0.3,0.4,0.6,0.5v-1&#xA;&#x9;C11.2,10.3,11.2,9.4,11.2,9.4z M20,13.2L19.1,14l-0.9,0.8l-0.5-0.4L17.3,14l1.6-1.4l1.5-1.4l1.5,1.4l1.5,1.4L23,14.4l-0.5,0.4&#xA;&#x9;l-0.6-0.6l-0.6-0.6c-0.4,2.2-1.5,4.1-3.2,5.5c-1.6,1.4-3.8,2.2-6.1,2.2c-1.8,0-3.6-0.5-5.1-1.5s-2.7-2.4-3.5-4.1L4,15.6l0.6-0.2&#xA;&#x9;c0.7,1.4,1.7,2.6,3,3.5c1.3,0.8,2.8,1.3,4.4,1.3c2,0,3.9-0.8,5.3-2C18.7,16.9,19.7,15.2,20,13.2z M2.7,10C3.2,7.8,4.3,5.9,6,4.5&#xA;&#x9;s3.7-2.2,6-2.2c1.9,0,3.6,0.6,5.1,1.5s2.7,2.4,3.5,4.1L20,8.2l-0.6,0.2c-0.6-1.4-1.7-2.7-3-3.5S13.6,3.6,12,3.6&#xA;&#x9;c-2,0-3.9,0.7-5.3,1.9S4.3,8.4,4,10.3l0.8-0.8l0.8-0.8L6,9.2l0.5,0.5L5,11.1l-1.6,1.4L2,11.2L0.5,9.8L1,9.3l0.5-0.5l0.6,0.6L2.7,10z&#xA;&#x9;"/></svg>