<svg xmlns="http://www.w3.org/2000/svg" width="24" height="24" viewBox="0 0 24 24" id="Vlt-icon-envelope"><path fill="#000" fill-rule="nonzero" d="M20.787 19.586H3.213c-.973 0-1.764-.83-1.764-1.85v-7.628l10.474 4.078 10.628-4.11v7.66c0 1.02-.792 1.85-1.764 1.85M3.213 4.415h17.574c.972 0 1.764.829 1.764 1.85v2.304l-10.626 4.109L1.449 8.599V6.264c0-1.02.79-1.85 1.764-1.85M20.787 3H3.213C1.493 3 .1 4.461.1 6.264v11.472C.1 19.54 1.494 21 3.213 21h17.574c1.72 0 3.113-1.461 3.113-3.264V6.264C23.9 4.461 22.506 3 20.787 3"/></svg>