<svg version="1.1" id="Vlt-icon-shield" xmlns="http://www.w3.org/2000/svg" xmlns:xlink="http://www.w3.org/1999/xlink" x="0px" y="0px" viewBox="0 0 24 24" style="enable-background:new 0 0 24 24;" xml:space="preserve"><path id="path-1_1_" d="M12,1.8C8.7,4.3,6.6,5.2,3.3,5.5v5.7c0,5.2,3.6,9.7,8.7,11c5.1-1.3,8.7-5.8,8.7-11V5.5&#xA;&#x9;&#x9;&#x9;&#x9;&#x9;C17.4,5.2,15.3,4.3,12,1.8z M22,5.4v5.8c0,5.8-4,10.8-9.7,12.3c-0.2,0-0.4,0-0.6,0C6,22,2,17,2,11.2V5.4c0-0.6,0.5-1.1,1.1-1.2&#xA;&#x9;&#x9;&#x9;&#x9;&#x9;C6.3,3.9,8.2,3,11.3,0.7c0.4-0.3,1-0.3,1.4,0c3.1,2.3,5,3.2,8.2,3.5C21.5,4.3,22,4.8,22,5.4z M10.9,7.3l0.2,7.3h1.8l0.2-7.3&#xA;&#x9;&#x9;&#x9;&#x9;&#x9;H10.9z M10.9,16.7c0,0.6,0.4,1,1.1,1c0.7,0,1.1-0.4,1.1-1c0-0.6-0.4-1-1.1-1C11.4,15.7,10.9,16,10.9,16.7z"/></svg>