<svg version="1.1" id="Vlt-icon-fax-failed" xmlns="http://www.w3.org/2000/svg" xmlns:xlink="http://www.w3.org/1999/xlink" x="0px" y="0px" viewBox="0 0 24 24" style="enable-background:new 0 0 24 24;" xml:space="preserve"><path id="path-1" d="M23.5,2.2v1.3h-2.3v11.3c0,0.4-0.2,0.8-0.4,1.1l-4.9,5.5C15.5,21.8,15,22,14.6,22H4.5c-0.9,0-1.6-0.8-1.6-1.7&#xA;&#x9;V3.5H0.5V2.2H23.5z M19.8,14.6V3.5H4.2v16.8c0,0.2,0.2,0.4,0.3,0.4h9.9v-4.5c0-0.9,0.7-1.7,1.7-1.7H19.8z M15.7,19.6l3.4-3.8h-3&#xA;&#x9;c-0.2,0-0.3,0.2-0.3,0.4V19.6z M10.8,5c2.7,0,4.8,2.1,4.8,4.8s-2.1,4.8-4.8,4.8C8.1,14.6,6,12.5,6,9.8S8.1,5,10.8,5z M10.8,13.3&#xA;&#x9;c1.9,0,3.5-1.6,3.5-3.5c0-0.7-0.2-1.3-0.5-1.9l-4.9,4.8C9.4,13.1,10.1,13.3,10.8,13.3z M10.8,6.3c-1.9,0-3.5,1.6-3.5,3.5&#xA;&#x9;c0,0.7,0.2,1.4,0.6,2l5-4.8C12.3,6.6,11.6,6.3,10.8,6.3z"/></svg>