<svg version="1.1" id="Vlt-icon-puzzle" xmlns="http://www.w3.org/2000/svg" xmlns:xlink="http://www.w3.org/1999/xlink" x="0px" y="0px" viewBox="0 0 24 24" style="enable-background:new 0 0 24 24;" xml:space="preserve"><path d="M10.4,1C8.7,1,7.3,2.4,7.3,4.1c0,0.4,0.1,0.8,0.3,1.2H2.9C2.4,5.3,2,5.7,2,6.2v14.9C2,21.6,2.4,22,2.9,22h5.9&#xA;&#x9;c0.2,0,0.3,0,0.5-0.1c0.4-0.2,0.6-0.7,0.6-1.1c0-0.2-0.1-0.4-0.2-0.6c-0.1-0.1-0.2-0.2-0.3-0.3c0,0-0.1,0-0.1-0.1&#xA;&#x9;c-0.2-0.2-0.3-0.5-0.3-0.9c0-0.7,0.5-1.2,1.2-1.3c0.7,0,1.2,0.5,1.3,1.2c0,0,0,0,0,0.1c0,0.3-0.1,0.6-0.3,0.9l0,0l-0.1,0&#xA;&#x9;C11.1,19.9,11,20,11,20.1c-0.1,0.2-0.2,0.5-0.2,0.7c0,0.5,0.2,0.9,0.6,1.1c0.1,0.1,0.3,0.1,0.5,0.1h5.9c0.5,0,0.9-0.4,0.9-0.9v-4.6&#xA;&#x9;c0.4,0.2,0.8,0.3,1.2,0.3c1.7,0,3.1-1.4,3.1-3.1c0-1.7-1.4-3.1-3.1-3.1c-0.4,0-0.8,0.1-1.2,0.3V6.2c0-0.5-0.4-0.9-0.9-0.9&#xA;&#x9;c0,0,0,0,0,0h-4.6c0.7-1.6,0-3.4-1.6-4C11.2,1.1,10.8,1,10.4,1 M10.4,2.3c1,0,1.8,0.8,1.8,1.8c0,0.2-0.1,0.5-0.1,0.7l-0.8,1.8h6.2&#xA;&#x9;v6.2l1.8-0.8c0.9-0.4,1.9,0,2.3,0.9c0.1,0.2,0.1,0.5,0.1,0.7c0,1-0.8,1.8-1.8,1.8c-0.2,0-0.5-0.1-0.7-0.1l-1.8-0.8v6.2h-5.2l0,0&#xA;&#x9;c0.5-0.5,0.7-1.1,0.7-1.8c0-1.4-1.1-2.5-2.5-2.5c-1.4,0-2.5,1.1-2.5,2.5c0,0.7,0.3,1.3,0.7,1.8l0,0H3.3V6.6h6.2L8.7,4.8&#xA;&#x9;c-0.4-0.9,0-1.9,0.9-2.3C9.9,2.4,10.1,2.3,10.4,2.3"/></svg>