<svg version="1.1" id="Vlt-icon-telephone" xmlns="http://www.w3.org/2000/svg" xmlns:xlink="http://www.w3.org/1999/xlink" x="0px" y="0px" viewBox="0 0 24 24" style="enable-background:new 0 0 24 24;" xml:space="preserve"><path d="M3.2,20.9C1.9,20.7,1,19.5,1,18.3v-13c0-1.3,0.9-2.4,2.2-2.7C3.4,1.6,4.2,1,5.2,1h3.6c0.9,0,1.7,0.6,2,1.5h9.5&#xA;&#x9;c1.5,0,2.7,1.2,2.7,2.8v13c0,1.5-1.2,2.7-2.7,2.8h-9.5c-0.3,0.9-1.1,1.5-2,1.5H5.2C4.2,22.5,3.4,21.9,3.2,20.9L3.2,20.9z M3.1,19.7&#xA;&#x9;V3.8C2.5,4,2.2,4.6,2.2,5.2v13C2.2,18.9,2.5,19.5,3.1,19.7L3.1,19.7z M4.4,21c0.2,0.2,0.4,0.3,0.7,0.3h3.6c0.3,0,0.5-0.1,0.7-0.3&#xA;&#x9;c0.1-0.2,0.2-0.4,0.2-0.6V3.1c0-0.2-0.1-0.4-0.2-0.6C9.3,2.3,9,2.2,8.7,2.2H5.2c-0.3,0-0.5,0.1-0.7,0.3h0C4.3,2.7,4.2,2.9,4.2,3.1&#xA;&#x9;v17.4C4.2,20.7,4.3,20.8,4.4,21L4.4,21z M21.9,18.3v-13c0-0.9-0.7-1.6-1.6-1.6h-9.5v16.2h9.5C21.1,19.9,21.9,19.1,21.9,18.3z&#xA;&#x9; M13.2,12c-0.5,0-0.9-0.4-0.9-0.9c0,0,0,0,0,0c0-0.5,0.4-0.9,0.9-0.9c0,0,0,0,0,0c0.5,0,0.9,0.4,0.9,0.9c0,0,0,0,0,0&#xA;&#x9;C14.1,11.6,13.7,12,13.2,12C13.2,12,13.2,12,13.2,12z M16,12c-0.5,0-0.9-0.4-0.9-0.9c0,0,0,0,0,0c0-0.5,0.4-0.9,0.9-0.9c0,0,0,0,0,0&#xA;&#x9;c0.5,0,0.9,0.4,0.9,0.9c0,0,0,0,0,0C16.8,11.6,16.4,12,16,12C16,12,16,12,16,12z M18.7,12c-0.5,0-0.9-0.4-0.9-0.9c0,0,0,0,0,0&#xA;&#x9;c0-0.5,0.4-0.9,0.9-0.9c0,0,0,0,0,0c0.5,0,0.9,0.4,0.9,0.9c0,0,0,0,0,0C19.6,11.6,19.2,12,18.7,12C18.7,12,18.7,12,18.7,12z&#xA;&#x9; M13.2,14.6c-0.5,0-0.9-0.4-0.9-0.9c0,0,0,0,0,0c0-0.5,0.4-0.9,0.9-0.9c0,0,0,0,0,0c0.5,0,0.9,0.4,0.9,0.9c0,0,0,0,0,0&#xA;&#x9;C14.1,14.2,13.7,14.6,13.2,14.6C13.2,14.6,13.2,14.6,13.2,14.6z M16,14.6c-0.5,0-0.9-0.4-0.9-0.9c0,0,0,0,0,0c0-0.5,0.4-0.9,0.9-0.9&#xA;&#x9;c0,0,0,0,0,0c0.5,0,0.9,0.4,0.9,0.9c0,0,0,0,0,0C16.8,14.2,16.4,14.6,16,14.6C16,14.6,16,14.6,16,14.6z M18.7,14.6&#xA;&#x9;c-0.5,0-0.9-0.4-0.9-0.9c0,0,0,0,0,0c0-0.5,0.4-0.9,0.9-0.9c0,0,0,0,0,0c0.5,0,0.9,0.4,0.9,0.9c0,0,0,0,0,0&#xA;&#x9;C19.6,14.2,19.2,14.6,18.7,14.6C18.7,14.6,18.7,14.6,18.7,14.6z M13.2,17.3c-0.5,0-0.9-0.4-0.9-0.9c0,0,0,0,0,0&#xA;&#x9;c0-0.5,0.4-0.9,0.9-0.9c0,0,0,0,0,0c0.5,0,0.9,0.4,0.9,0.9c0,0,0,0,0,0C14.1,16.9,13.7,17.3,13.2,17.3&#xA;&#x9;C13.2,17.3,13.2,17.3,13.2,17.3z M16,17.3c-0.5,0-0.9-0.4-0.9-0.9c0,0,0,0,0,0c0-0.5,0.4-0.9,0.9-0.9c0,0,0,0,0,0&#xA;&#x9;c0.5,0,0.9,0.4,0.9,0.9c0,0,0,0,0,0C16.8,16.9,16.4,17.3,16,17.3C16,17.3,16,17.3,16,17.3z M18.7,17.3c-0.5,0-0.9-0.4-0.9-0.9&#xA;&#x9;c0,0,0,0,0,0c0-0.5,0.4-0.9,0.9-0.9c0,0,0,0,0,0c0.5,0,0.9,0.4,0.9,0.9c0,0,0,0,0,0C19.6,16.9,19.2,17.3,18.7,17.3&#xA;&#x9;C18.7,17.3,18.7,17.3,18.7,17.3z M12.1,8.9V5.3h8v3.6L12.1,8.9L12.1,8.9z M13.3,7.7h5.7V6.5h-5.7V7.7z"/></svg>