<svg version="1.1" id="Vlt-icon-microphone-2" xmlns="http://www.w3.org/2000/svg" xmlns:xlink="http://www.w3.org/1999/xlink" x="0px" y="0px" viewBox="0 0 24 24" style="enable-background:new 0 0 24 24;" xml:space="preserve"><path d="M12,0c2.8,0,5,2.4,5,5.4v7.3c0,3-2.2,5.4-5,5.4s-5-2.4-5-5.4V5.3C7,2.4,9.2,0,12,0z M12,16.7c2.1,0,3.7-1.8,3.7-4V9.5H8.3&#xA;&#x9;v3.2C8.3,14.9,9.9,16.7,12,16.7z M12,1.3c-2.1,0-3.7,1.8-3.7,4v2.8h7.5V5.3C15.7,3.1,14.1,1.3,12,1.3L12,1.3z M19.1,10&#xA;&#x9;c0.4,0,0.6,0.3,0.6,0.6v2.1c0,4.1-3.1,7.6-7.1,7.9v2.1h1.5c0.4,0,0.6,0.3,0.6,0.6c0,0.4-0.3,0.6-0.6,0.6H9.8c-0.4,0-0.6-0.3-0.6-0.6&#xA;&#x9;c0,0,0,0,0,0c0-0.4,0.3-0.6,0.6-0.6h1.5v-2.1c-4-0.3-7.1-3.7-7.1-7.9v-2.1c0-0.4,0.3-0.6,0.6-0.6c0.4,0,0.6,0.3,0.6,0.6v2.1&#xA;&#x9;c0,3.7,2.9,6.6,6.5,6.6c3.6,0,6.5-3,6.5-6.6v-2.1C18.5,10.3,18.7,10,19.1,10z"/></svg>