<svg version="1.1" id="Vlt-icon-call-flip" xmlns="http://www.w3.org/2000/svg" xmlns:xlink="http://www.w3.org/1999/xlink" x="0px" y="0px" viewBox="0 0 24 24" style="enable-background:new 0 0 24 24;" xml:space="preserve"><path d="M9.5,17.8c0.2,0.9,0.3,1.7,0.5,2.7c0.1,1.4-0.7,2.2-2.1,2.4c-1,0.2-2.2,0-2.8-0.3c-2.2-1.2-3.4-4.1-4-9.3&#xA;&#x9;c-0.5-5,0.3-9,2.3-11.1C4.9,0.4,7.3,0.9,8.6,2c0.9,0.8,0.8,2,0,6C8.5,8.6,8.1,8.8,7,9L6.9,9C6.3,9.2,6.1,9.3,6.1,9.3&#xA;&#x9;c-0.4,1.4-0.3,3.8,0.2,5.4C6.3,14.9,6.4,14.9,7,15l0.1,0c0.7,0,1.1,0.2,1.5,0.6C9,16.1,9.3,16.9,9.5,17.8L9.5,17.8z M7.7,21.7&#xA;&#x9;c0.8-0.1,1.1-0.4,1-1c-0.1-1.1-0.2-1.7-0.4-2.5c-0.2-0.8-0.5-1.4-0.7-1.8c-0.1-0.1-0.1-0.1-0.5-0.1l-0.1,0c0,0,0,0-0.1,0&#xA;&#x9;c-1.1-0.1-1.6-0.2-1.9-1.2c-0.6-1.9-0.7-4.6-0.2-6.1c0.2-0.8,0.4-0.8,1.8-1.1l0,0l0,0c0.2,0,0.4-0.1,0.6-0.2C8.1,4.1,8.1,3.2,7.8,3&#xA;&#x9;c-1-0.9-2.5-1-3.4,0C2.7,4.8,1.9,8.6,2.4,13.1C3,18,4,20.5,5.7,21.5C6.1,21.7,7,21.8,7.7,21.7L7.7,21.7z M20.6,2.1&#xA;&#x9;c1.9,2.1,2.8,6.2,2.3,11.1c-0.6,5.3-1.8,8.1-4,9.3c-0.6,0.3-1.8,0.5-2.8,0.3c-1.4-0.2-2.2-1-2.1-2.4c0.1-1.1,0.2-1.8,0.5-2.7&#xA;&#x9;c0.2-0.9,0.6-1.7,1-2.2c0.3-0.5,0.8-0.6,1.5-0.6l0.1,0c0.6,0,0.6-0.1,0.7-0.2c0.5-1.6,0.6-4.1,0.2-5.4c0,0-0.2-0.1-0.8-0.3L17,9&#xA;&#x9;c-1.1-0.2-1.5-0.4-1.6-1c-0.8-4-0.9-5.2,0-6C16.7,0.9,19.1,0.4,20.6,2.1z M21.6,13.1c0.5-4.6-0.3-8.3-1.9-10.1c-0.9-1-2.4-0.9-3.4,0&#xA;&#x9;c-0.3,0.3-0.3,1.1,0.4,4.7c0.1,0,0.3,0.1,0.6,0.2l0,0l0,0c1.4,0.3,1.5,0.4,1.8,1.1c0.5,1.6,0.4,4.2-0.2,6.1&#xA;&#x9;c-0.3,0.9-0.8,1.1-1.9,1.2l-0.1,0l-0.1,0c-0.4,0-0.5,0-0.5,0.1c-0.3,0.4-0.5,1-0.7,1.8c-0.2,0.8-0.3,1.4-0.4,2.5&#xA;&#x9;c-0.1,0.6,0.2,0.9,1,1c0.7,0.1,1.6,0,2-0.2C20,20.5,21,18,21.6,13.1z M16.3,11.7l-0.9,0.7l-3.7,3l-0.9-0.7l3.1-2.5H8v-1h6l-3.1-2.5&#xA;&#x9;L11.8,8C11.8,8,16.3,11.7,16.3,11.7z"/></svg>