<svg version="1.1" id="Vlt-icon-umbrella" xmlns="http://www.w3.org/2000/svg" xmlns:xlink="http://www.w3.org/1999/xlink" x="0px" y="0px" viewBox="0 0 30 30" style="enable-background:new 0 0 30 30;" xml:space="preserve"><title>Vlt-icon-umbrella</title><desc>Created with Sketch.</desc><g id="Volta---Illustration" transform="translate(-60.000000, -1289.000000)"><g id="Weather-55" transform="translate(60.000000, 1289.000000)"><path d="M14.8,7.1c4.8,0,8.7,3.7,9.2,8.4H5.7C6.1,10.8,10,7.1,14.8,7.1z M25.6,17.1v-0.8c0-6-4.9-10.8-10.8-10.8S4,10.4,4,16.3&#xA;&#x9;&#x9;&#x9;v0.8h10v9.8c0,1.5,1.2,2.7,2.7,2.7s2.7-1.2,2.7-2.7v-0.6c0-0.4-0.4-0.8-0.8-0.8s-0.8,0.4-0.8,0.8v0.6c0,0.6-0.4,1.1-1.1,1.1&#xA;&#x9;&#x9;&#x9;s-1.1-0.4-1.1-1.1v-9.8C15.6,17.1,25.6,17.1,25.6,17.1z"/><path d="M9.1,3.8c0.1,0.1,0.2,0.1,0.4,0.1c0.3,0,0.6-0.2,0.7-0.4l0.9-1.8c0.2-0.4,0.1-0.9-0.3-1.1c-0.4-0.2-0.9-0.1-1.1,0.3&#xA;&#x9;&#x9;&#x9;L8.8,2.7C8.6,3.1,8.7,3.6,9.1,3.8"/><path d="M12.9,3.8c0.1,0.1,0.2,0.1,0.4,0.1c0.3,0,0.6-0.2,0.7-0.4l0.9-1.8c0.2-0.4,0.1-0.9-0.3-1.1c-0.4-0.2-0.9-0.1-1.1,0.3&#xA;&#x9;&#x9;&#x9;l-0.9,1.8C12.3,3.1,12.5,3.6,12.9,3.8"/><path d="M16.6,3.8c0.1,0.1,0.2,0.1,0.4,0.1c0.3,0,0.6-0.2,0.7-0.4l0.9-1.8c0.2-0.4,0.1-0.9-0.3-1.1s-0.9-0.1-1.1,0.3l-0.9,1.8&#xA;&#x9;&#x9;&#x9;C16.1,3.1,16.2,3.6,16.6,3.8"/><path d="M20.4,3.8c0.1,0.1,0.2,0.1,0.4,0.1c0.3,0,0.6-0.2,0.7-0.4l0.9-1.8c0.2-0.4,0.1-0.9-0.3-1.1S21.2,0.5,21,0.9l-1,1.8&#xA;&#x9;&#x9;&#x9;C19.8,3.1,20,3.6,20.4,3.8"/></g></g></svg>