<svg version="1.1" id="Vlt-icon-enlarge" xmlns="http://www.w3.org/2000/svg" xmlns:xlink="http://www.w3.org/1999/xlink" x="0px" y="0px" viewBox="0 0 24 24" style="enable-background:new 0 0 24 24;" xml:space="preserve"><path id="path-1_1_" d="M21.5,22.3c0.4,0,0.6,0.3,0.6,0.6c0,0.4-0.3,0.7-0.6,0.7h-2c-0.4,0-0.6-0.3-0.6-0.7&#xA;&#x9;&#x9;&#x9;&#x9;&#x9;c0-0.4,0.3-0.6,0.6-0.6H21.5z M9.6,1.6c-0.4,0-0.7-0.3-0.7-0.7s0.3-0.6,0.7-0.6h2c0.4,0,0.7,0.3,0.7,0.6s-0.3,0.7-0.7,0.7H9.6z&#xA;&#x9;&#x9;&#x9;&#x9;&#x9; M15.6,1.6c-0.4,0-0.6-0.3-0.6-0.7s0.3-0.6,0.6-0.6h2c0.4,0,0.6,0.3,0.6,0.6s-0.3,0.7-0.6,0.7H15.6z M22.9,5.3&#xA;&#x9;&#x9;&#x9;&#x9;&#x9;c0.4,0,0.6,0.3,0.6,0.6v2c0,0.4-0.3,0.6-0.6,0.6c-0.4,0-0.6-0.3-0.6-0.6V6C22.3,5.6,22.6,5.3,22.9,5.3z M0.9,5.4&#xA;&#x9;&#x9;&#x9;&#x9;&#x9;c-0.4,0-0.6-0.3-0.6-0.7v-2c0-0.4,0.3-0.6,0.6-0.6s0.7,0.3,0.7,0.6v2C1.6,5.1,1.3,5.4,0.9,5.4z M3.6,1.6c-0.4,0-0.6-0.3-0.6-0.7&#xA;&#x9;&#x9;&#x9;&#x9;&#x9;s0.3-0.6,0.6-0.6h2c0.4,0,0.7,0.3,0.7,0.6S5.9,1.6,5.6,1.6H3.6z M0.9,9.3C0.6,9.3,0.3,9,0.3,8.6v-1C0.3,7.3,0.6,7,0.9,7&#xA;&#x9;&#x9;&#x9;&#x9;&#x9;s0.7,0.3,0.7,0.7v1C1.6,9,1.3,9.3,0.9,9.3z M22.9,17.3c0.4,0,0.6,0.3,0.6,0.6v2c0,0.4-0.3,0.7-0.6,0.7c-0.4,0-0.6-0.3-0.6-0.7&#xA;&#x9;&#x9;&#x9;&#x9;&#x9;v-2C22.3,17.6,22.6,17.3,22.9,17.3z M22.9,2.6c-0.4,0-0.6-0.3-0.6-0.6c0-0.2-0.1-0.4-0.3-0.4h-0.4c-0.4,0-0.6-0.3-0.6-0.6&#xA;&#x9;&#x9;&#x9;&#x9;&#x9;s0.3-0.6,0.6-0.6H22c0.9,0,1.6,0.7,1.6,1.6C23.6,2.3,23.3,2.6,22.9,2.6z M22.9,11.3c0.4,0,0.6,0.3,0.6,0.6v2&#xA;&#x9;&#x9;&#x9;&#x9;&#x9;c0,0.4-0.3,0.7-0.6,0.7c-0.4,0-0.6-0.3-0.6-0.7v-2C22.3,11.6,22.6,11.3,22.9,11.3z M16.3,22.3c0.4,0,0.6,0.3,0.6,0.6&#xA;&#x9;&#x9;&#x9;&#x9;&#x9;c0,0.4-0.3,0.7-0.6,0.7h-1c-0.4,0-0.7-0.3-0.7-0.7c0-0.4,0.3-0.6,0.7-0.6H16.3z M20,8.1c0,0.4-0.3,0.7-0.6,0.7&#xA;&#x9;&#x9;&#x9;&#x9;&#x9;c-0.4,0-0.7-0.3-0.7-0.7V5.9L14.5,10c-0.1,0.1-0.3,0.2-0.5,0.2c-0.2,0-0.3-0.1-0.5-0.2c-0.3-0.3-0.3-0.7,0-0.9l4.2-4.2h-2.3&#xA;&#x9;&#x9;&#x9;&#x9;&#x9;c-0.4,0-0.7-0.3-0.7-0.7c0-0.4,0.3-0.6,0.7-0.6h3.8c0.1,0,0.2,0,0.2,0c0.2,0.1,0.3,0.2,0.3,0.4c0,0.1,0.1,0.2,0.1,0.2V8.1z&#xA;&#x9;&#x9;&#x9;&#x9;&#x9; M11.5,10.8c0.8,0,1.5,0.7,1.5,1.5v9.7c0,0.8-0.7,1.5-1.5,1.5H1.8c-0.8,0-1.5-0.7-1.5-1.5v-9.7c0-0.8,0.7-1.5,1.5-1.5H11.5z&#xA;&#x9;&#x9;&#x9;&#x9;&#x9; M11.8,22.1v-9.7c0-0.1-0.1-0.2-0.2-0.2H1.8c-0.1,0-0.2,0.1-0.2,0.2v9.7c0,0.1,0.1,0.2,0.2,0.2h9.7&#xA;&#x9;&#x9;&#x9;&#x9;&#x9;C11.7,22.3,11.8,22.2,11.8,22.1z"/></svg>