<svg version="1.1" id="Vlt-icon-arrow-thin-down" xmlns="http://www.w3.org/2000/svg" xmlns:xlink="http://www.w3.org/1999/xlink" x="0px" y="0px" viewBox="0 0 24 24" style="enable-background:new 0 0 24 24;" xml:space="preserve"><path id="path-1_1_" class="st0" d="M12.6,21.3c0.1,0,0.2-0.1,0.2-0.2l6-6c0.3-0.3,0.3-0.7,0-1c-0.3-0.3-0.7-0.3-1,0L13,19V2.7&#xA;&#x9;C13,2.3,12.7,2,12.3,2c-0.4,0-0.7,0.3-0.7,0.7V19l-4.8-4.8c-0.3-0.3-0.7-0.3-1,0c-0.1,0.1-0.2,0.3-0.2,0.5c0,0.2,0.1,0.4,0.2,0.5&#xA;&#x9;l6,6c0.1,0.1,0.1,0.1,0.2,0.2C12.2,21.4,12.4,21.4,12.6,21.3"/></svg>