<svg version="1.1" id="Vlt-icon-list-numbers" xmlns="http://www.w3.org/2000/svg" xmlns:xlink="http://www.w3.org/1999/xlink" x="0px" y="0px" viewBox="0 0 24 24" style="enable-background:new 0 0 24 24;" xml:space="preserve"><path d="M8.8,5.3V3.9H21v1.4H8.8z M8.8,12.6v-1.3H21v1.3H8.8z M4.1,7V3.3L3.3,3.9L2.9,3.2l1.4-1h0.8V7H4.1z M4,13.5h1.8v0.9H2.6&#xA;&#x9;v-0.6l1.5-1.7c0.4-0.4,0.6-0.7,0.6-1.1s-0.3-0.7-0.6-0.7c-0.3,0-0.6,0.2-0.8,0.5l-0.7-0.5c0.3-0.5,0.8-0.9,1.6-0.9&#xA;&#x9;c0.8,0,1.5,0.5,1.5,1.4c0,0.5-0.2,1-0.8,1.6L4,13.5L4,13.5z M5,19.1c0.5,0.2,0.8,0.6,0.8,1.2c0,0.8-0.7,1.4-1.6,1.4&#xA;&#x9;s-1.5-0.4-1.7-1.1l0.8-0.3c0.1,0.3,0.4,0.5,0.8,0.5s0.7-0.2,0.7-0.6c0-0.3-0.3-0.6-0.8-0.6H3.7v-0.9h0.4c0.4,0,0.6-0.3,0.6-0.6&#xA;&#x9;c0-0.3-0.3-0.6-0.6-0.6c-0.4,0-0.6,0.2-0.7,0.4l-0.8-0.4c0.3-0.4,0.8-0.8,1.5-0.8c0.9,0,1.5,0.5,1.5,1.3C5.7,18.5,5.4,18.9,5,19.1&#xA;&#x9;L5,19.1z M8.8,19.8v-1.2H21v1.2L8.8,19.8L8.8,19.8z"/></svg>