<svg version="1.1" id="Vlt-icon-code-snippet" xmlns="http://www.w3.org/2000/svg" xmlns:xlink="http://www.w3.org/1999/xlink" x="0px" y="0px" viewBox="0 0 24 24" style="enable-background:new 0 0 24 24;" xml:space="preserve"><path d="M7.6,22.2h14.3c0.2,0,0.4-0.2,0.4-0.4V2c0-0.2-0.2-0.4-0.4-0.4H7.6V22.2z M6.3,22.2V1.6H2.1C1.9,1.7,1.7,1.9,1.7,2v19.8&#xA;&#x9;c0,0.2,0.2,0.4,0.4,0.4L6.3,22.2L6.3,22.2z M21.9,23.5H2.1c-0.9,0-1.6-0.7-1.6-1.5c0,0,0,0,0,0V2.1c0-0.9,0.7-1.6,1.6-1.6h19.8&#xA;&#x9;c0.9,0,1.6,0.7,1.6,1.6v19.8C23.5,22.8,22.8,23.5,21.9,23.5z M9,5.3V4h1.5v1.3H9z M12,5.3V4h5.5v1.3H12z M18.9,5.3V4h1.3v1.3H18.9z&#xA;&#x9; M9,8.2V6.9h2v1.3H9z M13,8.2V6.9h1.5v1.3C14.5,8.2,13,8.2,13,8.2z M16,8.2V6.9h4.5v1.3C20.4,8.2,16,8.2,16,8.2z M9,11.2V9.9h4v1.3&#xA;&#x9;C13,11.2,9,11.2,9,11.2z M14,11.2V9.9h2v1.3C16,11.2,14,11.2,14,11.2z M17,11.2V9.9h1.3v1.3L17,11.2L17,11.2z M9,14.2v-1.3h1.5v1.3&#xA;&#x9;H9z M12,14.2v-1.3h1.3v1.3H12z M15,14.2v-1.3h4.5v1.3H15L15,14.2z M9,17.2v-1.3h4.5v1.3L9,17.2L9,17.2z M15,17.2v-1.3h3v1.3L15,17.2&#xA;&#x9;L15,17.2z M18.9,17.2v-1.3h2v1.3L18.9,17.2L18.9,17.2z M9,20.1v-1.3h1.3v1.3H9L9,20.1z M11,20.1v-1.3h4.5v1.3H11z M3.1,5.3V4h2v1.3&#xA;&#x9;H3.1z M3.1,8.2V6.9h2v1.3L3.1,8.2L3.1,8.2z M3.1,11.2V9.9h2v1.3L3.1,11.2L3.1,11.2z M3.1,14.2v-1.3h2v1.3&#xA;&#x9;C5.1,14.2,3.1,14.2,3.1,14.2z M3.1,17.2v-1.3h2v1.3L3.1,17.2L3.1,17.2z M3.1,20.1v-1.3h2v1.3H3.1z"/></svg>