<svg version="1.1" id="Vlt-icon-phone-message" xmlns="http://www.w3.org/2000/svg" xmlns:xlink="http://www.w3.org/1999/xlink" x="0px" y="0px" viewBox="0 0 24 24" style="enable-background:new 0 0 24 24;" xml:space="preserve"><path d="M10.7,5.6c0-2.8,2.7-5,5.9-5s5.9,2.2,5.9,5c0,2.4-2,4.4-4.6,4.9c-0.2,0.1-0.4,0.3-1.2,1.1l0,0c-0.5,0.4-0.7,0.7-1,0.9l0,0&#xA;&#x9;c-0.9,0.7-2.3,0-2.1-1.2c0-0.1,0.1-0.3,0.1-0.6l0,0c0.1-0.3,0.1-0.5,0.1-0.7C11.9,9.2,10.7,7.5,10.7,5.6z M14.9,11.6&#xA;&#x9;c0.2-0.2,0.5-0.4,0.9-0.8c0,0,0,0,0,0c1.4-1.3,1.5-1.3,1.8-1.4c2.1-0.4,3.7-1.9,3.7-3.7c0-2-2.1-3.7-4.7-3.7c-2.6,0-4.7,1.7-4.7,3.7&#xA;&#x9;c0,1.4,1,2.7,2.6,3.4c0.6,0.3,0.6,0.7,0.4,2l0,0C14.9,11.3,14.9,11.4,14.9,11.6L14.9,11.6L14.9,11.6z M14.5,5.1v-1h4v1H14.5&#xA;&#x9;L14.5,5.1z M14.5,7.1v-1h2v1H14.5L14.5,7.1z M9.3,11.5c0.6,0.7,1,1.2,1.3,1.5c0.3,0.3,0.8,0.7,1.5,1.3c0.5,0.4,1,0.7,1.3,0.8&#xA;&#x9;c0.4-0.5,1-0.8,1.8-1c1.1-0.3,2.3,0.1,3.7,1c1.1,0.7,1.8,1.1,2.1,1.3c0.5,0.3,0.8,0.6,1,1.1c0.2,0.5,0.2,0.9,0.1,1.4l0,0.1l-0.4,1&#xA;&#x9;c-0.4,1-1.1,1.7-2.2,2.3c-0.9,0.4-2,0.5-3.3,0.2c-1.1-0.3-2.2-0.7-3.3-1.3c-1.1-0.6-2.2-1.3-3.2-2c-1-0.8-1.9-1.5-2.7-2.3&#xA;&#x9;C6,16,5.3,15.1,4.5,14c-0.8-1-1.4-2.1-2-3.2c-0.6-1.1-1-2.3-1.3-3.3C0.9,6.2,0.9,5.1,1.4,4.2C1.9,3.1,2.6,2.4,3.6,2l1-0.4l0.1,0&#xA;&#x9;c0.5-0.1,1-0.1,1.4,0.1c0.5,0.2,0.8,0.6,1.1,1c0.2,0.2,0.6,0.9,1.3,2c0.9,1.4,1.3,2.6,0.9,3.7c-0.2,0.8-0.5,1.4-1,1.8&#xA;&#x9;C8.6,10.5,8.8,10.9,9.3,11.5L9.3,11.5z M2.5,4.7C2.2,5.4,2.2,6.2,2.4,7.1c0.2,1,0.6,2,1.2,3c0.6,1.1,1.2,2.1,1.9,3.1&#xA;&#x9;c0.7,1,1.5,1.8,2.2,2.5c0.7,0.7,1.6,1.4,2.5,2.2c1,0.7,2,1.4,3.1,1.9c1.1,0.6,2.1,0.9,3,1.2c1,0.2,1.8,0.2,2.4-0.1&#xA;&#x9;c0.8-0.4,1.3-0.9,1.5-1.5l0.4-1c0.1-0.2,0-0.4,0-0.6c-0.1-0.2-0.2-0.4-0.5-0.5c-0.2-0.2-0.9-0.6-2-1.3c-1.1-0.7-2-1-2.6-0.8&#xA;&#x9;c-0.6,0.2-1,0.4-1.2,0.8s-0.6,0.4-1.1,0.3c-0.5-0.1-1.2-0.5-1.9-1.1c-0.7-0.6-1.2-1-1.6-1.4c-0.3-0.3-0.8-0.8-1.4-1.6&#xA;&#x9;c-0.6-0.7-0.9-1.3-1.1-1.9c-0.1-0.6,0-0.9,0.3-1.1s0.6-0.6,0.7-1.2c0.2-0.6-0.1-1.5-0.8-2.6l-1.3-2C6,3.1,5.8,2.9,5.7,2.9&#xA;&#x9;c-0.2-0.1-0.4-0.1-0.6,0l-1,0.4C3.4,3.4,2.9,3.9,2.5,4.7z"/></svg>