<svg version="1.1" id="Vlt-icon-arrow-thin-right" xmlns="http://www.w3.org/2000/svg" xmlns:xlink="http://www.w3.org/1999/xlink" x="0px" y="0px" viewBox="0 0 24 24" style="enable-background:new 0 0 24 24;" xml:space="preserve"><path id="path-1_1_" class="st0" d="M21.3,11.4c0-0.1-0.1-0.2-0.2-0.2l-6-6c-0.3-0.3-0.7-0.3-1,0c-0.3,0.3-0.3,0.7,0,1L19,11H2.7&#xA;&#x9;C2.3,11,2,11.3,2,11.7c0,0.4,0.3,0.7,0.7,0.7H19l-4.8,4.8c-0.3,0.3-0.3,0.7,0,1c0.1,0.1,0.3,0.2,0.5,0.2c0.2,0,0.4-0.1,0.5-0.2l6-6&#xA;&#x9;c0.1-0.1,0.1-0.1,0.2-0.2C21.4,11.8,21.4,11.6,21.3,11.4"/></svg>