<svg version="1.1" id="Vlt-icon-report" xmlns="http://www.w3.org/2000/svg" xmlns:xlink="http://www.w3.org/1999/xlink" x="0px" y="0px" viewBox="0 0 24 24" style="enable-background:new 0 0 24 24;" xml:space="preserve"><path d="M17.6,2.2h-0.9c-0.3,0-0.6-0.3-0.6-0.6S16.4,1,16.7,1h3v3c0,0.3-0.2,0.6-0.6,0.6c-0.3,0-0.6-0.2-0.6-0.6c0,0,0,0,0-0.1V3.2&#xA;&#x9;c-3.1,3.4-6.3,5.8-9.4,7.3c-1,0.5-2.1,1-3.2,1.3c-0.4,0.1-0.8,0.2-1.2,0.3c-0.3,0.1-0.7-0.1-0.7-0.5C3.8,11.3,4,11,4.3,10.9&#xA;&#x9;c0,0,0,0,0,0c0.2,0,0.5-0.1,1.1-0.3c1-0.3,2-0.8,3-1.3C11.5,7.9,14.6,5.5,17.6,2.2z M2.7,21.8h19.2c0.3,0,0.6,0.3,0.6,0.6&#xA;&#x9;c0,0.3-0.3,0.6-0.6,0.6H2.6c-0.6,0-1.1-0.5-1.1-1.1c0,0,0,0,0,0V2.6c0-0.3,0.2-0.6,0.6-0.6s0.6,0.2,0.6,0.6c0,0,0,0,0,0.1L2.7,21.8&#xA;&#x9;L2.7,21.8z M4.9,20.6c-0.6,0-1.1-0.5-1.1-1.1v-1.9c0-0.6,0.5-1.1,1.1-1.1h0.9c0.6,0,1.1,0.5,1.1,1.1v1.9c0,0.6-0.5,1.1-1.1,1.1H4.9z&#xA;&#x9; M5.7,19.4v-1.6H5.1v1.6H5.7L5.7,19.4z M9.2,20.6c-0.6,0-1.1-0.5-1.1-1.1l0,0v-5.2c0-0.6,0.5-1.1,1.1-1.1h0.9c0.6,0,1.1,0.5,1.1,1.1&#xA;&#x9;v5.2c0,0.6-0.5,1.1-1.1,1.1L9.2,20.6L9.2,20.6z M10,19.4v-4.9H9.3v4.9H10L10,19.4z M13.4,20.6c-0.6,0-1.1-0.5-1.1-1.1l0,0v-8.5&#xA;&#x9;c0-0.6,0.5-1.1,1.1-1.1h0.9c0.6,0,1.1,0.5,1.1,1.1v8.5c0,0.6-0.5,1.1-1.1,1.1H13.4z M14.2,19.4v-8.2h-0.7v8.2H14.2z M17.6,20.6&#xA;&#x9;c-0.6,0-1.1-0.5-1.1-1.1l0,0V7.8c0-0.6,0.5-1.1,1.1-1.1h0.9c0.6,0,1.1,0.5,1.1,1.1v11.8c0,0.6-0.5,1.1-1.1,1.1L17.6,20.6L17.6,20.6z&#xA;&#x9; M18.4,19.4V7.9h-0.7v11.5H18.4L18.4,19.4z"/></svg>