<svg version="1.1" id="Vlt-icon-file-doc" xmlns="http://www.w3.org/2000/svg" xmlns:xlink="http://www.w3.org/1999/xlink" x="0px" y="0px" viewBox="0 0 24 24" style="enable-background:new 0 0 24 24;" xml:space="preserve"><g><path d="M19.6,22.7H4.4c-0.6,0-1.1-0.5-1.1-1.1V2.4c0-0.6,0.5-1.1,1.1-1.1h10.3v5.6c0,0.4,0.3,0.7,0.6,0.7h5.4v14.1&#xA;&#x9;&#x9;C20.7,22.2,20.2,22.7,19.6,22.7z M16,1.8l4.2,4.4H16V1.8z M16,0H4.4C3.1,0,2,1.1,2,2.4v19.1C2,22.9,3.1,24,4.4,24c0,0,0,0,0,0h15.1&#xA;&#x9;&#x9;c1.3,0,2.4-1.1,2.4-2.4c0,0,0,0,0,0V6.2L16,0z"/><path d="M9.6,12.5c0,0.4-0.1,0.7-0.2,1C9.3,13.8,9.2,14,9,14.3c-0.2,0.2-0.4,0.4-0.7,0.5c-0.3,0.1-0.6,0.2-0.9,0.2H5.6v-4.9h1.7&#xA;&#x9;&#x9;c0.3,0,0.7,0.1,0.9,0.2c0.3,0.1,0.5,0.3,0.7,0.5c0.2,0.2,0.4,0.5,0.5,0.8C9.5,11.8,9.6,12.1,9.6,12.5z M8.5,12.5&#xA;&#x9;&#x9;c0-0.2,0-0.5-0.1-0.7c0-0.2-0.1-0.3-0.2-0.5C8.1,11.2,8,11.1,7.8,11c-0.2-0.1-0.3-0.1-0.5-0.1H6.6v3.1h0.7c0.2,0,0.4,0,0.5-0.1&#xA;&#x9;&#x9;c0.2-0.1,0.3-0.2,0.4-0.3c0.1-0.1,0.2-0.3,0.2-0.5C8.5,13,8.5,12.7,8.5,12.5z M14.5,12.5c0,0.4-0.1,0.7-0.2,1&#xA;&#x9;&#x9;c-0.1,0.3-0.3,0.6-0.5,0.8c-0.2,0.2-0.4,0.4-0.7,0.5c-0.3,0.1-0.6,0.2-0.9,0.2c-0.3,0-0.7-0.1-0.9-0.2c-0.3-0.1-0.5-0.3-0.7-0.5&#xA;&#x9;&#x9;c-0.2-0.2-0.4-0.5-0.5-0.8c-0.1-0.3-0.2-0.7-0.2-1c0-0.4,0.1-0.7,0.2-1c0.1-0.3,0.3-0.6,0.5-0.8c0.2-0.2,0.4-0.4,0.7-0.5&#xA;&#x9;&#x9;c0.3-0.1,0.6-0.2,0.9-0.2c0.6,0,1.2,0.3,1.7,0.7c0.2,0.2,0.4,0.5,0.5,0.8C14.4,11.8,14.5,12.1,14.5,12.5z M13.5,12.5&#xA;&#x9;&#x9;c0-0.2,0-0.5-0.1-0.7c0-0.2-0.1-0.3-0.2-0.5c-0.1-0.1-0.2-0.2-0.4-0.3c-0.2-0.1-0.3-0.1-0.5-0.1c-0.2,0-0.4,0-0.5,0.1&#xA;&#x9;&#x9;c-0.2,0.1-0.3,0.2-0.4,0.3c-0.1,0.1-0.2,0.3-0.2,0.5C11,12.1,11,12.3,11,12.5c0,0.2,0,0.5,0.1,0.7c0.1,0.2,0.1,0.4,0.2,0.5&#xA;&#x9;&#x9;c0.1,0.1,0.2,0.2,0.4,0.3c0.2,0.1,0.3,0.1,0.5,0.1c0.2,0,0.4,0,0.5-0.1c0.2-0.1,0.3-0.2,0.4-0.3c0.1-0.1,0.2-0.3,0.2-0.5&#xA;&#x9;&#x9;C13.4,13,13.5,12.7,13.5,12.5z M18.1,13.7c0.1,0,0.1,0,0.1,0.1l0.4,0.5c-0.2,0.2-0.4,0.4-0.7,0.6C17.6,14.9,17.3,15,17,15&#xA;&#x9;&#x9;c-0.6,0-1.2-0.2-1.6-0.7c-0.2-0.2-0.3-0.5-0.4-0.8c-0.1-0.3-0.2-0.7-0.1-1c0-0.4,0.1-0.7,0.2-1c0.1-0.3,0.3-0.6,0.4-0.8&#xA;&#x9;&#x9;c0.2-0.2,0.4-0.4,0.7-0.5c0.3-0.1,0.6-0.2,0.9-0.2c0.3,0,0.6,0.1,0.9,0.2c0.2,0.1,0.5,0.3,0.6,0.5l-0.3,0.5c0,0,0,0.1-0.1,0.1&#xA;&#x9;&#x9;c0,0-0.1,0-0.1,0c0,0-0.1,0-0.1,0c0,0-0.1,0-0.1-0.1c0,0-0.1-0.1-0.1-0.1c0,0-0.1-0.1-0.2-0.1c-0.2-0.1-0.3-0.1-0.5-0.1&#xA;&#x9;&#x9;c-0.2,0-0.3,0-0.5,0.1c-0.1,0.1-0.3,0.2-0.4,0.3c-0.1,0.1-0.2,0.3-0.2,0.5c-0.1,0.2-0.1,0.4-0.1,0.7c0,0.3,0,0.5,0.1,0.7&#xA;&#x9;&#x9;c0.1,0.2,0.1,0.4,0.2,0.5c0.1,0.1,0.2,0.2,0.4,0.3c0.1,0.1,0.3,0.1,0.5,0.1c0.1,0,0.2,0,0.3,0c0.1,0,0.1,0,0.2-0.1&#xA;&#x9;&#x9;c0.1,0,0.1-0.1,0.2-0.1c0.1,0,0.1-0.1,0.2-0.1C17.9,13.7,17.9,13.7,18.1,13.7C18,13.7,18,13.7,18.1,13.7z"/></g></svg>