<svg version="1.1" id="Vlt-icon-call-bounce" xmlns="http://www.w3.org/2000/svg" xmlns:xlink="http://www.w3.org/1999/xlink" x="0px" y="0px" viewBox="0 0 24 24" style="enable-background:new 0 0 24 24;" xml:space="preserve"><path d="M12,11.8L12,11.8c-1,0-2.1,0.1-3.3,0.3c-1.2,0.2-2.3,0.5-3.4,0.8c-1.1,0.4-2.2,0.8-3,1.4c-1,0.7-1.7,1.4-2,2.4&#xA;&#x9;c-0.4,1.1-0.4,2.1,0,3.1l0.4,0.9l0,0.1l0,0.1c0.2,0.4,0.6,0.7,1,0.9c0.2,0.1,0.5,0.1,0.8,0.1c0.2,0,0.4,0,0.6-0.1&#xA;&#x9;c0.2,0,0.7-0.1,2.2-0.5c1.6-0.4,2.6-1,3.1-1.9C8.8,18.7,9,18.1,9,17.5c0.2-0.1,0.6-0.2,1.3-0.3c0.8-0.1,1.4-0.1,1.8-0.1&#xA;&#x9;c0.4,0,1,0,1.8,0.1c0.7,0.1,1.1,0.2,1.2,0.3c0,0.6,0.1,1.2,0.5,1.9c0.5,0.9,1.5,1.5,3.1,1.9l2.2,0.5c0.2,0.1,0.4,0.1,0.6,0.1&#xA;&#x9;c0.3,0,0.5,0,0.8-0.1c0.4-0.2,0.8-0.5,1-0.9l0-0.1l0-0.1l0.4-0.9c0.4-0.9,0.4-1.9,0.1-3c-0.3-0.9-1-1.7-2-2.4c-0.9-0.6-1.9-1-3-1.4&#xA;&#x9;c-1.1-0.4-2.3-0.6-3.4-0.8C14.2,11.9,13.1,11.8,12,11.8 M5.7,3.3L12,8.6l6.6-6.4c0.3-0.3,0.7-0.2,0.9,0c0.3,0.3,0.2,0.7,0,0.9&#xA;&#x9;L12,10.3L4.7,4.1v4.7c0,0.4-0.3,0.6-0.7,0.6c-0.4,0-0.6-0.3-0.6-0.6V2.7V2H11c0.4,0,0.6,0.3,0.6,0.7S11.4,3.3,11,3.3H5.7z M12,13.1&#xA;&#x9;c0.9,0,1.9,0.1,3,0.3c1.1,0.2,2.2,0.4,3.2,0.8s1.9,0.7,2.7,1.2c0.8,0.5,1.3,1.1,1.5,1.7c0.3,0.8,0.3,1.4,0,2l-0.4,0.9&#xA;&#x9;c-0.1,0.2-0.2,0.3-0.4,0.4c-0.1,0-0.2,0.1-0.3,0.1c-0.1,0-0.2,0-0.4-0.1l-2.2-0.5c-1.2-0.3-1.9-0.7-2.2-1.2c-0.3-0.5-0.4-1-0.3-1.3&#xA;&#x9;c0.1-0.3-0.1-0.7-0.5-1c-0.4-0.3-1.1-0.5-1.9-0.6c-0.8-0.1-1.5-0.1-1.9-0.1h0c-0.4,0-1.1,0-1.9,0.1c-0.8,0.1-1.5,0.3-1.9,0.6&#xA;&#x9;c-0.4,0.3-0.6,0.6-0.5,1c0.1,0.3,0,0.8-0.3,1.3c-0.3,0.5-1,0.9-2.2,1.2c-1.2,0.3-1.9,0.4-2.2,0.5c-0.1,0-0.2,0.1-0.4,0.1&#xA;&#x9;c-0.1,0-0.2,0-0.3-0.1c-0.2-0.1-0.3-0.2-0.4-0.4l-0.4-0.9c-0.3-0.6-0.3-1.3,0-2c0.2-0.6,0.7-1.2,1.5-1.7c0.8-0.5,1.7-0.9,2.7-1.3&#xA;&#x9;c1.1-0.3,2.1-0.6,3.2-0.8C10,13.2,11,13.1,12,13.1C12,13.1,12,13.1,12,13.1z"/></svg>