<svg version="1.1" id="Vlt-icon-voicemail-2" xmlns="http://www.w3.org/2000/svg" xmlns:xlink="http://www.w3.org/1999/xlink" x="0px" y="0px" viewBox="0 0 24 24" style="enable-background:new 0 0 24 24;" xml:space="preserve"><path d="M22.8,9.5C22.9,9.6,23,9.8,23,9.9v11.5c0,1.4-1.2,2.6-2.6,2.6H3.6C2.2,24,1,22.8,1,21.4V9.9c0-0.2,0.1-0.3,0.2-0.5l2.3-2.3&#xA;&#x9;V4c0-0.9,0.7-1.6,1.6-1.6h3.8l1.9-1.9c0.6-0.6,1.7-0.6,2.3,0L15,2.4h3.9c0.9,0,1.6,0.7,1.6,1.6v3.2C20.6,7.2,22.8,9.5,22.8,9.5z&#xA;&#x9; M21.7,11.7v-1.5L20.6,9v3.7L21.7,11.7z M3.6,22.7h16.8c0.2,0,0.5-0.1,0.7-0.2l-5.7-6.1H8.8L3,22.6C3.2,22.7,3.4,22.7,3.6,22.7&#xA;&#x9;L3.6,22.7z M2.3,13.4v8c0,0,0,0.1,0,0.1l4.3-4.6C6.6,16.9,2.3,13.4,2.3,13.4z M2.3,10.2v1.5l1.2,1V9C3.5,9,2.3,10.2,2.3,10.2z&#xA;&#x9; M5.1,3.6C4.9,3.6,4.8,3.8,4.8,4v9.7L7.5,16l0.6-0.6c0.1-0.1,0.3-0.2,0.5-0.2h7c0.2,0,0.3,0.1,0.5,0.2l0.6,0.6l2.6-2.2V4&#xA;&#x9;c0-0.2-0.2-0.3-0.3-0.3L5.1,3.6L5.1,3.6z M11.7,1.4l-1,1h2.5l-1-1C12.1,1.2,11.9,1.2,11.7,1.4z M17.5,16.9l4.2,4.5v-8L17.5,16.9z&#xA;&#x9; M8.6,12.2c-1.6,0-2.9-1.3-2.9-2.9c0-1.6,1.3-2.9,2.9-2.9c1.6,0,2.9,1.3,2.9,2.9c0,0.6-0.2,1.1-0.5,1.6h1.8c-0.3-0.5-0.5-1-0.5-1.6&#xA;&#x9;c0-1.6,1.3-2.9,2.9-2.9c1.6,0,2.9,1.3,2.9,2.9c0,1.6-1.3,2.9-2.9,2.9c-0.1,0-0.1,0-0.2,0v0L8.6,12.2L8.6,12.2&#xA;&#x9;C8.7,12.2,8.7,12.2,8.6,12.2L8.6,12.2z M8.6,7.7C7.8,7.7,7,8.5,7,9.3c0,0.9,0.7,1.6,1.6,1.6s1.6-0.7,1.6-1.6c0,0,0,0,0,0&#xA;&#x9;C10.2,8.5,9.5,7.7,8.6,7.7z M15.2,7.7c-0.9,0-1.6,0.7-1.6,1.6c0,0.9,0.7,1.6,1.6,1.6c0.9,0,1.6-0.8,1.5-1.7&#xA;&#x9;C16.7,8.4,16,7.8,15.2,7.7z"/></svg>