<svg version="1.1" id="Vlt-icon-compose" xmlns="http://www.w3.org/2000/svg" xmlns:xlink="http://www.w3.org/1999/xlink" x="0px" y="0px" viewBox="0 0 24 24" style="enable-background:new 0 0 24 24;" xml:space="preserve"><path d="M13.2,2.9c0.4,0,0.7,0.3,0.7,0.6c0,0.4-0.3,0.7-0.6,0.7c0,0,0,0,0,0H4c-0.7,0-1.3,0.6-1.3,1.3v14c0,0.7,0.6,1.4,1.3,1.4&#xA;&#x9;h13.7c0.7,0,1.4-0.6,1.4-1.4l0,0v-8.8c0-0.4,0.3-0.7,0.6-0.7c0.4,0,0.7,0.3,0.7,0.6c0,0,0,0,0,0v8.8c0,1.5-1.2,2.6-2.6,2.6H4&#xA;&#x9;c-1.5,0-2.6-1.2-2.7-2.6v-14c0-1.5,1.2-2.7,2.7-2.7C4,2.9,13.2,2.9,13.2,2.9z M22.4,1.7l0.9,0.9l-0.9,0.9L11.3,14.7&#xA;&#x9;c-0.2,0.2-0.4,0.4-1.4,0.5c-0.1,0-0.3,0-0.4,0.1L8,15.4l0.1-1.5c0-0.2,0-0.3,0-0.5c0.1-1,0.4-1.2,0.5-1.4l5.7-5.7l3.9-3.9l1.4-1.4&#xA;&#x9;L20.7,0l0.9,0.9C21.6,0.9,22.4,1.7,22.4,1.7z M18.8,5.3l2.6-2.6l-0.8-0.8l-1.4,1.4L18,4.5C18,4.5,18.8,5.3,18.8,5.3z M10.4,13.8&#xA;&#x9;l7.5-7.5l-0.8-0.8l-1.8,1.8l-5.7,5.7c0,0-0.1,0.3-0.1,0.6c0,0.1,0,0.3,0,0.4c0.1,0,0.3,0,0.4,0C10.1,13.8,10.4,13.8,10.4,13.8z"/></svg>