<svg version="1.1" id="Vlt-icon-files" xmlns="http://www.w3.org/2000/svg" xmlns:xlink="http://www.w3.org/1999/xlink" x="0px" y="0px" viewBox="0 0 24 24" style="enable-background:new 0 0 24 24;" xml:space="preserve"><g><path d="M21.2,6.4c0.1,0.1,0.2,0.3,0.2,0.4v10.3c0,1.3-1,2.3-2.3,2.3H8.4c-1.3,0-2.3-1-2.3-2.3V3.3C6.1,2,7.1,1,8.4,1l7.4,0&#xA;&#x9;&#x9;c0.2,0,0.3,0.1,0.5,0.2L21.2,6.4L21.2,6.4z M19.1,18.1c0.6,0,1-0.4,1-1v-9H16c-0.9,0-1.6-0.7-1.6-1.7V2.3l-5.9,0c-0.6,0-1,0.4-1,1&#xA;&#x9;&#x9;v13.8c0,0.6,0.4,1,1,1L19.1,18.1L19.1,18.1z M19.8,6.8l-4.2-4.4v4c0,0.2,0.2,0.3,0.4,0.3H19.8L19.8,6.8z"/><path d="M17.2,14.3c0.4,0,0.6,0.3,0.6,0.6c0,0.4-0.3,0.7-0.6,0.7h-6.9c-0.4,0-0.7-0.3-0.7-0.7c0-0.4,0.3-0.6,0.7-0.6H17.2z&#xA;&#x9;&#x9; M17.2,11.6c0.4,0,0.6,0.3,0.6,0.6c0,0.4-0.3,0.7-0.6,0.7h-6.9c-0.4,0-0.7-0.3-0.7-0.7c0-0.4,0.3-0.6,0.7-0.6H17.2z M16.7,20.1&#xA;&#x9;&#x9;c0.4,0,0.6,0.3,0.6,0.6c0,1.2-1,2.1-2.1,2.1H4.8c-1.3,0-2.3-1-2.3-2.3c0,0,0,0,0,0v-14c0-1.2,1-2.1,2.1-2.1c0.4,0,0.7,0.3,0.7,0.7&#xA;&#x9;&#x9;c0,0.4-0.3,0.7-0.7,0.7l0,0c-0.5,0-0.8,0.4-0.8,0.8v14c0,0.6,0.4,1,1,1h10.4c0.5,0,0.8-0.4,0.8-0.8C16,20.4,16.3,20.1,16.7,20.1z&#xA;&#x9;&#x9; M10.2,10.3c-0.4,0-0.7-0.3-0.7-0.7C9.6,9.3,9.9,9,10.2,9h2.2c0.4,0,0.7,0.3,0.7,0.7c0,0.4-0.3,0.7-0.7,0.7H10.2z"/></g></svg>