<svg version="1.1" id="Vlt-icon-shout" xmlns="http://www.w3.org/2000/svg" xmlns:xlink="http://www.w3.org/1999/xlink" x="0px" y="0px" viewBox="0 0 24 24" style="enable-background:new 0 0 24 24;" xml:space="preserve"><path d="M10.4,6.2c1,0.6,1.4,1.3,1.3,2c-0.2,1.1-1.7,1.7-2.7,2c0.2,0.2,0.5,0.4,1.1,0.4l0.3,0l0.2,0.2c0.1,0.1,0.6,0.7,0.5,1.5&#xA;&#x9;c0,0.3-0.2,0.8-0.8,1.1c-1.5,0.9-1.7,1.3-1.7,1.3c0,0.4,1.2,0.7,1.7,0.7l0.3,0l0.2,0.3c0.1,0.1,0.5,0.9,0.2,1.7&#xA;&#x9;c-0.2,0.5-0.7,0.9-1.4,1.2v0.4c0,1.5-0.7,3.2-4,3.2h-3c-0.5,0-0.6,0-0.6,0.7c0,0.4-0.3,0.7-0.7,0.7S0.5,23.4,0.5,23c0-1.3,0.7-2,2-2&#xA;&#x9;h3c2.7,0,2.7-1.3,2.7-1.9v-1.5l0.5-0.1c0.5-0.1,0.9-0.3,1-0.5c0-0.1,0-0.2,0-0.2c-1.1-0.2-2.6-0.7-2.6-2c0-0.7,0.7-1.4,2.4-2.4&#xA;&#x9;c0.1-0.1,0.2-0.1,0.2-0.2c0-0.1,0-0.1-0.1-0.2c-1.5-0.2-2.2-1.3-2.3-2L7.1,9.3l0.7-0.1C9,8.9,10.3,8.3,10.3,8c0,0-0.1-0.3-0.7-0.7&#xA;&#x9;C6.3,5.2,6.4,0.8,6.4,0.6C6.4,0.3,6.7,0,7.1,0l0,0c0.4,0,0.6,0.3,0.6,0.7C7.7,0.7,7.6,4.5,10.4,6.2z M14.6,9.7&#xA;&#x9;c0.9,1.2,1.3,2.7,1.2,4.3c-0.1,1.5-0.7,3-1.6,4c-0.2,0.3-0.6,0.3-0.9,0.1c0,0,0,0,0,0c-0.3-0.2-0.3-0.7-0.1-0.9c0,0,0,0,0,0&#xA;&#x9;c0.8-0.8,1.2-2,1.3-3.2c0.1-1.3-0.3-2.5-1-3.5c-0.2-0.3-0.1-0.7,0.2-0.9C14,9.4,14.3,9.5,14.6,9.7z M17.3,6.7&#xA;&#x9;c1.6,2.2,2.3,4.9,2.1,7.5c-0.1,2.4-1,4.8-2.6,6.6c-0.2,0.3-0.6,0.3-0.9,0.1c0,0,0,0,0,0c-0.3-0.2-0.3-0.6-0.1-0.9&#xA;&#x9;c1.4-1.7,2.2-3.8,2.3-5.9c0.2-2.4-0.5-4.8-1.9-6.7c-0.2-0.3-0.1-0.7,0.2-0.9C16.7,6.4,17.1,6.4,17.3,6.7z M20.4,4.4&#xA;&#x9;c1.6,2.2,3.3,5.3,3.1,10c-0.2,3.6-1.4,6.5-3.8,9.3c-0.2,0.3-0.7,0.3-0.9,0.1c-0.3-0.2-0.3-0.7-0.1-0.9c2.3-2.6,3.3-5.2,3.5-8.5&#xA;&#x9;c0.2-4.2-1.3-7-2.8-9.2c-0.2-0.3-0.1-0.7,0.2-0.9C19.8,4,20.2,4.1,20.4,4.4z"/></svg>