<svg version="1.1" id="Vlt-icon-separator" xmlns="http://www.w3.org/2000/svg" xmlns:xlink="http://www.w3.org/1999/xlink" x="0px" y="0px" viewBox="0 0 24 24" style="enable-background:new 0 0 24 24;" xml:space="preserve"><path d="M12.1,14.8c-1.5,0-2.9-1.3-2.9-2.9S10.5,9,12.1,9s2.9,1.3,2.9,2.9C14.9,13.4,13.6,14.8,12.1,14.8z M0,12.5v-1.3h7.8v1.3&#xA;&#x9;L0,12.5L0,12.5z M16.2,11.2H24v1.3h-7.8V11.2z M12.1,13.4c0.8,0,1.5-0.7,1.5-1.5c0-0.8-0.7-1.5-1.5-1.5c-0.8,0-1.5,0.7-1.5,1.5&#xA;&#x9;S11.2,13.4,12.1,13.4z"/></svg>