<svg version="1.1" id="Vlt-icon-card" xmlns="http://www.w3.org/2000/svg" xmlns:xlink="http://www.w3.org/1999/xlink" x="0px" y="0px" viewBox="0 0 24 24" style="enable-background:new 0 0 24 24;" xml:space="preserve"><path d="M21.9,20.6H2.2c-0.9,0-1.7-0.5-1.7-1.4V4.4C0.5,3.6,1.3,3,2.2,3h19.7c0.9,0,1.6,0.5,1.6,1.4v14.8&#xA;&#x9;C23.5,20,22.8,20.6,21.9,20.6L21.9,20.6z M21.9,19.3c0.2,0,0.4-0.1,0.4-0.1V4.4c0,0-0.1-0.1-0.4-0.1H2.2c-0.1,0-0.2,0-0.3,0.1v14.8&#xA;&#x9;c0,0,0.1,0.1,0.4,0.1L21.9,19.3L21.9,19.3z M12.1,11.7c-1.5,0-2.8-1.3-2.8-2.8s1.3-2.8,2.8-2.8c1.5,0,2.8,1.3,2.8,2.8&#xA;&#x9;C14.8,10.4,13.5,11.7,12.1,11.7L12.1,11.7z M12.1,10.4c0.8,0,1.5-0.7,1.5-1.5s-0.7-1.5-1.5-1.5S10.6,8,10.6,8.9&#xA;&#x9;C10.6,9.8,11.3,10.4,12.1,10.4L12.1,10.4z M10.1,13.2H14v1.3h-3.9C10.1,14.5,10.1,13.2,10.1,13.2z M8.1,16.1H16v1.3H8.1L8.1,16.1&#xA;&#x9;L8.1,16.1z"/></svg>