<svg version="1.1" id="Vlt-icon-inbox-3" xmlns="http://www.w3.org/2000/svg" xmlns:xlink="http://www.w3.org/1999/xlink" x="0px" y="0px" viewBox="0 0 24 24" style="enable-background:new 0 0 24 24;" xml:space="preserve"><path d="M22,10.9l-4.3-7.7c-0.1-0.3-0.4-0.4-0.7-0.4H6.9c-0.3,0-0.6,0.2-0.7,0.4L2,10.9h5l0.8,1.9c0.1,0.3,0.4,0.5,0.8,0.5h6.9&#xA;&#x9;c0.3,0,0.7-0.2,0.8-0.5l0.8-1.9H22z M22.2,12.1h-4.4l-0.5,1.1c-0.3,0.8-1.1,1.3-2,1.3H8.6c-0.9,0-1.6-0.5-2-1.3l-0.5-1.1H1.8v8.2&#xA;&#x9;c0,0.5,0.4,0.8,0.8,0.8h18.8c0.5,0,0.8-0.4,0.8-0.8C22.2,20.4,22.2,12.1,22.2,12.1z M17.1,1.5c0.8,0,1.5,0.4,1.9,1.1l4.4,7.9&#xA;&#x9;c0.1,0.2,0.2,0.5,0.2,0.8v9.1c0,1.2-1,2.1-2.1,2.1H2.6c-1.2,0-2.1-0.9-2.1-2.1c0,0,0,0,0,0v-9.1c0-0.3,0.1-0.5,0.2-0.8l4.4-7.9&#xA;&#x9;c0.4-0.7,1.1-1.1,1.9-1.1H17.1z M5.7,9.5H4.4c0-0.9,0.7-1.6,1.6-1.6h11.8c0.9,0,1.6,0.7,1.6,1.6h-1.3c0-0.2-0.2-0.3-0.3-0.3H6.1&#xA;&#x9;C5.9,9.2,5.7,9.3,5.7,9.5C5.7,9.5,5.7,9.5,5.7,9.5z M7.2,6.6H5.9C5.9,5.7,6.7,5,7.6,5h8.9c0.9,0,1.6,0.7,1.6,1.6h-1.3&#xA;&#x9;c0-0.2-0.2-0.3-0.3-0.3c0,0,0,0,0,0H7.6C7.4,6.2,7.2,6.4,7.2,6.6C7.2,6.6,7.2,6.6,7.2,6.6z"/></svg>