<svg version="1.1" id="Vlt-icon-small-image" xmlns="http://www.w3.org/2000/svg" xmlns:xlink="http://www.w3.org/1999/xlink" x="0px" y="0px" viewBox="0 0 24 24" style="enable-background:new 0 0 24 24;" xml:space="preserve"><path d="M21.8,10.8c-2.3,0.1-3.7,1.1-6,3.6l0,0c-0.7,0.7-1,1-1.4,1.4c-1.7,1.6-3.6,2.7-5.5,3.3c-0.5,0.1-0.9-0.1-1-0.6&#xA;&#x9;c-0.1-0.4,0.1-0.9,0.6-1c0.9-0.3,1.8-0.7,2.6-1.2c-2.6-2.5-5.5-3.8-8.7-3.6v7.8c0,0.7,0.6,1.3,1.3,1.3h17c0.7,0,1.3-0.6,1.3-1.3&#xA;&#x9;V10.8z M21.8,9.1V3.5c0-0.7-0.6-1.3-1.3-1.3h-17c-0.7,0-1.3,0.6-1.3,1.3l0,0V11c1.5-0.1,3.1,0.1,4.5,0.6c1-3.1,4.3-4.7,7.4-3.7&#xA;&#x9;c1.4,0.5,2.5,1.4,3.2,2.7C18.7,9.6,20,9.2,21.8,9.1L21.8,9.1z M16,11.7c-1-2.1-3.5-2.9-5.5-2c-1.1,0.5-1.9,1.4-2.2,2.6&#xA;&#x9;c1.4,0.7,2.8,1.7,4,3c0.3-0.2,0.5-0.5,0.8-0.7c0.4-0.4,0.7-0.7,1.3-1.4l0,0C15,12.7,15.5,12.2,16,11.7z M3.5,0.5h17c1.7,0,3,1.3,3,3&#xA;&#x9;v17c0,1.7-1.3,3-3,3h-17c-1.7,0-3-1.3-3-3v-17C0.5,1.8,1.8,0.5,3.5,0.5z M11.5,3.9h1.7v2.2h-1.7V3.9z M6.4,5.8l1.4-1L9,6.6l-1.4,1&#xA;&#x9;L6.4,5.8z M16.7,4.8l1.4,0.9L17,7.5l-1.4-0.9L16.7,4.8L16.7,4.8z"/></svg>