<svg version="1.1" id="Vlt-icon-facebook" xmlns="http://www.w3.org/2000/svg" xmlns:xlink="http://www.w3.org/1999/xlink" x="0px" y="0px" viewBox="0 0 24 24" style="enable-background:new 0 0 24 24;" xml:space="preserve"><path id="path-1" d="M21.2,0.5H2.8c-1.3,0-2.3,1-2.3,2.3v18.4c0,1.3,1,2.3,2.3,2.3h10.3c0.2,0,0.4-0.2,0.4-0.4v-8.4&#xA;&#x9;c0-0.2-0.2-0.4-0.4-0.4h-2.7V12h2.7c0.2,0,0.4-0.2,0.4-0.4V8.6c0-2.5,1.8-4.2,4.2-4.2h1.9v2.3h-1.5c-1.3,0-2.3,1-2.3,2.3v2.7&#xA;&#x9;c0,0.2,0.2,0.4,0.4,0.4h3.3l-0.8,2.3h-2.5c-0.2,0-0.4,0.2-0.4,0.4v8.4c0,0.2,0.2,0.4,0.4,0.4h5c1.3,0,2.3-1,2.3-2.3V2.8&#xA;&#x9;C23.5,1.5,22.5,0.5,21.2,0.5z"/></svg>