<svg version="1.1" id="Vlt-icon-user-sync" xmlns="http://www.w3.org/2000/svg" xmlns:xlink="http://www.w3.org/1999/xlink" x="0px" y="0px" viewBox="0 0 24 24" style="enable-background:new 0 0 24 24;" xml:space="preserve"><path id="path-1_1_" d="M14.6,2.2c-0.4,0-0.7-0.3-0.7-0.6s0.3-0.7,0.7-0.7h2.6c1.8,0,3.2,1.4,3.2,3.1v0.9L21,4.4&#xA;&#x9;&#x9;&#x9;&#x9;&#x9;c0.3-0.2,0.7-0.2,0.9,0c0.2,0.3,0.2,0.7,0,0.9l-1.7,1.6c0,0,0,0,0,0c-0.2,0.2-0.4,0.2-0.6,0.1c0,0-0.1,0-0.1-0.1&#xA;&#x9;&#x9;&#x9;&#x9;&#x9;c-0.1,0-0.1-0.1-0.2-0.1l-1.7-1.6c-0.3-0.2-0.3-0.7,0-0.9c0.2-0.3,0.7-0.3,0.9,0l0.6,0.6V4c0-1-0.8-1.8-1.9-1.8H14.6z M5.9,22&#xA;&#x9;&#x9;&#x9;&#x9;&#x9;c0.4,0,0.7,0.3,0.7,0.6c0,0.4-0.3,0.6-0.7,0.6c-2,0-3.3-1.2-3.3-3.1v-1.3l-0.8,0.8c-0.3,0.3-0.7,0.3-0.9,0&#xA;&#x9;&#x9;&#x9;&#x9;&#x9;c-0.3-0.3-0.3-0.7,0-0.9l1.9-1.9c0.2-0.2,0.4-0.2,0.6-0.2c0,0,0.1,0,0.1,0.1c0.1,0,0.1,0.1,0.2,0.1l1.9,1.9&#xA;&#x9;&#x9;&#x9;&#x9;&#x9;c0.3,0.3,0.3,0.7,0,0.9c-0.3,0.3-0.7,0.3-0.9,0l-0.8-0.8v1.3C3.9,21.4,4.6,22,5.9,22z M9.6,15.8l-8.8,0c-0.4,0-0.6-0.3-0.6-0.6&#xA;&#x9;&#x9;&#x9;&#x9;&#x9;c0-1.8,1.2-3.3,2.9-3.7l2.2-0.5l0.1-0.5C4.8,9.7,4.4,9,4.3,8.2C3.8,8,3.5,7.6,3.5,7.2L3.3,5.9c-0.1-0.5,0.2-1,0.6-1.3&#xA;&#x9;&#x9;&#x9;&#x9;&#x9;c0,0,0-0.1,0-0.1c0-0.1,0-0.1,0-0.2c0-0.3-0.1-0.6-0.1-0.8c0-1.8,0.9-2.8,3.3-2.8c0.8-0.5,1.5-0.6,2.5-0.6&#xA;&#x9;&#x9;&#x9;&#x9;&#x9;c1.2,0,2.1,0.4,2.7,1.2c0.6,0.9,0.6,1.7-0.1,2.4L12,3.8l0,0.8c0.4,0.3,0.6,0.7,0.6,1.2l-0.2,1.2c-0.1,0.4-0.3,0.8-0.7,1&#xA;&#x9;&#x9;&#x9;&#x9;&#x9;c-0.2,0.8-0.6,1.6-1.1,2.3l0.2,0.8c0.1,0.3-0.1,0.7-0.5,0.8c-0.3,0.1-0.7-0.1-0.8-0.5l-0.3-1.2c-0.1-0.2,0-0.5,0.2-0.6&#xA;&#x9;&#x9;&#x9;&#x9;&#x9;c0.6-0.5,1-1.3,1.1-2.1c0-0.3,0.3-0.6,0.6-0.6c0,0,0.1-0.4,0.2-1.2c-0.4,0-0.6-0.3-0.6-0.7l0.1-1.6c0-0.2,0.1-0.3,0.2-0.4&#xA;&#x9;&#x9;&#x9;&#x9;&#x9;l0.3-0.3c0.2-0.2,0.2-0.4-0.1-0.8c-0.3-0.4-0.8-0.6-1.6-0.6c-0.8,0-1.3,0.1-1.9,0.5C7.6,2,7.5,2,7.3,2C5.5,2,5.2,2.4,5.2,3.6&#xA;&#x9;&#x9;&#x9;&#x9;&#x9;c0,0.1,0,0.3,0,0.7c0,0.1,0,0.1,0,0.2c0,0.3,0.1,0.5,0.1,0.6C5.3,5.4,5,5.8,4.6,5.8L4.8,7h0.1c0.3,0,0.6,0.3,0.6,0.6&#xA;&#x9;&#x9;&#x9;&#x9;&#x9;c0.1,0.8,0.4,1.6,1,2.1c0.2,0.2,0.2,0.4,0.2,0.6l-0.3,1.2c-0.1,0.2-0.2,0.4-0.5,0.5l-2.6,0.6c-0.9,0.2-1.6,0.9-1.8,1.8l8.1,0&#xA;&#x9;&#x9;&#x9;&#x9;&#x9;c0.4,0,0.6,0.3,0.6,0.6S9.9,15.8,9.6,15.8z M21,19.5c1.7,0.4,2.9,2,2.9,3.7c0,0.4-0.3,0.7-0.7,0.7H8.8c-0.4,0-0.7-0.3-0.7-0.7&#xA;&#x9;&#x9;&#x9;&#x9;&#x9;c0-1.8,1.2-3.3,2.9-3.7l2.2-0.6l0.1-0.5c-0.5-0.6-0.9-1.4-1.1-2.2c-0.4-0.2-0.7-0.6-0.8-1L11.4,14c-0.1-0.5,0.2-1,0.6-1.3&#xA;&#x9;&#x9;&#x9;&#x9;&#x9;c0,0,0-0.1,0-0.1c0-0.1,0-0.1,0-0.2c0-0.3-0.1-0.6-0.1-0.8c0-1.8,0.9-2.8,3.3-2.8c0.8-0.5,1.5-0.6,2.5-0.6&#xA;&#x9;&#x9;&#x9;&#x9;&#x9;c1.2,0,2.1,0.4,2.6,1.2c0.6,0.9,0.6,1.7-0.1,2.4l-0.1,0.1l0,0.8c0.4,0.3,0.6,0.7,0.6,1.2l-0.2,1.3c-0.1,0.4-0.3,0.8-0.7,1&#xA;&#x9;&#x9;&#x9;&#x9;&#x9;c-0.2,0.8-0.6,1.6-1.1,2.3l0.1,0.4L21,19.5z M9.6,22.6h12.9c-0.2-0.9-0.9-1.6-1.8-1.8l-2.6-0.6c-0.2-0.1-0.4-0.2-0.5-0.5&#xA;&#x9;&#x9;&#x9;&#x9;&#x9;l-0.3-1.2c-0.1-0.2,0-0.5,0.2-0.6c0.6-0.5,1-1.3,1.1-2.1c0-0.3,0.3-0.6,0.6-0.6l0.2-1.2c-0.4,0-0.6-0.3-0.6-0.7l0.1-1.6&#xA;&#x9;&#x9;&#x9;&#x9;&#x9;c0-0.2,0.1-0.3,0.2-0.4l0.3-0.3c0.2-0.2,0.2-0.4-0.1-0.8c-0.3-0.4-0.8-0.6-1.6-0.6c-0.8,0-1.3,0.1-1.9,0.5&#xA;&#x9;&#x9;&#x9;&#x9;&#x9;c-0.1,0.1-0.2,0.1-0.4,0.1c-1.8,0-2.2,0.4-2.2,1.5c0,0.1,0,0.3,0,0.7c0,0.1,0,0.1,0,0.2c0,0.3,0.1,0.5,0.1,0.6&#xA;&#x9;&#x9;&#x9;&#x9;&#x9;c0,0.4-0.3,0.7-0.6,0.7l0.1,1.2h0.1c0.3,0,0.6,0.3,0.6,0.6c0.1,0.8,0.4,1.6,1,2.1c0.2,0.2,0.2,0.4,0.2,0.6l-0.3,1.2&#xA;&#x9;&#x9;&#x9;&#x9;&#x9;c-0.1,0.2-0.2,0.4-0.5,0.5l-2.6,0.6C10.5,21,9.8,21.7,9.6,22.6z"/></svg>