<svg version="1.1" id="Vlt-icon-broadcast" xmlns="http://www.w3.org/2000/svg" xmlns:xlink="http://www.w3.org/1999/xlink" x="0px" y="0px" viewBox="0 0 24 24" style="enable-background:new 0 0 24 24;" xml:space="preserve"><path d="M12,13.2c0.7,0,1.2-0.5,1.2-1.2s-0.5-1.2-1.2-1.2c-0.7,0-1.2,0.5-1.2,1.2S11.3,13.2,12,13.2z M12,14.5&#xA;&#x9;c-1.4,0-2.5-1.1-2.5-2.5c0,0,0,0,0,0c0-1.4,1.1-2.5,2.5-2.5c0,0,0,0,0,0c1.4,0,2.5,1.1,2.5,2.5c0,0,0,0,0,0&#xA;&#x9;C14.5,13.4,13.4,14.5,12,14.5C12,14.5,12,14.5,12,14.5z M8.4,7.4c0.3-0.3,0.7-0.3,0.9,0c0.3,0.2,0.3,0.7,0,0.9c-2,2-2,5.3,0,7.4&#xA;&#x9;c0.3,0.3,0.3,0.7,0,0.9c0,0,0,0,0,0c-0.3,0.3-0.7,0.2-0.9,0C5.9,14.1,5.9,9.9,8.4,7.4z M15.6,16.6c-0.3,0.3-0.7,0.3-0.9,0&#xA;&#x9;c-0.3-0.2-0.3-0.7,0-0.9c0,0,0,0,0,0c2-2,2-5.3,0-7.4c-0.3-0.3-0.3-0.7,0-0.9c0,0,0,0,0,0c0.3-0.3,0.7-0.2,0.9,0&#xA;&#x9;C18.1,9.9,18.1,14.1,15.6,16.6z M6.5,5.5c0.3-0.3,0.7-0.3,0.9,0c0.3,0.2,0.3,0.7,0,0.9c-3.1,3.1-3.1,8.1,0,11.3&#xA;&#x9;c0.3,0.3,0.3,0.7,0,0.9c0,0,0,0,0,0c-0.3,0.3-0.7,0.2-0.9,0C2.9,14.9,2.9,9.1,6.5,5.5z M17.5,18.5c-0.3,0.3-0.7,0.3-0.9,0&#xA;&#x9;c-0.3-0.2-0.3-0.7,0-0.9c0,0,0,0,0,0c3.1-3.1,3.1-8.1,0-11.3c-0.3-0.3-0.3-0.7,0-0.9c0,0,0,0,0,0c0.3-0.3,0.7-0.2,0.9,0&#xA;&#x9;C21.1,9.1,21.1,14.9,17.5,18.5z M19.6,20.3c-0.3,0.3-0.7,0.3-0.9,0c-0.3-0.2-0.3-0.7,0-0.9c0,0,0,0,0,0c4.1-4.1,4.1-10.7,0-14.8&#xA;&#x9;c-0.3-0.3-0.3-0.7,0-0.9c0,0,0,0,0,0c0.3-0.3,0.7-0.2,0.9,0C24.1,8.3,24.1,15.7,19.6,20.3z M4.4,3.7c0.3-0.3,0.7-0.3,0.9,0&#xA;&#x9;c0.3,0.2,0.3,0.7,0,0.9c-4.1,4.1-4.1,10.7,0,14.8c0.3,0.3,0.3,0.7,0,0.9c0,0,0,0,0,0c-0.3,0.3-0.7,0.2-0.9,0&#xA;&#x9;C-0.1,15.7-0.1,8.3,4.4,3.7z"/></svg>