<svg version="1.1" id="Vlt-icon-sidenav-only" xmlns="http://www.w3.org/2000/svg" xmlns:xlink="http://www.w3.org/1999/xlink" x="0px" y="0px" viewBox="0 0 24 24" style="enable-background:new 0 0 24 24;" xml:space="preserve"><title>Vlt-icon-sidenav-only</title><desc>Created with Sketch.</desc><g id="Symbols"><g id="Icons_x2F_Vlt-icon-sidenav-only"><g id="Vlt-icon-sidenav-only_1_"><path id="Shape" d="M22,22.4c0.2,0,0.3-0.2,0.3-0.4V2c0-0.2-0.2-0.4-0.3-0.4H2C1.8,1.6,1.7,1.8,1.7,2v20c0,0.2,0.2,0.4,0.3,0.4&#xA;&#x9;&#x9;&#x9;&#x9;H22z M22,23.6H2c-0.9,0-1.6-0.7-1.6-1.6V2c0-0.9,0.7-1.6,1.6-1.6h20c0.9,0,1.6,0.7,1.6,1.6v20C23.7,22.9,22.9,23.6,22,23.6z"/><polygon id="Shape_1_" points="7.4,1.5 8.7,1.5 8.7,23 7.4,23 &#x9;&#x9;&#x9;"/></g></g></g></svg>