<svg version="1.1" id="Vlt-icon-more" xmlns="http://www.w3.org/2000/svg" xmlns:xlink="http://www.w3.org/1999/xlink" x="0px" y="0px" viewBox="0 0 24 24" style="enable-background:new 0 0 24 24;" xml:space="preserve"><path d="M5.9,11.9c0-0.7-0.5-1.3-1.3-1.3c-0.7,0-1.3,0.5-1.3,1.3c0,0.7,0.5,1.3,1.3,1.3C5.4,13.2,5.9,12.7,5.9,11.9z M7.3,11.9&#xA;&#x9;c0,1.4-1.1,2.6-2.6,2.6c0,0,0,0-0.1,0C3.2,14.6,2,13.4,2,12c0,0,0,0,0-0.1c0-1.4,1.1-2.6,2.6-2.6c0,0,0,0,0.1,0&#xA;&#x9;C6.1,9.3,7.2,10.4,7.3,11.9C7.3,11.9,7.3,11.9,7.3,11.9z M14.6,11.9c0,1.4-1.1,2.6-2.6,2.6c0,0,0,0-0.1,0c-1.4,0-2.6-1.1-2.6-2.6&#xA;&#x9;c0,0,0,0,0-0.1c0-1.4,1.1-2.6,2.6-2.6c0,0,0,0,0.1,0C13.4,9.3,14.6,10.4,14.6,11.9C14.6,11.9,14.6,11.9,14.6,11.9z M13.3,11.9&#xA;&#x9;c0-0.7-0.5-1.3-1.3-1.3c-0.7,0-1.3,0.5-1.3,1.3c0,0.7,0.5,1.3,1.3,1.3C12.7,13.2,13.3,12.7,13.3,11.9z M22,11.9&#xA;&#x9;c0,1.4-1.1,2.6-2.6,2.6c0,0,0,0-0.1,0c-1.4,0-2.6-1.1-2.6-2.6c0,0,0,0,0-0.1c0-1.4,1.1-2.6,2.6-2.6c0,0,0,0,0.1,0&#xA;&#x9;C20.8,9.3,22,10.4,22,11.9C22,11.9,22,11.9,22,11.9z M20.6,11.9c0-0.7-0.5-1.3-1.3-1.3c-0.7,0-1.3,0.5-1.3,1.3&#xA;&#x9;c0,0.7,0.5,1.3,1.3,1.3C20.1,13.2,20.6,12.7,20.6,11.9z"/></svg>