<svg version="1.1" id="Vlt-icon-reply" xmlns="http://www.w3.org/2000/svg" xmlns:xlink="http://www.w3.org/1999/xlink" x="0px" y="0px" viewBox="0 0 24 24" style="enable-background:new 0 0 24 24;" xml:space="preserve"><title>Vlt-icon-reply</title><path id="path-1_1_" d="M10.9,16v3.8c0,0.9-1.2,1.4-1.9,0.7l-7.7-8.3c-0.4-0.4-0.4-1.1,0-1.5L9,2.4c0.7-0.8,1.9-0.3,1.9,0.7v3.8&#xA;&#x9;c6.5,1.4,10.7,6.3,12.1,13.8c0.2,1.1-1.3,1.8-2,0.8C18.7,18,15.5,16.2,10.9,16z M21.7,20.2C20.2,13.4,16.3,9.1,10.2,8L9.7,7.8V3.3&#xA;&#x9;l-7.4,8l7.4,8v-4.6h0.6C15.3,14.8,19,16.6,21.7,20.2z"/></svg>