<svg version="1.1" id="Vlt-icon-type" xmlns="http://www.w3.org/2000/svg" xmlns:xlink="http://www.w3.org/1999/xlink" x="0px" y="0px" viewBox="0 0 24 24" style="enable-background:new 0 0 24 24;" xml:space="preserve"><path d="M15,1.8V0.5c-1.2,0-2.4,0.6-2.9,1.5c-0.6-0.9-1.8-1.5-2.9-1.5v1.3c1.3,0,2.4,1.1,2.4,2.4v7.4H9.6v1.3h1.8v7&#xA;&#x9;c0,1.3-1.1,2.4-2.4,2.4v1.3c1.2,0,2.4-0.6,2.9-1.5c0.6,0.9,1.8,1.5,2.9,1.5v-1.3c-1.3,0-2.4-1.1-2.4-2.4v-7h1.8v-1.3h-1.8V4.2&#xA;&#x9;C12.6,2.9,13.7,1.8,15,1.8L15,1.8z"/></svg>