<svg version="1.1" id="Vlt-icon-whisper" xmlns="http://www.w3.org/2000/svg" xmlns:xlink="http://www.w3.org/1999/xlink" x="0px" y="0px" viewBox="0 0 24 24" style="enable-background:new 0 0 24 24;" xml:space="preserve"><path d="M20,5.2c-0.2,0-0.5,0.1-0.7,0.1v-1c0-1.1-0.9-1.9-1.9-1.9h-0.1c-0.2,0-0.5,0-0.7,0.1c-0.2-0.9-1-1.5-1.9-1.5&#xA;&#x9;c-1.1,0-2,0.9-2,2v0.3c-0.2-0.1-0.4-0.1-0.7-0.1c-1.1,0-2,0.9-2,2v2.4c-1.7-2.3-1.9-4-1.9-4.5V1.7c0-0.4-0.3-0.6-0.7-0.6&#xA;&#x9;c-0.4,0-0.7,0.3-0.7,0.6v1.4c0,0.7,0.2,3.3,3.2,6.5c0.3,0.3,0.5,0.7,0.5,0.9c0,0,0,0.2-0.2,0.3c-0.6,0.4-1.5,0.6-1.8,0.7l-0.9,0.2&#xA;&#x9;L8,12.5c0.1,0.1,0.5,0.8,1.5,1c0,0,0.1,0.1,0.1,0.1c0,0.1-0.1,0.4-0.6,0.8l-0.9,0.8l1.1,0.3c0.2,0.1,0.5,0.2,0.5,0.4&#xA;&#x9;c0,0.1-0.2,0.5-1.2,1.2l-0.3,0.2V19c0,0.7-0.6,1.5-2.4,1.5H2.6c-0.7,0-1.6,0.3-1.6,1.9C1,22.7,1.3,23,1.7,23c0.4,0,0.7-0.3,0.7-0.6&#xA;&#x9;c0-0.6,0.1-0.6,0.3-0.6h3.3c2.1,0,3.1-0.8,3.5-1.8l1.1,1.1c0.1,0.1,0.2,0.6,0.2,1c0,0.4,0.3,0.6,0.7,0.6h0c0.4,0,0.6-0.3,0.6-0.7&#xA;&#x9;c0,0,0,0,0,0c0-0.2-0.1-1.3-0.6-1.9l-1.8-1.8V18c1.1-0.8,1.6-1.6,1.5-2.3c-0.1-0.4-0.3-0.7-0.6-1c0.3-0.5,0.5-0.9,0.4-1.3&#xA;&#x9;c-0.1-0.6-0.5-0.9-0.7-1c0.3-0.1,0.6-0.3,0.9-0.5c0.6-0.4,0.7-0.9,0.8-1.2c0.1-0.5-0.1-1-0.4-1.5V5.2c0-0.4,0.3-0.7,0.7-0.7&#xA;&#x9;c0.4,0,0.7,0.3,0.7,0.7v6.3H14V3c0-0.4,0.3-0.7,0.7-0.7c0.4,0,0.7,0.3,0.7,0.7v8.5h0v0h1.3V4.3c0-0.3,0.3-0.6,0.6-0.6h0.1&#xA;&#x9;C17.7,3.7,18,4,18,4.3v7.2h1.3v-1c0,0,0-0.1,0-0.1V7.2c0-0.4,0.3-0.7,0.7-0.7c0.4,0,0.7,0.3,0.7,0.7v7c0,2.2-0.5,4-0.7,5.1&#xA;&#x9;c-0.1,0.3-0.2,0.6-0.2,0.8c-0.1,0.6-0.2,1.3-0.2,1.9c0,0.4,0.3,0.7,0.6,0.7c0,0,0,0,0,0c0.4,0,0.6-0.3,0.7-0.6c0,0,0-0.9,0.2-1.7&#xA;&#x9;c0-0.2,0.1-0.4,0.2-0.7c0.3-1.2,0.8-3.1,0.8-5.4v-7C22,6.1,21.1,5.2,20,5.2"/></svg>