<svg version="1.1" id="Vlt-icon-unhappy" xmlns="http://www.w3.org/2000/svg" xmlns:xlink="http://www.w3.org/1999/xlink" x="0px" y="0px" viewBox="0 0 24 24" style="enable-background:new 0 0 24 24;" xml:space="preserve"><path d="M12,23C5.9,23,1,18.1,1,12S5.9,1,12,1s11,4.9,11,11S18.1,23,12,23z M12,21.7c5.4,0,9.7-4.3,9.7-9.7S17.4,2.3,12,2.3&#xA;&#x9;S2.3,6.6,2.3,12S6.6,21.7,12,21.7z M17.9,9.9c-1.2-0.6-3.7-0.7-4.9-0.4c0.1-0.7,2-3.1,4.6-3.5l0.2,1c-1.3,0.2-2.2,0.8-2.7,1.4&#xA;&#x9;c1.1-0.1,2.2,0.2,3.3,0.7L17.9,9.9L17.9,9.9z M5.6,9c1.1-0.5,2.2-0.8,3.3-0.7C8.4,7.8,7.6,7.2,6.2,7l0.2-1c2.6,0.4,4.1,2.8,4.2,3.5&#xA;&#x9;C9.4,9.2,7.3,9.3,6,9.9L5.6,9z M16.6,17.3c-1.2-1.2-2.8-1.9-4.6-1.9c-1.9,0-3.4,0.6-4.6,1.9l-0.7-0.7c1.4-1.4,3.2-2.1,5.4-2.1&#xA;&#x9;c2.1,0,3.9,0.7,5.4,2.1L16.6,17.3L16.6,17.3z"/></svg>