<svg version="1.1" id="Vlt-icon-file-voicemail" xmlns="http://www.w3.org/2000/svg" xmlns:xlink="http://www.w3.org/1999/xlink" x="0px" y="0px" viewBox="0 0 24 24" style="enable-background:new 0 0 24 24;" xml:space="preserve"><path id="path-1" d="M16,21.7C15.4,21,15,20,15,19c0-2.2,1.8-4,4-4s4,1.8,4,4c0,2.1-1.6,3.8-3.7,4l0,0H9.4l0,0&#xA;&#x9;c-2.1-0.2-3.7-1.9-3.7-4c0-2.2,1.8-4,4-4s4,1.8,4,4c0,1-0.4,2-1,2.7H16z M3.1,22.1c0,0.2,0.2,0.4,0.4,0.4h1.8v1.1H3.6&#xA;&#x9;C2.7,23.7,2,23,2,22.1V2.6C2,1.7,2.7,1,3.6,1h11l6.2,6.2v6.6h-1.1V8h-5.9V2.1H3.6c-0.2,0-0.4,0.2-0.4,0.4L3.1,22.1L3.1,22.1z&#xA;&#x9; M14.9,3v3.9h3.9L14.9,3z M5.5,7.4V6.3h5.9v1.1H5.5z M5.5,10.4V9.3h11.8v1.1C17.3,10.4,5.5,10.4,5.5,10.4z M5.5,13.2V12h6.9v1.1&#xA;&#x9;L5.5,13.2L5.5,13.2z M19,21.7c1.5,0,2.7-1.2,2.7-2.7s-1.2-2.7-2.7-2.7s-2.7,1.2-2.7,2.7S17.5,21.7,19,21.7z M9.7,21.7&#xA;&#x9;c1.5,0,2.7-1.2,2.7-2.7s-1.2-2.7-2.7-2.7S7,17.5,7,19S8.2,21.7,9.7,21.7z"/></svg>