<svg version="1.1" id="Vlt-icon-plug" xmlns="http://www.w3.org/2000/svg" xmlns:xlink="http://www.w3.org/1999/xlink" x="0px" y="0px" viewBox="0 0 24 24" style="enable-background:new 0 0 24 24;" xml:space="preserve"><path d="M15.1,18.6c-2.3,2.3-6.1,2.2-8.5-0.2l-0.7-0.7c-2.4-2.4-2.5-6.2-0.2-8.5l4.5-4.5c0.2-0.2,0.5-0.2,0.6,0l8.8,8.8&#xA;&#x9;c0.2,0.2,0.2,0.5,0,0.6L15.1,18.6L15.1,18.6z M20.6,12.4l-1.3-1.3L23,7.3c0.3-0.3,0.3-0.8,0-1.2c-0.3-0.3-0.8-0.3-1.1,0l-3.7,3.7&#xA;&#x9;l-3.8-3.8l3.7-3.7c0.3-0.3,0.3-0.8,0-1.2c-0.3-0.3-0.8-0.3-1.1,0L13.2,5l-1.3-1.3c-0.8-0.8-2-0.8-2.8,0L4.6,8.1&#xA;&#x9;c-2.8,2.8-2.7,7.4,0,10.4c0,0,0,0-0.1,0l-2.4,2.4c-0.3,0.3-0.3,0.8,0,1.2c0.3,0.3,0.8,0.3,1.2,0l2.4-2.4c0,0,0,0,0-0.1&#xA;&#x9;c3,2.8,7.6,2.8,10.4,0l4.5-4.5C21.4,14.4,21.4,13.2,20.6,12.4z"/></svg>