<svg version="1.1" id="Vlt-icon-attachment" xmlns="http://www.w3.org/2000/svg" xmlns:xlink="http://www.w3.org/1999/xlink" x="0px" y="0px" viewBox="0 0 24 24" style="enable-background:new 0 0 24 24;" xml:space="preserve"><path id="path-1" d="M11.1,3.6c0.3-0.2,0.7-0.2,0.9,0c0.3,0.2,0.3,0.7,0,0.9l-9.1,9c-0.7,0.7-1.1,1.7-1.1,2.8V20&#xA;&#x9;c0,0.7,0.6,1.2,1.2,1.2h3.8c1,0,2-0.4,2.8-1.1L21.4,8.3c0.5-0.5,0.8-1.2,0.8-2s-0.3-1.4-0.8-2l-0.8-0.8c-0.5-0.5-1.2-0.8-2-0.8&#xA;&#x9;s-1.4,0.3-2,0.8L6,14.1c-0.3,0.3-0.5,0.7-0.5,1.2v1.9c0,0.2,0.1,0.3,0.3,0.3h1.9c0.4,0,0.9-0.2,1.2-0.5l7.8-7.8&#xA;&#x9;C17,9,17.4,9,17.6,9.2c0.3,0.2,0.3,0.7,0,0.9l-7.8,7.8c-0.5,0.5-1.3,0.9-2.1,0.9H5.9c-0.9,0-1.6-0.7-1.6-1.6v-1.9&#xA;&#x9;c0-0.8,0.3-1.5,0.9-2.1L15.7,2.7c0.8-0.8,1.8-1.2,2.9-1.2c1.1,0,2.1,0.4,2.9,1.2l0.8,0.8c0.8,0.8,1.2,1.8,1.2,2.9s-0.4,2.1-1.2,2.9&#xA;&#x9;L10.5,21c-1,1-2.3,1.5-3.7,1.5H3c-1.4,0-2.5-1.1-2.5-2.5v-3.8c0-1.4,0.5-2.7,1.5-3.7L11.1,3.6z"/></svg>