<svg xmlns="http://www.w3.org/2000/svg" width="24" height="24" viewBox="0 0 24 24" id="Vlt-icon-image"><path fill="#000" fill-rule="evenodd" d="M21.352 1C22.262 1 23 1.738 23 2.648v18.704c0 .91-.738 1.648-1.648 1.648H2.648A1.648 1.648 0 0 1 1 21.352V2.648C1 1.738 1.737 1 2.648 1h18.704zm.32 20.352V9.16c-.012 0-.024-.003-.037-.003-1.74.008-3.497 1.215-6.382 4.026-3.967 3.866-4.624 4.403-6.207 4.403a.664.664 0 0 1 0-1.328c.653 0 1.195-.25 2.397-1.302-3.637-2.876-6.61-3.418-8.845-2.652-.11.038-.19.073-.27.107v8.94c0 .178.143.321.32.321h18.704a.32.32 0 0 0 .32-.32zm0-13.52V2.649a.321.321 0 0 0-.32-.32H2.648a.32.32 0 0 0-.32.32v8.353c1.615-.512 3.506-.462 5.627.359A4.1 4.1 0 0 1 12 7.89c1.836 0 3.374 1.213 3.9 2.876 2.263-2.013 3.904-2.93 5.73-2.938.014 0 .028.004.042.004zM9.226 11.93c1.023.524 2.095 1.227 3.208 2.123.527-.495 1.144-1.09 1.893-1.82.152-.148.289-.274.436-.415A2.773 2.773 0 0 0 12 9.22a2.776 2.776 0 0 0-2.774 2.71zm2.11-4.85V5.6h1.328v1.477h-1.328zm3.64 1.006l.984-.984.939.938-.985.985-.938-.939zM7.1 8.04l.938-.939.985.985-.939.938-.984-.984z"/></svg>