<svg version="1.1" id="Vlt-icon-video-conference" xmlns="http://www.w3.org/2000/svg" xmlns:xlink="http://www.w3.org/1999/xlink" x="0px" y="0px" viewBox="0 0 24 24" style="enable-background:new 0 0 24 24;" xml:space="preserve"><path id="path-1_1_" d="M19.6,11.7c-1.7,0-3.1,1.4-3.1,3.1c0,1,0.4,1.8,1.1,2.4c-0.7,0.4-1.3,1.1-1.6,1.9l-0.3,0.7l-0.2-0.5&#xA;&#x9;c-0.3-0.9-0.9-1.6-1.6-2c0.7-0.6,1.2-1.5,1.2-2.5c0-1.7-1.4-3.1-3.1-3.1s-3.1,1.4-3.1,3.1c0,1,0.4,1.8,1.1,2.4&#xA;&#x9;c-0.8,0.5-1.4,1.2-1.6,2.1l-0.1,0.4L8,19.1c-0.3-0.8-0.9-1.4-1.6-1.9c0.7-0.6,1.1-1.4,1.1-2.4c0-1.7-1.4-3.1-3.1-3.1&#xA;&#x9;s-3.1,1.4-3.1,3.1c0,1,0.5,1.9,1.2,2.5c-0.7,0.4-1.2,1-1.5,1.8l-0.9,2.2C0,21.5,0,21.7,0,22c0,1.1,0.9,2,2,2h6.4h7.2H22&#xA;&#x9;c0.3,0,0.5,0,0.7-0.1c1-0.4,1.5-1.6,1.1-2.6L23,19.1c-0.3-0.8-0.8-1.4-1.5-1.8c0.7-0.6,1.2-1.5,1.2-2.5&#xA;&#x9;C22.7,13.1,21.3,11.7,19.6,11.7 M19.6,13c1,0,1.8,0.8,1.8,1.8c0,0.6-0.3,1.1-0.7,1.4c-0.3,0.3-0.5,0.7-0.5,1.1s0.2,0.8,0.6,1&#xA;&#x9;c0.4,0.3,0.8,0.7,1,1.2l0.9,2.2c0.1,0.4,0,0.8-0.4,0.9c-0.1,0-0.2,0-0.3,0h-6.3H8.4H2c-0.4,0-0.7-0.3-0.7-0.7c0-0.1,0-0.2,0-0.3&#xA;&#x9;l0.9-2.2c0.2-0.5,0.5-0.9,1-1.2c0.4-0.2,0.6-0.6,0.6-1s-0.2-0.8-0.5-1.1c-0.5-0.3-0.7-0.9-0.7-1.4c0-1,0.8-1.8,1.8-1.8&#xA;&#x9;s1.8,0.8,1.8,1.8c0,0.5-0.2,1.1-0.7,1.4C5.2,16.4,5,16.8,5,17.2s0.3,0.8,0.6,1c0.5,0.3,0.8,0.7,1,1.2L7,20.2C7.2,20.7,7.7,21,8.2,21&#xA;&#x9;c0,0,0,0,0.1,0c0.6,0,1-0.4,1.2-0.9l0.1-0.4c0.2-0.6,0.5-1.1,1.1-1.4c0.4-0.2,0.6-0.6,0.6-1s-0.1-0.8-0.5-1.1&#xA;&#x9;c-0.4-0.3-0.7-0.9-0.7-1.4c0-1,0.8-1.8,1.8-1.8s1.8,0.8,1.8,1.8c0,0.6-0.3,1.1-0.7,1.4c-0.3,0.3-0.5,0.7-0.5,1.1s0.3,0.8,0.6,1&#xA;&#x9;c0.5,0.3,0.9,0.8,1.1,1.4l0.2,0.5c0.2,0.5,0.7,0.9,1.2,0.9l0,0c0.5,0,1-0.3,1.2-0.8l0.3-0.7c0.2-0.5,0.6-0.9,1-1.2&#xA;&#x9;c0.4-0.2,0.6-0.6,0.6-1s-0.1-0.8-0.5-1.1c-0.4-0.3-0.7-0.9-0.7-1.4C17.8,13.8,18.6,13,19.6,13z M21.1,0.8C21.5,0.6,22,0.9,22,1.3&#xA;&#x9;v7.5c0,0.5-0.5,0.8-0.9,0.6l-3.9-1.8v0.5c0,1.1-1,2-2.1,2H4.6c-1.2,0-2.1-0.9-2.1-2V2c0-1.1,1-2,2.1-2H15c1.2,0,2.1,0.9,2.1,2v0.5&#xA;&#x9;L21.1,0.8z M20.7,2.3l-3.9,1.8c-0.4,0.2-0.9-0.1-0.9-0.6V2c0-0.4-0.4-0.8-0.8-0.8H4.6C4.2,1.3,3.8,1.6,3.8,2v6.1&#xA;&#x9;c0,0.4,0.4,0.8,0.8,0.8H15c0.5,0,0.8-0.3,0.8-0.8V6.7c0-0.5,0.5-0.8,0.9-0.6l3.9,1.8V2.3H20.7z"/></svg>