<svg xmlns="http://www.w3.org/2000/svg" width="24" height="24" viewBox="0 0 24 24" id="Vlt-icon-app-plus"><path fill="#000" fill-rule="nonzero" d="M22.91 14.752V3.154A2.643 2.643 0 0 0 20.256.5H3.154C1.778.5.5 1.68.5 3.154v17.102a2.643 2.643 0 0 0 2.654 2.654h11.598c.786.393 1.573.59 2.556.59a6.167 6.167 0 0 0 6.192-6.192 9.753 9.753 0 0 0-.59-2.556zM3.154 1.778h17.102c.787 0 1.376.59 1.376 1.376v.393H1.778v-.393c0-.786.688-1.376 1.376-1.376zm0 19.854c-.786 0-1.376-.59-1.376-1.376V4.825h19.854v8.06c-1.08-1.18-2.653-1.868-4.423-1.868a6.167 6.167 0 0 0-6.192 6.192c0 1.671.688 3.244 1.868 4.423H3.154zm14.154.492c-2.654 0-4.915-2.162-4.915-4.915 0-2.752 2.163-4.914 4.915-4.914 2.752 0 4.914 2.162 4.914 4.914 0 2.753-2.26 4.915-4.914 4.915zm.59-7.372H16.62v1.868h-1.868v1.277h1.868v1.868h1.277v-1.868h1.868V16.62h-1.868v-1.868z"/></svg>