<svg version="1.1" id="Vlt-icon-notification" xmlns="http://www.w3.org/2000/svg" xmlns:xlink="http://www.w3.org/1999/xlink" x="0px" y="0px" viewBox="0 0 24 24" style="enable-background:new 0 0 24 24;" xml:space="preserve"><path d="M20.9,16.9c0.5,1.5-0.4,3.1-2,3.5c-1.2,0.3-2.5,0.5-3.9,0.6c-0.3,1.6-2,2.7-3.6,2.4C10.2,23.1,9.3,22.2,9,21&#xA;&#x9;c-1.3-0.1-2.6-0.3-3.9-0.6c-1.6-0.4-2.5-2-2-3.5L3.8,15c0.5-1.3,0.7-2.7,0.7-4.1V9.8c0-3.1,2-5.8,4.9-6.8c0-1.4,1.2-2.6,2.6-2.6&#xA;&#x9;c1.4,0,2.6,1.2,2.6,2.6c2.9,1,4.9,3.7,4.9,6.9v1.1c0,1.4,0.2,2.8,0.7,4.1C20.2,15,20.9,16.9,20.9,16.9z M18.6,19.2&#xA;&#x9;c0.9-0.2,1.4-1,1.1-1.8L19,15.4c-0.5-1.5-0.8-3-0.8-4.5V9.8c0-3.3-2.8-6.1-6.3-6.1c-3.5,0-6.3,2.7-6.3,6.1v1.1&#xA;&#x9;c0,1.5-0.3,3.1-0.8,4.5l-0.6,1.9c-0.3,0.8,0.2,1.7,1.1,1.8c1.9,0.4,4.2,0.7,6.6,0.7C14.4,19.9,16.6,19.6,18.6,19.2z M12,22.1&#xA;&#x9;c0.7,0,1.3-0.4,1.6-1.1c-0.5,0-1.1,0-1.6,0c-0.5,0-1.1,0-1.6,0C10.7,21.7,11.3,22.1,12,22.1z M12,1.7c-0.6,0-1.1,0.4-1.3,1&#xA;&#x9;c0.4-0.1,0.9-0.1,1.3-0.1c0.4,0,0.9,0,1.3,0.1C13.1,2.1,12.6,1.7,12,1.7L12,1.7z M10.7,5.3c0.3-0.1,0.7,0,0.8,0.3s0,0.7-0.3,0.8&#xA;&#x9;c0,0,0,0,0,0c-1.8,0.7-2.6,2.1-2.8,4.9c0,0.4,0,0.7-0.1,1.6c-0.1,2.2-0.2,3.1-0.6,4c-0.1,0.3-0.5,0.4-0.8,0.3&#xA;&#x9;c-0.3-0.1-0.4-0.5-0.3-0.8c0.3-0.6,0.4-1.5,0.5-3.5c0-0.9,0-1.2,0.1-1.6C7.4,8,8.4,6.2,10.7,5.3L10.7,5.3z"/></svg>