<svg version="1.1" id="Vlt-icon-share-1" xmlns="http://www.w3.org/2000/svg" xmlns:xlink="http://www.w3.org/1999/xlink" x="0px" y="0px" viewBox="0 0 24 24" style="enable-background:new 0 0 24 24;" xml:space="preserve"><path id="path-1" d="M12.6,3v12.3c0,0.4-0.3,0.6-0.7,0.6s-0.6-0.3-0.6-0.6V3.1L7,7.3c-0.3,0.3-0.7,0.3-1,0C5.8,7.1,5.8,6.6,6,6.4&#xA;&#x9;L11.5,1c0.3-0.2,0.7-0.2,0.9,0L18,6.5c0.3,0.3,0.3,0.7,0,0.9c-0.3,0.3-0.7,0.3-0.9,0L12.6,3z M18.9,10.1h-3.8&#xA;&#x9;c-0.4,0-0.7-0.3-0.7-0.6s0.3-0.6,0.7-0.6h4.4c0.4,0,0.6,0.3,0.6,0.6v13c0,0.4-0.3,0.6-0.6,0.6h-15c-0.4,0-0.7-0.3-0.7-0.6v-13&#xA;&#x9;c0-0.4,0.3-0.6,0.7-0.6h4.3c0.4,0,0.6,0.3,0.6,0.6s-0.3,0.6-0.6,0.6H5.2v11.7h13.7V10.1z"/></svg>