<svg version="1.1" id="Vlt-icon-telephone-2" xmlns="http://www.w3.org/2000/svg" xmlns:xlink="http://www.w3.org/1999/xlink" x="0px" y="0px" viewBox="0 0 24 24" style="enable-background:new 0 0 24 24;" xml:space="preserve"><path d="M20.6,2.5h-10C10.3,1.7,9.5,1,8.6,1H4.8C3.9,1,3,1.7,2.7,2.6C1.5,2.9,0.5,4,0.5,5.4v13.3c0,1.3,1,2.5,2.2,2.8&#xA;&#x9;C2.9,22.3,3.8,23,4.8,23h3.8c1,0,1.8-0.7,2-1.5h10c1.5,0,2.9-1.2,2.9-2.8V5.4C23.4,3.8,22.2,2.5,20.6,2.5L20.6,2.5z M2.6,20.2&#xA;&#x9;c-0.6-0.3-1-0.9-1-1.5V5.4c0-0.7,0.4-1.2,1-1.5C2.6,3.8,2.6,20.2,2.6,20.2z M9.5,3.7v17.3c0,0.1,0,0.2-0.1,0.3&#xA;&#x9;c0,0.1-0.1,0.2-0.2,0.3c-0.2,0.2-0.4,0.4-0.8,0.4H4.6c-0.3,0-0.6-0.1-0.8-0.4c-0.1-0.1-0.1-0.2-0.2-0.3c0-0.1-0.1-0.2-0.1-0.3V3.1&#xA;&#x9;c0-0.1,0-0.2,0.1-0.3c0-0.1,0.1-0.2,0.2-0.3c0.2-0.2,0.4-0.4,0.8-0.4h3.8c0.3,0,0.6,0.1,0.8,0.4c0.1,0.1,0.1,0.2,0.2,0.3&#xA;&#x9;c0,0.1,0.1,0.2,0.1,0.3L9.5,3.7L9.5,3.7z M22.3,18.6c0,0.9-0.8,1.6-1.6,1.6h-9.9V3.6h9.9c0.9,0,1.6,0.7,1.6,1.6c0,0,0,0,0,0V18.6z&#xA;&#x9; M12.1,14.9h8.7V5.5h-8.7V14.9z M13.3,6.7h6.2v7h-6.2C13.3,13.7,13.3,6.7,13.3,6.7z M14.5,8.3v0.9h3.8V8.3&#xA;&#x9;C18.3,8.3,14.5,8.3,14.5,8.3z M14.5,10.2v0.9h2.9v-0.9C17.3,10.2,14.5,10.2,14.5,10.2z M13.5,18.3c0.5,0,1-0.4,1-0.9c0,0,0,0,0,0&#xA;&#x9;c0-0.5-0.4-1-1-0.9c0,0,0,0,0,0c-0.5,0-1,0.4-1,0.9c0,0,0,0,0,0C12.5,17.8,13,18.3,13.5,18.3L13.5,18.3z M19.3,18.3&#xA;&#x9;c0.5,0,1-0.4,1-0.9c0,0,0,0,0,0c0-0.5-0.4-1-1-0.9c0,0,0,0,0,0c-0.5,0-1,0.4-1,0.9c0,0,0,0,0,0C18.3,17.8,18.7,18.3,19.3,18.3&#xA;&#x9;L19.3,18.3z M16.4,18.3c0.5,0,1-0.4,1-0.9c0,0,0,0,0,0c0-0.5-0.4-1-1-0.9c0,0,0,0,0,0c-0.5,0-1,0.4-1,0.9c0,0,0,0,0,0&#xA;&#x9;C15.4,17.8,15.8,18.3,16.4,18.3L16.4,18.3z"/></svg>