<svg version="1.1" id="Vlt-icon-tag-search" xmlns="http://www.w3.org/2000/svg" xmlns:xlink="http://www.w3.org/1999/xlink" x="0px" y="0px" viewBox="0 0 24 24" style="enable-background:new 0 0 24 24;" xml:space="preserve"><path id="path-1_1_" d="M18.8,12.8c0.4,0.4,0.7,1,0.7,1.6s-0.2,1.2-0.7,1.6l-5.9,5.9c-0.4,0.4-1,0.7-1.6,0.7s-1.2-0.2-1.6-0.7&#xA;&#x9;l-7.6-7.6c-0.4-0.4-0.7-1-0.7-1.6V6.8c0-1.2,1-2.3,2.3-2.3h5.9c0.6,0,1.2,0.2,1.6,0.7L18.8,12.8z M18,13.6L10.4,6&#xA;&#x9;c-0.2-0.2-0.5-0.3-0.8-0.3H3.7c-0.6,0-1.1,0.5-1.1,1.1v5.9c0,0.3,0.1,0.6,0.3,0.8l7.6,7.6c0.2,0.2,0.5,0.3,0.8,0.3s0.6-0.1,0.8-0.3&#xA;&#x9;l5.9-5.9c0.2-0.2,0.3-0.5,0.3-0.8S18.2,13.8,18,13.6z M5,9.9c-1,0-1.8-0.8-1.8-1.8S4,6.3,5,6.3s1.8,0.8,1.8,1.8S6,9.9,5,9.9z M5,8.8&#xA;&#x9;c0.4,0,0.7-0.3,0.7-0.7c0-0.4-0.3-0.7-0.7-0.7c-0.4,0-0.7,0.3-0.7,0.7S4.6,8.8,5,8.8z M21.5,10.6c-0.2,0-0.4-0.1-0.6-0.2l-2.2-2.2&#xA;&#x9;c-0.5,0.3-1.1,0.5-1.8,0.5c-2,0-3.7-1.6-3.7-3.6s1.7-3.7,3.7-3.7S20.6,3,20.6,5c0,0.6-0.2,1.2-0.5,1.8L22.3,9c0.3,0.3,0.3,0.8,0,1.2&#xA;&#x9;L22,10.6C21.9,10.6,21.7,10.6,21.5,10.6z M16.9,2.7c-1.3,0-2.3,1.1-2.3,2.4s1.1,2.4,2.3,2.4s2.3-1.1,2.3-2.4S18.2,2.7,16.9,2.7z"/></svg>