<svg version="1.1" id="Vlt-icon-rows" xmlns="http://www.w3.org/2000/svg" xmlns:xlink="http://www.w3.org/1999/xlink" x="0px" y="0px" viewBox="0 0 24 24" style="enable-background:new 0 0 24 24;" xml:space="preserve"><path d="M21.9,2.2H2.2v3.7h19.7C21.9,5.9,21.9,2.2,21.9,2.2z M22,7.2H2C1.3,7.2,0.9,7,0.9,6.4V1.6C0.9,1,1.3,0.9,2,0.9h20&#xA;&#x9;c0.7,0,1.1,0.1,1.1,0.8v4.8C23.1,7,22.7,7.2,22,7.2z M22,15.1H2c-0.7,0-1.2-0.1-1.2-0.8V9.6C0.9,9,1.3,8.9,2,8.9h20&#xA;&#x9;c0.7,0,1.1,0.1,1.1,0.8v4.8C23.1,15,22.7,15.1,22,15.1z M21.9,10.1H2.2v3.7h19.7C21.9,13.8,21.9,10.1,21.9,10.1z M22,23.1H2&#xA;&#x9;c-0.7,0-1.2-0.1-1.2-0.8v-4.8c0-0.7,0.4-0.8,1.2-0.8h20c0.7,0,1.1,0.1,1.1,0.8v4.8C23.1,23,22.7,23.1,22,23.1z M21.9,18.1H2.2v3.7&#xA;&#x9;h19.7C21.9,21.8,21.9,18.1,21.9,18.1z"/></svg>