<svg version="1.1" id="Vlt-icon-gear" xmlns="http://www.w3.org/2000/svg" xmlns:xlink="http://www.w3.org/1999/xlink" x="0px" y="0px" viewBox="0 0 24 24" style="enable-background:new 0 0 24 24;" xml:space="preserve"><path d="M14,1L14,1L9.8,1C9.2,1,8.7,1.5,8.6,2L8.2,4.4L7,5.1L4.8,4.2C4.3,4,3.6,4.2,3.3,4.7L1.2,8.3C0.9,8.8,1,9.5,1.5,9.9l2,1.4&#xA;&#x9;v1.3l-2,1.5c-0.5,0.4-0.6,1.1-0.3,1.6l2.1,3.5c0.3,0.5,0.9,0.7,1.5,0.5l2.3-0.9l1.2,0.7L8.8,22c0.1,0.6,0.6,1,1.2,1h4.2&#xA;&#x9;c0.6,0,1.1-0.4,1.2-1l0.4-2.4l1.2-0.7l2.2,0.9c0.6,0.2,1.2,0,1.5-0.5l2.1-3.5c0.3-0.5,0.2-1.2-0.3-1.6l-2-1.6l-0.1-1.2l2-1.5&#xA;&#x9;c0.5-0.4,0.6-1.1,0.3-1.6l-2.2-3.5C20.2,4.2,19.6,4,19,4.2l-2.2,0.9l-1.2-0.7L15.2,2C15.1,1.4,14.6,1,14,1 M14,2.2l0.5,3l2.2,1.2&#xA;&#x9;l2.8-1.1l2.2,3.5L19,10.8l0.3,2.4l2.4,1.9l-2.1,3.5l-2.8-1.1l-2.2,1.2l-0.5,3H10l-0.6-3l-2.2-1.2l-2.8,1.1l-2.1-3.5l2.4-1.9v-2.5&#xA;&#x9;L2.2,8.9l2.2-3.6l2.7,1.1l2.3-1.2l0.5-3C9.8,2.2,14,2.2,14,2.2z M12,8c-2.2,0-4,1.8-4,4s1.8,4,4,4s4-1.8,4-4S14.2,8,12,8z M12,9.3&#xA;&#x9;c1.5,0,2.7,1.2,2.7,2.7s-1.2,2.7-2.7,2.7S9.3,13.5,9.3,12S10.5,9.3,12,9.3z"/></svg>