<svg version="1.1" id="Vlt-icon-infinity" xmlns="http://www.w3.org/2000/svg" xmlns:xlink="http://www.w3.org/1999/xlink" x="0px" y="0px" viewBox="0 0 24 24" style="enable-background:new 0 0 24 24;" xml:space="preserve"><path id="path-1" d="M10.6,8.5c0.2,0.3,0.1,0.7-0.2,0.9S9.7,9.5,9.5,9.2C8.7,8.1,7.3,7.3,5.8,7.3c-2.5,0-4.5,2-4.5,4.5&#xA;&#x9;s2,4.5,4.5,4.5c2.3,0,3.4-1.2,5.6-4.8C13.8,7.4,15.2,6,18.2,6c3.2,0,5.8,2.6,5.8,5.8s-2.6,5.8-5.8,5.8c-1.9,0-3.7-0.9-4.7-2.4&#xA;&#x9;c-0.2-0.3-0.1-0.7,0.2-0.9s0.7-0.1,0.9,0.2c0.8,1.2,2.2,1.9,3.7,1.9c2.5,0,4.5-2,4.5-4.5s-2-4.5-4.5-4.5c-2.3,0-3.4,1.2-5.6,4.8&#xA;&#x9;c-2.4,4.1-3.8,5.5-6.7,5.5c-3.4,0-6-2.7-6-5.9S2.6,6,5.8,6C7.7,6,9.5,6.9,10.6,8.5z"/></svg>