<svg version="1.1" id="Vlt-icon-flow" xmlns="http://www.w3.org/2000/svg" xmlns:xlink="http://www.w3.org/1999/xlink" x="0px" y="0px" viewBox="0 0 24 24" style="enable-background:new 0 0 24 24;" xml:space="preserve"><path d="M4.7,16.2h0.8c0.9,0,1.6,0.7,1.6,1.7v2.5c0,0.9-0.7,1.7-1.6,1.7h-3C1.7,22,1,21.3,1,20.3v-2.5c0-0.9,0.7-1.7,1.6-1.7h0.8&#xA;&#x9;v-2.4c0-1.5,1.2-2.7,2.6-2.7h5.3V8.3H10c-0.9,0-1.6-0.7-1.6-1.7v-3C8.4,2.7,9.1,2,10,2H14c0.9,0,1.6,0.7,1.6,1.7v3&#xA;&#x9;c0,0.9-0.7,1.7-1.6,1.7h-1.3v2.8h5.3c1.4,0,2.6,1.2,2.6,2.7v2.4h0.8c0.9,0,1.6,0.7,1.6,1.7v2.5c0,0.9-0.7,1.7-1.6,1.7h-3&#xA;&#x9;c-0.9,0-1.6-0.7-1.6-1.7v-2.5c0-0.9,0.7-1.7,1.6-1.7h0.8v-2.4c0-0.8-0.6-1.4-1.3-1.4h-5.3v3.8h0.8c0.9,0,1.6,0.7,1.6,1.7v2.5&#xA;&#x9;c0,0.9-0.7,1.7-1.6,1.7h-3c-0.9,0-1.6-0.7-1.6-1.7v-2.5c0-0.9,0.7-1.7,1.6-1.7h0.8v-3.8H6.1c-0.7,0-1.3,0.6-1.3,1.4L4.7,16.2&#xA;&#x9;L4.7,16.2z M14,7.1c0.2,0,0.3-0.2,0.3-0.4v-3c0-0.2-0.2-0.4-0.3-0.4H10c-0.2,0-0.3,0.2-0.3,0.4v3c0,0.2,0.2,0.4,0.3,0.4&#xA;&#x9;C10,7.1,14,7.1,14,7.1z M13.5,20.7c0.2,0,0.3-0.2,0.3-0.4v-2.5c0-0.2-0.2-0.4-0.3-0.4h-3c-0.2,0-0.3,0.2-0.3,0.4v2.5&#xA;&#x9;c0,0.2,0.2,0.4,0.3,0.4H13.5z M21.4,20.7c0.2,0,0.3-0.2,0.3-0.4v-2.5c0-0.2-0.2-0.4-0.3-0.4h-3c-0.2,0-0.3,0.2-0.3,0.4v2.5&#xA;&#x9;c0,0.2,0.2,0.4,0.3,0.4H21.4L21.4,20.7z M5.6,20.7c0.2,0,0.3-0.2,0.3-0.4v-2.5c0-0.2-0.2-0.4-0.3-0.4h-3c-0.2,0-0.3,0.2-0.3,0.4v2.5&#xA;&#x9;c0,0.2,0.2,0.4,0.3,0.4H5.6L5.6,20.7z"/></svg>