<svg version="1.1" id="Vlt-icon-list-2" xmlns="http://www.w3.org/2000/svg" xmlns:xlink="http://www.w3.org/1999/xlink" x="0px" y="0px" viewBox="0 0 24 24" style="enable-background:new 0 0 24 24;" xml:space="preserve"><path d="M4.3,21.5c-1.2,0-2.3-1-2.3-2.3s1-2.3,2.3-2.3s2.3,1,2.3,2.3S5.6,21.5,4.3,21.5z M4.3,14.2c-1.2,0-2.3-1-2.3-2.3&#xA;&#x9;s1-2.3,2.3-2.3s2.3,1,2.3,2.3S5.6,14.2,4.3,14.2z M4.3,7C3.1,7,2,6,2,4.7s1-2.3,2.3-2.3s2.3,1,2.3,2.3C6.6,6,5.6,7,4.3,7z M9.9,5.3&#xA;&#x9;V3.9H22v1.4H9.9z M9.9,12.5v-1.3H22v1.3H9.9z M9.9,19.7v-1.2H22v1.2H9.9z"/></svg>