<svg version="1.1" id="Vlt-icon-calendar" xmlns="http://www.w3.org/2000/svg" xmlns:xlink="http://www.w3.org/1999/xlink" x="0px" y="0px" viewBox="0 0 24 24" style="enable-background:new 0 0 24 24;" xml:space="preserve"><path d="M21,13.1c1.3,1.1,2,2.8,2,4.4c0,3.3-2.6,5.9-5.8,5.9c-0.3,0-0.5,0-0.7-0.1v0.1H2.6c-0.9,0-1.6-0.7-1.6-1.6V4.2&#xA;&#x9;c0-0.9,0.7-1.7,1.6-1.7h2.3V2c0-0.9,0.7-1.5,1.6-1.5S8.2,1.2,8.2,2v0.5h5.6V2c0-0.9,0.7-1.5,1.6-1.5c0.9,0,1.6,0.7,1.6,1.5v0.5h2.3&#xA;&#x9;c0.9,0,1.6,0.7,1.6,1.7V13.1z M17.2,22.2c2.5,0,4.5-2.1,4.5-4.7c0-2.6-2-4.7-4.5-4.7c-2.5,0-4.5,2.1-4.5,4.7&#xA;&#x9;C12.6,20.1,14.7,22.2,17.2,22.2z M2.6,22.2h10.9c-1.3-1.1-2.1-2.6-2.2-4.3h-0.7v1.4c0,0.4-0.3,0.6-0.6,0.6s-0.6-0.3-0.6-0.6&#xA;&#x9;c0,0,0,0,0,0v-2.7h2c0.4-2.9,2.8-5,5.7-5c0.9,0,1.8,0.2,2.6,0.6v-8c0-0.2-0.2-0.4-0.3-0.4h-2.3v0.3c0,0.9-0.7,1.5-1.6,1.5&#xA;&#x9;S13.8,5,13.8,4.1V3.8H8.2v0.4c0,0.9-0.7,1.5-1.6,1.5S4.9,5,4.9,4.1V3.8H2.6C2.4,3.8,2.3,4,2.3,4.2v17.7C2.3,22,2.4,22.2,2.6,22.2z&#xA;&#x9; M6.2,2v2.1c0,0.1,0.1,0.2,0.3,0.2c0.2,0,0.3-0.1,0.3-0.2V2c0-0.1-0.1-0.2-0.3-0.2S6.2,1.9,6.2,2L6.2,2z M15.1,2v2.1&#xA;&#x9;c0,0.1,0.1,0.2,0.3,0.2c0.2,0,0.3-0.1,0.3-0.2V2c0-0.1-0.1-0.2-0.3-0.2C15.2,1.8,15.1,1.9,15.1,2z M17.6,17.5l1.9,1.5&#xA;&#x9;c0.3,0.2,0.3,0.6,0.1,0.9c-0.2,0.3-0.6,0.3-0.9,0.1c0,0,0,0-0.1,0l-2.3-1.9v-2.8c0-0.4,0.3-0.6,0.6-0.6s0.6,0.3,0.6,0.6V17.5z&#xA;&#x9; M7.6,16.7c0.4,0,0.6,0.3,0.6,0.6c0,0.4-0.3,0.6-0.6,0.6c0,0,0,0,0,0H6.2v1.4c0,0.4-0.3,0.6-0.6,0.6s-0.6-0.3-0.6-0.6v-2.7&#xA;&#x9;C4.9,16.7,7.6,16.7,7.6,16.7z M7.6,11.6c0.4,0,0.6,0.3,0.6,0.6c0,0.4-0.3,0.6-0.6,0.6H6.2v1.4c0,0.4-0.3,0.6-0.6,0.6&#xA;&#x9;s-0.6-0.3-0.6-0.6v-2.7L7.6,11.6L7.6,11.6z M7.6,7.1c0.4,0,0.6,0.3,0.6,0.6c0,0.4-0.3,0.6-0.6,0.6c0,0,0,0,0,0H6.2v1.4&#xA;&#x9;c0,0.4-0.3,0.6-0.6,0.6s-0.6-0.3-0.6-0.6V7.1L7.6,7.1L7.6,7.1z M14.5,10.4c-0.4,0-0.6-0.3-0.6-0.6V7.1h2.6c0.4,0,0.6,0.3,0.6,0.6&#xA;&#x9;c0,0.4-0.3,0.6-0.6,0.6c0,0,0,0,0,0h-1.3v1.4C15.1,10.1,14.8,10.4,14.5,10.4C14.5,10.4,14.5,10.4,14.5,10.4z M10,10.4&#xA;&#x9;c-0.4,0-0.6-0.3-0.6-0.6V7.1H12c0.4,0,0.6,0.3,0.6,0.6c0,0.4-0.3,0.6-0.6,0.6c0,0,0,0,0,0h-1.3v1.4C10.7,10.1,10.4,10.4,10,10.4&#xA;&#x9;L10,10.4z M10,14.9c-0.4,0-0.6-0.3-0.6-0.6v-2.7H12c0.4,0,0.7,0.3,0.7,0.6c0,0.4-0.3,0.7-0.6,0.7c0,0,0,0-0.1,0h-1.3v1.4&#xA;&#x9;C10.7,14.6,10.4,14.9,10,14.9L10,14.9z"/></svg>