<svg version="1.1" id="Vlt-icon-link" xmlns="http://www.w3.org/2000/svg" xmlns:xlink="http://www.w3.org/1999/xlink" x="0px" y="0px" viewBox="0 0 24 24" style="enable-background:new 0 0 24 24;" xml:space="preserve"><path id="path-1_1_" d="M11.5,6.8c-0.2,0.2-0.6,0.2-0.9,0c-0.3-0.3-0.3-0.7,0-0.9l3.2-3.2c2.1-2.1,5.5-2.1,7.6,0s2.1,5.5,0,7.6&#xA;&#x9;L17,14.6c-2.1,2.1-5.5,2.1-7.6,0c-0.5-0.5-0.9-1.2-1.2-1.9c-0.1-0.3,0-0.7,0.4-0.8s0.7,0,0.8,0.4c0.2,0.5,0.5,1,0.9,1.4&#xA;&#x9;c1.6,1.6,4.2,1.6,5.7,0l4.4-4.4c1.6-1.6,1.6-4.2,0-5.7c-1.6-1.6-4.2-1.6-5.7,0L11.5,6.8z M12.3,17.4c0.3-0.3,0.7-0.3,0.9,0&#xA;&#x9;s0.3,0.7,0,0.9l-3.1,3.1c-2.1,2.1-5.5,2.1-7.6,0s-2.1-5.5,0-7.6L7,9.4c2.1-2.1,5.5-2.1,7.6,0c0.5,0.5,1,1.2,1.2,1.9&#xA;&#x9;c0.1,0.3,0,0.7-0.4,0.8s-0.7,0-0.8-0.4c-0.2-0.5-0.5-1-0.9-1.4c-1.6-1.6-4.2-1.6-5.7,0l-4.4,4.4c-1.6,1.6-1.6,4.2,0,5.7&#xA;&#x9;c1.6,1.6,4.2,1.6,5.7,0L12.3,17.4z"/></svg>