<svg version="1.1" id="Vlt-icon-surprised" xmlns="http://www.w3.org/2000/svg" xmlns:xlink="http://www.w3.org/1999/xlink" x="0px" y="0px" viewBox="0 0 24 24" style="enable-background:new 0 0 24 24;" xml:space="preserve"><path d="M12,21.7c5.4,0,9.7-4.3,9.7-9.7S17.4,2.3,12,2.3S2.3,6.6,2.3,12S6.6,21.7,12,21.7z M12,23C5.9,23,1,18.1,1,12S5.9,1,12,1&#xA;&#x9;s11,4.9,11,11S18.1,23,12,23z M12,18.2c-1.5,0-2.7-1.2-2.7-2.7s1.2-2.7,2.7-2.7c0,0,0,0,0,0c1.5,0,2.7,1.2,2.7,2.7&#xA;&#x9;C14.7,17,13.5,18.2,12,18.2z M12,19.5c2.2,0,4-1.8,4-4s-1.8-4-4-4s-4,1.8-4,4S9.8,19.5,12,19.5z M7.5,9.7c-0.7,0-1.2-0.5-1.2-1.2&#xA;&#x9;s0.5-1.2,1.2-1.2s1.2,0.5,1.2,1.2S8.2,9.7,7.5,9.7z M7.5,11C8.9,11,10,9.9,10,8.5S8.9,6,7.5,6S5,7.1,5,8.5S6.1,11,7.5,11z M16.5,9.7&#xA;&#x9;c-0.7,0-1.2-0.5-1.2-1.2s0.5-1.2,1.2-1.2c0.7,0,1.2,0.5,1.2,1.2S17.2,9.7,16.5,9.7L16.5,9.7z M16.5,11c1.4,0,2.5-1.1,2.5-2.5&#xA;&#x9;S17.9,6,16.5,6S14,7.1,14,8.5S15.1,11,16.5,11z"/></svg>