<svg version="1.1" id="Vlt-icon-video-off" xmlns="http://www.w3.org/2000/svg" xmlns:xlink="http://www.w3.org/1999/xlink" x="0px" y="0px" viewBox="0 0 24 24" style="enable-background:new 0 0 24 24;" xml:space="preserve"><path id="path-1_1_" d="M16,11.4l1.2-1.5v5.8c0,1.9-1.5,3.4-3.4,3.4H9.7l1-1.3h3.2c1.2,0,2.1-0.9,2.1-2.1V11.4z M2.5,18.9&#xA;&#x9;C1.1,18.5,0,17.2,0,15.6V7c0-1.9,1.5-3.4,3.4-3.4H14c0.4,0,0.8,0.1,1.2,0.2l-0.9,1.1c-0.1,0-0.2,0-0.3,0H3.4C2.2,4.9,1.3,5.8,1.3,7&#xA;&#x9;v8.7c0,1.2,0.9,2.1,2.1,2.1h0.1L2.5,18.9z M19.3,10.3c-0.2,0.3-0.7,0.3-0.9,0c-0.3-0.3-0.3-0.7,0-0.9L21.6,6c0.2-0.3,0.6-0.4,1-0.4&#xA;&#x9;h0.1c0.7,0,1.3,0.6,1.3,1.3v8.9c0,0.7-0.6,1.3-1.3,1.3h-0.1c-0.4,0-0.7-0.2-0.9-0.4l-3.3-3.4c-0.2-0.3-0.2-0.7,0-0.9&#xA;&#x9;c0.3-0.3,0.7-0.3,0.9,0l3.3,3.5c0,0,0,0,0.1,0c0,0,0-3,0-8.9c0,0,0,0-0.1,0L19.3,10.3z M20.4,0.9c0.2-0.3,0.6-0.3,0.9-0.1&#xA;&#x9;s0.3,0.6,0.1,0.9L3.5,22.5c-0.2,0.3-0.6,0.3-0.9,0.1S2.3,22,2.5,21.7L20.4,0.9z"/></svg>