<svg xmlns="http://www.w3.org/2000/svg" width="24" height="24" viewBox="0 0 24 24" id="Vlt-icon-ambulance"><path fill="#000" fill-rule="nonzero" d="M7.283 7.878V4.604h1.293v3.274h3.34v1.281h-3.34v3.355H7.283V9.159H3.945V7.878h3.338zm-5.5 7.235v4.213c0 .208.159.37.346.37h.493v1.282H2.13A1.64 1.64 0 0 1 .5 19.326V3.652A1.64 1.64 0 0 1 2.129 2h11.845a1.64 1.64 0 0 1 1.629 1.652v4.136l5.744 2.574c1.31.587 2.153 1.908 2.153 3.364v6.105a1.14 1.14 0 0 1-1.135 1.147h-.987v-1.282h.839v-5.97c0-.955-.55-1.816-1.396-2.195l-5.218-2.339v8.111H14.32v-2.19H1.783zm0-1.282H14.32V3.652c0-.208-.159-.37-.346-.37H2.13c-.187 0-.346.162-.346.37v10.179zm12.685 5.915v1.282H9.532v-1.282h4.936zM17.923 23c-1.449 0-2.616-1.196-2.616-2.663 0-1.468 1.167-2.663 2.616-2.663 1.448 0 2.616 1.195 2.616 2.663 0 1.467-1.168 2.663-2.616 2.663zm0-1.282c.732 0 1.332-.615 1.332-1.381 0-.767-.6-1.382-1.332-1.382-.733 0-1.333.615-1.333 1.382 0 .766.6 1.381 1.333 1.381zM6.077 23c-1.448 0-2.616-1.196-2.616-2.663 0-1.468 1.168-2.663 2.616-2.663 1.449 0 2.616 1.195 2.616 2.663C8.693 21.804 7.526 23 6.077 23zm0-1.282c.733 0 1.333-.615 1.333-1.381 0-.767-.6-1.382-1.333-1.382-.732 0-1.332.615-1.332 1.382 0 .766.6 1.381 1.332 1.381z"/></svg>