<svg version="1.1" id="Vlt-icon-user-lock" xmlns="http://www.w3.org/2000/svg" xmlns:xlink="http://www.w3.org/1999/xlink" x="0px" y="0px" viewBox="0 0 24 24" style="enable-background:new 0 0 24 24;" xml:space="preserve"><path id="path-1_1_" d="M22.3,17.6h0.3v3.7c0,1-0.8,1.7-1.7,1.7h-4c-1,0-1.7-0.8-1.7-1.7v-3.7h0.3c0-1.9,1.5-3.4,3.4-3.4&#xA;&#x9;S22.3,15.7,22.3,17.6z M18.9,15.6c-1.2,0-2.1,0.9-2.1,2.1H21C21,16.5,20.1,15.6,18.9,15.6z M21.2,21.3h0.1V19h-4.7v2.3&#xA;&#x9;c0,0.1,0.1,0.3,0.3,0.3h4C21,21.6,21.2,21.5,21.2,21.3z M14.1,15.5c-0.3,0.2-0.7,0.2-0.9,0c-0.2-0.3-0.2-0.7,0-0.9&#xA;&#x9;c0.9-0.8,1.4-2,1.5-3.1c0-0.3,0.3-0.6,0.6-0.6c0.1,0,0.2-0.1,0.3-0.2L15.8,9c0-0.1-0.1-0.2-0.2-0.2C15.3,8.7,15,8.4,15,8l0.1-2.2&#xA;&#x9;c0-0.2,0.1-0.3,0.2-0.4L15.7,5C16,4.6,16,4.3,15.6,3.6s-1.2-1-2.4-1c-1.1,0-1.9,0.2-2.7,0.7c-0.1,0.2-0.2,0.2-0.3,0.2&#xA;&#x9;C7.6,3.5,7,4.2,7,5.9C7,6,7,6.4,7,6.8c0,0.1,0,0.1,0,0.3C7,7.4,7.1,7.8,7.1,8c0,0.4-0.3,0.7-0.6,0.7H6.4c-0.1,0-0.2,0.1-0.2,0.2&#xA;&#x9;l0.2,1.7c0,0.1,0.1,0.2,0.2,0.2h0.1c0.3,0,0.6,0.3,0.6,0.6c0.1,1.1,0.6,2.3,1.5,3.1C9,14.7,9,14.9,9,15.1l-0.4,1.7&#xA;&#x9;c-0.1,0.2-0.2,0.4-0.5,0.5l-3.5,0.9c-1.3,0.3-1.9,1.3-2,3h10.5c0.4,0,0.6,0.3,0.6,0.6s-0.3,0.6-0.6,0.6H2c-0.4,0-0.6-0.3-0.6-0.6&#xA;&#x9;c0-2.6,0.9-4.4,3-4.9l3.2-0.8l0.2-1c-0.8-0.8-1.3-2-1.5-3.1c-0.6-0.2-1-0.7-1.1-1.3L4.9,9.1C4.8,8.4,5.2,7.8,5.8,7.5&#xA;&#x9;c0-0.1,0-0.2,0-0.3c0-0.1,0-0.2,0-0.3c0-0.5-0.1-0.8-0.1-1.1c0-2.3,1.1-3.6,4.3-3.7c1-0.7,2-0.9,3.3-0.9c1.6,0,2.8,0.5,3.4,1.6&#xA;&#x9;c0.7,1.1,0.7,2.1-0.1,3l-0.3,0.3l-0.1,1.4C16.7,7.8,17.1,8.4,17,9l-0.2,1.7c-0.1,0.6-0.4,1-1,1.2C15.8,13.3,15.1,14.6,14.1,15.5z"/></svg>