<svg xmlns="http://www.w3.org/2000/svg" width="24" height="24" viewBox="0 0 24 24" id="Vlt-icon-mobile"><path fill="#000" fill-rule="evenodd" d="M17.23.5c1.39 0 2.52 1.125 2.52 2.508v17.983c0 1.383-1.13 2.509-2.52 2.509H6.77a2.518 2.518 0 0 1-2.52-2.51V3.009A2.517 2.517 0 0 1 6.77.5h10.46zM5.486 17.536h13.028V5.044H5.486v12.492zM17.23 22.27c.708 0 1.284-.573 1.284-1.278v-2.223H5.486v2.223c0 .705.576 1.278 1.284 1.278h10.46zM6.77 1.73c-.708 0-1.284.573-1.284 1.277v.805h13.028v-.805c0-.704-.576-1.277-1.284-1.277H6.77zM12 19.43c.603 0 1.094.488 1.094 1.088 0 .6-.491 1.089-1.094 1.089a1.092 1.092 0 0 1-1.093-1.089c0-.6.49-1.088 1.093-1.088z"/></svg>