<svg xmlns="http://www.w3.org/2000/svg" width="24" height="24" viewBox="0 0 24 24" id="Vlt-icon-eye"><path fill="#000" fill-rule="nonzero" d="M11.8 19.1c4.6 0 8.7-2.8 10.4-6.9-1.7-4.2-5.8-6.9-10.4-6.9-4.6 0-8.7 2.7-10.4 6.9 1.7 4.1 5.8 6.9 10.4 6.9zm0 1.3c-5.1 0-9.7-3.1-11.6-7.7l-.2-.5.2-.5C2.1 7 6.7 4 11.8 4s9.7 3.1 11.6 7.7l.2.5-.2.5c-1.9 4.6-6.5 7.7-11.6 7.7zm2.7-7.7c-.2 0-.4-.2-.4-.4 0-1.2-1-2.2-2.2-2.2-.2 0-.4-.2-.4-.4s.2-.4.4-.4c1.7 0 3.1 1.4 3.1 3.1-.1.1-.3.3-.5.3zm-2.6-5c-2.5 0-4.5 2-4.5 4.5s2 4.5 4.5 4.5 4.5-2 4.5-4.5-2-4.5-4.5-4.5z"/></svg>