<svg version="1.1" id="Vlt-icon-group-4" xmlns="http://www.w3.org/2000/svg" xmlns:xlink="http://www.w3.org/1999/xlink" x="0px" y="0px" viewBox="0 0 24 24" style="enable-background:new 0 0 24 24;" xml:space="preserve"><path id="path-1_1_" d="M23.1,17.4H24V21c0,0.9-0.7,1.6-1.6,1.6H1.6C0.7,22.6,0,21.9,0,21v-3.6h0.9V3.7c0-1.2,1-2.2,2.2-2.2H21&#xA;&#x9;c1.2,0,2.2,1,2.2,2.2v13.7H23.1z M22.6,21v-2.3H1.4V21c0,0.1,0.1,0.2,0.2,0.2h20.9C22.5,21.3,22.6,21.2,22.6,21z M2.2,3.7v13.8h19.5&#xA;&#x9;V3.7c0-0.5-0.4-0.8-0.8-0.8H3.1C2.6,2.9,2.2,3.2,2.2,3.7z M8.8,13.4c0-1.8,1.5-3.3,3.3-3.3s3.3,1.5,3.3,3.3v1.1&#xA;&#x9;c0,0.4-0.3,0.7-0.7,0.7S14,14.9,14,14.5v-1.1c0-1.1-0.9-1.9-1.9-1.9s-1.9,0.9-1.9,1.9v1.1c0,0.4-0.3,0.7-0.7,0.7s-0.7-0.3-0.7-0.7&#xA;&#x9;C8.8,14.5,8.8,13.4,8.8,13.4z M17.6,11.2c1.5,0,2.8,1.2,2.8,2.8v0.2c0,0.4-0.3,0.7-0.7,0.7S19,14.6,19,14.2V14&#xA;&#x9;c0-0.8-0.6-1.4-1.4-1.4h-0.9c-0.4,0-0.7-0.3-0.7-0.7s0.3-0.7,0.7-0.7C16.7,11.2,17.6,11.2,17.6,11.2z M7.2,11.2&#xA;&#x9;c0.4,0,0.7,0.3,0.7,0.7s-0.3,0.7-0.7,0.7H6.3c-0.8,0-1.4,0.6-1.4,1.4v0.2c0,0.4-0.3,0.7-0.7,0.7c-0.4,0-0.7-0.3-0.7-0.7V14&#xA;&#x9;c0-1.5,1.2-2.8,2.8-2.8H7.2z M19.5,8.2c0,1.2-1,2.2-2.2,2.2s-2.2-1-2.2-2.2S16,6,17.3,6C18.5,6,19.5,7,19.5,8.2z M6.8,6&#xA;&#x9;C8,6,9,7,9,8.2s-1,2.2-2.2,2.2s-2.2-1-2.2-2.2C4.6,7,5.6,6,6.8,6z M12.1,9.4c-1.2,0-2.2-1-2.2-2.2s1-2.2,2.2-2.2s2.2,1,2.2,2.2&#xA;&#x9;S13.3,9.4,12.1,9.4z M6.8,9.1c0.5,0,0.9-0.4,0.9-0.9S7.3,7.3,6.8,7.3S5.9,7.7,5.9,8.2S6.3,9.1,6.8,9.1z M12.1,6.3&#xA;&#x9;c-0.5,0-0.9,0.4-0.9,0.9s0.4,0.9,0.9,0.9S13,7.7,13,7.2S12.5,6.3,12.1,6.3z M16.4,8.2c0,0.5,0.4,0.9,0.9,0.9s0.9-0.4,0.9-0.9&#xA;&#x9;s-0.4-0.9-0.9-0.9S16.4,7.7,16.4,8.2z"/></svg>