<svg version="1.1" id="Vlt-icon-add-group" xmlns="http://www.w3.org/2000/svg" xmlns:xlink="http://www.w3.org/1999/xlink" x="0px" y="0px" viewBox="0 0 24 24" style="enable-background:new 0 0 24 24;" xml:space="preserve"><path id="path-1_1_" d="M17.7,17.7v-1.3c0-0.4,0.3-0.6,0.6-0.6S19,16,19,16.4v1.3h1.3c0.4,0,0.6,0.3,0.6,0.6S20.7,19,20.3,19H19&#xA;&#x9;&#x9;&#x9;&#x9;&#x9;v1.3c0,0.4-0.3,0.6-0.6,0.6s-0.6-0.3-0.6-0.6V19h-1.3c-0.4,0-0.6-0.3-0.6-0.6s0.3-0.6,0.6-0.6H17.7z M12.8,18.4&#xA;&#x9;&#x9;&#x9;&#x9;&#x9;c0-3.1,2.5-5.5,5.5-5.5s5.5,2.5,5.5,5.5s-2.5,5.5-5.5,5.5S12.8,21.4,12.8,18.4z M14.1,18.4c0,2.3,1.9,4.2,4.2,4.2&#xA;&#x9;&#x9;&#x9;&#x9;&#x9;s4.2-1.9,4.2-4.2s-1.9-4.2-4.2-4.2S14.1,16,14.1,18.4z M13.7,12.9c0.3,0.1,0.6,0.4,0.5,0.8c-0.1,0.3-0.4,0.6-0.8,0.5l-1.9-0.5&#xA;&#x9;&#x9;&#x9;&#x9;&#x9;c-0.2-0.1-0.4-0.2-0.5-0.5l-0.3-1.4c-0.1-0.2,0-0.5,0.2-0.6c0.7-0.6,1.2-1.6,1.3-2.6c0-0.3,0.3-0.6,0.6-0.6c0.1,0,0.1,0,0.1-0.1&#xA;&#x9;&#x9;&#x9;&#x9;&#x9;L13,6.5c0,0,0-0.1-0.1-0.1c-0.4,0-0.7-0.3-0.6-0.7L12.4,4c0-0.2,0.1-0.3,0.2-0.4l0.3-0.3c0.2-0.3,0.2-0.5-0.1-1&#xA;&#x9;&#x9;&#x9;&#x9;&#x9;c-0.3-0.5-1-0.8-1.9-0.8C10,1.4,9.4,1.5,8.7,2C8.6,2.1,8.5,2.1,8.3,2.1C6.2,2.1,5.7,2.6,5.7,4c0,0.1,0,0.4,0.1,0.8&#xA;&#x9;&#x9;&#x9;&#x9;&#x9;c0,0.1,0,0.1,0,0.2c0,0.3,0.1,0.6,0.1,0.7c0,0.4-0.3,0.7-0.6,0.7H5.2c0,0-0.1,0-0.1,0.1L5.3,8c0,0,0,0.1,0.1,0.1h0.1&#xA;&#x9;&#x9;&#x9;&#x9;&#x9;c0.3,0,0.6,0.3,0.6,0.6c0.1,0.9,0.5,1.9,1.2,2.5c0.2,0.2,0.2,0.4,0.2,0.6l-0.4,1.4c-0.1,0.2-0.2,0.4-0.5,0.5l-3,0.7&#xA;&#x9;&#x9;&#x9;&#x9;&#x9;c-1.4,0.3-2.3,1.6-2.3,3c0,0.4-0.3,0.6-0.6,0.6s-0.6-0.3-0.6-0.6c0-2,1.4-3.7,3.3-4.2L6,12.5l0.2-0.7c-0.6-0.7-1.1-1.6-1.3-2.5&#xA;&#x9;&#x9;&#x9;&#x9;&#x9;C4.4,9.1,4.1,8.7,4,8.1L3.8,6.7C3.7,6.1,4.1,5.6,4.5,5.3c0-0.1,0-0.1,0-0.2c0-0.1,0-0.1,0-0.2c0-0.4-0.1-0.7-0.1-0.9&#xA;&#x9;&#x9;&#x9;&#x9;&#x9;c0-2,1-3.1,3.7-3.2C9,0.3,9.9,0.1,11,0.1c1.3,0,2.4,0.5,3,1.4c0.6,0.9,0.6,1.9-0.1,2.6l-0.2,0.2l-0.1,1.1&#xA;&#x9;&#x9;&#x9;&#x9;&#x9;c0.5,0.3,0.8,0.8,0.7,1.4l-0.2,1.4c-0.1,0.5-0.4,0.9-0.8,1.1c-0.2,1-0.7,1.9-1.3,2.7l0.2,0.6L13.7,12.9z M17.9,12.1&#xA;&#x9;&#x9;&#x9;&#x9;&#x9;c-0.3,0.2-0.7,0.2-0.9,0c-0.2-0.3-0.2-0.7,0-0.9c0.7-0.6,1.1-1.6,1.2-2.5c0-0.3,0.3-0.6,0.6-0.6h0c0,0,0,0,0,0c0,0,0,0,0-0.1&#xA;&#x9;&#x9;&#x9;&#x9;&#x9;l0.2-1.4c0,0,0-0.1-0.1-0.1c-0.4,0-0.7-0.3-0.6-0.7L18.5,4c0-0.2,0.1-0.3,0.2-0.4l0.3-0.3c0.2-0.3,0.2-0.5-0.1-1&#xA;&#x9;&#x9;&#x9;&#x9;&#x9;c-0.3-0.5-1-0.8-1.9-0.8c-0.6,0-1,0-1.5,0.2c-0.3,0.1-0.7-0.1-0.8-0.4s0.1-0.7,0.4-0.8c0.6-0.2,1.2-0.3,1.9-0.3&#xA;&#x9;&#x9;&#x9;&#x9;&#x9;c1.3,0,2.4,0.5,3,1.4c0.6,0.9,0.6,1.9-0.1,2.6l-0.2,0.2l-0.1,1.1c0.5,0.3,0.8,0.8,0.7,1.4l-0.2,1.4c-0.1,0.5-0.4,0.9-0.8,1.1&#xA;&#x9;&#x9;&#x9;&#x9;&#x9;c0,0,0,0,0,0C19.2,10.3,18.7,11.3,17.9,12.1z"/></svg>