<svg version="1.1" id="Vlt-icon-volume" xmlns="http://www.w3.org/2000/svg" xmlns:xlink="http://www.w3.org/1999/xlink" x="0px" y="0px" viewBox="0 0 24 24" style="enable-background:new 0 0 24 24;" xml:space="preserve"><path d="M13.6,5.2v14.1c0,0.9-1.1,1.5-1.8,0.9l-5.5-3.7c-0.6-0.4-1.3-0.6-2-0.6H2.7c-0.9,0-1.7-0.7-1.7-1.6v-4&#xA;&#x9;c0-0.9,0.8-1.6,1.7-1.6h1.6c0.7,0,1.4-0.2,2-0.6l5.5-3.7C12.6,3.7,13.6,4.2,13.6,5.2L13.6,5.2z M12.3,5.4L7,9&#xA;&#x9;C6.2,9.6,5.2,9.8,4.3,9.8H2.7c-0.2,0-0.4,0.2-0.4,0.4v4c0,0.2,0.2,0.4,0.4,0.4h1.6c1,0,1.9,0.3,2.7,0.8l5.3,3.6V5.4L12.3,5.4z&#xA;&#x9; M15.4,8.1c-0.3-0.2-0.3-0.7,0-0.9c0.2-0.3,0.7-0.3,0.9,0c0,0,0,0,0,0c2.8,2.7,2.9,7.1,0.2,9.9c-0.1,0.1-0.1,0.1-0.2,0.2&#xA;&#x9;c-0.3,0.3-0.7,0.3-0.9,0s-0.3-0.7,0-0.9c0,0,0,0,0,0c2.3-2.2,2.4-5.8,0.2-8.1C15.5,8.2,15.5,8.1,15.4,8.1L15.4,8.1z M18.1,6.5&#xA;&#x9;c-0.3-0.3-0.3-0.7,0-0.9c0.3-0.3,0.7-0.3,0.9,0c3.7,3.5,3.8,9.4,0.3,13.1c-0.1,0.1-0.2,0.2-0.3,0.3c-0.3,0.2-0.7,0.2-0.9,0&#xA;&#x9;c-0.2-0.3-0.2-0.7,0-0.9c3.2-3,3.3-8.1,0.2-11.2C18.3,6.6,18.2,6.5,18.1,6.5L18.1,6.5z"/></svg>