<svg version="1.1" id="Vlt-icon-group-7" xmlns="http://www.w3.org/2000/svg" xmlns:xlink="http://www.w3.org/1999/xlink" x="0px" y="0px" viewBox="0 0 24 24" style="enable-background:new 0 0 24 24;" xml:space="preserve"><path id="path-1_1_" d="M4.9,7.1C3.2,7.1,1.8,5.7,1.8,4s1.4-3.1,3.1-3.1S8,2.3,8,4S6.6,7.1,4.9,7.1z M4.9,2.1C3.8,2.1,3,3,3,4&#xA;&#x9;s0.9,1.9,1.9,1.9S6.8,5,6.8,4S6,2.1,4.9,2.1z M18.9,7.1c-1.7,0-3.1-1.4-3.1-3.1s1.4-3.1,3.1-3.1S22,2.3,22,4S20.6,7.1,18.9,7.1z&#xA;&#x9; M18.9,2.1C17.8,2.1,17,3,17,4s0.9,1.9,1.9,1.9S20.8,5,20.8,4S20,2.1,18.9,2.1z M11.9,11.1c-1.7,0-3.1-1.4-3.1-3.1s1.4-3.1,3.1-3.1&#xA;&#x9;S15,6.3,15,8S13.6,11.1,11.9,11.1z M11.9,6.1C10.8,6.1,10,7,10,8s0.9,1.9,1.9,1.9C13,9.9,13.8,9,13.8,8S13,6.1,11.9,6.1z M13.9,23.1&#xA;&#x9;h-4c-0.6,0-1.1-0.5-1.1-1v-6.3c0-1.6,1.4-2.8,3.1-2.8s3.1,1.3,3.1,2.8v6.3C15,22.6,14.5,23.1,13.9,23.1z M10,21.9h3.8v-6.2&#xA;&#x9;c0-0.9-0.9-1.7-1.9-1.7c-1.1,0-1.9,0.7-1.9,1.7C10,15.7,10,21.9,10,21.9z M20.9,23.1h-4c-0.6,0-1.1-0.5-1.1-1V11.8&#xA;&#x9;c0-1.6,1.4-2.9,3.1-2.9s3.1,1.3,3.1,2.9V22C22,22.6,21.5,23.1,20.9,23.1z M17,21.9h3.8V11.8c0-1-0.9-1.7-1.9-1.7S17,10.9,17,11.8&#xA;&#x9;V21.9z M6.9,23.1h-4c-0.6,0-1.1-0.5-1.1-1V11.8c0-1.6,1.4-2.9,3.1-2.9S8,10.2,8,11.8V22C8,22.6,7.5,23.1,6.9,23.1z M3,21.9h3.8V11.8&#xA;&#x9;c0-1-0.9-1.7-1.9-1.7S3,10.9,3,11.8V21.9z"/></svg>