<svg version="1.1" id="Vlt-icon-fax-pending" xmlns="http://www.w3.org/2000/svg" xmlns:xlink="http://www.w3.org/1999/xlink" x="0px" y="0px" viewBox="0 0 24 24" style="enable-background:new 0 0 24 24;" xml:space="preserve"><path id="path-1" d="M12.4,13.3h0.1c0.4,0,0.6,0.3,0.6,0.6s-0.3,0.7-0.6,0.7H6.2c-0.4,0-0.7-0.3-0.7-0.7c0-0.3,0.3-0.6,0.6-0.6v-0.6&#xA;&#x9;c0-1.2,0.6-2.2,1.6-2.7C6.8,9.5,6.2,8.4,6.2,7.3V6.6C5.9,6.6,5.6,6.3,5.6,6c0-0.4,0.3-0.7,0.7-0.7h6.3c0.4,0,0.6,0.3,0.6,0.7&#xA;&#x9;c0,0.4-0.3,0.6-0.6,0.6h-0.1v0.7c0,1.2-0.6,2.2-1.6,2.7c0.9,0.5,1.6,1.6,1.6,2.7V13.3z M11.1,13.3v-0.6c0-1-0.8-1.8-1.8-1.8&#xA;&#x9;s-1.8,0.8-1.8,1.8v0.6H11.1z M11.1,6.6H7.5v0.7c0,1,0.8,1.8,1.8,1.8s1.8-0.8,1.8-1.8V6.6z M23.5,2.2v1.3h-2.3v11.3&#xA;&#x9;c0,0.4-0.2,0.8-0.4,1.1l-4.9,5.5C15.5,21.8,15,22,14.6,22H4.5c-0.9,0-1.6-0.8-1.6-1.7V3.5H0.5V2.2H23.5z M19.8,14.6V3.5H4.2v16.8&#xA;&#x9;c0,0.2,0.2,0.4,0.3,0.4h9.9v-4.5c0-0.9,0.7-1.7,1.7-1.7H19.8z M15.7,19.6l3.4-3.8h-3c-0.2,0-0.3,0.2-0.3,0.4V19.6z"/></svg>