<svg version="1.1" id="Vlt-icon-fax-add" xmlns="http://www.w3.org/2000/svg" xmlns:xlink="http://www.w3.org/1999/xlink" x="0px" y="0px" viewBox="0 0 24 24" style="enable-background:new 0 0 24 24;" xml:space="preserve"><path id="path-1" d="M9.8,9.5V5.7h1.3v3.8H15v1.3h-3.9v3.9H9.8v-3.9H6V9.5H9.8z M23.5,2.2v1.3h-2.3v11.3c0,0.4-0.2,0.8-0.4,1.1&#xA;&#x9;l-4.9,5.5C15.5,21.8,15,22,14.6,22H4.5c-0.9,0-1.6-0.8-1.6-1.7V3.5H0.5V2.2H23.5z M19.8,14.6V3.5H4.2v16.8c0,0.2,0.2,0.4,0.3,0.4&#xA;&#x9;h9.9v-4.5c0-0.9,0.7-1.7,1.7-1.7h3.7V14.6z M15.7,19.6l3.4-3.8h-3c-0.2,0-0.3,0.2-0.3,0.4v3.4H15.7z"/></svg>