<svg version="1.1" id="Vlt-icon-file-audio" xmlns="http://www.w3.org/2000/svg" xmlns:xlink="http://www.w3.org/1999/xlink" x="0px" y="0px" viewBox="0 0 24 24" style="enable-background:new 0 0 24 24;" xml:space="preserve"><g><path d="M14.7,9.1c-0.7,0.2-3.7,1.1-4.4,1.3s-1,0.7-1,1.3v4.7c-0.4-0.2-1-0.2-1.6,0c-1,0.3-1.7,1.2-1.4,2c0.2,0.8,1.3,1.1,2.3,0.8&#xA;&#x9;&#x9;c0.9-0.3,1.5-1,1.5-1.7l0,0v-4c0-0.3,0.1-0.5,0.6-0.7c0.4-0.1,3.4-1.1,3.8-1.2c0.4-0.1,0.5,0.1,0.5,0.3v3.2c-0.4-0.2-1-0.2-1.6,0&#xA;&#x9;&#x9;c-1,0.3-1.7,1.2-1.4,2c0.2,0.8,1.3,1.1,2.3,0.8c0.9-0.3,1.5-1,1.5-1.7c0-0.7,0-5.9,0-6.4C15.8,9.2,15.4,8.9,14.7,9.1z"/><path d="M16,0H4.4C3.1,0,2,1.1,2,2.4v19.1C2,22.9,3.1,24,4.4,24h15.1c1.3,0,2.4-1.1,2.4-2.4V6.2L16,0z M16,1.8l4.2,4.4H16V1.8z&#xA;&#x9;&#x9; M20.7,21.6c0,0.6-0.5,1.1-1.1,1.1H4.4c-0.6,0-1.1-0.5-1.1-1.1V2.4c0-0.6,0.5-1.1,1.1-1.1h10.3v5.6c0,0.4,0.3,0.7,0.6,0.7h5.4V21.6&#xA;&#x9;&#x9;z"/></g></svg>