<svg version="1.1" id="Vlt-icon-wallet" xmlns="http://www.w3.org/2000/svg" xmlns:xlink="http://www.w3.org/1999/xlink" x="0px" y="0px" viewBox="0 0 24 24" style="enable-background:new 0 0 24 24;" xml:space="preserve"><path d="M19.4,6.1h0.3c0.8,0,1.4,0.7,1.4,1.5v3.5c0.5,0.2,0.9,0.8,0.9,1.4v2.7c0,0.6-0.4,1.1-0.9,1.4v4c0,0.8-0.6,1.5-1.4,1.5H3.4&#xA;&#x9;C2.6,22,2,21.3,2,20.5V6.9c0-0.7,0.5-1.3,1-1.4l1.6-0.6c0.1-0.4,0.4-0.8,0.8-0.9V3.5C5.4,2.7,6.1,2,6.9,2H18c0.8,0,1.4,0.7,1.4,1.5&#xA;&#x9;C19.4,3.5,19.4,6.1,19.4,6.1z M18.3,6.1V3.5c0-0.2-0.1-0.3-0.3-0.3c0,0,0,0,0,0H6.8c-0.2,0-0.3,0.1-0.3,0.3v0.3h10.2&#xA;&#x9;c0.8,0,1.4,0.7,1.4,1.5v0.8C18.1,6.1,18.3,6.1,18.3,6.1z M5.7,6.1H17V5.3C17,5.1,16.9,5,16.7,5c0,0,0,0,0,0H6C5.8,5,5.7,5.1,5.7,5.3&#xA;&#x9;V6.1z M20,16.6h-4.6c-0.8,0-1.4-0.7-1.4-1.5v-2.7c0-0.8,0.6-1.5,1.4-1.5H20V7.5c0-0.2-0.1-0.3-0.3-0.3H3.1v13.3&#xA;&#x9;c0,0.2,0.1,0.3,0.3,0.3h16.3c0.2,0,0.3-0.1,0.3-0.3L20,16.6L20,16.6z M20.6,15.5c0.2,0,0.3-0.1,0.3-0.3v-2.7c0-0.2-0.1-0.3-0.3-0.3&#xA;&#x9;c0,0,0,0,0,0h-5.1c-0.2,0-0.3,0.1-0.3,0.3v2.7c0,0.2,0.1,0.3,0.3,0.3H20.6L20.6,15.5z M17.2,15.3c-0.8,0-1.4-0.7-1.4-1.5&#xA;&#x9;c0-0.8,0.6-1.5,1.4-1.5s1.4,0.7,1.4,1.5C18.6,14.6,17.9,15.3,17.2,15.3z M17.2,14.1c0.2,0,0.3-0.1,0.3-0.3c0-0.2-0.1-0.3-0.3-0.3&#xA;&#x9;c0,0,0,0,0,0c-0.2,0-0.3,0.1-0.3,0.3C16.9,14,17,14.1,17.2,14.1z"/></svg>