<svg version="1.1" id="Vlt-icon-more-v" xmlns="http://www.w3.org/2000/svg" xmlns:xlink="http://www.w3.org/1999/xlink" x="0px" y="0px" viewBox="0 0 24 24" style="enable-background:new 0 0 24 24;" xml:space="preserve"><path d="M12,6.2c0.7,0,1.2-0.5,1.2-1.2S12.7,3.8,12,3.8l0,0c-0.7,0-1.2,0.5-1.2,1.2S11.3,6.2,12,6.2z M12,7.5&#xA;&#x9;c-1.4,0-2.5-1.1-2.5-2.5s1.1-2.5,2.5-2.5s2.5,1.1,2.5,2.5S13.4,7.5,12,7.5z M12,14.5c-1.4,0-2.5-1.1-2.5-2.5s1.1-2.5,2.5-2.5&#xA;&#x9;s2.5,1.1,2.5,2.5S13.4,14.5,12,14.5z M12,13.2c0.7,0,1.2-0.5,1.2-1.2c0-0.7-0.5-1.2-1.2-1.2c-0.7,0-1.2,0.5-1.2,1.2&#xA;&#x9;C10.8,12.7,11.3,13.2,12,13.2z M12,21.5c-1.4,0-2.5-1.1-2.5-2.5s1.1-2.5,2.5-2.5s2.5,1.1,2.5,2.5S13.4,21.5,12,21.5z M12,20.2&#xA;&#x9;c0.7,0,1.2-0.5,1.2-1.2c0-0.7-0.5-1.2-1.2-1.2c0,0,0,0,0,0c-0.7,0-1.2,0.5-1.2,1.2C10.8,19.7,11.3,20.2,12,20.2z"/></svg>