<svg version="1.1" id="Vlt-icon-laptop" xmlns="http://www.w3.org/2000/svg" xmlns:xlink="http://www.w3.org/1999/xlink" x="0px" y="0px" viewBox="0 0 24 24" style="enable-background:new 0 0 24 24;" xml:space="preserve"><path d="M4.8,5.2v10.3h14V5.2H4.8z M21.3,18V3.1c0-0.2-0.2-0.3-0.4-0.3H2.6c-0.2,0-0.4,0.2-0.4,0.3V18h7.3v1.4H14V18&#xA;&#x9;C14,18,21.3,18,21.3,18z M22.5,18H24v3c0,0.9-0.7,1.6-1.6,1.6H1.6c-0.9,0-1.6-0.7-1.6-1.6v-3h1V3.1c0-0.9,0.7-1.6,1.6-1.6H21&#xA;&#x9;c0.9,0,1.6,0.7,1.6,1.6C22.5,3.1,22.5,18,22.5,18z M3.5,4H20v12.7H3.5V4z M15.3,20.6h-7v-1.4h-7v1.7c0,0.2,0.2,0.3,0.4,0.3h20.8&#xA;&#x9;c0.2,0,0.4-0.1,0.4-0.3v-1.7h-7.5L15.3,20.6L15.3,20.6z"/></svg>