<svg version="1.1" id="Vlt-icon-wifi" xmlns="http://www.w3.org/2000/svg" xmlns:xlink="http://www.w3.org/1999/xlink" x="0px" y="0px" viewBox="0 0 24 24" style="enable-background:new 0 0 24 24;" xml:space="preserve"><path d="M12,18.6c0.7,0,1.2,0.6,1.2,1.2s-0.6,1.2-1.2,1.2l0,0c-0.7,0-1.2-0.6-1.2-1.2S11.3,18.6,12,18.6z M12,13.8&#xA;&#x9;c1.5,0,3,0.6,4.2,1.6c0.3,0.3,0.3,0.8,0,1.1c-0.3,0.3-0.7,0.3-1,0c-0.9-0.8-2-1.2-3.1-1.2c-1.2,0-2.4,0.5-3.2,1.3&#xA;&#x9;c-0.3,0.3-0.8,0.3-1.1,0c0,0,0,0,0,0c-0.3-0.3-0.3-0.8,0-1.1C8.9,14.4,10.4,13.8,12,13.8z M12,8.2c3,0,5.9,1.1,8,3.2&#xA;&#x9;c0.3,0.3,0.3,0.8,0,1.1c-0.3,0.3-0.7,0.3-1,0c-1.9-1.8-4.4-2.8-7-2.8c-2.6,0-5.2,1-7.1,2.8c-0.3,0.3-0.8,0.2-1.1-0.1&#xA;&#x9;c-0.2-0.3-0.2-0.7,0-1C6.1,9.3,9,8.2,12,8.2z M23.8,7.4c0.3,0.3,0.3,0.7,0.1,1.1c-0.3,0.3-0.7,0.3-1.1,0.1c0,0,0,0,0,0&#xA;&#x9;C19.8,5.8,16,4.2,12,4.2c-4,0-7.9,1.5-10.8,4.3C1,8.8,0.5,8.8,0.2,8.5c0,0,0,0,0,0c-0.3-0.3-0.3-0.8,0-1.1c0,0,0,0,0,0&#xA;&#x9;c3.2-3,7.4-4.7,11.8-4.7C16.4,2.8,20.6,4.4,23.8,7.4z"/></svg>