<svg version="1.1" id="Vlt-icon-pause" xmlns="http://www.w3.org/2000/svg" xmlns:xlink="http://www.w3.org/1999/xlink" x="0px" y="0px" viewBox="0 0 24 24" style="enable-background:new 0 0 24 24;" xml:space="preserve"><path d="M2.8,6.4v11.2c0,2,1.5,3.5,3.4,3.5c1.9,0,3.4-1.6,3.4-3.5V6.4c0-2-1.5-3.5-3.4-3.5C4.3,2.9,2.8,4.4,2.8,6.4z M1.5,6.4&#xA;&#x9;c0-2.7,2.1-4.9,4.7-4.9c2.6,0,4.7,2.2,4.7,4.9v11.2c0,2.7-2.1,4.9-4.7,4.9c-2.6,0-4.7-2.2-4.7-4.9C1.5,17.6,1.5,6.4,1.5,6.4z&#xA;&#x9; M14.4,6.4v11.2c0,2,1.5,3.5,3.4,3.5c1.9,0,3.4-1.6,3.4-3.5V6.4c0-2-1.5-3.5-3.4-3.5C16,2.9,14.4,4.4,14.4,6.4z M13.1,6.4&#xA;&#x9;c0-2.7,2.1-4.9,4.7-4.9c2.6,0,4.7,2.2,4.7,4.9v11.2c0,2.7-2.1,4.9-4.7,4.9c-2.6,0-4.7-2.2-4.7-4.9L13.1,6.4L13.1,6.4z"/></svg>