<svg version="1.1" id="Vlt-icon-mobile-devices" xmlns="http://www.w3.org/2000/svg" xmlns:xlink="http://www.w3.org/1999/xlink" x="0px" y="0px" viewBox="0 0 24 24" style="enable-background:new 0 0 24 24;" xml:space="preserve"><path d="M19.9,3.5c1.2,0,2.1,1,2.1,2.1v15.8c0,1.2-1,2.1-2.1,2.1H12c-1.2,0-2.1-1-2.1-2.1v-0.8H4.1c-1.2,0-2.1-1-2.1-2.1V2.6&#xA;&#x9;c0-1.2,1-2.1,2.1-2.1H12c1.2,0,2.1,1,2.1,2.1v0.8L19.9,3.5L19.9,3.5z M19.9,22.2c0.5,0,0.8-0.4,0.8-0.8l0,0v-2.8h-9.6v2.8&#xA;&#x9;c0,0.5,0.4,0.8,0.8,0.8H19.9z M4.1,19.3h5.8v-3.7H3.3v2.8C3.3,18.9,3.7,19.3,4.1,19.3z M9.9,14.3V5.6c0-0.1,0-0.2,0-0.3H3.3v9.1&#xA;&#x9;L9.9,14.3L9.9,14.3z M4.1,1.8c-0.5,0-0.8,0.4-0.8,0.8V4h7.4C11,3.6,11.5,3.5,12,3.5h0.8V2.6c0-0.5-0.4-0.8-0.8-0.8H4.1z M11.2,17.3&#xA;&#x9;h9.6V8.2h-9.6C11.2,8.2,11.2,17.3,11.2,17.3z M20.7,5.6c0-0.5-0.4-0.8-0.8-0.8H12c-0.5,0-0.8,0.4-0.8,0.8v1.3h9.6&#xA;&#x9;C20.7,6.9,20.7,5.6,20.7,5.6z M15.9,19.3c0.6,0,1.1,0.6,1.1,1.2c0,0.6-0.5,1.1-1.1,1.1c-0.6,0-1.1-0.6-1.1-1.2&#xA;&#x9;C14.9,19.8,15.4,19.3,15.9,19.3z M8.1,16.3c0.6,0,1.1,0.5,1.1,1.1c0,0.6-0.5,1.1-1.1,1.1c-0.6,0-1.1-0.5-1.1-1.1&#xA;&#x9;C6.9,16.8,7.4,16.3,8.1,16.3z"/></svg>