<svg version="1.1" id="Vlt-icon-cross-circle-negative" xmlns="http://www.w3.org/2000/svg" xmlns:xlink="http://www.w3.org/1999/xlink" x="0px" y="0px" viewBox="0 0 24 24" style="enable-background:new 0 0 24 24;" xml:space="preserve"><path id="path-1_1_" d="M17.1,15.6c0.4,0.4,0.4,1.1,0,1.5c-0.2,0.2-0.5,0.3-0.8,0.3s-0.6-0.1-0.8-0.3L12,13.5l-3.6,3.6&#xA;&#x9;c-0.2,0.2-0.5,0.3-0.8,0.3S7,17.3,6.8,17.1c-0.4-0.4-0.4-1.1,0-1.5l3.6-3.6L6.9,8.4C6.4,8,6.4,7.3,6.9,6.9c0.4-0.4,1.1-0.4,1.5,0&#xA;&#x9;l3.6,3.6l3.6-3.6c0.4-0.4,1.1-0.4,1.5,0s0.4,1.1,0,1.5L13.5,12L17.1,15.6L17.1,15.6z M12,0C5.4,0,0,5.4,0,12s5.4,12,12,12&#xA;&#x9;s12-5.4,12-12S18.6,0,12,0L12,0z"/></svg>