<svg version="1.1" id="Vlt-icon-cart" xmlns="http://www.w3.org/2000/svg" xmlns:xlink="http://www.w3.org/1999/xlink" x="0px" y="0px" viewBox="0 0 24 24" style="enable-background:new 0 0 24 24;" xml:space="preserve"><path id="path-1_1_" d="M20.8,10.9H9.3V9.6h11.8L21.5,8l1.3,0.3l-1.9,7.4C20.7,16.4,20,17,19.3,17H9c-0.7,0-1.4-0.5-1.6-1.2L3.2,2.2&#xA;&#x9;H1.1V0.9h3l4.5,14.6c0,0.2,0.2,0.3,0.4,0.3h10.2c0.2,0,0.3-0.1,0.4-0.3L20.8,10.9z M10.8,23.2c-1.5,0-2.7-1.2-2.7-2.7&#xA;&#x9;s1.2-2.7,2.7-2.7s2.7,1.2,2.7,2.7S12.3,23.2,10.8,23.2z M10.8,21.9c0.8,0,1.4-0.6,1.4-1.4s-0.6-1.4-1.4-1.4s-1.4,0.6-1.4,1.4&#xA;&#x9;C9.4,21.3,10.1,21.9,10.8,21.9z M18.5,23.2c-1.5,0-2.7-1.2-2.7-2.7s1.2-2.7,2.7-2.7s2.7,1.2,2.7,2.7S20,23.2,18.5,23.2z M18.5,21.9&#xA;&#x9;c0.8,0,1.4-0.6,1.4-1.4s-0.6-1.4-1.4-1.4s-1.4,0.6-1.4,1.4S17.7,21.9,18.5,21.9z"/></svg>