<svg version="1.1" id="Vlt-icon-video-negative" xmlns="http://www.w3.org/2000/svg" xmlns:xlink="http://www.w3.org/1999/xlink" x="0px" y="0px" viewBox="0 0 24 24" style="enable-background:new 0 0 24 24;" xml:space="preserve"><path id="path-1_1_" d="M19,9.5l2.7-2.8c0.2-0.3,0.6-0.4,1-0.4h0.1c0.7,0,1.3,0.6,1.3,1.3v8.8c0,0.7-0.6,1.3-1.3,1.3h-0.1&#xA;&#x9;c-0.4,0-0.7-0.1-0.9-0.4L19,14.5V9.5z M3.4,4.3H14c1.9,0,3.4,1.5,3.4,3.4v8.6c0,1.9-1.5,3.4-3.4,3.4H3.4c-1.9,0-3.4-1.5-3.4-3.4V7.7&#xA;&#x9;C0,5.8,1.5,4.3,3.4,4.3z"/></svg>