<svg version="1.1" id="Vlt-icon-info" xmlns="http://www.w3.org/2000/svg" xmlns:xlink="http://www.w3.org/1999/xlink" x="0px" y="0px" viewBox="0 0 24 24" style="enable-background:new 0 0 24 24;" xml:space="preserve"><path d="M12,22c5.5,0,10-4.5,10-10S17.5,2,12,2S2,6.5,2,12S6.5,22,12,22z M12,23.3C5.8,23.3,0.7,18.2,0.7,12S5.8,0.7,12,0.7&#xA;&#x9;S23.3,5.8,23.3,12S18.2,23.3,12,23.3z M12.8,17v-6h-1.5v6H12.8z M13.1,8.3c0-0.3-0.1-0.6-0.3-0.8c-0.2-0.2-0.5-0.3-0.8-0.3&#xA;&#x9;c-0.3,0-0.6,0.1-0.8,0.3C11,7.7,10.9,8,10.9,8.3c0,0.3,0.1,0.6,0.3,0.8c0.2,0.2,0.5,0.3,0.8,0.3c0.3,0,0.6-0.1,0.8-0.3&#xA;&#x9;C13,8.9,13.1,8.6,13.1,8.3z"/></svg>