<svg version="1.1" id="Vlt-icon-exit" xmlns="http://www.w3.org/2000/svg" xmlns:xlink="http://www.w3.org/1999/xlink" x="0px" y="0px" viewBox="0 0 24 24" style="enable-background:new 0 0 24 24;" xml:space="preserve"><path d="M4.4,4.9H1.9v14h2.5C4.4,18.9,4.4,4.9,4.4,4.9z M15.6,17.9C15.6,17.9,15.6,17.9,15.6,17.9c0.3,0.3,0.3,0.8,0,1&#xA;&#x9;c-0.3,0.3-0.8,0.3-1.1,0l-6.6-6.6c-0.1,0-0.1-0.1-0.2-0.2l-0.5-0.4l0.5-0.4c0-0.1,0.1-0.1,0.2-0.2l6.4-6.4c0.3-0.3,0.8-0.3,1.1,0&#xA;&#x9;c0,0,0,0,0,0c0.3,0.3,0.3,0.8,0,1L10.2,11h12.1c0.4,0,0.7,0.3,0.7,0.7c0,0.4-0.3,0.7-0.7,0.7H10.2C10.2,12.5,15.6,17.9,15.6,17.9z&#xA;&#x9; M5.7,4.5v14.7c0,0.6-0.5,1-1,1H1.5c-0.6,0-1-0.5-1-1V4.5c0-0.6,0.5-1,1-1h3.1C5.3,3.5,5.7,4,5.7,4.5z"/></svg>