<svg version="1.1" id="Vlt-icon-search" xmlns="http://www.w3.org/2000/svg" xmlns:xlink="http://www.w3.org/1999/xlink" x="0px" y="0px" viewBox="0 0 24 24" style="enable-background:new 0 0 24 24;" xml:space="preserve"><path d="M21.5,21.4c-0.2,0.2-0.5,0.2-0.7,0c0,0,0,0,0,0l-5.2-5.1c0.3-0.2,0.5-0.5,0.8-0.8l5.1,5.1C21.7,20.9,21.7,21.3,21.5,21.4&#xA;&#x9; M2.4,9.8c0-4.1,3.3-7.4,7.4-7.4c4.1,0,7.4,3.3,7.4,7.4c0,4.1-3.3,7.4-7.4,7.4C5.7,17.2,2.4,13.9,2.4,9.8 M22.4,19.7l-5.3-5.3&#xA;&#x9;c0.9-1.4,1.4-3,1.4-4.7c0-4.8-3.9-8.8-8.8-8.8C4.9,1,1,4.9,1,9.8c0,4.9,3.9,8.8,8.8,8.8c1.7,0,3.3-0.5,4.7-1.4l5.3,5.2&#xA;&#x9;c0.4,0.4,0.8,0.5,1.3,0.5c0.5,0,1-0.2,1.3-0.6C23.2,21.7,23.2,20.5,22.4,19.7"/></svg>