<svg version="1.1" id="Vlt-icon-phone-plus" xmlns="http://www.w3.org/2000/svg" xmlns:xlink="http://www.w3.org/1999/xlink" x="0px" y="0px" viewBox="0 0 24 24" style="enable-background:new 0 0 24 24;" xml:space="preserve"><path d="M3,4.7C2.8,5.4,2.7,6.2,2.9,7.1c0.2,1,0.6,2,1.2,3c0.6,1.1,1.2,2.1,1.9,3.1c0.7,1,1.5,1.8,2.2,2.5c0.7,0.7,1.6,1.4,2.5,2.2&#xA;&#x9;c1,0.7,2,1.4,3.1,1.9c1.1,0.6,2.1,0.9,3,1.2c1,0.2,1.8,0.2,2.4-0.1c0.8-0.4,1.3-0.9,1.5-1.5l0.4-1c0.1-0.2,0-0.4,0-0.6&#xA;&#x9;c-0.1-0.2-0.2-0.4-0.5-0.5c-0.2-0.2-0.9-0.6-2-1.3c-1.1-0.7-2-1-2.6-0.8c-0.6,0.2-1,0.4-1.2,0.8s-0.6,0.4-1.1,0.3&#xA;&#x9;c-0.5-0.1-1.2-0.5-1.9-1.1c-0.7-0.6-1.2-1-1.6-1.4c-0.3-0.3-0.8-0.8-1.4-1.6c-0.6-0.7-0.9-1.3-1.1-1.9C7.6,9.8,7.7,9.5,8,9.3&#xA;&#x9;c0.3-0.2,0.6-0.6,0.7-1.2C9,7.4,8.7,6.5,8,5.4l-1.3-2C6.5,3.1,6.3,2.9,6.2,2.9C6,2.8,5.8,2.8,5.6,2.8l-1,0.4C3.9,3.4,3.4,3.9,3,4.7z&#xA;&#x9; M17.2,6.7h3.2v1.5h-3.2v3.2h-1.5V8.2h-3.2V6.7h3.2V3.5h1.5L17.2,6.7L17.2,6.7z M9.8,11.5c0.6,0.7,1,1.2,1.3,1.5&#xA;&#x9;c0.3,0.3,0.8,0.7,1.5,1.3c0.5,0.4,1,0.7,1.3,0.8c0.4-0.5,1-0.8,1.8-1c1.1-0.3,2.3,0.1,3.7,1c1.1,0.7,1.8,1.1,2.1,1.3&#xA;&#x9;c0.5,0.3,0.8,0.6,1,1.1c0.2,0.5,0.2,0.9,0.1,1.4l0,0.1l-0.4,1c-0.4,1-1.1,1.7-2.2,2.3c-0.9,0.4-2,0.5-3.3,0.2&#xA;&#x9;c-1.1-0.3-2.2-0.7-3.3-1.3c-1.1-0.6-2.2-1.3-3.2-2c-1-0.8-1.9-1.5-2.7-2.3C6.5,16,5.8,15.1,5,14c-0.8-1-1.4-2.1-2-3.2&#xA;&#x9;c-0.6-1.1-1-2.3-1.3-3.3C1.4,6.2,1.4,5.1,1.9,4.2C2.4,3.1,3.1,2.4,4.1,2l1-0.4l0.1,0c0.5-0.1,1-0.1,1.4,0.1c0.5,0.2,0.8,0.6,1.1,1&#xA;&#x9;c0.2,0.2,0.6,0.9,1.3,2C10,6.1,10.3,7.3,10,8.4c-0.2,0.8-0.5,1.4-1,1.8C9.1,10.5,9.3,10.9,9.8,11.5z"/></svg>