<svg version="1.1" id="Vlt-icon-alert" xmlns="http://www.w3.org/2000/svg" xmlns:xlink="http://www.w3.org/1999/xlink" x="0px" y="0px" viewBox="0 0 24 24" style="enable-background:new 0 0 24 24;" xml:space="preserve"><path d="M13.3,3.7c-0.7-1.2-1.8-1.2-2.6,0L1.8,18.6c-0.7,1.2-0.2,2.1,1.2,2.1h18c1.4,0,1.9-0.9,1.2-2.1L13.3,3.7L13.3,3.7z&#xA;&#x9; M14.4,3.1l8.9,14.9C24.6,20,23.4,22,21,22H3c-2.4,0-3.6-2-2.3-4.1L9.6,3.1C10.8,1,13.2,1,14.4,3.1z M11.1,8.2v5.2&#xA;&#x9;c0,0.4,0.3,0.8,0.8,0.8s0.8-0.3,0.8-0.8V8.2c0-0.4-0.3-0.8-0.8-0.8S11.1,7.7,11.1,8.2z M13.1,16.8c0-0.7-0.5-1.3-1.2-1.3&#xA;&#x9;s-1.3,0.5-1.3,1.2c0,0,0,0,0,0.1c0,0.7,0.6,1.2,1.2,1.2S13.1,17.5,13.1,16.8L13.1,16.8z"/></svg>