<svg version="1.1" id="Vlt-icon-table-1" xmlns="http://www.w3.org/2000/svg" xmlns:xlink="http://www.w3.org/1999/xlink" x="0px" y="0px" viewBox="0 0 24 24" style="enable-background:new 0 0 24 24;" xml:space="preserve"><path d="M7.8,5H2C1.4,5,1,4.6,1,4V2c0-0.6,0.4-1,1-1h20c0.6,0,1,0.4,1,1v2c0,0.6-0.4,1-1,1h-5.9v3.8H23v1.3h-6.9v4.7H23v1.3h-6.9&#xA;&#x9;v4.7H23v1.3H1v-1.3h6.8v-4.7H1v-1.3h6.8V10H1V8.8h6.8V5z M9.1,5v3.8h5.7V5H9.1z M14.9,20.8v-4.7H9.1v4.7H14.9z M14.9,14.8V10H9.1&#xA;&#x9;v4.7L14.9,14.8C14.9,14.7,14.9,14.8,14.9,14.8z"/></svg>