<svg xmlns="http://www.w3.org/2000/svg" width="24" height="24" viewBox="0 0 24 24" id="Vlt-icon-file-add"><path fill="#000" fill-rule="nonzero" d="M19.648 21.501a4.973 4.973 0 1 1 0-9.812V2.594a.338.338 0 0 0-.338-.338H6.418V5.49c0 .88-.713 1.594-1.593 1.594h-2.27v14.823c0 .186.152.338.338.338H19.31a.338.338 0 0 0 .338-.338V21.5zm1.255-.385v.79c0 .88-.713 1.594-1.593 1.594H2.893c-.88 0-1.593-.713-1.593-1.593V6.236L5.489 1h13.82c.88 0 1.594.713 1.594 1.593v9.482a4.974 4.974 0 0 1 0 9.04zM5.163 3.417l-1.93 2.411h1.592a.338.338 0 0 0 .338-.338V3.417zm13.664 16.896a3.718 3.718 0 1 0 0-7.435 3.718 3.718 0 0 0 0 7.435zm-1.583-4.047l1.02.68 2.05-2.05a.628.628 0 1 1 .888.888l-2.778 2.778-1.877-1.251a.628.628 0 1 1 .697-1.045zM7.239 8.05a.628.628 0 1 1 0-1.255h7.725a.628.628 0 0 1 0 1.255H7.24zm0 2.897a.628.628 0 1 1 0-1.255h7.725a.628.628 0 0 1 0 1.255H7.24zm0 2.897a.628.628 0 1 1 0-1.255h4.345a.628.628 0 0 1 0 1.255H7.24zm0 2.897a.628.628 0 1 1 0-1.255h4.345a.628.628 0 0 1 0 1.255H7.24zm0 2.897a.628.628 0 0 1 0-1.255h4.828a.628.628 0 0 1 0 1.255H7.24z"/></svg>