<svg version="1.1" id="Vlt-icon-home" xmlns="http://www.w3.org/2000/svg" xmlns:xlink="http://www.w3.org/1999/xlink" x="0px" y="0px" viewBox="0 0 24 24" style="enable-background:new 0 0 24 24;" xml:space="preserve"><path d="M9.8,16.1v6.8H4.9c-0.9,0-1.6-0.7-1.6-1.6c0,0,0,0,0,0v-7.7c0-0.3,0.3-0.6,0.6-0.6s0.6,0.3,0.6,0.6v7.7&#xA;&#x9;c0,0.2,0.1,0.3,0.3,0.3h3.6v-6.8h6.9v6.8h3.6c0.2,0,0.3-0.1,0.3-0.3v-7.7c0-0.3,0.3-0.6,0.6-0.6s0.6,0.3,0.6,0.6v7.7&#xA;&#x9;c0,0.9-0.7,1.6-1.6,1.6h-4.9v-6.8H9.8z M12,3.3L1.6,13.5c-0.2,0.2-0.6,0.2-0.9,0s-0.2-0.6,0-0.9L12,1.5l11.3,11.1&#xA;&#x9;c0.3,0.2,0.3,0.6,0,0.9c-0.2,0.3-0.6,0.3-0.9,0c0,0,0,0,0,0C22.4,13.5,12,3.3,12,3.3z M18.5,6.2V3.5h-2.7c-0.3,0-0.6-0.3-0.6-0.6&#xA;&#x9;c0-0.3,0.3-0.6,0.6-0.6h3.9v4c0,0.3-0.3,0.6-0.6,0.6S18.5,6.6,18.5,6.2L18.5,6.2z"/></svg>