<svg version="1.1" id="Vlt-icon-file" xmlns="http://www.w3.org/2000/svg" xmlns:xlink="http://www.w3.org/1999/xlink" x="0px" y="0px" viewBox="0 0 24 24" style="enable-background:new 0 0 24 24;" xml:space="preserve"><path d="M19.6,22.7H4.4c-0.6,0-1.1-0.5-1.1-1.1V2.4c0-0.6,0.5-1.1,1.1-1.1h10.3v5.6c0,0.4,0.3,0.7,0.6,0.7h5.4v14.1&#xA;&#x9;C20.7,22.2,20.2,22.7,19.6,22.7z M16,1.8l4.2,4.4H16V1.8z M16,0H4.4C3.1,0,2,1.1,2,2.4v19.1C2,22.9,3.1,24,4.4,24c0,0,0,0,0,0h15.1&#xA;&#x9;c1.3,0,2.4-1.1,2.4-2.4c0,0,0,0,0,0V6.2L16,0z"/></svg>