<svg xmlns="http://www.w3.org/2000/svg" width="24" height="24" viewBox="0 0 24 24" id="Vlt-icon-bar-chart"><path fill="#000" fill-rule="nonzero" d="M2.15 21.85H22.5a.65.65 0 1 1 0 1.3H.85V1.5a.65.65 0 1 1 1.3 0v20.35zM5.5 21h-1a1 1 0 0 1-1-1V8.5a1 1 0 0 1 1-1h1a1 1 0 0 1 1 1V20a1 1 0 0 1-1 1zM5.2 8.8h-.4v10.9h.4V8.8zM10 21H9a1 1 0 0 1-1-1v-6.5a1 1 0 0 1 1-1h1a1 1 0 0 1 1 1V20a1 1 0 0 1-1 1zm-.3-7.2h-.4v5.9h.4v-5.9zm4.8 7.2h-1a1 1 0 0 1-1-1V3.5a1 1 0 0 1 1-1h1a1 1 0 0 1 1 1V20a1 1 0 0 1-1 1zm-.3-17.2h-.4v15.9h.4V3.8zM19 21h-1a1 1 0 0 1-1-1v-3a1 1 0 0 1 1-1h1a1 1 0 0 1 1 1v3a1 1 0 0 1-1 1zm-.3-3.7h-.4v2.4h.4v-2.4z"/></svg>