<svg version="1.1" id="Vlt-icon-group-5" xmlns="http://www.w3.org/2000/svg" xmlns:xlink="http://www.w3.org/1999/xlink" x="0px" y="0px" viewBox="0 0 24 24" style="enable-background:new 0 0 24 24;" xml:space="preserve"><path id="path-1" d="M7.1,20.7L7.1,20.7C7.1,20.7,7,20.7,7.1,20.7c-1.6,0-2.9,1.1-3.3,2.5c-0.1,0.3-0.4,0.6-0.8,0.5&#xA;&#x9;s-0.6-0.4-0.5-0.8c0.3-1.3,1.2-2.4,2.4-3c-0.6-0.6-1.1-1.4-1.1-2.3c0-1.7,1.4-3.1,3.2-3.1s3.2,1.4,3.2,3.1c0,0.9-0.4,1.8-1.1,2.3&#xA;&#x9;c1.2,0.6,2.1,1.7,2.4,3c0.1,0.3-0.1,0.7-0.5,0.8c-0.3,0.1-0.7-0.1-0.8-0.5C10,21.8,8.6,20.7,7.1,20.7z M17.6,20.7L17.6,20.7&#xA;&#x9;L17.6,20.7c-1.6,0-2.9,1.1-3.3,2.5c-0.1,0.3-0.4,0.6-0.8,0.5s-0.6-0.4-0.5-0.8c0.3-1.3,1.2-2.4,2.4-3c-0.6-0.6-1.1-1.4-1.1-2.3&#xA;&#x9;c0-1.7,1.4-3.1,3.2-3.1s3.2,1.4,3.2,3.1c0,0.9-0.4,1.8-1.1,2.3c1.2,0.6,2.1,1.7,2.4,3c0.1,0.3-0.1,0.7-0.5,0.8&#xA;&#x9;c-0.3,0.1-0.7-0.1-0.8-0.5C20.5,21.8,19.2,20.7,17.6,20.7z M8.8,10.3C7.5,9.9,6.9,9,7.2,8c0.3-0.8,1.2-1.4,2.2-1.4h10&#xA;&#x9;c2.2,0,3.3,0.8,3.3,3.3c0,1.4-0.6,2.4-1.6,3c-0.6,0.4-1.1,0.5-1.6,0.6c-0.4,0-0.7-0.3-0.7-0.6v-1.4c0-0.4,0.3-0.6,0.6-0.6&#xA;&#x9;c0.4,0,0.6,0.3,0.6,0.6v0.6c0.1,0,0.2-0.1,0.3-0.2c0.6-0.4,1-1,1-1.9c0-1.7-0.5-2-2-2h-10c-0.5,0-0.9,0.2-1,0.5&#xA;&#x9;c0.1,0.1,0.3,0.4,0.9,0.6l5.2,1.6c0.3,0.1,0.5,0.3,0.5,0.6v2.1c0,0.4-0.3,0.6-0.6,0.6s-0.6-0.3-0.6-0.6v-1.6L8.8,10.3z M11.2,2.3&#xA;&#x9;c0.4,0,0.6,0.3,0.6,0.6s-0.3,0.6-0.6,0.6H3.9c-0.7,0-1.3,0.6-1.3,1.3v7.8c0,0.5,0.4,0.8,0.8,0.8S4,13.7,4,14c0,0.4-0.3,0.6-0.6,0.6&#xA;&#x9;c-1.2,0-2.1-0.9-2.1-2.1V4.9c0-1.5,1.2-2.6,2.6-2.6C3.9,2.3,11.2,2.3,11.2,2.3z M19.9,3.2c0,1.6-1.3,2.9-2.9,2.9s-2.9-1.3-2.9-2.9&#xA;&#x9;s1.3-2.9,2.9-2.9C18.6,0.2,19.9,1.5,19.9,3.2z M19.4,17.6c0-1-0.8-1.8-1.9-1.8s-1.9,0.8-1.9,1.8s0.8,1.8,1.9,1.8&#xA;&#x9;S19.4,18.6,19.4,17.6z M8.9,17.6c0-1-0.8-1.8-1.9-1.8s-1.9,0.8-1.9,1.8s0.8,1.8,1.9,1.8S8.9,18.6,8.9,17.6z M18.6,3.2&#xA;&#x9;c0-0.9-0.7-1.6-1.6-1.6s-1.6,0.7-1.6,1.6s0.7,1.6,1.6,1.6S18.6,4,18.6,3.2z"/></svg>