<svg version="1.1" id="Vlt-icon-help-negative" xmlns="http://www.w3.org/2000/svg" xmlns:xlink="http://www.w3.org/1999/xlink" x="0px" y="0px" viewBox="0 0 24 24" style="enable-background:new 0 0 24 24;" xml:space="preserve"><path d="M12,23C5.9,23,1,18.1,1,12S5.9,1,12,1s11,4.9,11,11S18.1,23,12,23z M9,7.1l0.5,0.8c0.1,0.2,0.2,0.2,0.4,0.2&#xA;&#x9;c0.1,0,0.2,0,0.3-0.1c0.1-0.1,0.2-0.1,0.4-0.2c0.1-0.1,0.3-0.2,0.5-0.2c0.2-0.1,0.5-0.1,0.8-0.1c0.2,0,0.4,0,0.6,0.1&#xA;&#x9;c0.2,0.1,0.3,0.1,0.4,0.2s0.2,0.2,0.3,0.4s0.1,0.3,0.1,0.5c0,0.3-0.1,0.5-0.2,0.8c-0.1,0.2-0.3,0.4-0.5,0.6&#xA;&#x9;c-0.2,0.2-0.4,0.3-0.6,0.5c-0.2,0.1-0.4,0.3-0.6,0.4c-0.2,0.1-0.3,0.3-0.4,0.5c-0.1,0.2-0.1,0.4-0.1,0.6l0.1,1.3h1.3l0.2-1.1&#xA;&#x9;c0-0.2,0.1-0.3,0.2-0.4c0.1-0.1,0.3-0.3,0.5-0.4l0.6-0.4c0.2-0.2,0.4-0.3,0.6-0.6c0.2-0.2,0.3-0.5,0.4-0.8c0.1-0.3,0.2-0.6,0.2-1&#xA;&#x9;c0-0.4-0.1-0.8-0.2-1.1c-0.1-0.3-0.4-0.6-0.6-0.8c-0.3-0.2-0.6-0.4-1-0.5C12.8,6.1,12.4,6,12,6c-0.3,0-0.6,0-0.9,0.1&#xA;&#x9;c-0.5,0.1-1,0.3-1.5,0.6C9.4,6.8,9.2,7,9,7.1z M10.5,16.3c0,0.2,0,0.3,0.1,0.5c0.1,0.1,0.1,0.3,0.2,0.4c0.1,0.1,0.2,0.2,0.4,0.2&#xA;&#x9;c0.1,0.1,0.3,0.1,0.5,0.1c0.3,0,0.6-0.1,0.8-0.3c0.2-0.2,0.3-0.5,0.3-0.8c0-0.2,0-0.3-0.1-0.5c-0.1-0.1-0.1-0.3-0.3-0.4&#xA;&#x9;c-0.1-0.1-0.2-0.2-0.4-0.2c-0.1-0.1-0.3-0.1-0.5-0.1c-0.3,0-0.6,0.1-0.8,0.3C10.6,15.7,10.5,16,10.5,16.3L10.5,16.3z"/></svg>