<svg version="1.1" id="Vlt-icon-cross-circle" xmlns="http://www.w3.org/2000/svg" xmlns:xlink="http://www.w3.org/1999/xlink" x="0px" y="0px" viewBox="0 0 24 24" style="enable-background:new 0 0 24 24;" xml:space="preserve"><path d="M12,21.7c5.3,0,9.7-4.3,9.7-9.7S17.3,2.3,12,2.3S2.3,6.7,2.3,12S6.7,21.7,12,21.7z M12,23C5.9,23,1,18.1,1,12S5.9,1,12,1&#xA;&#x9;s11,4.9,11,11S18.1,23,12,23z M12.9,12l3.9-3.9c0.3-0.3,0.2-0.7,0-0.9c-0.3-0.2-0.7-0.2-0.9,0L12,11.1L8.1,7.2&#xA;&#x9;C7.9,6.9,7.4,7,7.2,7.2C7,7.5,7,7.9,7.2,8.1l3.9,3.9l-3.9,3.9c-0.3,0.3-0.3,0.7,0,0.9s0.7,0.3,0.9,0l3.9-3.9l3.9,3.9&#xA;&#x9;c0.3,0.3,0.7,0.3,0.9,0c0.3-0.3,0.3-0.7,0-0.9L12.9,12z"/></svg>