<svg version="1.1" id="Vlt-icon-pentool" xmlns="http://www.w3.org/2000/svg" xmlns:xlink="http://www.w3.org/1999/xlink" x="0px" y="0px" viewBox="0 0 24 24" style="enable-background:new 0 0 24 24;" xml:space="preserve"><path d="M22.8,9.6L14.1,1l-3,3.9l0.3,0.3L6.8,7.1L1.2,20.9h1.6v1.6L16.6,17l1.9-4.7l0.3,0.3C18.8,12.6,22.7,9.6,22.8,9.6z M14.2,2.9&#xA;&#x9;l6.5,6.5L19,10.9l-6.2-6.2C12.8,4.7,14.2,2.9,14.2,2.9z M15.6,16L4.1,20.5l6.1-6.1c0.3,0.1,0.6,0.2,0.9,0.2c1.1,0,2-0.9,2-2&#xA;&#x9;s-0.9-2-2-2s-2,0.9-2,2c0,0.3,0.1,0.6,0.2,0.9l-6.1,6.1L7.7,8.1l4.7-1.9l5.1,5.1C17.5,11.3,15.6,16,15.6,16z M10.3,12.7&#xA;&#x9;c0-0.4,0.3-0.7,0.7-0.7s0.7,0.3,0.7,0.7s-0.3,0.7-0.7,0.7S10.3,13.1,10.3,12.7z"/></svg>