<svg version="1.1" id="Vlt-icon-fax-outbound" xmlns="http://www.w3.org/2000/svg" xmlns:xlink="http://www.w3.org/1999/xlink" x="0px" y="0px" viewBox="0 0 24 24" style="enable-background:new 0 0 24 24;" xml:space="preserve"><g><polygon points="7.5,14.1 13.8,7.7 13.8,12.6 15.1,12.6 15.2,5.5 8.1,5.6 8.1,6.9 12.9,6.8 6.6,13.1 &#x9;"/><path d="M0.5,2.2v1.3h2.4v16.8c0,0.9,0.7,1.7,1.6,1.7h10.1c0.5,0,0.9-0.2,1.2-0.5l4.9-5.5c0.3-0.3,0.4-0.7,0.4-1.1V3.5h2.3V2.2H0.5&#xA;&#x9;&#x9;z M15.7,19.6v-3.4c0-0.2,0.2-0.4,0.3-0.4h3L15.7,19.6z M19.9,14.6h-0.1H16c-0.9,0-1.6,0.8-1.6,1.7v4.5H4.5c-0.2,0-0.3-0.2-0.3-0.4&#xA;&#x9;&#x9;V3.5h15.7V14.6z"/></g></svg>