<svg version="1.1" id="Vlt-icon-file-dollar" xmlns="http://www.w3.org/2000/svg" xmlns:xlink="http://www.w3.org/1999/xlink" x="0px" y="0px" viewBox="0 0 24 24" style="enable-background:new 0 0 24 24;" xml:space="preserve"><path id="path-1_1_" d="M9.2,16.3c-1.3-0.2-1.7-1.2-1.7-1.2l0.9-0.4c0,0,0.2,0.4,0.8,0.6l0-2.6c0,0-0.1,0-0.1,0&#xA;&#x9;&#x9;&#x9;&#x9;&#x9;c-1.4-0.5-1.7-1.6-1.5-2.3c0.2-0.8,0.7-1.5,1.6-1.7l0-0.7l1,0l0,0.7c1.1,0.2,1.5,1.1,1.5,1.1l-0.9,0.4c0,0-0.2-0.3-0.6-0.5&#xA;&#x9;&#x9;&#x9;&#x9;&#x9;l0,2.3c1.7,0.8,1.6,2.1,1.5,2.6c0,0.9-0.7,1.6-1.5,1.8l0,0.7l-1,0L9.2,16.3z M10.2,15.3c0.3-0.1,0.6-0.5,0.6-0.8&#xA;&#x9;&#x9;&#x9;&#x9;&#x9;c0.1-0.4-0.1-0.9-0.6-1.2L10.2,15.3z M9.2,9.7c-0.4,0.2-0.6,0.5-0.7,0.8c-0.1,0.4,0.1,0.9,0.7,1.1L9.2,9.7z M14,0l5.9,6.2v15.4&#xA;&#x9;&#x9;&#x9;&#x9;&#x9;c0,1.3-1.1,2.4-2.4,2.4H2.4C1.1,24,0,22.9,0,21.5V2.4C0,1.1,1.1,0,2.4,0H14z M17.6,22.7c0.6,0,1.1-0.5,1.1-1V7.6h-5.4&#xA;&#x9;&#x9;&#x9;&#x9;&#x9;c-0.3,0-0.6-0.3-0.6-0.7V1.3H2.4c-0.6,0-1.1,0.5-1.1,1.1v19.2c0,0.6,0.5,1.1,1.1,1.1H17.6z M14,1.8v4.4h4.2L14,1.8z"/></svg>