<svg version="1.1" id="Vlt-icon-address-book" xmlns="http://www.w3.org/2000/svg" xmlns:xlink="http://www.w3.org/1999/xlink" x="0px" y="0px" viewBox="0 0 24 24" style="enable-background:new 0 0 24 24;" xml:space="preserve"><path d="M10.6,16c-1,0.3-2.1,1.1-2,1.4c0.1,0.4,1.1,0.7,3.5,0.7h0.8c2.4,0,3.4-0.3,3.5-0.7c0.1-0.4-1-1.1-2-1.4&#xA;&#x9;c-0.2-0.1-0.4-0.1-0.6-0.2c-0.5-0.1-0.8-0.3-0.9-0.8c-0.1-0.5,0.1-0.8,0.5-1.4c0.4-0.4,0.5-0.9,0.5-1.4c0-1-0.6-1.8-1.4-1.9&#xA;&#x9;c-0.8,0-1.5,0.8-1.5,1.9c0,0.5,0.2,1,0.5,1.4c0.5,0.6,0.6,0.9,0.5,1.5c-0.1,0.5-0.4,0.6-0.9,0.8C11,15.9,10.8,15.9,10.6,16L10.6,16z&#xA;&#x9; M21.8,0.5v1.3H5.6c-1.2,0-2.2,1-2.2,2.2c0,1.2,1,2.2,2.2,2.2h16.1V23H7.1c-2.7,0-4.9-2.2-4.9-4.9c0,0,0,0,0,0V3.9&#xA;&#x9;c0-1.9,1.5-3.4,3.4-3.4H21.8z M5.6,7.3c-0.8,0-1.6-0.3-2.2-0.8v11.5c0,2,1.6,3.6,3.6,3.6h0h13.4V7.3H5.6z M12.1,19.3&#xA;&#x9;c-3.1,0-4.5-0.3-4.7-1.7c-0.2-1.2,1.2-2.2,2.8-2.7c0.2-0.1,0.4-0.1,0.7-0.2c-0.1-0.1-0.2-0.2-0.3-0.3c-0.5-0.6-0.8-1.4-0.8-2.2&#xA;&#x9;c0-1.6,1.1-3,2.6-3l0.1,0c1.5,0.1,2.6,1.4,2.6,3c0,0.8-0.3,1.5-0.8,2.2c-0.1,0.2-0.2,0.3-0.3,0.3c0.3,0.1,0.5,0.1,0.7,0.2&#xA;&#x9;c1.6,0.5,3,1.5,2.8,2.7c-0.2,1.4-1.6,1.7-4.7,1.7C12.9,19.3,12.1,19.3,12.1,19.3z M5.1,4.4v-1h15.7v1H5.1z"/></svg>