<svg version="1.1" id="Vlt-icon-phone-garland" xmlns="http://www.w3.org/2000/svg" xmlns:xlink="http://www.w3.org/1999/xlink" x="0px" y="0px" viewBox="0 0 24 24" style="enable-background:new 0 0 24 24;" xml:space="preserve"><path d="M9.7,11.7l-0.5-0.8l0.6-0.7C9.9,10.1,9.9,10,10,9.8c0.1-0.2,0-0.5-0.4-1L9,7.7c0-0.1-0.1-0.1-0.1-0.1c0,0-0.1,0,0,0l0,0&#xA;&#x9;L8.3,7.8C8.1,7.9,7.9,8.1,7.7,8.4c-0.1,0.2-0.1,0.6,0,1c0.1,0.4,0.3,0.9,0.6,1.4c0.3,0.5,0.6,1,0.9,1.5c0.4,0.5,0.7,0.9,1,1.2&#xA;&#x9;c0.3,0.3,0.7,0.7,1.2,1c0.5,0.4,1,0.7,1.5,0.9c0.5,0.3,1,0.4,1.4,0.5c0.4,0.1,0.8,0.1,1,0c0.3-0.2,0.5-0.4,0.6-0.6l0.2-0.4l0,0&#xA;&#x9;c0,0,0-0.1,0-0.1c0,0,0-0.1-0.1-0.1l-0.1-0.1c-0.3-0.2-0.6-0.4-0.9-0.6c-0.5-0.3-0.8-0.4-1-0.4c-0.2,0.1-0.3,0.1-0.4,0.2l-0.7,0.6&#xA;&#x9;L12,14c-0.2-0.1-0.3-0.2-0.5-0.3c-0.4-0.3-0.6-0.5-0.8-0.7c-0.2-0.3-0.5-0.5-0.7-0.8C9.9,12,9.8,11.9,9.7,11.7L9.7,11.7z M22.4,6&#xA;&#x9;c0.2,0.3-0.6,3.4-0.6,3.4l1.9,1.8c0.4,0.4,0.5,1.2,0,1.6c0,0,0,0,0,0l-1.9,1.8l0.7,2.5c0.2,0.6-0.2,1.2-0.8,1.4c0,0,0,0,0,0&#xA;&#x9;l-2.5,0.6l-0.6,2.5c-0.2,0.6-0.8,1-1.4,0.8c0,0,0,0,0,0l-2.5-0.7l-1.8,1.9c-0.4,0.4-1.2,0.5-1.6,0c0,0,0,0,0,0l-1.8-1.9l-2.5,0.7&#xA;&#x9;c-0.6,0.2-1.2-0.2-1.4-0.8c0,0,0,0,0,0l-0.6-2.5l-2.5-0.6c-0.6-0.2-1-0.8-0.8-1.4c0,0,0,0,0,0l0.7-2.5l-1.9-1.8&#xA;&#x9;c-0.4-0.4-0.5-1.2,0-1.6c0,0,0,0,0,0l1.9-1.8L1.5,6.9C1.3,6.3,1.7,5.6,2.3,5.5c0,0,0,0,0,0l2.5-0.6l0.6-2.5c0.2-0.6,0.8-1,1.4-0.8&#xA;&#x9;c0,0,0,0,0,0l2.5,0.7l1.8-1.9c0.4-0.4,1.2-0.5,1.6,0c0,0,0,0,0,0l1.8,1.9l2.5-0.7c0.6-0.2,1.2,0.2,1.4,0.8c0,0,0,0,0,0l0.6,2.5&#xA;&#x9;l2.5,0.6C22,5.5,22.2,5.7,22.4,6z M18.1,5.9l-0.2-0.8l-0.6-2.3l-3.1,0.9l-0.6-0.6L12,1.5L9.8,3.7L9,3.5L6.7,2.9L5.9,5.9L5.2,6.1&#xA;&#x9;L2.9,6.7l0.9,3.1l-0.6,0.6L1.5,12l2.3,2.2L3.5,15l-0.6,2.3l3.1,0.8l0.2,0.8l0.6,2.3l3.1-0.9l0.6,0.6l1.7,1.7l2.2-2.3l0.8,0.2&#xA;&#x9;l2.3,0.6l0.8-3.1l0.8-0.2l2.3-0.6l-0.9-3.1l0.6-0.6l1.7-1.7l-2.2-2.2l0.2-0.7l0.1-0.4c0.1-0.4,0.2-0.8,0.3-1.3&#xA;&#x9;c0.1-0.3,0.1-0.5,0.1-0.7L18.1,5.9z M11,11.4c0.3,0.3,0.5,0.6,0.6,0.7c0.1,0.1,0.4,0.3,0.7,0.6c0.1,0.1,0.2,0.2,0.3,0.2&#xA;&#x9;c0.2-0.2,0.5-0.3,0.9-0.4c0.6-0.2,1.3,0,2.1,0.5c0.6,0.4,0.9,0.6,1,0.6c0.3,0.2,0.5,0.4,0.7,0.7c0.1,0.3,0.1,0.6,0.1,0.9l0,0.1&#xA;&#x9;l-0.2,0.5c-0.2,0.6-0.7,1-1.3,1.3c-0.5,0.2-1.2,0.3-1.8,0.1c-0.6-0.1-1.2-0.4-1.7-0.7c-0.6-0.3-1.1-0.6-1.6-1&#xA;&#x9;c-0.5-0.4-1-0.8-1.4-1.2c-0.4-0.4-0.8-0.8-1.2-1.4c-0.4-0.5-0.7-1.1-1-1.6c-0.3-0.5-0.5-1.1-0.7-1.7C6.3,9,6.3,8.4,6.5,7.8&#xA;&#x9;c0.3-0.6,0.7-1.1,1.3-1.3l0.5-0.2l0.1,0c0.3-0.1,0.6-0.1,0.9,0.1c0.3,0.1,0.5,0.4,0.7,0.6l0.6,1c0.5,0.8,0.7,1.5,0.5,2.1&#xA;&#x9;c-0.1,0.3-0.2,0.6-0.4,0.9C10.9,11.1,10.9,11.2,11,11.4L11,11.4z"/></svg>