<svg version="1.1" id="Vlt-icon-user-add" xmlns="http://www.w3.org/2000/svg" xmlns:xlink="http://www.w3.org/1999/xlink" x="0px" y="0px" viewBox="0 0 24 24" style="enable-background:new 0 0 24 24;" xml:space="preserve"><path d="M13.6,13.7c-0.8,0.6-1.7,1-2.6,1c-0.9,0-1.7-0.3-2.4-0.9c-0.8,0.6-1.7,1.1-2.6,1.5c-2.3,0.9-3.3,2.7-3.5,6.3c0,0,0,0,0,0.1&#xA;&#x9;c7.7,0,11.6,0,11.8,0c0.2,0,0.5,0.2,0.5,0.6S14.3,23,14.1,23h-12c-0.3,0-0.5-0.1-0.7-0.4C1.1,22.3,1,22,1,21.6&#xA;&#x9;c0.2-4.1,1.5-6.3,4.3-7.4c0.8-0.3,1.5-0.7,2.1-1.2c-0.6-0.7-1.1-1.5-1.5-2.4C5,9.9,4.5,8.3,4.9,7.3C5.1,7,5.3,6.8,5.5,6.6&#xA;&#x9;c0-0.6,0.1-1.5,0.3-2.3C6,3.8,6.3,3.2,6.9,2.6c1-1,2.3-1.6,4-1.6c1.7,0,3.1,0.6,4,1.6c0.6,0.6,0.9,1.3,1.1,1.8&#xA;&#x9;c0.2,0.8,0.3,1.7,0.3,2.3c0.1,0.1,0.3,0.2,0.4,0.4c0.7,1,0.2,2.8-0.9,3.7c-0.3,0.8-0.8,1.5-1.3,2.1l1.5,1.1c0.3,0.2,0.4,0.6,0.2,0.9&#xA;&#x9;c-0.2,0.3-0.6,0.4-0.9,0.2l-1.6-1.1C13.6,13.8,13.6,13.8,13.6,13.7L13.6,13.7z M22.8,18.5c0.4,0,0.7,0.3,0.7,0.7&#xA;&#x9;c0,0.4-0.3,0.7-0.7,0.7c0,0,0,0,0,0h-3.2V23c0,0.4-0.3,0.7-0.7,0.7c0,0,0,0,0,0c-0.4,0-0.7-0.3-0.7-0.7c0,0,0,0,0,0v-3.2H15&#xA;&#x9;c-0.4,0-0.7-0.3-0.7-0.7c0,0,0,0,0,0c0-0.4,0.3-0.7,0.7-0.7h3.2v-3.2c0-0.4,0.3-0.7,0.7-0.7c0.4,0,0.7,0.3,0.7,0.7v3.2L22.8,18.5&#xA;&#x9;L22.8,18.5z M6.2,7.8C6,8.2,6.2,9.5,7.1,9.7c0.3,0.8,1.8,3.8,3.8,3.8c2,0,3.6-2.9,3.8-3.7c0.9-0.2,1.1-1.7,0.9-2&#xA;&#x9;c-0.2-0.2-0.4-0.3-0.7-0.2l0-0.7c0,0,0.1-1.2-0.2-2.3c0-0.1-0.7-2.4-3.9-2.4c-3.1,0-3.8,2.3-3.9,2.4C6.8,5.8,6.8,6.9,6.8,6.9l0,0.6&#xA;&#x9;C6.5,7.5,6.3,7.6,6.2,7.8L6.2,7.8z"/></svg>