<svg version="1.1" id="Vlt-icon-refresh" xmlns="http://www.w3.org/2000/svg" xmlns:xlink="http://www.w3.org/1999/xlink" x="0px" y="0px" viewBox="0 0 26 24" style="enable-background:new 0 0 26 24;" xml:space="preserve"><path d="M7.2,9.6l-3.4,3L0.7,9.6c-0.3-0.3-0.3-0.7,0-1c0.3-0.3,0.7-0.3,1,0c0,0,0,0,0,0l1.4,1.4C3.9,5.1,8,1.5,13,1.5&#xA;&#x9;c4,0,7.6,2.4,9.2,6c0.2,0.4,0,0.8-0.4,0.9c-0.4,0.2-0.8,0-0.9-0.4c0,0,0,0,0,0C19.6,5,16.5,2.9,13,2.9c-4.3,0-7.9,3.2-8.6,7.3&#xA;&#x9;l1.9-1.7c0.3-0.3,0.7-0.2,1,0c0,0,0,0,0,0C7.5,8.9,7.5,9.3,7.2,9.6L7.2,9.6z M25.3,14.1c0.3,0.3,0.3,0.7,0,1c-0.3,0.3-0.7,0.3-1,0&#xA;&#x9;c0,0,0,0,0,0l-1.4-1.4c-0.8,4.8-5,8.4-9.9,8.4c-4,0-7.6-2.4-9.2-6c-0.2-0.4,0-0.8,0.4-0.9c0.3-0.2,0.8,0,0.9,0.4&#xA;&#x9;c1.4,3.1,4.5,5.2,7.9,5.2c4.3,0,7.9-3.2,8.6-7.3l-1.9,1.7c-0.3,0.3-0.7,0.2-1,0c0,0,0,0,0,0c-0.3-0.3-0.2-0.7,0.1-1l3.4-3.1&#xA;&#x9;L25.3,14.1L25.3,14.1z"/></svg>