<svg version="1.1" id="Vlt-icon-call-pause" xmlns="http://www.w3.org/2000/svg" xmlns:xlink="http://www.w3.org/1999/xlink" x="0px" y="0px" viewBox="0 0 24 24" style="enable-background:new 0 0 24 24;" xml:space="preserve"><path id="path-1_1_" d="M2.7,4.7C2.4,5.4,2.3,6.2,2.6,7.2s0.6,2,1.2,3.1s1.2,2.1,2,3.2s1.5,1.9,2.2,2.6c0.7,0.7,1.6,1.5,2.6,2.2&#xA;&#x9;c1,0.8,2.1,1.4,3.1,2s2.1,1,3.1,1.2s1.8,0.2,2.5-0.1c0.8-0.4,1.3-0.9,1.6-1.6l0.4-1c0.1-0.2,0-0.4,0-0.6c-0.1-0.2-0.3-0.4-0.5-0.5&#xA;&#x9;c-0.2-0.2-0.9-0.6-2.1-1.4c-1.1-0.7-2-1-2.7-0.8c-0.6,0.2-1.1,0.5-1.2,0.8c-0.1,0.3-0.6,0.4-1.1,0.3c-0.6-0.1-1.2-0.5-1.9-1.1&#xA;&#x9;s-1.3-1.1-1.6-1.4c-0.3-0.3-0.8-0.9-1.4-1.6c-0.6-0.7-1-1.4-1.1-1.9c-0.1-0.6,0-1,0.3-1.1c0.3-0.2,0.6-0.6,0.8-1.3&#xA;&#x9;C9,7.6,8.7,6.7,8,5.5S6.5,3.6,6.4,3.3C6.2,3.1,6,2.9,5.9,2.8c-0.2-0.1-0.4-0.1-0.6,0l-1,0.4C3.6,3.4,3.1,3.9,2.7,4.7z M9.5,11.6&#xA;&#x9;c0.6,0.7,1,1.2,1.3,1.5s0.8,0.8,1.5,1.3c0.6,0.5,1,0.7,1.3,0.8c0.4-0.5,1-0.8,1.8-1.1c1.1-0.3,2.3,0.1,3.7,1&#xA;&#x9;c1.1,0.7,1.8,1.2,2.1,1.4c0.5,0.3,0.8,0.7,1,1.1c0.2,0.5,0.2,1,0.1,1.5v0.1l-0.4,1c-0.4,1-1.1,1.8-2.2,2.3c-1,0.4-2.1,0.5-3.3,0.2&#xA;&#x9;c-1.1-0.3-2.2-0.7-3.4-1.3c-1.1-0.6-2.2-1.3-3.3-2.1c-1.1-0.8-2-1.6-2.7-2.3c-0.8-0.8-1.5-1.7-2.3-2.8S3.2,12,2.6,10.9&#xA;&#x9;s-1-2.3-1.3-3.4C1,6.3,1.1,5.1,1.5,4.2C2,3.1,2.8,2.3,3.8,1.9l1-0.4h0.1c0.5-0.1,1-0.1,1.4,0.1c0.5,0.2,0.8,0.6,1.1,1&#xA;&#x9;c0.2,0.3,0.6,1,1.3,2.1c0.9,1.4,1.3,2.7,1,3.8c-0.2,0.8-0.5,1.4-1,1.8C8.8,10.6,9.1,11.1,9.5,11.6z M12.6,10.4&#xA;&#x9;c-0.4,0-0.7-0.3-0.7-0.6V2.1c0-0.4,0.3-0.6,0.7-0.6h3.3c0.4,0,0.6,0.3,0.6,0.6v7.7c0,0.4-0.3,0.6-0.6,0.6H12.6z M15.2,9.1V2.7h-2&#xA;&#x9;v6.4H15.2z M18.6,10.4c-0.4,0-0.6-0.3-0.6-0.6V2.1c0-0.4,0.3-0.6,0.6-0.6h3.3c0.4,0,0.6,0.3,0.6,0.6v7.7c0,0.4-0.3,0.6-0.6,0.6H18.6&#xA;&#x9;z M21.2,9.1V2.7h-2v6.4H21.2z"/></svg>