<svg version="1.1" id="Vlt-icon-filter" xmlns="http://www.w3.org/2000/svg" xmlns:xlink="http://www.w3.org/1999/xlink" x="0px" y="0px" viewBox="0 0 24 24" style="enable-background:new 0 0 24 24;" xml:space="preserve"><path id="path-1" d="M14.1,17.3V11c0-0.2,0.1-0.3,0.2-0.5l7.1-6.8c0.1-0.1,0.1-0.2,0.1-0.3c0-0.2-0.2-0.4-0.4-0.4H4&#xA;&#x9;C3.9,3,3.8,3,3.7,3.1s-0.1,0.4,0,0.5l6.9,6.8c0.1,0.1,0.2,0.3,0.2,0.5v9.5L14.1,17.3z M15.4,11.3v6.2c0,0.2-0.1,0.3-0.2,0.5&#xA;&#x9;l-4.6,4.6c-0.4,0.4-1.1,0.1-1.1-0.5V11.3L2.8,4.7C2.1,4,2.1,2.9,2.8,2.3C3.1,2,3.5,1.8,4,1.8h17.1c0.9,0,1.7,0.7,1.7,1.7&#xA;&#x9;c0,0.5-0.2,0.9-0.5,1.2L15.4,11.3z"/></svg>