<svg version="1.1" id="Vlt-icon-video" xmlns="http://www.w3.org/2000/svg" xmlns:xlink="http://www.w3.org/1999/xlink" x="0px" y="0px" viewBox="0 0 24 24" style="enable-background:new 0 0 24 24;" xml:space="preserve"><path id="path-1_1_" d="M19.3,10.5c-0.2,0.3-0.7,0.3-0.9,0c-0.3-0.3-0.3-0.7,0-0.9l3.2-3.4c0.2-0.3,0.6-0.4,1-0.4h0.1&#xA;&#x9;c0.7,0,1.3,0.6,1.3,1.3v8.8c0,0.7-0.6,1.3-1.3,1.3h-0.1c-0.4,0-0.7-0.1-0.9-0.4l-3.3-3.4c-0.2-0.3-0.2-0.7,0-0.9&#xA;&#x9;c0.3-0.3,0.7-0.3,0.9,0l3.3,3.4c0,0,0,0,0.1,0c0,0,0-2.9,0-8.8c0,0,0,0-0.1,0L19.3,10.5z M3.4,3.8H14c1.9,0,3.4,1.5,3.4,3.4v8.6&#xA;&#x9;c0,1.9-1.5,3.4-3.4,3.4H3.4c-1.9,0-3.4-1.5-3.4-3.4V7.2C0,5.3,1.5,3.8,3.4,3.8z M3.4,5C2.2,5,1.3,5.9,1.3,7.1v8.6&#xA;&#x9;c0,1.2,0.9,2.1,2.1,2.1H14c1.2,0,2.1-0.9,2.1-2.1V7.2c0-1.2-0.9-2.1-2.1-2.1L3.4,5L3.4,5z"/></svg>