<svg version="1.1" id="Vlt-icon-microphone" xmlns="http://www.w3.org/2000/svg" xmlns:xlink="http://www.w3.org/1999/xlink" x="0px" y="0px" viewBox="0 0 24 24" style="enable-background:new 0 0 24 24;" xml:space="preserve"><path d="M12,16.2c-2.5,0-4.5-2-4.5-4.5V5c0-2.5,2-4.5,4.5-4.5c2.5,0,4.5,2,4.5,4.5v6.7C16.5,14.2,14.5,16.2,12,16.2z M8.7,5v6.7&#xA;&#x9;c0,1.8,1.5,3.2,3.3,3.2c1.8,0,3.3-1.4,3.3-3.2V5c0-1.8-1.5-3.2-3.3-3.2C10.2,1.8,8.7,3.2,8.7,5z M19.7,14.2c0.3,0.2,0.3,0.6,0.1,0.9&#xA;&#x9;c0,0,0,0,0,0c-1.7,2.3-4.3,3.7-7.2,3.8v3.3h2.2c0.4,0,0.6,0.3,0.6,0.6c0,0.4-0.3,0.6-0.6,0.6c0,0,0,0,0,0H9.2&#xA;&#x9;c-0.3,0-0.6-0.3-0.6-0.6c0-0.4,0.3-0.6,0.6-0.6h2.2V19c-2.9-0.2-5.6-1.6-7.2-3.8c-0.2-0.3-0.1-0.7,0.1-0.9c0,0,0,0,0,0&#xA;&#x9;c0.3-0.2,0.7-0.1,0.9,0.1c1.6,2.1,4.1,3.4,6.9,3.4s5.3-1.3,6.9-3.4C19.1,14.1,19.5,14,19.7,14.2L19.7,14.2z"/></svg>