<svg version="1.1" id="Vlt-icon-modal" xmlns="http://www.w3.org/2000/svg" xmlns:xlink="http://www.w3.org/1999/xlink" x="0px" y="0px" viewBox="0 0 24 24" style="enable-background:new 0 0 24 24;" xml:space="preserve"><path d="M2.1,6v15.6c0,0.2,0.2,0.4,0.4,0.4h19.1c0.2,0,0.4-0.2,0.4-0.4V6L2.1,6L2.1,6z M2.1,4.7H22V2.4c0-0.2-0.2-0.4-0.4-0.4H2.5&#xA;&#x9;C2.3,2.1,2.1,2.2,2.1,2.4V4.7z M17.7,10.6l0.6,0.6L17.4,12l-0.6-0.6L16.2,12l-0.9-0.9l0.6-0.6L15.4,10l0.9-0.9l0.6,0.6l0.6-0.6&#xA;&#x9;l0.9,0.9C18.2,10,17.7,10.6,17.7,10.6z M21.6,23.1H2.5c-0.9,0-1.5-0.7-1.5-1.5V2.4c0-0.9,0.7-1.6,1.5-1.6h19.1&#xA;&#x9;c0.9,0,1.5,0.7,1.5,1.6v19.1C23.1,22.4,22.5,23.1,21.6,23.1L21.6,23.1z M20.3,7v13.7H3.7V7H20.3L20.3,7z M4.9,8.4v11.2H19V8.4&#xA;&#x9;L4.9,8.4L4.9,8.4z M3.4,4.2c-0.5,0-0.9-0.4-0.9-0.9c0,0,0,0,0,0c0-0.5,0.4-0.9,0.9-0.9c0.5,0,0.9,0.4,0.9,0.9&#xA;&#x9;C4.3,3.9,3.9,4.2,3.4,4.2C3.4,4.2,3.4,4.2,3.4,4.2z M3.4,3C3.2,3,3,3.2,3,3.4c0,0.2,0.2,0.4,0.4,0.4c0.2,0,0.4-0.2,0.4-0.4&#xA;&#x9;C3.8,3.2,3.6,3,3.4,3L3.4,3z M5.3,4.2c-0.5,0-0.9-0.4-0.9-0.9c0,0,0,0,0,0c0-0.5,0.4-0.9,0.9-0.9s0.9,0.4,0.9,0.9&#xA;&#x9;C6.2,3.9,5.8,4.2,5.3,4.2C5.3,4.2,5.3,4.2,5.3,4.2L5.3,4.2z M5.3,3C5.1,3,5,3.2,4.9,3.4c0,0.2,0.2,0.4,0.4,0.4&#xA;&#x9;c0.2,0,0.4-0.2,0.4-0.4C5.7,3.2,5.5,3,5.3,3z M7.2,4.2c-0.5,0-0.9-0.4-0.9-0.9c0,0,0,0,0,0c0-0.5,0.4-0.9,0.9-0.9&#xA;&#x9;c0.5,0,0.9,0.4,0.9,0.9C8.1,3.9,7.7,4.2,7.2,4.2C7.2,4.2,7.2,4.2,7.2,4.2z M7.2,3C7,3,6.9,3.2,6.9,3.4c0,0.2,0.2,0.4,0.4,0.4&#xA;&#x9;c0.2,0,0.4-0.2,0.4-0.4C7.6,3.2,7.4,3,7.2,3z"/></svg>