<svg version="1.1" id="Vlt-icon-quit" xmlns="http://www.w3.org/2000/svg" xmlns:xlink="http://www.w3.org/1999/xlink" x="0px" y="0px" viewBox="0 0 24 24" style="enable-background:new 0 0 24 24;" xml:space="preserve"><path d="M12,23C6.2,23,1.5,18.2,1.5,12.4c0-3.7,2-7.2,5.1-9.1C7,3.1,7.5,3.2,7.7,3.6c0,0,0,0,0,0c0.2,0.4,0.1,0.8-0.3,1.1&#xA;&#x9;C4.7,6.3,3,9.2,3,12.4c0,5,4,9,9,9c4.9,0,9-4.1,9-9c0-3.2-1.7-6.2-4.4-7.8c-0.4-0.2-0.5-0.7-0.3-1.1c0.2-0.4,0.7-0.5,1-0.3&#xA;&#x9;c0,0,0,0,0,0c3.2,1.9,5.2,5.4,5.2,9.1C22.5,18.2,17.8,23,12,23z M12,12.8c-0.4,0-0.8-0.3-0.8-0.8V1.8C11.2,1.3,11.6,1,12,1&#xA;&#x9;c0.4,0,0.8,0.3,0.8,0.8V12C12.8,12.4,12.4,12.8,12,12.8z"/></svg>