<svg version="1.1" id="Vlt-icon-packet" xmlns="http://www.w3.org/2000/svg" xmlns:xlink="http://www.w3.org/1999/xlink" x="0px" y="0px" viewBox="0 0 24 24" style="enable-background:new 0 0 24 24;" xml:space="preserve"><path d="M22.5,5.9c0-0.1,0-0.2-0.1-0.3c-0.1-0.2-0.2-0.3-0.4-0.3l-9.8-4.8c-0.2-0.1-0.3-0.1-0.5,0L1.8,5.4C1.6,5.5,1.5,5.7,1.5,5.9&#xA;&#x9;v12.2c0,0.2,0.1,0.4,0.3,0.5l9.9,4.9c0,0,0,0,0,0c0,0,0,0,0,0c0,0,0,0,0,0l0,0c0,0,0,0,0,0c0,0,0,0,0,0h0c0,0,0,0,0.1,0&#xA;&#x9;c0,0,0,0,0.1,0h0c0,0,0,0,0,0c0,0,0,0,0,0l0,0c0,0,0,0,0,0c0,0,0,0,0,0c0,0,0,0,0,0l9.9-4.9c0.2-0.1,0.3-0.3,0.3-0.5L22.5,5.9&#xA;&#x9;C22.5,6,22.5,5.9,22.5,5.9L22.5,5.9z M12,1.7L20.6,6l-3.2,1.6L8.8,3.3L12,1.7L12,1.7z M12,10.2L3.4,6l4.1-2l8.6,4.2L12,10.2L12,10.2&#xA;&#x9;z M2.7,6.9l8.7,4.3v10.9l-8.7-4.3C2.7,17.8,2.7,6.9,2.7,6.9z M12.6,22.1V11.2l4.1-2V12c0,0.3,0.3,0.6,0.6,0.6c0.3,0,0.6-0.3,0.6-0.6&#xA;&#x9;V8.6l3.5-1.7v10.9L12.6,22.1L12.6,22.1z"/></svg>