<svg version="1.1" id="Vlt-icon-volume-off" xmlns="http://www.w3.org/2000/svg" xmlns:xlink="http://www.w3.org/1999/xlink" x="0px" y="0px" viewBox="0 0 24 24" style="enable-background:new 0 0 24 24;" xml:space="preserve"><path d="M13.6,5.2v14.1c0,0.9-1.1,1.5-1.8,0.9l-5.5-3.7c-0.6-0.4-1.3-0.6-2-0.6H2.7c-0.9,0-1.7-0.7-1.7-1.6v-4&#xA;&#x9;c0-0.9,0.8-1.6,1.7-1.6h1.6c0.7,0,1.4-0.2,2-0.6l5.5-3.7C12.5,3.7,13.6,4.2,13.6,5.2z M7,9C6.2,9.6,5.2,9.8,4.3,9.8H2.7&#xA;&#x9;c-0.2,0-0.4,0.2-0.4,0.4v4c0,0.2,0.2,0.4,0.4,0.4h1.6c1,0,1.9,0.3,2.7,0.8l5.3,3.6V5.4C12.3,5.4,7,9,7,9z M18.5,12l1.7,1.7&#xA;&#x9;c0.2,0.3,0.2,0.7,0,0.9c-0.3,0.2-0.6,0.2-0.9,0l-1.7-1.7l-1.7,1.7c-0.3,0.3-0.7,0.3-0.9,0s-0.3-0.7,0-0.9l1.7-1.7L15,10.3&#xA;&#x9;c-0.3-0.3-0.3-0.7,0-0.9s0.7-0.3,0.9,0l1.7,1.7l1.7-1.7c0.3-0.3,0.7-0.3,0.9,0s0.3,0.7,0,0.9C20.3,10.3,18.5,12,18.5,12z"/></svg>