<svg version="1.1" id="Vlt-icon-file-plus" xmlns="http://www.w3.org/2000/svg" xmlns:xlink="http://www.w3.org/1999/xlink" x="0px" y="0px" viewBox="0 0 24 24" style="enable-background:new 0 0 24 24;" xml:space="preserve"><path id="path-1_1_" d="M9.2,9.3h2.3v1.3H9.2v2.3H7.9v-2.3H5.6V9.3h2.3V6.9h1.3V9.3z M14.2,1.6H3.9V1.5C3.7,1.5,3.5,1.8,3.5,2v20&#xA;&#x9;c0,0.2,0.2,0.3,0.4,0.3h16c0.2,0,0.3-0.2,0.3-0.3V7.6h-6C14.2,7.6,14.2,1.6,14.2,1.6z M15.6,2.7v3.7h3.7L15.6,2.7z M20,23.6H4&#xA;&#x9;c-1,0-1.7-0.6-1.7-1.6V2c0-1,0.7-1.7,1.6-1.7h11.3l6.4,6.4V22C21.6,22.9,20.9,23.6,20,23.6z"/></svg>