<svg version="1.1" id="Vlt-icon-squares" xmlns="http://www.w3.org/2000/svg" xmlns:xlink="http://www.w3.org/1999/xlink" x="0px" y="0px" viewBox="0 0 24 24" style="enable-background:new 0 0 24 24;" xml:space="preserve"><path id="path-1_1_" class="st0" d="M3,2.3C2.6,2.3,2.3,2.6,2.3,3v6.2c0,0.4,0.3,0.7,0.7,0.7h6.2c0.4,0,0.7-0.3,0.7-0.7V3&#xA;&#x9;&#x9;&#x9;&#x9;&#x9;c0-0.4-0.3-0.7-0.7-0.7H3z M3,1h6.2c1.1,0,2,0.9,2,2v6.2c0,1.1-0.9,2-2,2H3c-1.1,0-2-0.9-2-2V3C1,1.9,1.9,1,3,1z M3,14.1&#xA;&#x9;&#x9;&#x9;&#x9;&#x9;c-0.4,0-0.7,0.3-0.7,0.7V21c0,0.4,0.3,0.7,0.7,0.7h6.2c0.4,0,0.7-0.3,0.7-0.7v-6.2c0-0.4-0.3-0.7-0.7-0.7H3z M3,12.8h6.2&#xA;&#x9;&#x9;&#x9;&#x9;&#x9;c1.1,0,2,0.9,2,2V21c0,1.1-0.9,2-2,2H3c-1.1,0-2-0.9-2-2v-6.2C1,13.7,1.9,12.8,3,12.8z M14.8,2.3c-0.4,0-0.7,0.3-0.7,0.7v6.2&#xA;&#x9;&#x9;&#x9;&#x9;&#x9;c0,0.4,0.3,0.7,0.7,0.7H21c0.4,0,0.7-0.3,0.7-0.7V3c0-0.4-0.3-0.7-0.7-0.7H14.8z M14.8,1H21c1.1,0,2,0.9,2,2v6.2&#xA;&#x9;&#x9;&#x9;&#x9;&#x9;c0,1.1-0.9,2-2,2h-6.2c-1.1,0-2-0.9-2-2V3C12.8,1.9,13.7,1,14.8,1z M14.8,14.1c-0.4,0-0.7,0.3-0.7,0.7V21c0,0.4,0.3,0.7,0.7,0.7&#xA;&#x9;&#x9;&#x9;&#x9;&#x9;H21c0.4,0,0.7-0.3,0.7-0.7v-6.2c0-0.4-0.3-0.7-0.7-0.7H14.8z M14.8,12.8H21c1.1,0,2,0.9,2,2V21c0,1.1-0.9,2-2,2h-6.2&#xA;&#x9;&#x9;&#x9;&#x9;&#x9;c-1.1,0-2-0.9-2-2v-6.2C12.8,13.7,13.7,12.8,14.8,12.8z"/></svg>