<svg version="1.1" id="Vlt-icon-cart-full" xmlns="http://www.w3.org/2000/svg" xmlns:xlink="http://www.w3.org/1999/xlink" x="0px" y="0px" viewBox="0 0 24 24" style="enable-background:new 0 0 24 24;" xml:space="preserve"><path d="M18.7,17.1H8.4c-0.7,0-1.3-0.5-1.6-1.1L2.6,2.2H0.5V1h3L8,15.6c0.1,0.2,0.2,0.3,0.4,0.3h10.2c0.2,0,0.4-0.1,0.4-0.3l1.3-5.3&#xA;&#x9;H7.5V9H8V7.7c0-0.6,0.4-1,1-1h0.2V4.2C9.2,3.5,9.7,3,10.3,3h2.6c0.4,0,0.8,0.3,1,0.6l2.5-1c0.8-0.3,1.7,0,2.1,0.7l2.1,3.8&#xA;&#x9;c0.3,0.6,0.2,1.3-0.2,1.8h0.4l0.2-0.9l1.2,0.3l-1.9,7.4C20,16.5,19.4,17.1,18.7,17.1z M9.2,7.9V9h3.2l-0.6-1.1H9.2z M10.4,4.2v2.5&#xA;&#x9;h0.8l0,0c-0.4-0.8-0.1-1.8,0.7-2.2c0,0,0.1,0,0.1,0l0.4-0.2H10.4z M16.8,3.8l-4.3,1.8c-0.2,0.1-0.3,0.3-0.2,0.6c0,0,0,0,0,0L13.7,9&#xA;&#x9;h4l0-0.1l1.5-0.6c0.2-0.1,0.3-0.3,0.2-0.6c0,0,0,0,0,0l-2.1-3.8C17.2,3.8,17,3.7,16.8,3.8z M10.2,17.9c1.5,0,2.6,1.2,2.6,2.6&#xA;&#x9;s-1.2,2.6-2.6,2.6S7.6,22,7.6,20.6S8.8,17.9,10.2,17.9z M10.2,22c0.8,0,1.4-0.6,1.4-1.4c0-0.8-0.6-1.4-1.4-1.4l0,0&#xA;&#x9;c-0.8,0-1.4,0.6-1.4,1.4C8.8,21.4,9.4,22,10.2,22z M17.9,17.9c1.5,0,2.6,1.2,2.6,2.7c0,1.5-1.2,2.6-2.7,2.6s-2.6-1.2-2.6-2.7&#xA;&#x9;C15.3,19.1,16.5,17.9,17.9,17.9z M17.9,22c0.8,0,1.4-0.6,1.4-1.4s-0.6-1.4-1.4-1.4s-1.4,0.6-1.4,1.4S17.1,22,17.9,22z"/></svg>