<svg version="1.1" id="Vlt-icon-emoji" xmlns="http://www.w3.org/2000/svg" xmlns:xlink="http://www.w3.org/1999/xlink" x="0px" y="0px" viewBox="0 0 24 24" style="enable-background:new 0 0 24 24;" xml:space="preserve"><path d="M12,21c5,0,9-4,9-9c0-5-4-9-9-9c0,0,0,0,0,0c-5,0-9,4-9,9C3,17,7,21,12,21z M12,22.4C6.3,22.4,1.6,17.7,1.6,12&#xA;&#x9;C1.6,6.3,6.3,1.6,12,1.6S22.4,6.3,22.4,12S17.7,22.4,12,22.4z M9.1,11c0.7,0,1.2-0.7,1.2-1.6S9.8,7.9,9.1,7.9&#xA;&#x9;c-0.7,0-1.2,0.7-1.2,1.6C7.9,10.3,8.4,11,9.1,11z M14.9,11c0.7,0,1.2-0.7,1.2-1.6s-0.5-1.6-1.2-1.6c-0.7,0-1.2,0.7-1.2,1.6&#xA;&#x9;C13.7,10.3,14.2,11,14.9,11z M7.6,14.9c-0.1-0.2-0.2-0.4-0.3-0.6c1.4,0.4,2.9,0.6,4.7,0.6c1.8,0,3.4-0.2,4.7-0.6&#xA;&#x9;c-0.1,0.2-0.2,0.4-0.3,0.6c-1,1.8-2.4,2.8-4.4,2.8C10,17.8,8.6,16.7,7.6,14.9z M12.1,19.1c6,0,6.7-7,6.8-7.1c0,0-2.1,1.5-6.8,1.5&#xA;&#x9;c-4.6,0-6.8-1.6-6.8-1.6S6.1,19.1,12.1,19.1z"/></svg>