<svg version="1.1" id="Vlt-icon-megaphone" xmlns="http://www.w3.org/2000/svg" xmlns:xlink="http://www.w3.org/1999/xlink" x="0px" y="0px" viewBox="0 0 24 24" style="enable-background:new 0 0 24 24;" xml:space="preserve"><path d="M21.8,19.7c0,0.4-0.3,0.7-0.7,0.7c-0.4,0-0.7-0.3-0.7-0.7V3.9c0-0.4,0.3-0.7,0.7-0.7h0c0.4,0,0.7,0.3,0.7,0.7V19.7z M4.1,13&#xA;&#x9;v-2.3l15.1-4.8v11.8L4.1,13L4.1,13z M2.8,13.9c0,0.2-0.1,0.3-0.3,0.3c-0.2,0-0.3-0.1-0.3-0.3V9.7c0-0.2,0.1-0.3,0.3-0.3&#xA;&#x9;s0.3,0.1,0.3,0.3V13.9L2.8,13.9z M12.2,17.4c-0.1,0.2-0.2,0.3-0.4,0.2l-5.6-1.8c-0.1,0-0.1-0.1-0.2-0.2c0-0.1,0-0.2,0-0.2&#xA;&#x9;c0.1-0.2,0.2-0.3,0.4-0.2L12,17c0.1,0,0.1,0.1,0.2,0.2C12.2,17.3,12.2,17.3,12.2,17.4L12.2,17.4z M21.1,2L21.1,2&#xA;&#x9;c-1.1,0-1.9,0.9-1.9,1.9v0.7L4,9.3C3.9,8.6,3.2,8.1,2.5,8.1C1.7,8.1,1,8.8,1,9.7v4.3c0,0.8,0.7,1.5,1.5,1.5c0.7,0,1.3-0.5,1.5-1.2&#xA;&#x9;l1.1,0.3c-0.1,0.1-0.2,0.3-0.3,0.5c-0.3,0.8,0.2,1.7,1,1.9l5.6,1.8c0.8,0.3,1.7-0.2,2-1c0.1-0.2,0.1-0.4,0.1-0.6l5.7,1.8v0.7&#xA;&#x9;c0,1,0.9,1.9,1.9,1.9h0c1.1,0,1.9-0.9,1.9-1.9V3.9C23,2.9,22.1,2,21.1,2z"/></svg>