<svg version="1.1" id="Vlt-icon-github" xmlns="http://www.w3.org/2000/svg" xmlns:xlink="http://www.w3.org/1999/xlink" x="0px" y="0px" viewBox="0 0 24 24" style="enable-background:new 0 0 24 24;" xml:space="preserve"><title>Vlt-icon-github</title><desc>Created with Sketch.</desc><g id="Symbols"><g id="Icons_x2F_Vlt-icon-github"><path id="Shape" d="M12.1,2.1C6.5,2.1,1.9,6.7,1.9,12.3c0,4.5,2.9,8.4,7,9.7c0.5,0.1,0.7-0.2,0.7-0.5c0-0.2,0-1.1,0-1.9&#xA;&#x9;&#x9;&#x9;c-2.8,0.6-3.4-1.2-3.4-1.2C5.7,17.3,5,17,5,17c-0.9-0.6,0.1-0.6,0.1-0.6c1,0.1,1.6,1.1,1.6,1.1c0.9,1.6,2.4,1.1,3,0.8&#xA;&#x9;&#x9;&#x9;c0.1-0.7,0.4-1.1,0.6-1.4c-2.3-0.3-4.7-1.1-4.7-5.1c0-1.1,0.4-2,1.1-2.7C6.6,8.8,6.2,7.8,6.8,6.3c0,0,0.9-0.3,2.8,1&#xA;&#x9;&#x9;&#x9;C10.4,7.1,11.3,7,12.2,7c0.9,0,1.7,0.1,2.6,0.3c2-1.3,2.8-1,2.8-1c0.6,1.4,0.2,2.5,0.1,2.7c0.7,0.7,1.1,1.6,1.1,2.7&#xA;&#x9;&#x9;&#x9;c0,3.9-2.4,4.8-4.7,5.1c0.4,0.3,0.7,0.9,0.7,1.9c0,1.4,0,2.5,0,2.8s0.2,0.6,0.7,0.5c4.1-1.4,7-5.2,7-9.7&#xA;&#x9;&#x9;&#x9;C22.4,6.7,17.8,2.1,12.1,2.1z"/></g></g></svg>