<svg version="1.1" id="Vlt-icon-hearing" xmlns="http://www.w3.org/2000/svg" xmlns:xlink="http://www.w3.org/1999/xlink" x="0px" y="0px" viewBox="0 0 24 24" style="enable-background:new 0 0 24 24;" xml:space="preserve"><path d="M8.4,2.2c1.4,0.3,2.4,1.1,3,2.1c1.3,2.5,0.1,6.1-0.7,8.2l-0.2,0.5c-0.3,1-1,1.7-1.7,2.4c-0.7,0.7-1.4,1.4-1.6,2.4&#xA;&#x9;c-0.4,1.7-1.5,2.2-2.1,2.3c-0.2,0.1-0.5,0.1-0.7,0.1c-0.8,0-1.7-0.3-2-0.8c-0.5-0.6-0.7-1.2-0.8-1.6c0-0.1,0-0.1-0.1-0.2&#xA;&#x9;c-0.3-0.2-0.4-0.6-0.3-0.9c0.1-0.2,0.3-0.3,0.5-0.3c0.7-0.1,0.9,0.6,1.1,1c0.1,0.4,0.2,0.8,0.5,1.1c0.2,0.2,0.9,0.5,1.5,0.3&#xA;&#x9;c0.6-0.1,0.9-0.6,1.1-1.4c0.3-1.3,1.2-2.2,2-3c0.6-0.6,1.2-1.2,1.4-1.9l0.2-0.5c0.7-2,1.8-5.3,0.7-7.2C9.8,4.2,9.1,3.7,8.1,3.5&#xA;&#x9;C3.6,2.3,2.3,7.1,2.3,7.3C2.2,7.7,1.8,7.9,1.5,7.8c0,0,0,0,0,0C1.1,7.7,0.9,7.3,1,7c0,0,0,0,0,0C1.6,4.8,3.8,1.1,8.4,2.2L8.4,2.2z&#xA;&#x9; M3.4,13.6c0,0,1.2-0.4,2.4-2.9C6,10.2,6.2,9.5,5.9,9.1C5.7,8.8,5.1,8.6,4.8,8.6c-0.2,0.7-0.3,1.4-0.5,2.1c0,0.4-0.4,0.6-0.7,0.6&#xA;&#x9;S3,10.8,3,10.5c0,0,0,0,0-0.1c0.8-5.2,2.7-5.8,4.4-5.6C9.1,5,9.6,6.3,9.5,7.2c0,0.4-0.3,0.6-0.7,0.6c-0.4,0-0.6-0.3-0.6-0.7&#xA;&#x9;c0-0.3-0.1-0.9-0.9-1C6.7,6.1,5.9,6,5.2,7.3C5.8,7.5,6.6,7.7,7,8.4c0.5,0.7,0.4,1.6-0.1,2.7c-1.5,3.2-3.1,3.6-3.3,3.7&#xA;&#x9;c-0.3,0.1-0.7-0.2-0.8-0.5c0,0,0,0,0,0C2.8,14,3,13.6,3.4,13.6L3.4,13.6z M15.1,7.4c0.6,1.3,0.7,2.8,0.4,4.3c-0.3,1.5-1,2.8-2,3.7&#xA;&#x9;c-0.3,0.3-0.7,0.2-0.9,0c0,0,0,0,0,0c-0.2-0.3-0.2-0.7,0-0.9c0.8-0.7,1.3-1.8,1.6-3c0.3-1.3,0.2-2.5-0.3-3.5c-0.1-0.3,0-0.7,0.3-0.9&#xA;&#x9;C14.6,7,15,7.1,15.1,7.4C15.1,7.4,15.1,7.4,15.1,7.4z M18.1,5.4c1,2.3,1.3,4.8,0.8,7.2c-0.5,2.4-1.7,4.5-3.5,6.2&#xA;&#x9;c-0.3,0.2-0.7,0.2-0.9,0c0,0,0,0,0,0c-0.2-0.3-0.2-0.7,0-0.9c0,0,0,0,0,0c1.6-1.5,2.7-3.4,3.1-5.5c0.5-2.1,0.2-4.4-0.7-6.4&#xA;&#x9;c-0.2-0.3,0-0.7,0.3-0.9S17.9,5,18.1,5.4C18,5.4,18.1,5.4,18.1,5.4z M21.3,3.5c1.3,3.1,1.6,6.5,0.9,9.8c-0.7,3.3-2.4,6.3-4.8,8.6&#xA;&#x9;c-0.3,0.2-0.7,0.2-0.9,0c0,0,0,0,0,0c-0.2-0.3-0.2-0.7,0-0.9c0,0,0,0,0,0c2.2-2.1,3.8-4.9,4.4-7.9c0.6-3,0.4-6.2-0.8-9.1&#xA;&#x9;c-0.1-0.3,0-0.7,0.4-0.8c0,0,0,0,0,0C20.8,3,21.2,3.2,21.3,3.5C21.3,3.5,21.3,3.5,21.3,3.5z"/></svg>