<svg version="1.1" id="Vlt-icon-pin" xmlns="http://www.w3.org/2000/svg" xmlns:xlink="http://www.w3.org/1999/xlink" x="0px" y="0px" viewBox="0 0 24 24" style="enable-background:new 0 0 24 24;" xml:space="preserve"><path d="M12.8,21.3c1-0.9,2-1.9,2.9-2.9c2.7-3.1,4.1-5.9,4.1-8.4c0-4.3-3.4-7.7-7.7-7.7c-4.3,0-7.7,3.4-7.7,7.7c0,0,0,0,0,0&#xA;&#x9;c0,2.5,1.4,5.4,4.1,8.4c1.1,1.3,2.3,2.5,3.6,3.5C12.3,21.8,12.5,21.5,12.8,21.3z M21,10c0,3-1.6,6.1-4.4,9.3&#xA;&#x9;c-1.2,1.4-2.5,2.7-3.9,3.8c-0.2,0.1-0.3,0.2-0.4,0.3L12,23.6l-0.3-0.2c-0.1-0.1-0.2-0.2-0.4-0.3c-1.4-1.2-2.7-2.4-3.9-3.8&#xA;&#x9;C4.6,16.2,3,13,3,10c0-5,4-9,9-9S21,5,21,10z M12,12.7c-1.5,0-2.7-1.2-2.7-2.7c0-1.5,1.2-2.7,2.7-2.7c0,0,0,0,0,0&#xA;&#x9;c1.5,0,2.7,1.2,2.7,2.7C14.7,11.5,13.5,12.7,12,12.7z M12,14c2.2,0,4-1.8,4-4s-1.8-4-4-4s-4,1.8-4,4S9.8,14,12,14z"/></svg>