<svg version="1.1" id="Vlt-icon-call-disabled" xmlns="http://www.w3.org/2000/svg" xmlns:xlink="http://www.w3.org/1999/xlink" x="0px" y="0px" viewBox="0 0 24 24" style="enable-background:new 0 0 24 24;" xml:space="preserve"><title>Vlt-icon-calls-disabled</title><desc>Created with Sketch.</desc><path id="path-1_1_" class="st0" d="M4.6,13.8c-0.8-1.1-1.5-2.2-2.1-3.3C1.9,9.3,1.4,8.2,1.2,7.1C0.9,5.8,0.9,4.7,1.4,3.7&#xA;&#x9;&#x9;&#x9;&#x9;&#x9;c0.5-1.1,1.3-1.9,2.3-2.2l1-0.4l0.1,0c0.5-0.1,1-0.1,1.4,0.1c0.5,0.2,0.8,0.6,1.1,1c0.2,0.3,0.6,1,1.3,2.1C9.6,5.7,10,7,9.7,8&#xA;&#x9;&#x9;&#x9;&#x9;&#x9;C9.5,8.8,9.1,9.4,8.6,9.9c0.1,0.3,0.3,0.8,0.8,1.4c0.1,0.2,0.3,0.3,0.4,0.4l-0.9,0.9c-0.1-0.2-0.3-0.3-0.5-0.5&#xA;&#x9;&#x9;&#x9;&#x9;&#x9;c-0.6-0.7-1-1.4-1.1-1.9c-0.1-0.6,0-1,0.3-1.1C8,8.8,8.3,8.3,8.4,7.7C8.6,7,8.4,6.1,7.6,5C6.9,3.8,6.4,3.1,6.3,2.9&#xA;&#x9;&#x9;&#x9;&#x9;&#x9;C6.1,2.6,5.9,2.4,5.8,2.4c-0.2-0.1-0.4-0.1-0.6,0l-1,0.4C3.5,3,2.9,3.5,2.6,4.3C2.2,4.9,2.2,5.8,2.4,6.8c0.2,1,0.6,2,1.2,3.1&#xA;&#x9;&#x9;&#x9;&#x9;&#x9;C4.2,11,4.9,12,5.6,13c0.4,0.6,0.8,1.1,1.3,1.6L6,15.5C5.5,15,5.1,14.4,4.6,13.8z M22.3,17.2c0.2,0.5,0.2,0.9,0.1,1.4l0,0.1&#xA;&#x9;&#x9;&#x9;&#x9;&#x9;l-0.4,1c-0.4,1-1.1,1.8-2.2,2.3c-1,0.4-2.1,0.5-3.3,0.2C15.3,22,14.2,21.6,13,21c-1.1-0.6-2.2-1.3-3.3-2.1&#xA;&#x9;&#x9;&#x9;&#x9;&#x9;c-0.3-0.2-0.6-0.5-0.9-0.7l0.9-0.9c0.3,0.2,0.5,0.4,0.8,0.6c1,0.8,2.1,1.4,3.2,2c1.1,0.6,2.1,1,3.1,1.2c1,0.2,1.8,0.2,2.5-0.1&#xA;&#x9;&#x9;&#x9;&#x9;&#x9;c0.8-0.4,1.3-0.9,1.6-1.6l0.4-1c0.1-0.2,0-0.4,0-0.6c-0.1-0.2-0.3-0.4-0.5-0.5c-0.3-0.2-1-0.6-2.1-1.4c-1.2-0.7-2.1-1-2.7-0.8&#xA;&#x9;&#x9;&#x9;&#x9;&#x9;c-0.6,0.2-1.1,0.5-1.3,0.8c-0.2,0.3-0.6,0.4-1.1,0.3c-0.5-0.1-1.1-0.4-1.7-0.9l0.9-0.9c0.4,0.3,0.8,0.5,1,0.6&#xA;&#x9;&#x9;&#x9;&#x9;&#x9;c0.4-0.5,1-0.8,1.8-1.1c1.1-0.3,2.3,0.1,3.7,1c1.1,0.7,1.8,1.2,2.1,1.4C21.8,16.4,22.1,16.8,22.3,17.2z M22.1,1.9&#xA;&#x9;&#x9;&#x9;&#x9;&#x9;c0.2,0.2,0.2,0.6,0,0.9L2.8,22.4c-0.2,0.2-0.6,0.2-0.9,0c-0.2-0.2-0.2-0.6,0-0.9L21.2,1.9C21.4,1.7,21.8,1.7,22.1,1.9z"/></svg>