<svg version="1.1" id="Vlt-icon-alarm" xmlns="http://www.w3.org/2000/svg" xmlns:xlink="http://www.w3.org/1999/xlink" x="0px" y="0px" viewBox="0 0 24 24" style="enable-background:new 0 0 24 24;" xml:space="preserve"><path id="path-1" d="M19.5,5.8c1.8,1.9,2.9,4.4,2.9,7.2c0,5.7-4.7,10.4-10.4,10.4S1.6,18.7,1.6,13c0-5.5,4.3-10,9.8-10.4V1.5H9.9&#xA;&#x9;c0-0.7,0.5-1.1,1.1-1.1h2c0.7,0,1.1,0.5,1.1,1.1h-1.5v1.1c2.2,0.1,4.3,1,5.9,2.3c0,0,0,0,0,0l0.6-0.5c0.3-0.2,0.7-0.2,0.9,0&#xA;&#x9;s0.2,0.7,0,0.9L19.5,5.8z M12,22.1c5,0,9.1-4.1,9.1-9.1S17,3.9,12,3.9S2.9,8,2.9,13S7,22.1,12,22.1z M17,16.8c0.3,0.2,0.3,0.7,0,0.9&#xA;&#x9;c-0.2,0.3-0.7,0.3-0.9,0l-4.8-4.5V8c0-0.4,0.3-0.7,0.6-0.7s0.6,0.3,0.6,0.7v4.7L17,16.8z"/></svg>