<svg version="1.1" id="Vlt-icon-call-transfer" xmlns="http://www.w3.org/2000/svg" xmlns:xlink="http://www.w3.org/1999/xlink" x="0px" y="0px" viewBox="0 0 24 24" style="enable-background:new 0 0 24 24;" xml:space="preserve"><path id="path-1_1_" d="M16.7,1.5c0.6,0.2,1.2,0.7,1.6,1.5c0.5,0.8,0.9,1.7,1.2,2.7c0.3,1,0.6,2.1,0.7,3.2c0.2,1.1,0.3,2.1,0.3,3&#xA;&#x9;s-0.1,1.9-0.3,3c-0.2,1.1-0.4,2.2-0.7,3.2s-0.7,1.9-1.2,2.7c-0.5,0.8-1,1.3-1.6,1.5c-0.7,0.3-1.4,0.3-2,0l-0.9-0.4&#xA;&#x9;c-0.2-0.1-0.3-0.2-0.4-0.4c-0.1-0.2-0.1-0.4,0-0.7c0-0.3,0.2-1,0.5-2.2c0.3-1.2,0.7-1.9,1.2-2.2c0.5-0.3,1-0.4,1.3-0.3&#xA;&#x9;c0.3,0.1,0.6-0.1,0.9-0.5c0.3-0.4,0.4-1.1,0.5-1.9C18,13,18,12.4,18,12c0-0.4,0-1-0.1-1.9c-0.1-0.8-0.3-1.5-0.5-1.9&#xA;&#x9;c-0.3-0.4-0.6-0.6-0.9-0.5c-0.3,0.1-0.8,0-1.3-0.3c-0.5-0.3-0.9-1-1.2-2.2S13.6,3.3,13.5,3c-0.1-0.3-0.1-0.5,0-0.7&#xA;&#x9;c0.1-0.2,0.2-0.3,0.4-0.4l0.9-0.4C15.3,1.3,16,1.3,16.7,1.5z M16.7,10.2c0.1,0.8,0.1,1.4,0.1,1.8c0,0.4,0,1-0.1,1.8&#xA;&#x9;c-0.1,0.6-0.2,1.1-0.3,1.3c-0.6-0.1-1.2,0.1-1.8,0.5c-0.9,0.5-1.4,1.5-1.8,3c-0.3,1.2-0.4,1.9-0.5,2.2c-0.1,0.5-0.1,0.9,0.1,1.3&#xA;&#x9;c0.2,0.4,0.5,0.7,0.8,1l0.1,0.1l0.9,0.4c0.9,0.4,1.9,0.4,2.9,0c0.9-0.3,1.6-1,2.2-2c0.5-0.9,1-1.9,1.3-3c0.3-1.1,0.6-2.2,0.8-3.4&#xA;&#x9;c0.2-1.2,0.3-2.2,0.3-3.2s-0.1-2-0.3-3.2c-0.2-1.2-0.4-2.3-0.8-3.4c-0.4-1.1-0.8-2.1-1.3-3c-0.6-1-1.3-1.7-2.2-2c-1-0.4-2-0.4-2.9,0&#xA;&#x9;l-0.9,0.4l-0.1,0.1c-0.4,0.2-0.7,0.6-0.8,1c-0.2,0.4-0.2,0.9-0.1,1.4c0.1,0.3,0.2,1,0.5,2.2c0.3,1.5,0.9,2.5,1.8,3&#xA;&#x9;c0.6,0.4,1.2,0.5,1.8,0.5C16.5,9.1,16.7,9.6,16.7,10.2z M12.6,12.2c0.1-0.2,0.1-0.3,0-0.5c0-0.1-0.1-0.2-0.1-0.2L7.2,6.3&#xA;&#x9;C7.1,6.1,6.9,6.1,6.8,6.1c-0.2,0-0.3,0.1-0.5,0.2C6,6.5,6,6.9,6.3,7.2l4.1,4.1H2c-0.4,0-0.7,0.3-0.7,0.7c0,0.4,0.3,0.6,0.6,0.6h8.4&#xA;&#x9;l-4.1,4.1c-0.3,0.3-0.3,0.7,0,0.9c0.3,0.3,0.7,0.3,0.9,0l5.2-5.2C12.5,12.3,12.5,12.3,12.6,12.2z"/></svg>