<svg version="1.1" id="Vlt-icon-screen-share" xmlns="http://www.w3.org/2000/svg" xmlns:xlink="http://www.w3.org/1999/xlink" x="0px" y="0px" viewBox="0 0 24 24" style="enable-background:new 0 0 24 24;" xml:space="preserve"><path id="path-1_1_" d="M1,0h22c0.6,0,1,0.5,1,1v16.2c0,0.6-0.4,1-1,1H12.8v2.3H18c0.4,0,0.8,0.3,0.8,0.8S18.4,22,18,22H6&#xA;&#x9;c-0.4,0-0.8-0.3-0.8-0.8s0.3-0.8,0.8-0.8h5.2v-2.3H1c-0.6,0-1-0.5-1-1V1C0,0.5,0.4,0,1,0z M22.7,16.9V1.3H1.3v15.6H22.7z M7.7,9.8&#xA;&#x9;c-0.5-0.1-1-0.6-1-1.1C6.6,8.2,6.9,7.6,7.4,7.4l8.2-4.3C15.8,3,16,2.9,16.2,2.9c0.3,0,0.6,0.1,0.8,0.3c0.4,0.3,0.6,0.8,0.5,1.4&#xA;&#x9;l-2.3,9.2c-0.1,0.5-0.6,0.9-1.2,1h-0.1c-0.5,0-1-0.3-1.2-0.8l-0.4-0.9l-1,1.2c-0.2,0.3-0.5,0.5-0.9,0.5h-0.1c-0.3,0-0.6-0.1-0.8-0.3&#xA;&#x9;l-1.7-1.4c-0.5-0.5-0.6-1.3-0.2-1.8l1-1.3L7.7,9.8z M16.1,4.2L7.9,8.5l3,0.6l-2.3,3l1.7,1.4l2.3-3l1.3,2.9L16.1,4.2z"/></svg>