<svg xmlns="http://www.w3.org/2000/svg" width="24" height="24" viewBox="0 0 24 24" id="Vlt-icon-block"><path fill="#000" fill-rule="nonzero" d="M12 21.658a9.612 9.612 0 0 1-6.589-2.61L19.257 5.64A9.616 9.616 0 0 1 21.658 12 9.658 9.658 0 0 1 12 21.658M2.342 12c0-5.334 4.324-9.659 9.658-9.659a9.61 9.61 0 0 1 6.336 2.381L4.517 18.103A9.615 9.615 0 0 1 2.342 12M12 1C5.925 1 1 5.925 1 12c0 2.678.959 5.131 2.55 7.04l-.002.001.075.078A10.967 10.967 0 0 0 12 23c6.075 0 11-4.925 11-11S18.075 1 12 1"/></svg>