<svg version="1.1" id="Vlt-icon-circle-nested" xmlns="http://www.w3.org/2000/svg" xmlns:xlink="http://www.w3.org/1999/xlink" x="0px" y="0px" viewBox="0 0 24 24" style="enable-background:new 0 0 24 24;" xml:space="preserve"><g><path d="M12,23C6,23,1,18,1,12S6,1,12,1s11,5,11,11S18,23,12,23z M12,21.7c5.4,0,9.7-4.4,9.7-9.7c0-5.4-4.4-9.7-9.7-9.7&#xA;&#x9;&#x9;c-5.4,0-9.7,4.4-9.7,9.7C2.3,17.4,6.6,21.7,12,21.7z M12,17.8c-3.2,0-5.8-2.6-5.8-5.8S8.8,6.2,12,6.2s5.8,2.6,5.8,5.8&#xA;&#x9;&#x9;S15.2,17.8,12,17.8z M12,16.6c2.5,0,4.6-2,4.6-4.5c0,0,0,0,0,0c0-2.6-2-4.6-4.6-4.6s-4.6,2-4.6,4.6C7.4,14.5,9.5,16.6,12,16.6&#xA;&#x9;&#x9;C12,16.6,12,16.6,12,16.6z"/></g></svg>