<svg version="1.1" id="Vlt-icon-call-park" xmlns="http://www.w3.org/2000/svg" xmlns:xlink="http://www.w3.org/1999/xlink" x="0px" y="0px" viewBox="0 0 24 24" style="enable-background:new 0 0 24 24;" xml:space="preserve"><path id="path-1_1_" d="M2.6,4.8C2.3,5.5,2.2,6.3,2.5,7.3s0.6,2,1.2,3.1s1.2,2.1,2,3.1s1.5,1.9,2.2,2.6s1.6,1.5,2.6,2.2s2,1.4,3.1,2&#xA;&#x9;s2.1,1,3.1,1.2s1.8,0.2,2.5-0.1c0.8-0.4,1.3-0.9,1.5-1.6l0.4-1c0.1-0.2,0-0.4,0-0.6c-0.1-0.2-0.3-0.4-0.5-0.5&#xA;&#x9;c-0.2-0.2-0.9-0.6-2.1-1.4c-1.1-0.7-2-1-2.7-0.8c-0.6,0.2-1,0.5-1.2,0.8c-0.2,0.3-0.6,0.4-1.1,0.3s-1.2-0.5-1.9-1.1&#xA;&#x9;s-1.3-1.1-1.6-1.4c-0.3-0.3-0.8-0.9-1.4-1.6c-0.6-0.7-1-1.4-1.1-1.9c-0.1-0.6,0-1,0.3-1.1c0.3-0.2,0.6-0.6,0.8-1.3&#xA;&#x9;c0.2-0.6-0.1-1.5-0.8-2.7S6.4,3.7,6.2,3.4C6.1,3.2,5.9,3,5.7,2.9c-0.2-0.1-0.4-0.1-0.6,0l-1,0.4C3.5,3.5,2.9,4,2.6,4.8z M9.4,11.7&#xA;&#x9;c0.6,0.7,1,1.2,1.3,1.5s0.8,0.7,1.5,1.3c0.5,0.5,1,0.7,1.3,0.8c0.4-0.5,1-0.8,1.8-1.1c1.1-0.3,2.3,0.1,3.7,1&#xA;&#x9;c1.1,0.7,1.8,1.2,2.1,1.4c0.5,0.3,0.8,0.6,1,1.1s0.2,1,0.1,1.4v0.1l-0.4,1c-0.4,1-1.1,1.8-2.2,2.3c-0.9,0.4-2.1,0.5-3.3,0.2&#xA;&#x9;c-1.1-0.3-2.2-0.7-3.4-1.3c-1.1-0.6-2.2-1.3-3.3-2.1c-1.1-0.8-2-1.6-2.7-2.3c-0.8-0.8-1.5-1.7-2.3-2.8S3.1,12,2.5,10.9&#xA;&#x9;c-0.6-1.2-1-2.3-1.3-3.4C0.9,6.2,1,5.1,1.4,4.2C1.9,3.1,2.7,2.4,3.7,2l1-0.4h0.1c0.5-0.1,1-0.1,1.4,0.1c0.5,0.2,0.8,0.6,1.1,1&#xA;&#x9;c0.2,0.3,0.6,1,1.3,2.1c0.9,1.4,1.3,2.7,1,3.8c-0.2,0.8-0.5,1.4-1,1.8C8.6,10.7,8.9,11.1,9.4,11.7z M17.3,12.6&#xA;&#x9;c-3.3,0-6.1-2.7-6.1-6.1s2.7-6.1,6.1-6.1s6.1,2.7,6.1,6.1S20.6,12.6,17.3,12.6z M17.4,3.6c0.4,0,0.8,0,1.1,0.1&#xA;&#x9;c0.3,0.1,0.5,0.2,0.7,0.4c0.2,0.2,0.3,0.4,0.4,0.6s0.1,0.5,0.1,0.8s0,0.6-0.1,0.8c-0.1,0.2-0.2,0.5-0.4,0.6&#xA;&#x9;c-0.2,0.2-0.4,0.3-0.7,0.4s-0.7,0.1-1.1,0.1h-0.7v2h-1.4v-6h2.1V3.6z M17.4,6.6c0.4,0,0.6-0.1,0.8-0.3c0.2-0.2,0.2-0.4,0.2-0.7&#xA;&#x9;c0-0.1,0-0.3-0.1-0.4c0-0.1-0.1-0.2-0.2-0.3c-0.1-0.1-0.2-0.1-0.3-0.2c-0.1,0-0.3-0.1-0.5-0.1h-0.7v1.9L17.4,6.6L17.4,6.6z&#xA;&#x9; M17.3,11.4c2.7,0,4.9-2.2,4.9-4.9S20,1.6,17.3,1.6s-4.9,2.2-4.9,4.9S14.6,11.4,17.3,11.4z"/></svg>