<svg version="1.1" id="Vlt-icon-fax" xmlns="http://www.w3.org/2000/svg" xmlns:xlink="http://www.w3.org/1999/xlink" x="0px" y="0px" viewBox="0 0 24 24" style="enable-background:new 0 0 24 24;" xml:space="preserve"><path d="M20.3,2.8C21.8,2.8,23,4,23,5.5v13c0,1.5-1.2,2.7-2.7,2.7h-9.5c-0.3,0.9-1.1,1.5-2,1.5H5.2c-0.9,0-1.8-0.6-2-1.6&#xA;&#x9;C1.9,20.9,1,19.8,1,18.5v-13c0-1.3,0.9-2.4,2.2-2.7c0.2-0.9,1-1.6,2-1.6h3.6c0.9,0,1.7,0.6,2,1.5h2.3L14.4,1h5v1.8&#xA;&#x9;C19.3,2.8,20.3,2.8,20.3,2.8z M21.9,18.5v-13c0-0.9-0.7-1.6-1.6-1.6h-0.9v3.4h0.7v1.2h-8V7.3h0.6V3.9h-1.9v16.2h9.5&#xA;&#x9;C21.1,20.1,21.9,19.4,21.9,18.5L21.9,18.5z M13.4,10.1c0.5,0,0.9,0.4,0.9,0.9c0,0.5-0.4,0.9-0.9,0.9c-0.5,0-0.9-0.4-0.9-0.9&#xA;&#x9;c0,0,0,0,0,0C12.5,10.5,12.9,10.1,13.4,10.1z M16.1,10.1c0.5,0,0.9,0.4,0.9,0.9c0,0.5-0.4,0.9-0.9,0.9c-0.5,0-0.9-0.4-0.9-0.9&#xA;&#x9;c0,0,0,0,0,0C15.2,10.5,15.6,10.1,16.1,10.1z M18.8,10.1c0.5,0,0.9,0.4,0.9,0.9c0,0.5-0.4,0.9-0.9,0.9c-0.5,0-0.9-0.4-0.9-0.9&#xA;&#x9;c0,0,0,0,0,0C17.9,10.5,18.3,10.1,18.8,10.1z M13.4,12.8c0.5,0,0.9,0.4,0.9,0.9c0,0.5-0.4,0.9-0.9,0.9c-0.5,0-0.9-0.4-0.9-0.9&#xA;&#x9;c0,0,0,0,0,0C12.5,13.2,12.9,12.8,13.4,12.8z M16.1,12.8c0.5,0,0.9,0.4,0.9,0.9c0,0.5-0.4,0.9-0.9,0.9c-0.5,0-0.9-0.4-0.9-0.9&#xA;&#x9;c0,0,0,0,0,0C15.2,13.2,15.6,12.8,16.1,12.8z M18.8,12.8c0.5,0,0.9,0.4,0.9,0.9c0,0.5-0.4,0.9-0.9,0.9c-0.5,0-0.9-0.4-0.9-0.9&#xA;&#x9;c0,0,0,0,0,0C17.9,13.2,18.3,12.8,18.8,12.8z M13.4,15.4c0.5,0,0.9,0.4,0.9,0.9c0,0.5-0.4,0.9-0.9,0.9c-0.5,0-0.9-0.4-0.9-0.9&#xA;&#x9;c0,0,0,0,0,0C12.5,15.8,12.9,15.4,13.4,15.4z M16.1,15.4c0.5,0,0.9,0.4,0.9,0.9c0,0.5-0.4,0.9-0.9,0.9c-0.5,0-0.9-0.4-0.9-0.9&#xA;&#x9;c0,0,0,0,0,0C15.2,15.8,15.6,15.4,16.1,15.4z M18.8,15.4c0.5,0,0.9,0.4,0.9,0.9c0,0.5-0.4,0.9-0.9,0.9c-0.5,0-0.9-0.4-0.9-0.9&#xA;&#x9;c0,0,0,0,0,0C17.9,15.8,18.3,15.4,18.8,15.4z M13.8,3.7v3.6h4.4V2.2H15L13.8,3.7L13.8,3.7z M9.6,3.9V3.3c0-0.1,0-0.2-0.1-0.3&#xA;&#x9;c0-0.1-0.1-0.2-0.2-0.3C9.3,2.6,9,2.4,8.7,2.4H5.2c-0.3,0-0.5,0.1-0.7,0.3C4.4,2.9,4.3,2.9,4.3,3c0,0.1-0.1,0.2-0.1,0.3v17.3&#xA;&#x9;c0,0.2,0.1,0.4,0.2,0.6c0.2,0.2,0.4,0.3,0.7,0.3h3.6c0.3,0,0.5-0.1,0.7-0.3c0.1-0.2,0.2-0.4,0.2-0.6V3.9L9.6,3.9z M3.1,20V4.1&#xA;&#x9;C2.5,4.3,2.2,4.9,2.2,5.5v13C2.2,19.2,2.5,19.7,3.1,20L3.1,20z"/></svg>