<svg version="1.1" id="Vlt-icon-tooltip" xmlns="http://www.w3.org/2000/svg" xmlns:xlink="http://www.w3.org/1999/xlink" x="0px" y="0px" viewBox="0 0 24 24" style="enable-background:new 0 0 24 24;" xml:space="preserve"><path d="M2.3,14.3h6.4l3.3,4.4l3.2-4.4h6.5V5.6H2.3V14.3z M13.1,19.5c-0.4,0.6-1.2,0.7-1.8,0.3c-0.1-0.1-0.2-0.2-0.3-0.3l-2.9-3.8&#xA;&#x9;H2.3C1.6,15.6,1,15,1,14.3c0,0,0,0,0,0V5.6c0-0.7,0.6-1.3,1.3-1.3h19.4c0.7,0,1.3,0.6,1.3,1.3v8.7c0,0.7-0.6,1.3-1.3,1.3h-5.9&#xA;&#x9;C15.8,15.6,13.1,19.5,13.1,19.5z"/></svg>