<svg version="1.1" id="Vlt-icon-snooze" xmlns="http://www.w3.org/2000/svg" xmlns:xlink="http://www.w3.org/1999/xlink" x="0px" y="0px" viewBox="0 0 24 24" style="enable-background:new 0 0 24 24;" xml:space="preserve"><title>Vlt-icon-snooze</title><desc>Created with Sketch.</desc><path id="path-1_1_" d="M7.1,2.6c-3.1,1.7-5,5-5,9.1c0,5.6,4.6,10.2,10.2,10.2c4,0,7.4-1.9,9.1-5c-0.9,0.2-1.9,0.4-2.9,0.4&#xA;&#x9;c-6.2,0-11.8-5.6-11.8-11.8C6.7,4.5,6.8,3.5,7.1,2.6 M12.3,23C6.1,23,1,17.9,1,11.7C1,6.7,3.6,2.6,7.8,1C8,1,8.3,1,8.4,1.2&#xA;&#x9;c0.2,0.2,0.2,0.4,0.1,0.6C8.1,2.9,7.8,4.2,7.8,5.5c0,5.6,5.1,10.6,10.6,10.6c1.3,0,2.6-0.2,3.8-0.7c0.2-0.1,0.4,0,0.6,0.1&#xA;&#x9;C23,15.7,23,16,23,16.2C21.4,20.4,17.3,23,12.3,23z M15.6,7.5l3.7-4.8h-2.8c-0.5,0-0.8-0.3-0.8-0.8s0.4-0.8,0.8-0.8h4.3&#xA;&#x9;c0.4,0,0.7,0.2,0.7,0.8c0,0.2-0.1,0.5-0.2,0.6l-3.7,4.9h3.2c0.5,0,0.8,0.3,0.8,0.8S21.2,9,20.8,9h-4.4c-0.6,0-0.9-0.2-0.9-0.9&#xA;&#x9;C15.3,7.9,15.5,7.7,15.6,7.5z"/></svg>