<svg version="1.1" id="Vlt-icon-group-2" xmlns="http://www.w3.org/2000/svg" xmlns:xlink="http://www.w3.org/1999/xlink" x="0px" y="0px" viewBox="0 0 24 24" style="enable-background:new 0 0 24 24;" xml:space="preserve"><path id="path-1" d="M20.5,15.7c2,0.5,3.4,2.3,3.4,4.3v1c0,0.4-0.3,0.7-0.6,0.7h-2.9c-0.4,0-0.6-0.3-0.6-0.7c0-0.4,0.3-0.6,0.6-0.6&#xA;&#x9;h2.2V20c0-1.4-1-2.7-2.5-3.1l-2-0.8c-0.2-0.1-0.3-0.2-0.4-0.4l-0.5-1.3c-0.2-0.4,0.1-0.8,0.5-0.9c0.7-0.1,1.2-0.2,1.7-0.4&#xA;&#x9;c0.2-0.1,0.3-0.1,0.4-0.1c-0.1-0.2-0.2-0.4-0.3-0.6C19,11.3,18.7,9.9,18.7,8c0-3-0.5-3.8-1.2-3.8h-0.4c-0.2,0-0.3-0.1-0.5-0.2&#xA;&#x9;c-0.2-0.2-0.4-0.3-0.7-0.4c-0.1,0-0.2-0.1-0.4-0.2C15.2,3.3,15,3,15.1,2.6s0.5-0.4,0.8-0.4c0.2,0,0.4,0.2,0.6,0.2&#xA;&#x9;c0.3,0.1,0.6,0.3,0.9,0.5h0.1C19,2.9,20,4.4,20,8c0,1.7,0.3,2.9,0.7,3.8c0.2,0.5,0.4,0.7,0.5,0.8c0.3,0.3,0.3,0.8,0,1&#xA;&#x9;c-0.2,0.2-0.7,0.4-1.4,0.7c-0.3,0.1-0.7,0.2-1.1,0.3l0.1,0.3L20.5,15.7z M15.1,15.7c2,0.5,3.4,2.3,3.4,4.3v1c0,0.4-0.3,0.6-0.6,0.6&#xA;&#x9;h-17c-0.4,0-0.7-0.3-0.7-0.6v-1c0-2,1.4-3.8,3.4-4.3L6.2,15l0.2-0.7c-0.7-0.7-1.1-1.6-1.3-2.6c-0.5-0.2-0.9-0.6-0.9-1.1L4,9.1&#xA;&#x9;C3.9,8.5,4.2,7.9,4.7,7.7c0-0.1,0-0.1,0-0.2s0-0.1,0-0.3c0-0.4-0.1-0.7-0.1-0.9c0-2.1,1-3.2,3.8-3.2c0.9-0.6,1.8-0.7,2.9-0.7&#xA;&#x9;c1.4,0,2.4,0.5,3,1.4c0.6,1,0.6,1.9-0.1,2.7L14,6.7l0,1c0.5,0.3,0.8,0.8,0.7,1.4l-0.2,1.5c-0.1,0.5-0.4,0.9-0.8,1.1&#xA;&#x9;c-0.2,1-0.7,2-1.4,2.7l0.2,0.6L15.1,15.7z M17.2,20c0-1.4-1-2.7-2.4-3l-3-0.8c-0.2-0.1-0.4-0.2-0.5-0.5L11,14.3&#xA;&#x9;c-0.1-0.2,0-0.5,0.2-0.6c0.7-0.6,1.2-1.6,1.3-2.6c0-0.3,0.3-0.6,0.6-0.6c0.1,0,0.1,0,0.1-0.1l0.2-1.5c0-0.1,0-0.1-0.1-0.1&#xA;&#x9;c-0.4,0-0.7-0.3-0.6-0.7l0.1-1.8c0-0.2,0.1-0.3,0.2-0.4l0.4-0.4c0.3-0.3,0.3-0.6-0.1-1c-0.3-0.5-1-0.8-1.9-0.8c-1,0-1.6,0.1-2.3,0.6&#xA;&#x9;c-0.2,0-0.4,0.1-0.5,0.1c-2.2,0-2.7,0.5-2.7,1.9c0,0.1,0,0.4,0.1,0.8c0,0.1,0,0.1,0,0.2C6,7.6,6.1,7.9,6.1,8c0,0.4-0.3,0.7-0.6,0.7&#xA;&#x9;H5.4c-0.1,0-0.1,0-0.1,0.1l0.2,1.5c0,0,0,0.1,0.1,0.1h0.1c0.3,0,0.6,0.3,0.6,0.6c0.1,1,0.6,2,1.3,2.6c0.2,0.2,0.2,0.4,0.2,0.6&#xA;&#x9;l-0.4,1.4c-0.1,0.2-0.2,0.4-0.5,0.5l-3,0.8c-1.4,0.3-2.4,1.6-2.4,3v0.4h15.7C17.2,20.3,17.2,20,17.2,20z"/></svg>