<svg version="1.1" id="Vlt-icon-star" xmlns="http://www.w3.org/2000/svg" xmlns:xlink="http://www.w3.org/1999/xlink" x="0px" y="0px" viewBox="0 0 24 24" style="enable-background:new 0 0 24 24;" xml:space="preserve"><path d="M18.2,21.2l-1.1-5.1C17,15.2,17.4,14,18,13.4l3.7-3.8l-5.1-0.8c-0.9-0.2-1.8-0.9-2.3-1.7L12,2.8L9.6,7.1&#xA;&#x9;C9.2,7.9,8.2,8.7,7.3,8.8L2.3,9.6l3.6,3.8c0.6,0.7,1,1.8,0.9,2.7l-1.1,5.1l4.9-2.3c0.4-0.2,0.9-0.3,1.4-0.3c0.5,0,1,0.1,1.4,0.3&#xA;&#x9;L18.2,21.2L18.2,21.2z M4.9,14.2l-3.6-3.8c-0.7-0.7-0.3-2,0.7-2.1l5-0.7C7.6,7.5,8.2,7,8.5,6.5l2.4-4.4c0.3-0.6,1.1-0.8,1.7-0.5&#xA;&#x9;C12.8,1.8,13,2,13.1,2.2l2.3,4.4c0.3,0.5,0.9,1,1.4,1l5.1,0.8c1,0.2,1.4,1.4,0.7,2.1L19,14.2c-0.4,0.4-0.6,1.2-0.6,1.7l1.1,5.1&#xA;&#x9;c0.2,1-0.8,1.9-1.8,1.4L12.8,20c-0.2-0.1-0.5-0.2-0.9-0.2s-0.6,0.1-0.9,0.2l-4.9,2.3c-0.9,0.5-2-0.4-1.8-1.4l1.1-5.1&#xA;&#x9;C5.5,15.4,5.3,14.6,4.9,14.2L4.9,14.2z"/></svg>