<svg version="1.1" id="Vlt-icon-stream" xmlns="http://www.w3.org/2000/svg" xmlns:xlink="http://www.w3.org/1999/xlink" x="0px" y="0px" viewBox="0 0 24 24" style="enable-background:new 0 0 24 24;" xml:space="preserve"><path d="M1.6,10.5c0.3,0,0.6,0.3,0.6,0.6v2c0,0.4-0.3,0.7-0.6,0.7S1,13.5,1,13.1v-2C1,10.8,1.2,10.5,1.6,10.5z M3.6,9.5&#xA;&#x9;c0.4,0,0.7,0.3,0.6,0.7v4.4c0,0.4-0.3,0.7-0.6,0.7S3,15,3,14.6v-4.5C3,9.8,3.2,9.5,3.6,9.5z M5.7,9C6,9,6.3,9.3,6.3,9.6v5&#xA;&#x9;c0,0.4-0.3,0.7-0.6,0.7S5.1,15,5.1,14.6v-5C5.1,9.3,5.3,9,5.7,9z M7.7,5.5c0.4,0,0.7,0.3,0.6,0.7v12c0,0.4-0.3,0.7-0.6,0.7&#xA;&#x9;s-0.6-0.3-0.6-0.7v-12C7.1,5.8,7.3,5.5,7.7,5.5z M9.8,6.5c0.3,0,0.6,0.3,0.5,0.7v10c0,0.4-0.3,0.7-0.6,0.7s-0.6-0.3-0.6-0.7v-10&#xA;&#x9;C9.1,6.8,9.4,6.5,9.8,6.5z M11.8,5c0.4,0,0.6,0.3,0.6,0.6v13c0,0.4-0.3,0.7-0.6,0.7s-0.6-0.3-0.6-0.7v-13C11.2,5.3,11.4,5,11.8,5z&#xA;&#x9; M13.8,2c0.4,0,0.7,0.3,0.7,0.6v19c0,0.4-0.3,0.7-0.7,0.7s-0.7-0.3-0.7-0.7v-19C13.1,2.3,13.4,2,13.8,2z M15.9,5&#xA;&#x9;c0.4,0,0.6,0.3,0.7,0.6v13c0,0.4-0.3,0.7-0.7,0.7c-0.4,0-0.7-0.3-0.7-0.7v-13C15.2,5.3,15.5,5,15.9,5z M17.9,7.5&#xA;&#x9;c0.4,0,0.7,0.3,0.7,0.7v7.9c0,0.4-0.3,0.7-0.7,0.7c-0.4,0-0.7-0.3-0.7-0.7v-8C17.2,7.8,17.5,7.5,17.9,7.5z M20,10.5&#xA;&#x9;c0.4,0,0.6,0.3,0.7,0.6v2c0,0.4-0.3,0.7-0.7,0.7c-0.4,0-0.7-0.3-0.7-0.7v-2C19.3,10.8,19.6,10.5,20,10.5z M22,9.5&#xA;&#x9;c0.4,0,0.7,0.3,0.7,0.6v4c0,0.4-0.3,0.7-0.7,0.7c-0.4,0-0.7-0.3-0.7-0.7v-4C21.3,9.8,21.6,9.5,22,9.5z"/></svg>