<svg version="1.1" id="Vlt-icon-stack" xmlns="http://www.w3.org/2000/svg" xmlns:xlink="http://www.w3.org/1999/xlink" x="0px" y="0px" viewBox="0 0 24 24" style="enable-background:new 0 0 24 24;" xml:space="preserve"><g><path d="M13.3,0.9L21.9,6c1.2,0.7,1.2,2.7,0,3.4l-8.6,5.1c-0.8,0.5-1.8,0.5-2.5,0L2.1,9.4C0.9,8.6,0.9,6.7,2.1,6l8.6-5.1&#xA;&#x9;&#x9;C11.5,0.4,12.5,0.4,13.3,0.9L13.3,0.9z M2.8,7.2c-0.3,0.2-0.3,0.8,0,1l8.6,5.1c0.4,0.2,0.8,0.2,1.2,0l8.6-5.1c0.3-0.2,0.3-0.8,0-1&#xA;&#x9;&#x9;L12.6,2c-0.4-0.2-0.8-0.2-1.2,0L2.8,7.2L2.8,7.2z M1.3,13.2C1,13,0.9,12.6,1.1,12.3C1.3,11.9,1.7,11.8,2,12l0,0l9.4,5.6&#xA;&#x9;&#x9;c0.4,0.2,0.8,0.2,1.2,0L22,12c0.3-0.2,0.7-0.1,0.9,0.2l0,0c0.2,0.3,0.1,0.7-0.2,0.9l-9.4,5.6c-0.8,0.5-1.8,0.5-2.5,0&#xA;&#x9;&#x9;C10.7,18.8,1.3,13.2,1.3,13.2z M1.3,17.5c-0.3-0.2-0.4-0.6-0.2-0.9s0.6-0.4,0.9-0.2l0,0l9.4,5.6c0.4,0.2,0.8,0.2,1.2,0l9.4-5.6&#xA;&#x9;&#x9;c0.3-0.2,0.7-0.1,0.9,0.2l0,0c0.2,0.3,0.1,0.7-0.2,0.9l-9.4,5.6c-0.8,0.5-1.8,0.5-2.5,0C10.7,23.1,1.3,17.5,1.3,17.5z"/></g></svg>