<svg version="1.1" id="Vlt-icon-add-user" xmlns="http://www.w3.org/2000/svg" xmlns:xlink="http://www.w3.org/1999/xlink" x="0px" y="0px" viewBox="0 0 24 24" style="enable-background:new 0 0 24 24;" xml:space="preserve"><path id="path-1_1_" d="M16.5,16.2v-1.3c0-0.4,0.3-0.6,0.6-0.6s0.6,0.3,0.6,0.6v1.3h1.3c0.4,0,0.6,0.3,0.6,0.6&#xA;&#x9;&#x9;&#x9;&#x9;&#x9;c0,0.4-0.3,0.6-0.6,0.6h-1.3v1.3c0,0.4-0.3,0.6-0.6,0.6s-0.6-0.3-0.6-0.6v-1.3h-1.3c-0.4,0-0.6-0.3-0.6-0.6&#xA;&#x9;&#x9;&#x9;&#x9;&#x9;c0-0.4,0.3-0.6,0.6-0.6H16.5z M11.5,16.8c0-3.1,2.5-5.6,5.6-5.6s5.6,2.5,5.6,5.6s-2.5,5.6-5.6,5.6S11.5,19.9,11.5,16.8z&#xA;&#x9;&#x9;&#x9;&#x9;&#x9; M12.8,16.8c0,2.4,1.9,4.3,4.3,4.3s4.3-1.9,4.3-4.3c0-2.4-1.9-4.3-4.3-4.3S12.8,14.4,12.8,16.8z M15,6.2&#xA;&#x9;&#x9;&#x9;&#x9;&#x9;c0.5,0.3,0.9,0.9,0.8,1.5l-0.2,1.7c-0.1,0.8-0.7,1.3-1.5,1.3c-0.4,0-0.6-0.3-0.6-0.6s0.3-0.6,0.6-0.6c0.1,0,0.2-0.1,0.3-0.2&#xA;&#x9;&#x9;&#x9;&#x9;&#x9;l0.2-1.7c0-0.1-0.1-0.2-0.2-0.2c-0.4,0-0.7-0.3-0.6-0.7l0.1-2.2c0-0.2,0.1-0.3,0.2-0.4l0.4-0.4c0.3-0.4,0.3-0.7-0.1-1.4&#xA;&#x9;&#x9;&#x9;&#x9;&#x9;c-0.4-0.7-1.2-1-2.4-1c-1.1,0-2,0.2-2.8,0.7C9.1,2.1,9,2.2,8.8,2.2c-2.6,0-3.2,0.7-3.2,2.4c0,0.2,0,0.5,0.1,0.9&#xA;&#x9;&#x9;&#x9;&#x9;&#x9;c0,0.1,0,0.1,0,0.3c0,0.3,0.1,0.7,0.1,0.9c0,0.4-0.3,0.7-0.6,0.7H5.1c-0.1,0-0.2,0.1-0.2,0.2l0.2,1.7c0,0.1,0.1,0.2,0.2,0.2h0.1&#xA;&#x9;&#x9;&#x9;&#x9;&#x9;c0.3,0,0.6,0.3,0.6,0.6c0.1,1.1,0.6,2.3,1.5,3.1c0.2,0.2,0.2,0.4,0.2,0.6l-0.4,1.7c-0.1,0.2-0.2,0.4-0.5,0.5l-3.5,0.9&#xA;&#x9;&#x9;&#x9;&#x9;&#x9;c-1.3,0.3-1.9,1.3-2,3l9.3,0c0.4,0,0.6,0.3,0.6,0.6c0,0.4-0.3,0.6-0.6,0.6l-10,0c-0.4,0-0.6-0.3-0.6-0.6c0-2.6,0.9-4.4,3-4.9&#xA;&#x9;&#x9;&#x9;&#x9;&#x9;l3.2-0.8l0.2-1c-0.8-0.8-1.3-2-1.5-3.1c-0.6-0.2-1-0.7-1.1-1.3L3.6,7.7C3.5,7.1,3.9,6.4,4.4,6.2c0-0.1,0-0.2,0-0.3&#xA;&#x9;&#x9;&#x9;&#x9;&#x9;c0-0.1,0-0.2,0-0.3c0-0.5-0.1-0.8-0.1-1.1c0-2.3,1.1-3.6,4.3-3.7c1-0.7,2-0.9,3.3-0.9c1.6,0,2.8,0.5,3.4,1.6&#xA;&#x9;&#x9;&#x9;&#x9;&#x9;c0.7,1.1,0.7,2.1-0.1,3l-0.3,0.3L15,6.2z"/></svg>