<svg version="1.1" id="Vlt-icon-arrow-thin-left" xmlns="http://www.w3.org/2000/svg" xmlns:xlink="http://www.w3.org/1999/xlink" x="0px" y="0px" viewBox="0 0 24 24" style="enable-background:new 0 0 24 24;" xml:space="preserve"><path id="path-1_1_" class="st0" d="M2.7,12.6c0,0.1,0.1,0.2,0.2,0.2l6,6c0.3,0.3,0.7,0.3,1,0c0.3-0.3,0.3-0.7,0-1L5,13h16.3&#xA;&#x9;c0.4,0,0.7-0.3,0.7-0.7c0-0.4-0.3-0.7-0.7-0.7H5l4.8-4.8c0.3-0.3,0.3-0.7,0-1C9.7,5.7,9.5,5.6,9.3,5.6c-0.2,0-0.4,0.1-0.5,0.2l-6,6&#xA;&#x9;c-0.1,0.1-0.1,0.1-0.2,0.2C2.6,12.2,2.6,12.4,2.7,12.6"/></svg>