<svg version="1.1" id="Vlt-icon-headset" xmlns="http://www.w3.org/2000/svg" xmlns:xlink="http://www.w3.org/1999/xlink" x="0px" y="0px" viewBox="0 0 24 24" style="enable-background:new 0 0 24 24;" xml:space="preserve"><path d="M22.2,13.3c0,1-0.8,1.9-1.8,1.9h-0.2c-0.2,0-0.3-0.2-0.3-0.4v-4.1c0-0.2,0.2-0.4,0.3-0.4h0.2c1,0,1.8,0.8,1.8,1.9L22.2,13.3&#xA;&#x9;L22.2,13.3z M12.2,22.2c-0.5,0-0.8-0.4-0.8-0.9s0.4-0.9,0.8-0.9c0.5,0,0.8,0.4,0.8,0.9S12.6,22.2,12.2,22.2z M4.1,14.8&#xA;&#x9;c0,0.2-0.2,0.4-0.3,0.4H3.6c-1,0-1.8-0.8-1.8-1.9v-1.1c0-1,0.8-1.9,1.8-1.9h0.2c0.2,0,0.3,0.2,0.3,0.4V14.8L4.1,14.8z M21.1,9&#xA;&#x9;c-0.1-4.9-3.9-8.5-8.9-8.5C7.2,0.5,3.4,4.1,3.3,9c-1.6,0.2-2.8,1.5-2.8,3.1v1.1c0,1.7,1.4,3.2,3.1,3.2h0.2c0.9,0,1.6-0.7,1.6-1.7&#xA;&#x9;v-4.1C5.3,10,5,9.5,4.5,9.2c0-4.3,3.3-7.4,7.6-7.4c4.3,0,7.6,3.1,7.6,7.3c-0.7,0.2-1.1,0.9-1.1,1.6v4.1c0,0.5,0.2,1,0.6,1.3&#xA;&#x9;c-0.1,3.7-1.4,5.5-5.1,5.2c0-1.2-1-2.1-2.1-2.1c-1.2,0-2.1,1-2.1,2.2c0,1.2,0.9,2.2,2.1,2.2c0.7,0,1.4-0.4,1.8-1&#xA;&#x9;c4.5,0.5,6.4-1.9,6.6-6.1c1.6-0.1,2.9-1.4,2.9-3.2v-1.1C23.5,10.6,22.5,9.3,21.1,9L21.1,9z"/></svg>