<svg version="1.1" id="Vlt-icon-toggle" xmlns="http://www.w3.org/2000/svg" xmlns:xlink="http://www.w3.org/1999/xlink" x="0px" y="0px" viewBox="0 0 24 24" style="enable-background:new 0 0 24 24;" xml:space="preserve"><path d="M7.4,18.7l3.1,3.2l-0.9,0.9L5,18l4.6-4.7l0.9,0.9l-3.1,3.2h9.3c2.8,0,5-2.3,5-5.2c0-1.4-0.6-2.8-1.6-3.8L21,7.5&#xA;&#x9;c1.3,1.2,2.1,3,2,4.8c0,3.6-2.8,6.4-6.3,6.4L7.4,18.7L7.4,18.7z M16.6,5.3l-3.1-3.2l0.9-0.9L19,6l-4.6,4.7l-0.9-0.9l3.1-3.2H7.3&#xA;&#x9;c-2.8,0-5,2.3-5,5.2c0,1.4,0.5,2.7,1.4,3.6l-0.9,0.9C1.6,15.1,1,13.5,1,11.8c0-3.6,2.8-6.4,6.3-6.4L16.6,5.3L16.6,5.3z"/></svg>