<svg version="1.1" id="Vlt-icon-unlock" xmlns="http://www.w3.org/2000/svg" xmlns:xlink="http://www.w3.org/1999/xlink" x="0px" y="0px" viewBox="0 0 24 24" style="enable-background:new 0 0 24 24;" xml:space="preserve"><path d="M18.5,8.6c1.1,0,2,0.9,2,2v10.2c0,1.1-0.9,2-2,2h-13c-1.1,0-2-0.9-2-2V10.7c0-1.1,0.9-2,2-2h10.2V6.1c0-2-1.6-3.7-3.7-3.7&#xA;&#x9;S8.3,4,8.3,6.1v0.2H6.9V6.1C6.9,3.3,9.2,1,12,1s5.1,2.3,5.1,5.1v2.5H18.5z M19.2,20.7V10.6c0-0.4-0.3-0.7-0.7-0.7h-13&#xA;&#x9;c-0.4,0-0.7,0.3-0.7,0.7v10.1c0,0.4,0.3,0.7,0.7,0.7h13C18.9,21.4,19.2,21.1,19.2,20.7z M12,11.4c1.6,0,2.9,1.3,2.9,2.9&#xA;&#x9;c0,1-0.5,1.9-1.3,2.4v2.8h-3.4v-2.8c-0.8-0.6-1.3-1.4-1.3-2.4C9.1,12.7,10.4,11.4,12,11.4z M12.9,15.7c0.5-0.3,0.7-0.8,0.7-1.4&#xA;&#x9;c0-0.9-0.8-1.7-1.7-1.7s-1.7,0.8-1.7,1.7c0,0.5,0.3,1,0.8,1.4l0.5,0.4v2.2h0.8v-2.2C12.3,16.1,12.9,15.7,12.9,15.7z"/></svg>