<svg version="1.1" id="Vlt-icon-inbox" xmlns="http://www.w3.org/2000/svg" xmlns:xlink="http://www.w3.org/1999/xlink" x="0px" y="0px" viewBox="0 0 24 24" style="enable-background:new 0 0 24 24;" xml:space="preserve"><path d="M20.9,20.7H3.1c-0.5,0-0.9-0.4-0.9-0.9v-5.6h5.1l0.2,1.5c0.2,0.8,0.8,1.5,1.6,1.5h5.4c0.8,0,1.5-0.6,1.6-1.4l0.2-1.5h5.2&#xA;&#x9;v5.6C21.7,20.3,21.3,20.7,20.9,20.7z M6.5,3.9c0.1-0.4,0.4-0.6,0.8-0.6h9.4c0.4,0,0.7,0.2,0.8,0.6l3.9,9.1h-5c-0.6,0-1,0.4-1.1,1&#xA;&#x9;l-0.3,1.5c0,0.2-0.2,0.4-0.4,0.4H9.3c-0.2,0-0.3-0.2-0.4-0.4L8.6,14c-0.1-0.6-0.6-1-1.1-1H2.6L6.5,3.9z M18.7,3.4&#xA;&#x9;c-0.3-0.8-1.1-1.4-2-1.4H7.3c-0.9,0-1.7,0.6-2,1.5l-4.2,9.7L1,13.4v6.4C1,21,1.9,22,3.1,22h17.7c1.2,0,2.1-1,2.1-2.2v-6.4L18.7,3.4z&#xA;&#x9;"/></svg>