<svg version="1.1" id="Vlt-icon-key" xmlns="http://www.w3.org/2000/svg" xmlns:xlink="http://www.w3.org/1999/xlink" x="0px" y="0px" viewBox="0 0 24 24" style="enable-background:new 0 0 24 24;" xml:space="preserve"><path d="M5.4,18.1h1.8v-1h1v-1.6h2.1l2-2l0.8,0.3c0.7,0.3,1.4,0.4,2.1,0.4c3.3,0,5.9-2.6,5.9-5.8s-2.6-5.8-5.9-5.8S9.4,5.1,9.4,8.3&#xA;&#x9;c0,0.7,0.1,1.4,0.4,2.1l0.3,0.8l-0.6,0.6l-6.7,6.6v2.6h2l0.6-0.6V18.1z M8,19.4H6.7v1.3c0,0.1-0.1,0.3-0.2,0.4l-1,1&#xA;&#x9;c-0.1,0.1-0.2,0.2-0.4,0.2H2c-0.3,0-0.5-0.2-0.5-0.5c0,0,0,0,0,0V18c0-0.1,0.1-0.3,0.2-0.4l6.9-6.8C8.2,10,8.1,9.2,8.1,8.3&#xA;&#x9;c0-3.9,3.2-7.1,7.2-7.1c4,0,7.2,3.2,7.2,7.1c0,3.9-3.2,7.1-7.2,7.1c-0.9,0-1.7-0.2-2.6-0.5l-1.7,1.6c-0.1,0.1-0.2,0.2-0.4,0.2H9.6&#xA;&#x9;v1.1c0,0.3-0.2,0.5-0.5,0.5c0,0,0,0,0,0H8.5v0.5C8.5,19.2,8.3,19.4,8,19.4C8,19.4,8,19.4,8,19.4z M16.6,4.3c-1.5,0-2.6,1.2-2.7,2.7&#xA;&#x9;c0,1.5,1.2,2.6,2.7,2.6c1.5,0,2.6-1.2,2.6-2.6C19.2,5.5,18.1,4.4,16.6,4.3z M16.6,5.6C17.3,5.6,18,6.3,18,7s-0.6,1.3-1.4,1.3&#xA;&#x9;c-0.7,0-1.4-0.6-1.4-1.3S15.9,5.6,16.6,5.6z"/></svg>