<svg version="1.1" id="Vlt-icon-arrow-thin-up" xmlns="http://www.w3.org/2000/svg" xmlns:xlink="http://www.w3.org/1999/xlink" x="0px" y="0px" viewBox="0 0 24 24" style="enable-background:new 0 0 24 24;" xml:space="preserve"><path id="path-1_1_" class="st0" d="M11.4,2.7c-0.1,0-0.2,0.1-0.2,0.2l-6,6c-0.3,0.3-0.3,0.7,0,1c0.3,0.3,0.7,0.3,1,0L11,5v16.3&#xA;&#x9;c0,0.4,0.3,0.7,0.7,0.7c0.4,0,0.7-0.3,0.7-0.7V5l4.8,4.8c0.3,0.3,0.7,0.3,1,0c0.1-0.1,0.2-0.3,0.2-0.5c0-0.2-0.1-0.4-0.2-0.5l-6-6&#xA;&#x9;c-0.1-0.1-0.1-0.1-0.2-0.2C11.8,2.6,11.6,2.6,11.4,2.7"/></svg>