<svg version="1.1" id="Vlt-icon-notification-off" xmlns="http://www.w3.org/2000/svg" xmlns:xlink="http://www.w3.org/1999/xlink" x="0px" y="0px" viewBox="0 0 25 25" style="enable-background:new 0 0 25 25;" xml:space="preserve"><path d="M10.5,3c0.1-1.1,1.1-1.9,2.2-2c1.1,0,2,0.8,2.2,1.9c0.9,0.2,1.7,0.7,2.5,1.2c0.3,0.2,0.4,0.6,0.1,0.9&#xA;&#x9;c-0.2,0.3-0.6,0.4-0.9,0.1c0,0,0,0,0,0c-1.1-0.8-2.5-1.2-3.8-1.2c-3.5,0-6.4,2.8-6.4,6.2v1.1c0,1.6-0.3,3.2-0.8,4.8L5,17.9&#xA;&#x9;c-0.1,0.3-0.5,0.5-0.8,0.4c0,0,0,0,0,0c-0.3-0.1-0.5-0.5-0.4-0.8l0.7-1.9c0.5-1.4,0.7-2.9,0.7-4.3v-1.1C5.2,6.8,7.4,3.9,10.5,3z&#xA;&#x9; M11.8,2.7c0.7-0.1,1.3-0.1,2,0c-0.3-0.5-1-0.7-1.6-0.4C12,2.4,11.9,2.5,11.8,2.7L11.8,2.7z M16.6,21.6C16.1,23,14.7,24,13.2,24&#xA;&#x9;c-1.7,0-2.9-0.9-3.5-2.4c-0.6-0.1-1.2-0.1-1.7-0.2c-0.4-0.1-0.6-0.4-0.5-0.7c0-0.4,0.4-0.6,0.7-0.5c0,0,0,0,0,0&#xA;&#x9;c1.5,0.2,3.1,0.3,4.7,0.3c2.5,0,4.8-0.3,6.8-0.7c0.8-0.2,1.3-1,1.1-1.8L20,16c-0.5-1.5-0.8-3.1-0.8-4.8v-1.1c0-0.4,0-0.8-0.1-1.2&#xA;&#x9;c-0.1-0.3,0.2-0.7,0.5-0.8c0.3-0.1,0.7,0.2,0.7,0.5c0.1,0.5,0.1,0.9,0.1,1.4v1.1c0,1.5,0.2,2.9,0.7,4.4l0.7,1.9&#xA;&#x9;c0.5,1.5-0.4,3.1-2,3.5C18.8,21.3,17.7,21.5,16.6,21.6z M15.1,21.7c-1.3,0.1-2.6,0.1-3.9,0c0.4,0.6,1.1,1,2,1&#xA;&#x9;C13.9,22.7,14.6,22.3,15.1,21.7z M8.7,12.9c0,0.3-0.3,0.5-0.6,0.4c-0.3,0-0.5-0.3-0.4-0.6c0,0,0,0,0,0c0.1-0.4,0.1-0.8,0.1-1.6&#xA;&#x9;l0-0.4C8,7.8,8.9,6.2,12,5.1c0.3-0.1,0.5,0,0.6,0.3c0,0,0,0,0,0c0.1,0.3,0,0.5-0.3,0.6C9.7,7,9,8.2,8.9,10.8l0,0.4&#xA;&#x9;C8.8,12,8.8,12.4,8.7,12.9z M2.8,23.5c-0.2,0.3-0.7,0.3-0.9,0c0,0,0,0,0,0c-0.3-0.3-0.3-0.7,0-0.9L22.2,2c0.2-0.3,0.7-0.3,0.9,0&#xA;&#x9;c0,0,0,0,0,0c0.3,0.3,0.3,0.7,0,0.9L2.8,23.5z"/></svg>