<svg version="1.1" id="Vlt-icon-file-2" xmlns="http://www.w3.org/2000/svg" xmlns:xlink="http://www.w3.org/1999/xlink" x="0px" y="0px" viewBox="0 0 24 24" style="enable-background:new 0 0 24 24;" xml:space="preserve"><title>Vlt-icon-file-2</title><desc>Created with Sketch.</desc><rect x="6" y="17" width="8" height="1"/><rect x="6" y="8" width="7" height="1"/><rect x="6" y="14" width="8" height="1"/><rect x="6" y="11" width="11.9" height="1"/><path d="M15.1,1H4.3C3.6,1,3,1.6,3,2.3v19.4C3,22.4,3.6,23,4.3,23h15.4c0.7,0,1.3-0.6,1.3-1.3V7L15.1,1z M15.8,3.6L19.2,7h-3.4&#xA;&#x9;&#x9;&#x9;V3.6z M19.7,21.7H4.3V2.3h10.2V7v1v0.3h5.2V21.7z"/></svg>