<svg version="1.1" id="Vlt-icon-volume-increase" xmlns="http://www.w3.org/2000/svg" xmlns:xlink="http://www.w3.org/1999/xlink" x="0px" y="0px" viewBox="0 0 24 24" style="enable-background:new 0 0 24 24;" xml:space="preserve"><path d="M15.2,8.3c-0.3-0.3-0.2-0.7,0-0.9c0.2-0.2,0.6-0.2,0.9,0c2.8,2.7,2.9,7.2,0.2,9.9c-0.1,0.1-0.1,0.1-0.2,0.2&#xA;&#x9;c-0.3,0.3-0.7,0.2-0.9,0c-0.3-0.3-0.2-0.7,0-0.9l0,0c2.3-2.2,2.3-5.8,0.2-8.1C15.3,8.4,15.2,8.3,15.2,8.3z M17.3,6.7&#xA;&#x9;C17,6.5,17,6,17.2,5.8c0.3-0.3,0.7-0.3,0.9,0l0,0c3.7,3.5,3.8,9.4,0.2,13.1c-0.1,0.1-0.2,0.2-0.2,0.2c-0.3,0.3-0.7,0.2-0.9,0&#xA;&#x9;s-0.2-0.7,0-0.9c3.2-3,3.3-8.1,0.2-11.2C17.4,6.8,17.3,6.8,17.3,6.7L17.3,6.7z M19.4,5.1c-0.3-0.3-0.2-0.7,0-0.9&#xA;&#x9;c0.2-0.2,0.6-0.2,0.9,0c4.6,4.4,4.7,11.6,0.3,16.2c-0.1,0.1-0.2,0.2-0.3,0.3c-0.3,0.3-0.7,0.2-0.9,0s-0.2-0.7,0-0.9&#xA;&#x9;c4-3.9,4.2-10.3,0.3-14.4C19.6,5.3,19.5,5.2,19.4,5.1z M13.6,5.4v14.1c0,0.9-1.1,1.5-1.8,1l-5.5-3.7c-0.6-0.4-1.3-0.6-2-0.6H2.7&#xA;&#x9;c-0.9,0-1.7-0.7-1.7-1.6v-4c0-0.9,0.8-1.6,1.7-1.6h1.6c0.7,0,1.4-0.2,2-0.6l5.5-3.7C12.5,3.9,13.6,4.5,13.6,5.4L13.6,5.4z M12.3,5.7&#xA;&#x9;L7,9.3c-0.8,0.5-1.7,0.8-2.7,0.8H2.7c-0.2,0-0.4,0.2-0.4,0.4v4c0,0.2,0.2,0.4,0.4,0.4h1.6c1,0,1.9,0.3,2.7,0.8l5.3,3.6V5.7z"/></svg>