<svg version="1.1" id="Vlt-icon-reload" xmlns="http://www.w3.org/2000/svg" xmlns:xlink="http://www.w3.org/1999/xlink" x="0px" y="0px" viewBox="0 0 24 24" style="enable-background:new 0 0 24 24;" xml:space="preserve"><path d="M12.7,1.5c-5,0-9.3,3.7-10.1,8.5L1.2,8.7c-0.3-0.3-0.7-0.3-1,0c0,0,0,0,0,0c-0.3,0.3-0.3,0.7,0,1l3.2,3.1l3.4-3.1&#xA;&#x9;c0.3-0.3,0.3-0.7,0.1-1c-0.3-0.3-0.7-0.3-1-0.1c0,0,0,0,0,0L4,10.3c0.7-4.2,4.3-7.4,8.7-7.4c4.9,0,8.9,4,8.9,8.9&#xA;&#x9;c0,4.9-4,8.9-8.9,8.9c-0.4,0-0.7,0.3-0.7,0.7s0.3,0.7,0.7,0.7c5.7,0,10.3-4.6,10.3-10.3S18.4,1.5,12.7,1.5"/></svg>