<svg version="1.1" id="Vlt-icon-thumbs-up" xmlns="http://www.w3.org/2000/svg" xmlns:xlink="http://www.w3.org/1999/xlink" x="0px" y="0px" viewBox="0 0 24 24" style="enable-background:new 0 0 24 24;" xml:space="preserve"><path id="path-1_1_" d="M7.1,20.8v0.5c0,0.6-0.4,1-1,1H3c-0.6,0-1-0.4-1-1V9.9c0-0.6,0.4-1,1-1h3.1c0.6,0,1,0.4,1,1l0,0H8&#xA;&#x9;c0,0.1,0,0,0.2-0.1C8.4,9.6,8.7,9.3,9,8.9c0.2-0.2,0.4-0.5,0.6-0.8C9.7,8,10,7.6,10,7.6c0.2-0.2,0.3-0.4,0.5-0.6&#xA;&#x9;c0.3-0.4,0.6-0.7,0.8-1c0.2-0.2,0.4-0.6,0.5-1.1c0-0.2,0.1-0.2,0.2-0.7c0.2-1.2,0.4-1.7,1-2.3c0.3-0.3,0.8-0.4,0.9-0.4&#xA;&#x9;c2.3-0.1,3.2,1.2,3.4,3c0,0.3,0,0.5,0,0.8c0,1-0.2,1.6-0.8,2.7c0,0,0,0.1-0.1,0.1h2.8c1.6,0,3,1.4,3,3c0,0.7-0.2,1.5-0.6,2&#xA;&#x9;c0.3,0.9,0.1,1.9-0.4,2.8c0.2,1-0.1,2.1-0.7,2.8c0.1,2.3-1.4,3.7-3.7,3.7h-1.7c-1.5,0-2.7-0.3-4.5-0.9c-1.3-0.4-1.4-0.5-1.8-0.6&#xA;&#x9;c-0.5-0.1-0.8-0.2-1.2-0.2L7.1,20.8L7.1,20.8z M19.8,15.7c0.8-0.7,0.8-2.2,0.2-2.9c0.4,0,1-0.8,1-1.7c0-0.8-0.7-1.7-1.7-1.7h-4.6&#xA;&#x9;c0-1.7,1.2-2.4,1.2-4.2c0-1,0-2.5-2.1-2.5c-0.8,0.8-0.4,2.9-1.7,4.2c-1.2,1.2-2.9,4.3-4.2,4.3H7.6v8.2c2.4,0,4.4,1.7,7.6,1.7h1.7&#xA;&#x9;c1.6,0,2.7-0.8,2.3-2.9C19.8,17.9,20.3,16.7,19.8,15.7z"/></svg>