<svg version="1.1" id="Vlt-icon-ai" xmlns="http://www.w3.org/2000/svg" xmlns:xlink="http://www.w3.org/1999/xlink" x="0px" y="0px" viewBox="0 0 24 24" style="enable-background:new 0 0 24 24;" xml:space="preserve"><path id="path-1" d="M11.5,6.3L13,6.1c0,0,0,0,0.1,0c0.3-0.8,1-1.3,1.8-1.3c1.1,0,1.9,0.9,1.9,1.9s-0.9,1.9-1.9,1.9&#xA;&#x9;c-0.9,0-1.7-0.6-1.9-1.5l-1.3,0.1c0,0,0,0.1,0,0.1c0,0.5-0.1,1-0.4,1.5l1.3,1.1c0.4-0.3,1-0.5,1.6-0.5c1.5,0,2.6,1.2,2.6,2.6&#xA;&#x9;s-1.2,2.6-2.6,2.6s-2.6-1.2-2.6-2.6c0-0.5,0.1-0.9,0.3-1.2l-1.3-1c-0.4,0.4-1,0.6-1.6,0.7l0.1,0.8c0.9,0.2,1.6,1,1.6,1.9&#xA;&#x9;c0,1.1-0.9,1.9-1.9,1.9s-1.9-0.9-1.9-1.9c0-0.8,0.5-1.5,1.2-1.8l-0.1-1c-1.4-0.3-2.4-1.5-2.4-3c0-1.7,1.4-3.1,3.1-3.1&#xA;&#x9;C9.9,4.4,11,5.1,11.5,6.3z M21.4,15.6c-0.3,0.4-0.9,0.4-1.2,0.4h-0.1c0,0.2,0.1,0.6,0.1,0.9c0.1,0.2,0,0.5-0.2,0.6&#xA;&#x9;c0,0-0.4,0.4-0.4,1.1c0,1.2-0.5,1.8-0.9,2.2c-0.6,0.5-1.5,0.6-2.3,0.3c-0.3-0.1-0.6-0.2-1-0.4l-0.5,1.7c-0.1,0.3-0.3,0.5-0.6,0.5&#xA;&#x9;H5.7c-0.2,0-0.4-0.1-0.5-0.2S5,22.4,5.1,22.2c0,0,0.3-1.4,0.5-4.1c0.1-1-0.5-1.6-1.2-2.6C3.3,14.2,2,12.5,2,9.5C2,3.6,7.2,1,12.4,1&#xA;&#x9;c4.4,0,7.5,2.9,8.4,5.6c0.7,2.1,0.2,3.7-0.1,4.3l0.8,3.1C21.7,14.5,21.8,15.2,21.4,15.6z M19.2,15.1c0.3-0.3,0.7-0.3,1-0.3&#xA;&#x9;c0,0,0.1,0,0.2,0c0-0.1,0-0.2-0.1-0.4L19.5,11c0-0.2,0-0.4,0.1-0.5c0-0.1,0.8-1.4,0.1-3.5c-0.8-2.3-3.4-4.8-7.2-4.8&#xA;&#x9;c-4.2,0-9.2,1.9-9.2,7.2c0,2.6,1.1,4.1,2.1,5.3c0.8,1.1,1.6,2.1,1.5,3.5c-0.1,1.6-0.3,2.8-0.4,3.5h7.4l0.4-1.4&#xA;&#x9;c-1.3-0.5-2.5-1.1-2.6-1.2c-0.3-0.1-0.5-0.5-0.3-0.8c0.1-0.3,0.5-0.5,0.8-0.3c0,0,3.5,1.6,4.6,1.9c0.5,0.1,0.9,0.1,1.2-0.1&#xA;&#x9;c0.3-0.2,0.4-0.6,0.4-1.1c0-0.8,0.3-1.4,0.6-1.7C18.9,16.4,18.8,15.6,19.2,15.1z M15.7,6.8c0-0.5-0.4-0.8-0.8-0.8&#xA;&#x9;c-0.5,0-0.8,0.4-0.8,0.8c0,0.5,0.4,0.8,0.8,0.8C15.3,7.6,15.7,7.2,15.7,6.8z M15.8,12.1c0-0.8-0.7-1.5-1.5-1.5s-1.5,0.7-1.5,1.5&#xA;&#x9;c0,0.8,0.7,1.5,1.5,1.5S15.8,12.9,15.8,12.1z M9.7,13.2c0-0.5-0.4-0.8-0.8-0.8S8,12.8,8,13.2s0.4,0.8,0.8,0.8S9.7,13.7,9.7,13.2z&#xA;&#x9; M10.6,7.5c0-1.1-0.9-2-2-2s-2,0.9-2,2s0.9,2,2,2S10.6,8.6,10.6,7.5z"/></svg>