<svg xmlns="http://www.w3.org/2000/svg" width="24" height="24" viewBox="0 0 24 24" id="Vlt-icon-books"><path fill="#000" fill-rule="nonzero" d="M5.6 1.115H2.1c-.6 0-1.1.5-1.1 1.2v20c0 .6.5 1.2 1.1 1.2h3.5c.6 0 1.2-.5 1.2-1.2v-20c-.1-.6-.6-1.2-1.2-1.2zm-.2 21H2.2v-19.6h3.2v19.6zm-2.3-3v1.3h1.5v-1.3H3.1zm0-2v1.3h1.5v-1.3H3.1zm0-12v1.3h1.5v-1.3H3.1zm9-4c.6 0 1.1.6 1.2 1.2v20c0 .7-.6 1.2-1.2 1.2H8.6c-.6 0-1.1-.6-1.1-1.2v-20c0-.7.5-1.2 1.1-1.2h3.5zm-.2 21v-19.6H8.7v19.6h3.2zm-2.3-3h1.5v1.3H9.6v-1.3zm0-2h1.5v1.3H9.6v-1.3zm0-12h1.5v1.3H9.6v-1.3zm9.7-3.2l3.6 19.7c.1.6-.3 1.2-.9 1.3l-3.4.6c-.6.1-1.2-.3-1.3-.9l-3.6-19.7c-.1-.6.3-1.2.9-1.3l3.4-.6c.6-.1 1.2.3 1.3.9zm-.8 20.4l3.2-.6-3.6-19.4-3.2.6 3.6 19.4zm.29-3.149l1.475-.274.238 1.278-1.475.274-.237-1.278zm-.29-1.911l1.475-.274.237 1.278-1.475.274-.237-1.278zM16.3 5.457l1.475-.274.237 1.278-1.475.274-.237-1.278z"/></svg>