<svg version="1.1" id="Vlt-icon-tag" xmlns="http://www.w3.org/2000/svg" xmlns:xlink="http://www.w3.org/1999/xlink" x="0px" y="0px" viewBox="0 0 24 24" style="enable-background:new 0 0 24 24;" xml:space="preserve"><path d="M21.7,11.1c0.5,0.5,0.8,1.2,0.8,1.9c0,0.7-0.3,1.4-0.8,1.9l-6.9,6.9c-0.5,0.5-1.2,0.8-1.9,0.8c-0.7,0-1.4-0.3-1.9-0.8&#xA;&#x9;l-8.8-8.8c-0.5-0.5-0.8-1.2-0.8-1.9V4.1c0-1.5,1.2-2.6,2.6-2.6H11c0.7,0,1.4,0.3,1.9,0.8L21.7,11.1z M20.8,12.1l-8.8-8.8&#xA;&#x9;C11.7,3,11.4,2.8,11,2.8H4.1c-0.7,0-1.3,0.6-1.3,1.3V11c0,0.4,0.1,0.7,0.4,0.9l8.8,8.8c0.2,0.2,0.6,0.4,0.9,0.4s0.7-0.1,0.9-0.4&#xA;&#x9;l6.9-6.9c0.2-0.2,0.4-0.6,0.4-0.9C21.2,12.6,21,12.3,20.8,12.1L20.8,12.1z M5.6,6.4c0.4,0,0.8-0.4,0.8-0.8c0,0,0,0,0,0&#xA;&#x9;c0-0.4-0.4-0.8-0.8-0.8c0,0,0,0,0,0c-0.4,0-0.8,0.4-0.8,0.8c0,0,0,0,0,0C4.8,6.1,5.2,6.4,5.6,6.4C5.6,6.4,5.6,6.4,5.6,6.4L5.6,6.4z&#xA;&#x9; M5.6,7.8c-1.2,0-2.1-1-2.1-2.1c0,0,0,0,0,0c0-1.2,1-2.1,2.1-2.1c1.2,0,2.1,1,2.1,2.1S6.8,7.8,5.6,7.8L5.6,7.8z"/></svg>