<svg version="1.1" id="Vlt-icon-receptionist" xmlns="http://www.w3.org/2000/svg" xmlns:xlink="http://www.w3.org/1999/xlink" x="0px" y="0px" viewBox="0 0 24 24" style="enable-background:new 0 0 24 24;" xml:space="preserve"><title>Vlt-icon-receptionist</title><g><path d="M15,12.5h-1.2c-0.4,0-0.6,0.3-0.6,0.6c0,0.4,0.3,0.6,0.6,0.6H15c0.4,0,0.6-0.3,0.6-0.6C15.7,12.8,15.4,12.5,15,12.5z"/><path d="M10.2,12.5H9c-0.4,0-0.6,0.3-0.6,0.6c0,0.4,0.3,0.6,0.6,0.6h1.2c0.4,0,0.6-0.3,0.6-0.6S10.5,12.5,10.2,12.5z"/><path d="M22.8,17.6c-1.2-1.2-2.2-5.6-2.2-7.5c0-4.8-3.8-8.7-8.6-8.7c-4.7,0-8.6,3.9-8.6,8.7c0,2-1.1,6.4-2.2,7.5&#xA;&#x9;&#x9;c-0.3,0.3-0.3,0.7,0,0.9c1.4,1.4,6,2,6.5,2c0,0,0,0,0.1,0c1.2,1.2,2.7,1.8,4.3,1.8s3.1-0.7,4.3-1.8c0,0,0,0,0.1,0&#xA;&#x9;&#x9;c0.5-0.1,5.1-0.7,6.5-2C23.1,18.3,23.1,17.9,22.8,17.6z M4.9,10.2C4.7,6,8,2.7,12,2.7s7.3,3.3,7.3,7.4c0,0.3,0,0.7-0.1,1&#xA;&#x9;&#x9;c-4.9-0.3-9.4-4.5-9.6-5.3c0-0.4-0.3-0.6-0.6-0.6c-0.4,0-0.6,0.3-0.6,0.6c0,2.7-2.3,4.4-3.5,5.1C4.9,10.6,4.9,10.4,4.9,10.2z&#xA;&#x9;&#x9; M2.6,17.9c0.5-0.7,0.9-1.8,1.3-2.9c0.3,0.7,0.8,1.1,1.4,1.2c0.3,1.1,0.8,2,1.3,2.8C5.1,18.8,3.5,18.4,2.6,17.9z M14,18&#xA;&#x9;&#x9;c-0.2-0.8-0.9-1.5-1.8-1.5c-1,0-1.8,0.8-1.8,1.8s0.8,1.8,1.8,1.8c0.7,0,1.2-0.4,1.6-0.9c0.7,0,1.5-0.1,2.2-0.3&#xA;&#x9;&#x9;c-1.1,1.4-2.5,2.2-4,2.2c-2.6,0-4.9-2.3-5.7-5.8c0-0.2-0.2-0.4-0.4-0.4c-0.1,0-0.1,0-0.2,0s-0.3,0-0.4,0.1c-0.1,0-0.6-0.6-0.6-1.8&#xA;&#x9;&#x9;c0-0.3,0-0.6,0.1-0.9c0.9-0.4,3.6-1.9,4.5-4.7c1.9,2,5.9,4.7,9.9,4.9c0,0.2,0.1,0.5,0.1,0.7c0,1.1-0.4,1.8-0.6,1.8&#xA;&#x9;&#x9;c-0.2-0.1-0.4-0.1-0.6,0s-0.3,0.2-0.4,0.4c0,0.1-0.1,0.2-0.1,0.4C16.9,17.5,15.7,18,14,18z M12.7,18.4c0,0.3-0.2,0.5-0.5,0.5&#xA;&#x9;&#x9;s-0.5-0.2-0.5-0.5s0.2-0.5,0.5-0.5S12.7,18.1,12.7,18.4z M17.5,19.1c0.5-0.8,1-1.8,1.3-2.8c0.6,0,1.1-0.5,1.4-1.2&#xA;&#x9;&#x9;c0.3,1.1,0.8,2.1,1.3,2.9C20.5,18.4,18.9,18.8,17.5,19.1z"/></g></svg>