<svg version="1.1" id="Vlt-icon-share-2" xmlns="http://www.w3.org/2000/svg" xmlns:xlink="http://www.w3.org/1999/xlink" x="0px" y="0px" viewBox="0 0 24 24" style="enable-background:new 0 0 24 24;" xml:space="preserve"><path id="path-1" d="M18.5,16.4c-0.8,0-1.6,0.3-2.2,0.8l-7.9-4.5c0.1-0.2,0.1-0.5,0.1-0.8s0-0.5-0.1-0.8l7.8-4.4&#xA;&#x9;c0.6,0.5,1.4,0.9,2.3,0.9c1.8,0,3.3-1.4,3.3-3.2s-1.5-3.2-3.3-3.2s-3.3,1.4-3.3,3.2c0,0.3,0,0.5,0.1,0.8L7.4,9.7&#xA;&#x9;C6.8,9.1,6,8.8,5.1,8.8c-1.8,0-3.3,1.4-3.3,3.2s1.5,3.2,3.3,3.2c0.9,0,1.7-0.3,2.3-0.9l7.9,4.5c-0.1,0.2-0.1,0.5-0.1,0.7&#xA;&#x9;c0,1.7,1.5,3.2,3.2,3.2c1.8,0,3.2-1.4,3.2-3.2C21.7,17.9,20.3,16.4,18.5,16.4z"/></svg>