<svg version="1.1" id="Vlt-icon-magic-wand" xmlns="http://www.w3.org/2000/svg" xmlns:xlink="http://www.w3.org/1999/xlink" x="0px" y="0px" viewBox="0 0 24 24" style="enable-background:new 0 0 24 24;" xml:space="preserve"><path id="path-1" d="M2.9,12.5c-0.3,0-0.6-0.3-0.6-0.6S2,11.3,1.7,11.3S1.1,11,1.1,10.7s0.3-0.6,0.6-0.6S2.4,10,2.4,9.6&#xA;&#x9;C2.4,9.3,2.7,9,3,9s0.6,0.3,0.6,0.6s0.3,0.6,0.6,0.6s0.6,0.3,0.6,0.6s-0.3,0.6-0.6,0.6S3.5,11.6,3.5,12C3.5,12.3,3.3,12.5,2.9,12.5z&#xA;&#x9; M22.2,19.4c0.3,0.3,0.5,0.8,0.5,1.2c0,0.5-0.2,0.9-0.5,1.2l-0.7,0.7c-0.3,0.3-0.8,0.5-1.2,0.5c-0.5,0-0.9-0.2-1.2-0.5L6.8,10.3&#xA;&#x9;C6.5,10,6.3,9.5,6.3,9.1c0-0.5,0.2-0.9,0.5-1.2l0.7-0.7c0.3-0.3,0.8-0.5,1.2-0.5s0.9,0.2,1.2,0.5L22.2,19.4z M7.6,8.7L7.6,8.7&#xA;&#x9;c-0.2,0.2-0.2,0.6,0,0.8l1.7,1.7l1.5-1.5L9.1,8C9,7.9,8.9,7.8,8.7,7.8C8.6,7.8,8.4,7.9,8.3,8L7.6,8.7z M21.4,21L21.4,21&#xA;&#x9;c0.2-0.2,0.2-0.6,0-0.8l-9.8-9.7L10.1,12l9.8,9.7c0.1,0.1,0.3,0.2,0.4,0.2c0.2,0,0.3-0.1,0.4-0.2L21.4,21z M5.2,6.8&#xA;&#x9;c-0.3,0-0.6-0.3-0.6-0.6c0-1-0.8-1.7-1.7-1.7c-0.3,0-0.6-0.3-0.6-0.6s0.3-0.6,0.6-0.6c1,0,1.7-0.8,1.7-1.7C4.7,1.3,4.9,1,5.2,1&#xA;&#x9;s0.6,0.3,0.6,0.6c0,1,0.8,1.7,1.7,1.7c0.3,0,0.6,0.3,0.6,0.6S7.9,4.5,7.6,4.5c-1,0-1.7,0.8-1.7,1.7C5.8,6.5,5.6,6.8,5.2,6.8z&#xA;&#x9; M4.7,3.9C4.9,4,5.1,4.2,5.2,4.5C5.4,4.2,5.6,4,5.8,3.9C5.6,3.7,5.4,3.5,5.2,3.3C5.1,3.5,4.9,3.7,4.7,3.9z M5.2,18.3&#xA;&#x9;c-0.3,0-0.6-0.3-0.6-0.6c0-1-0.8-1.7-1.7-1.7c-0.3,0-0.6-0.3-0.6-0.6s0.3-0.6,0.6-0.6c1,0,1.7-0.8,1.7-1.7c0-0.3,0.3-0.6,0.6-0.6&#xA;&#x9;s0.6,0.3,0.6,0.6c0,1,0.8,1.7,1.7,1.7c0.3,0,0.6,0.3,0.6,0.6S7.8,16,7.5,16c-1,0-1.7,0.8-1.7,1.7C5.8,18,5.6,18.3,5.2,18.3z&#xA;&#x9; M4.7,15.4c0.2,0.2,0.4,0.4,0.6,0.6c0.2-0.2,0.4-0.4,0.6-0.6c-0.2-0.2-0.4-0.4-0.6-0.6C5.1,15,4.9,15.2,4.7,15.4z M14.5,9.1&#xA;&#x9;c-0.3,0-0.6-0.3-0.6-0.6c0-1.6-1.3-2.9-2.9-2.9c-0.3,0-0.6-0.3-0.6-0.6c0-0.3,0.3-0.6,0.6-0.6c1.6,0,2.9-1.3,2.9-2.9&#xA;&#x9;c0-0.3,0.3-0.6,0.6-0.6s0.6,0.3,0.6,0.6c0,1.6,1.3,2.9,2.9,2.9c0.3,0,0.6,0.3,0.6,0.6c0,0.3-0.3,0.6-0.6,0.6c-1.6,0-2.9,1.3-2.9,2.9&#xA;&#x9;C15.1,8.8,14.8,9.1,14.5,9.1z M13.1,5c0.6,0.3,1,0.8,1.4,1.4c0.3-0.6,0.8-1,1.4-1.4c-0.6-0.3-1-0.8-1.4-1.4&#xA;&#x9;C14.2,4.2,13.7,4.7,13.1,5z"/></svg>