<svg version="1.1" id="Vlt-icon-merge" xmlns="http://www.w3.org/2000/svg" xmlns:xlink="http://www.w3.org/1999/xlink" x="0px" y="0px" viewBox="0 0 24 24" style="enable-background:new 0 0 24 24;" xml:space="preserve"><path d="M9.3,15.7l-7.1,7.1c-0.3,0.3-0.7,0.3-1,0c-0.3-0.3-0.3-0.7,0-1l0,0l7.1-7.1H5.8c-0.4,0-0.7-0.3-0.7-0.7s0.3-0.7,0.7-0.7h4.8&#xA;&#x9;v4.8c0,0.4-0.3,0.7-0.7,0.7s-0.7-0.3-0.7-0.7C9.3,18.2,9.3,15.7,9.3,15.7z M14.7,8.3l7.1-7.1c0.3-0.3,0.7-0.3,1,0&#xA;&#x9;c0.3,0.3,0.3,0.7,0,1l-7.1,7.1h2.5c0.4,0,0.7,0.3,0.7,0.7s-0.3,0.7-0.7,0.7h-4.8V5.8c0-0.4,0.3-0.7,0.7-0.7s0.7,0.3,0.7,0.7&#xA;&#x9;C14.7,5.8,14.7,8.3,14.7,8.3z M9,9.9C8.7,9.7,8.7,9.2,9,9s0.7-0.3,0.9,0l5.1,5.1c0.3,0.3,0.3,0.7,0,0.9s-0.7,0.3-0.9,0l0,0L9,9.9&#xA;&#x9;L9,9.9z"/></svg>