<svg version="1.1" id="Vlt-icon-maximise" xmlns="http://www.w3.org/2000/svg" xmlns:xlink="http://www.w3.org/1999/xlink" x="0px" y="0px" viewBox="0 0 24 24" style="enable-background:new 0 0 24 24;" xml:space="preserve"><path d="M12,13l-7.7,7.7h2.3c0.4,0,0.7,0.3,0.7,0.6C7.3,21.7,7,22,6.7,22c0,0,0,0,0,0H2v-4.6c0-0.4,0.3-0.6,0.7-0.6s0.6,0.3,0.6,0.6&#xA;&#x9;v2.5l7.8-7.8L3.3,4.3v2.4C3.3,7,3,7.3,2.7,7.3S2,7,2,6.7V2h4.7C7,2,7.3,2.3,7.3,2.7S7,3.3,6.7,3.3H4.2l7.8,7.8l7.8-7.8h-2.5&#xA;&#x9;c-0.4,0-0.6-0.3-0.6-0.6S17,2,17.4,2H22v4.7c0,0.4-0.3,0.7-0.6,0.7c-0.4,0-0.7-0.3-0.7-0.6c0,0,0,0,0,0V4.3l-7.8,7.8l7.8,7.8v-2.5&#xA;&#x9;c0-0.4,0.3-0.7,0.6-0.7c0.4,0,0.7,0.3,0.7,0.6c0,0,0,0,0,0V22h-4.6c-0.4,0-0.7-0.3-0.7-0.6c0-0.4,0.3-0.7,0.6-0.7c0,0,0,0,0,0h2.4&#xA;&#x9;L12,13z"/></svg>