<svg version="1.1" id="Vlt-icon-mockup" xmlns="http://www.w3.org/2000/svg" xmlns:xlink="http://www.w3.org/1999/xlink" x="0px" y="0px" viewBox="0 0 24 24" style="enable-background:new 0 0 24 24;" xml:space="preserve"><path d="M3.7,3.2c-0.5,0-1,0.4-1,0.9v15.8c0,0.5,0.4,0.9,1,0.9h16.6c0.5,0,1-0.4,1-0.9V4.1c0-0.5-0.4-0.9-1-0.9H3.7z M3.7,2h16.6&#xA;&#x9;c1.2,0,2.2,0.9,2.2,2.1v15.8c0,1.2-1,2.1-2.2,2.1H3.7c-1.2,0-2.2-0.9-2.2-2.1V4.1C1.5,2.9,2.5,2,3.7,2z M2.8,6.5v1.2h18.5V6.5H2.8z&#xA;&#x9; M4.8,5.7c0.5,0,0.9-0.4,0.9-0.8C5.6,4.4,5.3,4,4.8,4S3.9,4.4,3.9,4.8C3.9,5.3,4.3,5.7,4.8,5.7z M7.1,5.7C7.6,5.7,8,5.3,8,4.8&#xA;&#x9;C8,4.4,7.6,4,7.1,4S6.2,4.4,6.2,4.8C6.2,5.3,6.6,5.7,7.1,5.7z M9.4,5.7c0.5,0,0.9-0.4,0.9-0.8C10.3,4.4,9.9,4,9.4,4S8.5,4.4,8.5,4.8&#xA;&#x9;C8.5,5.3,8.9,5.7,9.4,5.7z M5.1,9.8v7.8h5.8V9.8C10.8,9.8,5.1,9.8,5.1,9.8z M6.3,16.4V11h3.3v5.4L6.3,16.4L6.3,16.4z M13.2,9.8V11&#xA;&#x9;h5.8V9.8C18.9,9.8,13.2,9.8,13.2,9.8z M13.2,13.1v1.2h5.8v-1.2L13.2,13.1L13.2,13.1z M13.2,16.4v1.2h5.8v-1.2H13.2z"/></svg>