<svg version="1.1" id="Vlt-icon-device-cloud" xmlns="http://www.w3.org/2000/svg" xmlns:xlink="http://www.w3.org/1999/xlink" x="0px" y="0px" viewBox="0 0 24 24" style="enable-background:new 0 0 24 24;" xml:space="preserve"><path d="M9.2,20c-0.9,0-1.6-0.7-1.6-1.6V2.6C7.6,1.7,8.3,1,9.2,1H16c0.9,0,1.6,0.7,1.6,1.6v15.8c0,0.9-0.7,1.6-1.6,1.6H9.2L9.2,20z&#xA;&#x9; M8.8,2.6v15.8c0,0.2,0.1,0.3,0.3,0.3H16c0.2,0,0.3-0.2,0.3-0.3V2.6c0-0.2-0.1-0.3-0.3-0.3H9.2C9,2.3,8.8,2.4,8.8,2.6L8.8,2.6z&#xA;&#x9; M9.9,10.2V4.1h5.4v6.1H9.9z M11.2,9H14V5.4h-2.9V9z M11.1,11.9c0.6,0,1,0.5,1,1c0,0.6-0.5,1-1,1c0,0,0,0,0,0c-0.6,0-1-0.5-1-1&#xA;&#x9;c0,0,0,0,0,0C10.1,12.3,10.5,11.9,11.1,11.9z M14,11.9c0.6,0,1,0.5,1,1c0,0.6-0.5,1-1,1c0,0,0,0,0,0c-0.6,0-1-0.5-1-1c0,0,0,0,0,0&#xA;&#x9;C13,12.3,13.5,11.9,14,11.9z M11.1,14.9c0.6,0,1,0.5,1,1c0,0,0,0,0,0c0,0.6-0.5,1-1,1c0,0,0,0,0,0c-0.6,0-1-0.5-1-1c0,0,0,0,0,0&#xA;&#x9;C10.1,15.3,10.5,14.9,11.1,14.9C11.1,14.9,11.1,14.9,11.1,14.9z M14,14.9c0.6,0,1,0.5,1,1c0,0.6-0.5,1-1,1c0,0,0,0,0,0&#xA;&#x9;c-0.6,0-1-0.5-1-1c0,0,0,0,0,0C13,15.3,13.5,14.9,14,14.9C14,14.9,14,14.9,14,14.9z M20.2,11.2c2.3,0.9,3.8,3,3.8,5.5&#xA;&#x9;c0,3.2-2.7,5.9-5.9,5.9L6,22.5h0c-2.8,0-5-2.2-5-4.9c0-2,1.3-3.8,3.2-4.5c0.3-1.2,0.8-2.4,1.6-3.4C6,9.5,6.4,9.4,6.7,9.6&#xA;&#x9;c0.3,0.2,0.3,0.6,0.1,0.9c0,0,0,0,0,0c-0.7,0.9-1.2,2-1.5,3.2l-0.1,0.4l-0.4,0.1c-1.6,0.5-2.6,1.9-2.6,3.5c0,2,1.7,3.6,3.7,3.6&#xA;&#x9;l5.8,0l6.3,0c2.6,0,4.7-2.1,4.7-4.6c0-2-1.3-3.7-3.2-4.4l-0.3-0.1l-0.1-0.2c-0.2-0.4-0.5-0.9-0.8-1.3c-0.2-0.3-0.1-0.7,0.1-0.9&#xA;&#x9;c0,0,0,0,0,0c0.3-0.2,0.7-0.1,0.9,0.1C19.7,10.3,20,10.8,20.2,11.2z"/></svg>