<svg version="1.1" id="Vlt-icon-volume-decrease" xmlns="http://www.w3.org/2000/svg" xmlns:xlink="http://www.w3.org/1999/xlink" x="0px" y="0px" viewBox="0 0 24 24" style="enable-background:new 0 0 24 24;" xml:space="preserve"><path d="M15.7,8.1c-0.3-0.3-0.3-0.7,0-0.9c0.3-0.3,0.7-0.3,0.9,0c2.8,2.8,2.8,7.3,0,10.1c0,0,0,0,0,0c-0.3,0.3-0.7,0.3-0.9,0&#xA;&#x9;s-0.3-0.7,0-0.9C18,14,18,10.3,15.7,8.1L15.7,8.1z M13.3,5.2v14.1c0,0.6-0.5,1.2-1.1,1.2c-0.2,0-0.5-0.1-0.7-0.2l-5.4-3.7&#xA;&#x9;c-0.6-0.4-1.2-0.6-1.9-0.6H2.7c-0.9,0-1.6-0.7-1.7-1.6v-4c0-0.9,0.7-1.6,1.7-1.6h1.5c0.7,0,1.3-0.2,1.9-0.6l5.4-3.7&#xA;&#x9;C12,3.8,12.7,4,13.1,4.5C13.2,4.7,13.3,4.9,13.3,5.2L13.3,5.2z M6.8,9C6.1,9.6,5.1,9.8,4.2,9.8H2.7c-0.2,0-0.3,0.2-0.3,0.4l0,0v4&#xA;&#x9;c0,0.2,0.2,0.4,0.3,0.4h1.5c0.9,0,1.9,0.3,2.7,0.8L12,19V5.4L6.8,9z"/></svg>