<svg version="1.1" id="Vlt-icon-download" xmlns="http://www.w3.org/2000/svg" xmlns:xlink="http://www.w3.org/1999/xlink" x="0px" y="0px" viewBox="0 0 24 24" style="enable-background:new 0 0 24 24;" xml:space="preserve"><path d="M18.2,10.1c0.3,0.3,0.3,0.7,0,1L12,17.4l-6.2-6.3c-0.3-0.3-0.3-0.7,0-1c0.3-0.3,0.7-0.3,1,0l4.4,4.5V2.2&#xA;&#x9;c0-0.4,0.3-0.7,0.7-0.7s0.7,0.3,0.7,0.7c0,0,0,0,0,0.1v12.4l4.4-4.5C17.4,9.8,17.9,9.8,18.2,10.1C18.2,10.1,18.2,10.1,18.2,10.1&#xA;&#x9;L18.2,10.1z M19.7,22.5H4.3c-1.3,0-2.3-1-2.3-2.3v-3.9c0-0.4,0.3-0.7,0.7-0.7s0.7,0.3,0.7,0.7c0,0,0,0,0,0.1v3.9&#xA;&#x9;c0,0.5,0.4,0.8,0.8,0.8h15.5c0.5,0,0.8-0.4,0.8-0.8v-3.9c0-0.4,0.3-0.7,0.7-0.7c0.4,0,0.7,0.3,0.7,0.7c0,0,0,0,0,0.1v3.9&#xA;&#x9;C22,21.5,21,22.5,19.7,22.5z"/></svg>