<svg version="1.1" id="Vlt-icon-gallery" xmlns="http://www.w3.org/2000/svg" xmlns:xlink="http://www.w3.org/1999/xlink" x="0px" y="0px" viewBox="0 0 24 24" style="enable-background:new 0 0 24 24;" xml:space="preserve"><g><path d="M2.7,18L1.4,6.3C1.3,5.4,1.9,4.6,2.8,4.5L17,2.9c0.8-0.1,1.5,0.4,1.7,1.1c0.1,0.4,0.5,0.6,0.9,0.4C20,4.3,20.2,4,20.1,3.6&#xA;&#x9;&#x9;c-0.4-1.4-1.8-2.2-3.2-2.1L2.6,3.2C1,3.4-0.2,4.9,0,6.5l1.4,11.6c0.1,0.6,0.3,1.1,0.7,1.6C2.3,20,2.8,20,3,19.8s0.3-0.7,0.1-1l0,0&#xA;&#x9;&#x9;C2.9,18.6,2.8,18.3,2.7,18"/><path d="M22.6,11.2c-1.6,0-3,0.8-4.9,2.4c-0.6-1.4-1.9-2.3-3.4-2.3c-1.6,0-3,1-3.5,2.5c-1.9-0.8-3.7-0.8-5.1-0.3c0,0,0,0,0,0V7.9&#xA;&#x9;&#x9;c0-0.7,0.6-1.3,1.3-1.3h14.4c0.7,0,1.3,0.6,1.3,1.3L22.6,11.2L22.6,11.2z M12.1,14.4c0.4-1.2,1.6-1.9,2.9-1.6&#xA;&#x9;&#x9;c0.8,0.2,1.5,0.9,1.6,1.8c-0.1,0.1-0.2,0.2-0.3,0.3c-0.6,0.5-1,1-1.4,1.3C13.9,15.4,13,14.8,12.1,14.4z M22.6,19.7&#xA;&#x9;&#x9;c0,0.7-0.6,1.3-1.3,1.3H7c-0.7,0-1.3-0.6-1.3-1.3V15c0.2-0.1,0.3-0.2,0.5-0.2c1.9-0.7,4.5-0.2,7.6,2.3c-1,0.9-1.5,1.1-2.1,1.1&#xA;&#x9;&#x9;c-0.4,0-0.7,0.3-0.7,0.7c0,0.4,0.3,0.7,0.7,0.7c1.4,0,2-0.4,5.5-3.7c2.4-2.3,4-3.3,5.4-3.3C22.6,12.6,22.6,19.7,22.6,19.7z&#xA;&#x9;&#x9; M21.3,5.3H7c-1.5,0-2.7,1.2-2.7,2.6c0,0,0,0,0,0v11.7c0,1.5,1.2,2.6,2.7,2.6h14.4c1.5,0,2.7-1.2,2.7-2.6V7.9&#xA;&#x9;&#x9;C24,6.5,22.8,5.3,21.3,5.3z"/><path d="M10.2,9.5c-0.3-0.2-0.7-0.2-1,0.1C9,9.9,9,10.3,9.3,10.5l1,0.9c0.3,0.2,0.7,0.2,1-0.1c0.2-0.3,0.2-0.7-0.1-0.9&#xA;&#x9;&#x9;C11.2,10.3,10.2,9.5,10.2,9.5z M14.4,7.7c-0.4,0-0.7,0.3-0.7,0.7v1.2c0,0.4,0.3,0.7,0.7,0.7c0.4,0,0.7-0.3,0.7-0.7V8.4&#xA;&#x9;&#x9;C15.1,8,14.8,7.7,14.4,7.7C14.4,7.7,14.4,7.7,14.4,7.7 M18.5,9.5l-0.9,0.9c-0.3,0.3-0.3,0.7,0,1c0.3,0.3,0.7,0.3,1,0l0.9-0.9&#xA;&#x9;&#x9;c0.3-0.3,0.3-0.7,0-1C19.2,9.3,18.8,9.2,18.5,9.5L18.5,9.5"/></g></svg>