<svg version="1.1" id="Vlt-icon-phone-down" xmlns="http://www.w3.org/2000/svg" xmlns:xlink="http://www.w3.org/1999/xlink" x="0px" y="0px" viewBox="0 0 28 24" style="enable-background:new 0 0 28 24;" xml:space="preserve"><path d="M2.6,16.1c0.1,0,0.2,0.1,0.3,0.1c0.1,0,0.3,0,0.4-0.1c0.3-0.1,1.2-0.2,2.6-0.5c1.4-0.3,2.3-0.8,2.6-1.4&#xA;&#x9;C8.9,13.5,9,13,8.9,12.7c-0.1-0.4,0.1-0.7,0.6-1.1c0.5-0.3,1.3-0.5,2.3-0.6c1-0.1,1.7-0.2,2.3-0.2c0.5,0,1.2,0,2.2,0.1&#xA;&#x9;s1.8,0.3,2.2,0.6c0.5,0.3,0.7,0.7,0.6,1.1c-0.1,0.4,0,0.9,0.4,1.5c0.3,0.6,1.2,1.1,2.6,1.4c1.4,0.3,2.3,0.5,2.6,0.6&#xA;&#x9;c0.3,0.1,0.6,0.1,0.8,0c0.2-0.1,0.4-0.2,0.5-0.4l0.5-1c0.3-0.7,0.3-1.4,0-2.3c-0.3-0.7-0.9-1.4-1.8-1.9c-0.9-0.6-2-1-3.2-1.4&#xA;&#x9;c-1.3-0.4-2.5-0.7-3.8-0.9c-1.3-0.2-2.5-0.3-3.6-0.3c-1.1,0-2.3,0.1-3.6,0.3C9.1,8.3,7.8,8.6,6.6,9c-1.2,0.4-2.3,0.8-3.2,1.4&#xA;&#x9;c-0.9,0.6-1.5,1.2-1.8,1.9c-0.3,0.9-0.3,1.6,0,2.3l0.5,1C2.2,15.9,2.4,16,2.6,16.1z M16.1,12.3c-1-0.1-1.7-0.1-2.1-0.1&#xA;&#x9;c-0.4,0-1.2,0-2.1,0.1c-0.8,0.1-1.3,0.2-1.6,0.4c0.1,0.7-0.1,1.4-0.5,2.1c-0.6,1-1.8,1.6-3.5,2c-1.4,0.3-2.3,0.5-2.5,0.5&#xA;&#x9;c-0.3,0.1-0.5,0.1-0.8,0.1c-0.8,0-1.6-0.4-2-1.1l-0.1-0.1l-0.5-1c-0.5-1-0.5-2.1,0-3.3c0.4-1,1.2-1.9,2.3-2.6c1-0.6,2.2-1.1,3.5-1.6&#xA;&#x9;c1.3-0.4,2.6-0.7,4-0.9c1.4-0.2,2.7-0.3,3.8-0.3c1.1,0,2.4,0.1,3.8,0.3c1.4,0.2,2.7,0.5,4,0.9c1.3,0.4,2.5,0.9,3.5,1.5&#xA;&#x9;c1.2,0.7,2,1.6,2.3,2.6c0.4,1.2,0.4,2.3-0.1,3.3l-0.5,1l-0.1,0.1c-0.3,0.4-0.7,0.8-1.1,1c-0.5,0.2-1,0.2-1.6,0.1l-2.6-0.6&#xA;&#x9;c-1.8-0.4-3-1-3.5-2c-0.4-0.7-0.6-1.4-0.6-2.1C17.4,12.5,16.9,12.4,16.1,12.3L16.1,12.3z"/></svg>