<svg version="1.1" id="Vlt-icon-call-2" xmlns="http://www.w3.org/2000/svg" xmlns:xlink="http://www.w3.org/1999/xlink" x="0px" y="0px" viewBox="0 0 24 24" style="enable-background:new 0 0 24 24;" xml:space="preserve"><path d="M21.6,18.1c0.6,0.4,0.7,0.7,0.6,1.2c0,0-0.4,1.9-2.1,2.7c-2.9,1.3-9.4-2.5-12.5-5.5c-3.2-3-7.2-9.1-5.8-11.9&#xA;&#x9;c0.8-1.6,2.8-2,2.8-2c0.5-0.1,0.9,0.1,1.3,0.6c0.4,0.5,2.8,3.6,2.4,5C7.8,9.6,6.8,9.5,7,10.7s2,3,2.8,3.7c0.7,0.7,2.7,2.3,3.9,2.6&#xA;&#x9;c1.2,0.3,1.2-0.7,2.6-1.1C17.8,15.5,21.1,17.8,21.6,18.1z M19.4,4.7c1.6,1.6,2.7,3.6,3.1,5.9c0,0.4-0.1,0.7-0.3,0.9&#xA;&#x9;c-0.1,0.2-0.3,0.3-0.5,0.3c-0.5,0.1-1.1-0.2-1.2-0.8c0,0,0,0,0,0c-0.3-1.8-1.2-3.5-2.5-4.8c-1.3-1.3-3.1-2.1-4.9-2.4&#xA;&#x9;c-0.5-0.1-0.9-0.6-0.8-1.1c0,0,0,0,0,0c0.1-0.6,0.6-0.9,1.1-0.9C15.7,2.1,17.8,3.1,19.4,4.7z M15.2,9.2c-0.6-0.6-1.3-1-2.1-1.2&#xA;&#x9;c-0.5-0.1-0.9-0.7-0.7-1.2c0,0,0,0,0,0C12.4,6.2,13,5.9,13.5,6c1.2,0.3,2.2,0.8,3.1,1.7c0.8,0.8,1.4,1.8,1.7,3c0.1,0.4,0,0.7-0.3,1&#xA;&#x9;c-0.1,0.1-0.3,0.2-0.5,0.3c-0.5,0.2-1.1-0.1-1.2-0.7c0,0,0,0,0,0C16.2,10.5,15.8,9.7,15.2,9.2z"/></svg>