<svg version="1.1" id="Vlt-icon-send-negative" xmlns="http://www.w3.org/2000/svg" xmlns:xlink="http://www.w3.org/1999/xlink" x="0px" y="0px" viewBox="0 0 24 24" style="enable-background:new 0 0 24 24;" xml:space="preserve"><path d="M22.3,10.5L3.2,1C2.6,0.7,1.8,0.8,1.3,1.3C0.8,1.8,0.7,2.5,0.9,3.2l3.5,7.9h8.8c0.5,0,0.9,0.4,0.9,0.9&#xA;&#x9;c0,0.5-0.4,0.9-0.9,0.9c0,0,0,0,0,0H4.4l-3.5,8c-0.3,0.7-0.1,1.4,0.4,1.9c0.5,0.5,1.2,0.6,1.9,0.3l19.1-9.5c0.6-0.3,0.9-0.9,0.9-1.5&#xA;&#x9;C23.2,11.3,22.8,10.8,22.3,10.5"/></svg>