<svg version="1.1" id="Vlt-icon-cloud" xmlns="http://www.w3.org/2000/svg" xmlns:xlink="http://www.w3.org/1999/xlink" x="0px" y="0px" viewBox="0 0 24 24" style="enable-background:new 0 0 24 24;" xml:space="preserve"><path d="M18.2,19.1H5.6c-2,0-3.7-1.7-3.7-3.9c0-2.2,1.7-3.9,3.7-3.9c1,0,1.9,0.4,2.6,1.1l1.9,2l-0.8-2.6c-0.1-0.4-0.2-0.9-0.2-1.4&#xA;&#x9;c0-3.1,2.3-5.5,5.3-5.5c2.7,0,4.8,2.1,5.2,4.8c-0.4-0.1-0.9-0.2-1.3-0.2v1.4c0.8,0,1.5,0.2,2.1,0.6l0,0c1.1,0.8,1.9,2.1,1.9,3.5&#xA;&#x9;C22.2,17.3,20.4,19.1,18.2,19.1 M20.9,10.2c-0.1-3.7-3-6.7-6.6-6.7c-3.7,0-6.6,3.1-6.6,6.9l0,0.1C7,10.1,6.3,10,5.6,10&#xA;&#x9;c-2.8,0-5.1,2.4-5.1,5.3c0,2.9,2.3,5.3,5.1,5.3h12.6c3,0,5.3-2.5,5.3-5.5C23.5,13,22.5,11.2,20.9,10.2"/></svg>