<svg version="1.1" id="Vlt-icon-more-negative" xmlns="http://www.w3.org/2000/svg" xmlns:xlink="http://www.w3.org/1999/xlink" x="0px" y="0px" viewBox="0 0 24 24" style="enable-background:new 0 0 24 24;" xml:space="preserve"><path d="M7.5,12c0,1.4-1.1,2.5-2.5,2.5S2.5,13.4,2.5,12S3.6,9.5,5,9.5S7.5,10.6,7.5,12z M14.5,12c0,1.4-1.1,2.5-2.5,2.5&#xA;&#x9;S9.5,13.4,9.5,12s1.1-2.5,2.5-2.5S14.5,10.6,14.5,12z M21.5,12c0,1.4-1.1,2.5-2.5,2.5s-2.5-1.1-2.5-2.5s1.1-2.5,2.5-2.5&#xA;&#x9;S21.5,10.6,21.5,12z"/></svg>