<svg version="1.1" id="Vlt-icon-message-check" xmlns="http://www.w3.org/2000/svg" xmlns:xlink="http://www.w3.org/1999/xlink" x="0px" y="0px" viewBox="0 0 24 24" style="enable-background:new 0 0 24 24;" xml:space="preserve"><g><g><defs><polygon id="SVGID_1_" points="-132,891.6 -131,892.4 -134.4,896.4 -136.4,895 -135.6,894 -134.6,894.6 &#x9;&#x9;&#x9;"/></defs><clipPath id="SVGID_2_"><use xlink:href="#SVGID_1_" style="overflow:visible;"/></clipPath><g style="clip-path:url(#SVGID_2_);"><g><defs><rect id="SVGID_3_" x="-346" y="-5123" width="638" height="10497"/></defs><clipPath id="SVGID_4_"><use xlink:href="#SVGID_3_" style="overflow:visible;"/></clipPath><rect x="-141.4" y="886.6" style="clip-path:url(#SVGID_4_);" width="15.4" height="14.8"/></g></g><g style="clip-path:url(#SVGID_2_);"><g><defs><path id="SVGID_5_" d="M-133.5,898.8c2.7,0,4.9-2.2,4.9-4.8s-2.2-4.8-4.9-4.8s-4.9,2.2-4.9,4.8S-136.2,898.8-133.5,898.8z&#xA;&#x9;&#x9;&#x9;&#x9;&#x9;&#x9; M-133.5,900.2c-3.4,0-6.1-2.8-6.1-6.2s2.8-6.2,6.1-6.2s6.2,2.8,6.2,6.2S-130.1,900.2-133.5,900.2z"/></defs><clipPath id="SVGID_6_"><use xlink:href="#SVGID_5_" style="overflow:visible;"/></clipPath><g style="clip-path:url(#SVGID_6_);"><g><defs><rect id="SVGID_7_" x="-346" y="-5123" width="638" height="10497"/></defs><clipPath id="SVGID_8_"><use xlink:href="#SVGID_7_" style="overflow:visible;"/></clipPath><rect x="-144.6" y="882.8" style="clip-path:url(#SVGID_8_);" width="22.3" height="22.3"/></g></g><g style="clip-path:url(#SVGID_6_);"><g><defs><polygon id="SVGID_9_" points="18.8,14.1 19.8,15 16.4,18.9 14.4,17.6 15.2,16.5 16.2,17.2 &#x9;&#x9;&#x9;&#x9;&#x9;&#x9;&#x9;"/></defs><clipPath id="SVGID_10_"><use xlink:href="#SVGID_9_" style="overflow:visible;"/></clipPath><g style="clip-path:url(#SVGID_10_);"><g><defs><rect id="SVGID_11_" x="-195.2" y="-6000.5" width="638" height="10497"/></defs><clipPath id="SVGID_12_"><use xlink:href="#SVGID_11_" style="overflow:visible;"/></clipPath><rect x="9.4" y="9.1" style="clip-path:url(#SVGID_12_);" width="15.4" height="14.8"/></g></g><g style="clip-path:url(#SVGID_10_);"><g><defs><path id="SVGID_13_" d="M17.3,21.4c2.7,0,4.9-2.2,4.9-4.9s-2.2-4.9-4.9-4.9s-4.8,2.2-4.8,4.9S14.6,21.4,17.3,21.4z&#xA;&#x9;&#x9;&#x9;&#x9;&#x9;&#x9;&#x9;&#x9;&#x9;&#x9; M17.3,22.7c-3.4,0-6.1-2.8-6.1-6.1s2.8-6.1,6.1-6.1s6.1,2.8,6.1,6.1S20.7,22.7,17.3,22.7z"/></defs><clipPath id="SVGID_14_"><use xlink:href="#SVGID_13_" style="overflow:visible;"/></clipPath><g style="clip-path:url(#SVGID_14_);"><g><defs><rect id="SVGID_15_" x="-195.2" y="-6000.5" width="638" height="10497"/></defs><clipPath id="SVGID_16_"><use xlink:href="#SVGID_15_" style="overflow:visible;"/></clipPath><rect x="6.2" y="5.4" style="clip-path:url(#SVGID_16_);" width="22.3" height="22.3"/></g></g><g style="clip-path:url(#SVGID_14_);"><path style="fill:none;" d="M17.3,9.2c1.8,0,3.4,0.6,4.7,1.7V5.6c0-1.5-1.2-2.8-2.8-2.8H4.8C3.2,2.8,2,4.1,2,5.6V15&#xA;&#x9;&#x9;&#x9;&#x9;&#x9;&#x9;&#x9;&#x9;&#x9;&#x9;c0,1.5,1.2,2.8,2.8,2.8h2.4v3.5l2.9-3.2l0,0c-0.1-0.5-0.2-1-0.2-1.6C9.9,12.5,13.2,9.2,17.3,9.2z"/><path d="M19.2,1.5H4.8c-2.3,0-4.1,1.8-4.1,4.1V15c0,2.3,1.8,4.1,4.1,4.1h1.1v2.2c0,1.2,1.5,1.8,2.3,0.9l2.5-2.7&#xA;&#x9;&#x9;&#x9;&#x9;&#x9;&#x9;&#x9;&#x9;&#x9;&#x9;c-0.2-0.5-0.4-0.9-0.5-1.4l0,0l-2.9,3.2v-3.5H4.8C3.2,17.8,2,16.5,2,15V5.6c0-1.5,1.2-2.8,2.8-2.8h14.4&#xA;&#x9;&#x9;&#x9;&#x9;&#x9;&#x9;&#x9;&#x9;&#x9;&#x9;c1.5,0,2.8,1.3,2.8,2.8v5.2c0.5,0.4,0.9,0.9,1.3,1.4V5.6C23.3,3.3,21.5,1.5,19.2,1.5z"/></g><g style="clip-path:url(#SVGID_14_);"><path style="fill:none;" d="M19.2,2.8H4.8C3.2,2.8,2,4.1,2,5.6V15c0,1.5,1.2,2.8,2.8,2.8h2.4v3.5l2.9-3.2l0,0&#xA;&#x9;&#x9;&#x9;&#x9;&#x9;&#x9;&#x9;&#x9;&#x9;&#x9;c-0.1-0.5-0.2-1-0.2-1.6c0-1.6,0.5-3,1.3-4.2H5V11h5.1h2.3c1.3-1.1,3-1.8,4.9-1.8c1.8,0,3.4,0.6,4.7,1.7V5.6&#xA;&#x9;&#x9;&#x9;&#x9;&#x9;&#x9;&#x9;&#x9;&#x9;&#x9;C22,4.1,20.8,2.8,19.2,2.8z"/><path d="M5,11v1.3h6.3c0.3-0.5,0.7-0.9,1.2-1.3h-2.3H5z"/></g><polygon style="clip-path:url(#SVGID_14_);" points="9.9,7.3 5,7.3 5,8.6 19,8.6 19,7.3 &#x9;&#x9;&#x9;&#x9;&#x9;&#x9;&#x9;&#x9;"/></g></g></g></g></g></g></g></g></svg>