<svg version="1.1" id="Vlt-icon-group" xmlns="http://www.w3.org/2000/svg" xmlns:xlink="http://www.w3.org/1999/xlink" x="0px" y="0px" viewBox="0 0 24 24" style="enable-background:new 0 0 24 24;" xml:space="preserve"><path id="path-1_1_" d="M3.2,8.1c0-0.3,0-0.5,0-0.6C3.1,5.9,3.9,5,6,5c0.4,0,0.7,0.3,0.7,0.7c0,0.4-0.3,0.6-0.7,0.6&#xA;&#x9;c-1.4,0-1.6,0.3-1.6,1.1c0,0.1,0,0.3,0,0.5c0,0.1,0,0.1,0,0.2c0,0.2,0,0.4,0.1,0.5C4.6,9,4.4,9.3,4,9.4l0.1,0.7&#xA;&#x9;c0.3,0,0.6,0.3,0.6,0.6c0,0.6,0.3,1.2,0.8,1.6c0.2,0.2,0.2,0.4,0.2,0.6l-0.2,1c-0.1,0.2-0.2,0.4-0.5,0.5l-2.1,0.5&#xA;&#x9;c-0.6,0.2-1.1,0.6-1.3,1.2h1.2c0.4,0,0.6,0.3,0.6,0.7c0,0.4-0.3,0.7-0.7,0.7H0.8c-0.4,0-0.6-0.3-0.6-0.7c0-1.5,1-2.8,2.4-3.1&#xA;&#x9;l1.7-0.4L4.4,13c-0.5-0.5-0.8-1.1-0.9-1.7c-0.4-0.2-0.6-0.5-0.7-0.9l-0.1-1c0-0.5,0.2-0.9,0.5-1.1C3.2,8.2,3.2,8.2,3.2,8.1z&#xA;&#x9; M15,15.4l2.6,0.7c1.9,0.5,3.3,2.2,3.3,4.2c0,0.4-0.3,0.7-0.7,0.7H3.7C3.3,21,3,20.7,3,20.3c0-2,1.4-3.8,3.3-4.2L9,15.4l0.2-0.7&#xA;&#x9;c-0.7-0.6-1.2-1.5-1.3-2.5C7.4,12,7,11.6,7,11.1L6.8,9.6C6.7,9,7,8.5,7.5,8.2c0-0.1,0-0.1,0-0.2c0-0.1,0-0.1,0-0.2&#xA;&#x9;c0-0.4-0.1-0.7-0.1-0.9c0-2,1-3.1,3.7-3.2C11.9,3.2,12.8,3,13.9,3c1.3,0,2.4,0.5,3,1.4c0.6,1,0.6,1.9-0.1,2.6l-0.2,0.2l-0.1,1.1&#xA;&#x9;c0.5,0.3,0.7,0.8,0.7,1.4L17,11.1c0,0.5-0.4,0.9-0.8,1.1c-0.2,1-0.7,1.9-1.3,2.7L15,15.4z M17.3,17.4l-3-0.7&#xA;&#x9;c-0.2-0.1-0.4-0.2-0.5-0.5l-0.3-1.4c-0.1-0.2,0-0.5,0.2-0.6c0.7-0.6,1.2-1.6,1.2-2.6c0.1-0.4,0.4-0.6,0.7-0.6c0.1,0,0.1,0,0.1-0.1&#xA;&#x9;l0.2-1.5c0,0,0-0.1-0.1-0.1c-0.4,0-0.7-0.3-0.6-0.7l0.1-1.8c0-0.2,0.1-0.3,0.2-0.4l0.3-0.3c0.2-0.3,0.2-0.5-0.1-1s-0.9-0.8-1.9-0.8&#xA;&#x9;c-0.9,0-1.6,0.1-2.2,0.6C11.6,5,11.4,5,11.3,5C9.2,5,8.7,5.5,8.7,6.9c0,0.1,0,0.4,0.1,0.8c0,0.1,0,0.1,0,0.2c0,0.3,0.1,0.6,0.1,0.7&#xA;&#x9;c0,0.4-0.3,0.7-0.6,0.7H8.1c0,0-0.1,0-0.1,0.1l0.2,1.5c0,0,0,0.1,0.1,0.1h0.1C8.7,11,9,11.3,9,11.6c0.1,0.9,0.5,1.9,1.2,2.5&#xA;&#x9;c0.2,0.2,0.2,0.4,0.2,0.6L10,16.1c-0.1,0.2-0.2,0.4-0.5,0.5l-3,0.7c-1.1,0.3-2,1.2-2.2,2.3h15.1C19.3,18.6,18.4,17.7,17.3,17.4z&#xA;&#x9; M21.4,13.9c1.4,0.4,2.4,1.7,2.4,3.1c0,0.4-0.3,0.7-0.6,0.7h-1.8c-0.4,0-0.7-0.3-0.7-0.7s0.3-0.7,0.7-0.7h1.1&#xA;&#x9;c-0.2-0.6-0.7-1.1-1.3-1.2L19,14.7c-0.2-0.1-0.4-0.2-0.5-0.5l-0.2-0.9c-0.1-0.4,0.2-0.8,0.5-0.8c0.4-0.1,0.8-0.1,1.2-0.3h0.1&#xA;&#x9;c0,0-0.1-0.1-0.1-0.2c-0.4-0.8-0.6-1.8-0.6-3.1c0-1.1-0.1-1.8-0.4-2.2c-0.1-0.1-0.1-0.2-0.2-0.2h-0.2c-0.4,0-0.6-0.3-0.6-0.7&#xA;&#x9;c0-0.4,0.3-0.7,0.6-0.7h0.2c1.2,0,1.9,1.1,1.9,3.7c0,1.1,0.2,1.9,0.4,2.5c0.3,0.5,0.4,0.7,0.5,0.7c0.4,0.3,0.3,0.9-0.1,1.1&#xA;&#x9;c-0.2,0.1-0.6,0.3-1.1,0.4c-0.1,0-0.2,0.1-0.3,0.1L21.4,13.9z"/></svg>