<svg xmlns="http://www.w3.org/2000/svg" width="24" height="24" viewBox="0 0 24 24" id="Vlt-icon-id"><path fill="#000" fill-rule="evenodd" d="M5.883 12.907a2.5 2.5 0 1 1 3.234 0A3.613 3.613 0 0 1 11 16.1v2.4H4v-2.4c0-1.388.764-2.593 1.883-3.193zM10.677 5.5a2 2 0 1 1 2.646 0H22.5a1 1 0 0 1 1 1v14a1 1 0 0 1-1 1h-21a1 1 0 0 1-1-1v-14a1 1 0 0 1 1-1h9.177zM22.2 6.8H1.8v13.4h20.4V6.8zM12 5a1 1 0 1 0 0-2 1 1 0 0 0 0 2zm-4.5 7.2a1.2 1.2 0 1 0 0-2.4 1.2 1.2 0 0 0 0 2.4zm2.2 3.9c0-1.278-.993-2.3-2.2-2.3-1.207 0-2.2 1.022-2.2 2.3v1.1h4.4v-1.1zm3.3-4.95a.65.65 0 1 1 0-1.3h4a.65.65 0 1 1 0 1.3h-4zm0 3a.65.65 0 1 1 0-1.3h7a.65.65 0 1 1 0 1.3h-7zm0 3a.65.65 0 1 1 0-1.3h7a.65.65 0 1 1 0 1.3h-7z"/></svg>