<svg version="1.1" id="Vlt-icon-small-file" xmlns="http://www.w3.org/2000/svg" xmlns:xlink="http://www.w3.org/1999/xlink" x="0px" y="0px" viewBox="0 0 24 24" style="enable-background:new 0 0 24 24;" xml:space="preserve"><path d="M16,2.4v3.7c0,0.1,0.1,0.2,0.1,0.2h3.6L16,2.4L16,2.4z M20.3,7.9h-4.2c-1,0-1.9-0.8-1.9-1.8l0,0V1.7H4.4&#xA;&#x9;C4,1.7,3.7,2,3.7,2.4v19.1c0,0.4,0.3,0.7,0.7,0.7c0,0,0,0,0,0h15.1c0.4,0,0.7-0.3,0.7-0.7c0,0,0,0,0,0V7.9z M16,0l6,6.2v15.4&#xA;&#x9;c0,1.3-1.1,2.4-2.4,2.4c0,0,0,0,0,0H4.4C3.1,24,2,22.9,2,21.6c0,0,0,0,0,0V2.4C2,1.1,3.1,0,4.4,0H16z"/></svg>