<svg version="1.1" id="Vlt-icon-devices" xmlns="http://www.w3.org/2000/svg" xmlns:xlink="http://www.w3.org/1999/xlink" x="0px" y="0px" viewBox="0 0 24 24" style="enable-background:new 0 0 24 24;" xml:space="preserve"><path d="M17.2,10c-0.4,0-0.7,0.3-0.7,0.7c0,0,0,0,0,0v9c0,0.4,0.3,0.7,0.7,0.7h0h4.3c0.4,0,0.7-0.3,0.7-0.7v0v-9&#xA;&#x9;c0-0.4-0.3-0.7-0.7-0.7l0,0H17.2z M17.2,8.7h4.3c1.1,0,2,0.9,2,2v9c0,1.1-0.9,2-2,2h-4.3c-1.1,0-2-0.9-2-2v-9&#xA;&#x9;C15.2,9.6,16.1,8.7,17.2,8.7z M13.6,19.3H1.5v0.3c0,0.4,0.3,0.7,0.7,0.7h11.3c0.4,0,0.7,0.3,0.7,0.6c0,0.4-0.3,0.7-0.6,0.7&#xA;&#x9;c0,0,0,0,0,0H2.2c-1.1,0-2-0.9-2-2c0,0,0,0,0,0v-1c0-0.4,0.3-0.6,0.6-0.6h12.7c0.4,0,0.6,0.3,0.6,0.7C14.2,19,13.9,19.3,13.6,19.3&#xA;&#x9;L13.6,19.3z M13.6,15.7c0.4,0,0.7,0.3,0.7,0.6c0,0.4-0.3,0.7-0.6,0.7c0,0,0,0,0,0h-9c-1.3,0-2.3-1-2.3-2.3V5.3C2.3,4,3.3,3,4.6,3&#xA;&#x9;h14.3c1.3,0,2.3,1,2.3,2.3v1.6c0,0.4-0.3,0.7-0.6,0.7c-0.4,0-0.7-0.3-0.7-0.6c0,0,0,0,0,0V5.3c0-0.6-0.5-1-1-1H4.6c-0.6,0-1,0.5-1,1&#xA;&#x9;v9.3c0,0.6,0.5,1,1,1L13.6,15.7L13.6,15.7z M19.4,19.2c0.6,0,1-0.4,1-1s-0.4-1-1-1s-1,0.4-1,1S18.9,19.2,19.4,19.2z"/></svg>