<svg version="1.1" id="Vlt-icon-bottom-tabs" xmlns="http://www.w3.org/2000/svg" xmlns:xlink="http://www.w3.org/1999/xlink" x="0px" y="0px" viewBox="0 0 24 24" style="enable-background:new 0 0 24 24;" xml:space="preserve"><path d="M21.3,1.4H2.6C1.7,1.4,1,2.1,1,3v17.8c0,0.9,0.7,1.7,1.6,1.7h18.7c0.9,0,1.7-0.7,1.7-1.7V3C23,2.1,22.2,1.4,21.3,1.4z&#xA;&#x9; M2.6,2.6h18.7c0.2,0,0.3,0.2,0.3,0.4v11.6H2.2V3C2.2,2.8,2.4,2.6,2.6,2.6z M14.7,16v5.1H9.2V16C9.2,16,14.7,16,14.7,16z M2.2,20.7&#xA;&#x9;V16h5.6v5.1H2.6C2.4,21,2.2,20.9,2.2,20.7L2.2,20.7z M21.3,21h-5.2v-5.1h5.6v4.8C21.6,20.9,21.5,21,21.3,21z"/></svg>