<svg version="1.1" id="Vlt-icon-notes" xmlns="http://www.w3.org/2000/svg" xmlns:xlink="http://www.w3.org/1999/xlink" x="0px" y="0px" viewBox="0 0 24 24" style="enable-background:new 0 0 24 24;" xml:space="preserve"><title>Vlt-icon-notes</title><path id="path-1_1_" d="M20.2,1c0.7,0,1.3,0.6,1.3,1.3V17l-5.9,6H3.8c-0.7,0-1.3-0.6-1.3-1.3V2.3C2.5,1.6,3.1,1,3.8,1H20.2z&#xA;&#x9;&#x9;&#x9;&#x9;&#x9; M16.3,17v3.4l3.4-3.4H16.3z M3.8,2.3v19.4H15V17v-1v-0.3h5.2V2.3H3.8z M5.8,16v-1h6v1H5.8z M5.8,13v-1h12.1v1H5.8z M5.8,10V9&#xA;&#x9;&#x9;&#x9;&#x9;&#x9;h12.1v1H5.8z M5.8,7V6h12.1v1H5.8z"/></svg>