<svg version="1.1" id="Vlt-icon-inbox-2" xmlns="http://www.w3.org/2000/svg" xmlns:xlink="http://www.w3.org/1999/xlink" x="0px" y="0px" viewBox="0 0 24 24" style="enable-background:new 0 0 24 24;" xml:space="preserve"><path d="M18.7,6.1l4.8,7.7v7.1c0,0.9-0.7,1.6-1.6,1.6H2.1c-0.9,0-1.6-0.7-1.6-1.6v-7.1l4.7-7.6c0.3-0.5,0.8-0.8,1.4-0.7h1.4&#xA;&#x9;c0.4,0,0.6,0.3,0.6,0.6c0,0.4-0.3,0.6-0.6,0.6H6.6c-0.1,0-0.2,0-0.3,0.2l-4,6.4h5.4c0.6,0,1,0.4,1.1,0.9L9,15.5&#xA;&#x9;c0,0.1,0.2,0.3,0.4,0.3h5.3c0.2,0,0.3-0.1,0.4-0.3l0.2-1.3c0.1-0.5,0.6-0.9,1.1-0.9h5.3l-4-6.5v0c0,0-0.1-0.1-0.3-0.1h-1.4&#xA;&#x9;c-0.4,0-0.6-0.3-0.6-0.6s0.3-0.6,0.6-0.6l0,0h1.4C17.9,5.4,18.4,5.7,18.7,6.1z M21.9,21.2c0.2,0,0.3-0.2,0.3-0.3v-6.3h-5.7l-0.2,1.2&#xA;&#x9;c-0.2,0.8-0.8,1.3-1.6,1.3H9.4c-0.8,0-1.4-0.5-1.6-1.3l-0.2-1.2H1.8v6.3c0,0.2,0.2,0.3,0.3,0.3L21.9,21.2L21.9,21.2z M11.5,12l-2-2&#xA;&#x9;c-0.3-0.2-0.3-0.7,0-0.9c0,0,0,0,0,0c0.2-0.2,0.7-0.2,0.9,0l0.9,0.9V2.1c0-0.4,0.3-0.6,0.6-0.6s0.6,0.3,0.6,0.6V10l0.9-0.9&#xA;&#x9;c0.3-0.3,0.7-0.3,0.9,0c0.3,0.3,0.3,0.7,0,0.9l-2,2l0,0L12,12.4L11.5,12C11.5,12,11.5,12,11.5,12z"/></svg>