<svg version="1.1" id="Vlt-icon-mind-map" xmlns="http://www.w3.org/2000/svg" xmlns:xlink="http://www.w3.org/1999/xlink" x="0px" y="0px" viewBox="0 0 24 24" style="enable-background:new 0 0 24 24;" xml:space="preserve"><path d="M19.5,22.6c-1.3,0-2.3-1-2.3-2.3c0-1.3,1-2.3,2.3-2.3s2.3,1,2.3,2.3C21.8,21.6,20.8,22.6,19.5,22.6 M8.7,11.7&#xA;&#x9;c0-1.8,1.5-3.3,3.3-3.3s3.3,1.5,3.3,3.3c0,1.8-1.5,3.3-3.3,3.3S8.7,13.5,8.7,11.7 M5,19.4c-0.4,0-0.6-0.3-0.6-0.6&#xA;&#x9;c0-0.3,0.3-0.6,0.6-0.6c0.4,0,0.6,0.3,0.6,0.6C5.6,19.1,5.3,19.4,5,19.4 M21,1.3c0.7,0,1.2,0.5,1.2,1.2S21.7,3.7,21,3.7&#xA;&#x9;s-1.2-0.5-1.2-1.2S20.3,1.3,21,1.3 M3,7.3C2.3,7.3,1.8,6.7,1.8,6S2.3,4.8,3,4.8S4.2,5.4,4.2,6C4.2,6.7,3.7,7.3,3,7.3 M19.5,16.7&#xA;&#x9;c-0.6,0-1.2,0.2-1.7,0.4l-2.2-2.6c0.7-0.8,1-1.8,1-2.9c0-1.1-0.4-2.1-1.1-2.9l4.2-4.1C20.1,4.9,20.5,5,21,5c1.4,0,2.5-1.1,2.5-2.5&#xA;&#x9;c0-1.4-1.1-2.5-2.4-2.5c0,0,0,0-0.1,0c-1.4,0-2.5,1.1-2.5,2.4c0,0,0,0,0,0.1c0,0.4,0.1,0.9,0.3,1.2l-4.2,4.2C13.9,7.4,13,7.1,12,7.1&#xA;&#x9;c-1.3,0-2.5,0.5-3.4,1.5L5.4,6.7C5.5,6.5,5.5,6.3,5.5,6c0-1.4-1.1-2.5-2.4-2.5c0,0,0,0-0.1,0C1.6,3.5,0.5,4.7,0.5,6&#xA;&#x9;c0,1.4,1.1,2.5,2.4,2.5c0,0,0,0,0.1,0c0.6,0,1.3-0.3,1.7-0.7l3.2,1.8c-0.3,0.6-0.5,1.3-0.5,2c0,1,0.3,2,0.9,2.8L5.7,17&#xA;&#x9;c-0.2-0.1-0.5-0.2-0.7-0.2c-1.1,0-1.9,0.9-1.9,1.9S4,20.6,5,20.6c1.1,0,1.9-0.9,1.9-1.9c0-0.3-0.1-0.6-0.2-0.8l2.6-2.7&#xA;&#x9;c0.7,0.7,1.7,1.1,2.7,1.1c0.9,0,1.9-0.3,2.6-0.8l2.2,2.5c-0.6,0.7-0.9,1.5-0.9,2.4c0,2,1.6,3.6,3.6,3.6s3.6-1.6,3.6-3.6&#xA;&#x9;S21.5,16.7,19.5,16.7"/></svg>