<svg version="1.1" id="Vlt-icon-merge-2" xmlns="http://www.w3.org/2000/svg" xmlns:xlink="http://www.w3.org/1999/xlink" x="0px" y="0px" viewBox="0 0 24 24" style="enable-background:new 0 0 24 24;" xml:space="preserve"><path d="M20.3,22c-3.7,0-7.5-5.2-7.5-9V3l4.7,4.7c0.3,0.3,0.8,0.3,1,0c0,0,0,0,0,0c0.3-0.3,0.3-0.8,0-1l-5.9-5.9&#xA;&#x9;c-0.3-0.3-0.8-0.3-1,0c0,0,0,0,0,0l-6,6c-0.3,0.3-0.3,0.8,0,1C5.7,7.9,5.9,8,6.1,8c0.2,0,0.4-0.1,0.5-0.2l4.7-4.7V13l0,0&#xA;&#x9;c0,3.8-3.8,9-7.5,9C3.3,22,3,22.4,3,22.8c0,0.4,0.3,0.7,0.7,0.7c3.5,0,6.8-3.4,8.3-7c1.4,3.6,4.8,7,8.3,7c0.4,0,0.7-0.3,0.7-0.7&#xA;&#x9;C21,22.3,20.7,22,20.3,22C20.3,22,20.3,22,20.3,22"/></svg>