<svg version="1.1" id="Vlt-icon-clock" xmlns="http://www.w3.org/2000/svg" xmlns:xlink="http://www.w3.org/1999/xlink" x="0px" y="0px" viewBox="0 0 24 24" style="enable-background:new 0 0 24 24;" xml:space="preserve"><path d="M12,21.7c5.4,0,9.7-4.3,9.7-9.7S17.4,2.3,12,2.3S2.3,6.6,2.3,12S6.6,21.7,12,21.7z M12,23C5.9,23,1,18.1,1,12S5.9,1,12,1&#xA;&#x9;s11,4.9,11,11S18.1,23,12,23z M17.4,16.5l-4.8-4.9V5.2c0-0.4-0.3-0.7-0.7-0.7c-0.4,0-0.6,0.3-0.6,0.7v7l5.1,5.2&#xA;&#x9;c0.3,0.3,0.7,0.3,0.9,0S17.7,16.8,17.4,16.5z"/></svg>