<svg version="1.1" id="Vlt-icon-enter" xmlns="http://www.w3.org/2000/svg" xmlns:xlink="http://www.w3.org/1999/xlink" x="0px" y="0px" viewBox="0 0 24 24" style="enable-background:new 0 0 24 24;" xml:space="preserve"><path d="M19.1,18.9h2.5v-14h-2.5C19.1,4.9,19.1,18.9,19.1,18.9z M13.3,12.5H1.2c-0.4,0-0.7-0.3-0.7-0.7c0-0.4,0.3-0.7,0.7-0.7h12.1&#xA;&#x9;L8.1,5.8c-0.3-0.3-0.3-0.8,0-1c0,0,0,0,0,0c0.3-0.3,0.8-0.3,1.1,0l6.4,6.4c0.1,0,0.1,0.1,0.2,0.2l0.5,0.4l-0.5,0.4&#xA;&#x9;c0,0.1-0.1,0.1-0.2,0.2L8.9,19c-0.3,0.3-0.8,0.3-1.1,0c-0.3-0.3-0.3-0.8,0-1c0,0,0,0,0,0C7.9,17.9,13.3,12.5,13.3,12.5z M18.8,3.5&#xA;&#x9;H22c0.6,0,1,0.5,1,1v14.6c0,0.6-0.5,1-1,1h-3.1c-0.6,0-1-0.5-1-1V4.5C17.8,4,18.2,3.5,18.8,3.5z"/></svg>