<svg version="1.1" id="Vlt-icon-file-ppt" xmlns="http://www.w3.org/2000/svg" xmlns:xlink="http://www.w3.org/1999/xlink" x="0px" y="0px" viewBox="0 0 24 24" style="enable-background:new 0 0 24 24;" xml:space="preserve"><g><path d="M19.6,22.7H4.4c-0.6,0-1.1-0.5-1.1-1.1V2.4c0-0.6,0.5-1.1,1.1-1.1h10.3v5.6c0,0.4,0.3,0.7,0.6,0.7h5.4v14.1&#xA;&#x9;&#x9;C20.7,22.2,20.2,22.7,19.6,22.7z M16,1.8l4.2,4.4H16V1.8z M16,0H4.4C3.1,0,2,1.1,2,2.4v19.1C2,22.9,3.1,24,4.4,24c0,0,0,0,0,0h15.1&#xA;&#x9;&#x9;c1.3,0,2.4-1.1,2.4-2.4c0,0,0,0,0,0V6.2L16,0z"/><path d="M7.7,10c0.3,0,0.6,0,0.9,0.1c0.2,0.1,0.4,0.2,0.6,0.3c0.2,0.1,0.3,0.3,0.4,0.5c0.1,0.2,0.1,0.4,0.1,0.6&#xA;&#x9;&#x9;c0,0.2,0,0.5-0.1,0.7c-0.1,0.2-0.2,0.4-0.4,0.5C9,13,8.8,13.1,8.6,13.2c-0.3,0.1-0.6,0.1-0.9,0.1H7.1V15H6v-5H7.7z M7.7,12.5&#xA;&#x9;&#x9;c0.3,0,0.5-0.1,0.6-0.2c0.1-0.1,0.2-0.3,0.2-0.6c0-0.1,0-0.2-0.1-0.3c-0.1-0.2-0.2-0.3-0.4-0.4c-0.1,0-0.2-0.1-0.4-0.1H7.1v1.6&#xA;&#x9;&#x9;C7.1,12.5,7.7,12.5,7.7,12.5z M12,10c0.3,0,0.6,0,0.9,0.1c0.2,0.1,0.4,0.2,0.6,0.3c0.2,0.1,0.3,0.3,0.4,0.5&#xA;&#x9;&#x9;c0.1,0.2,0.1,0.4,0.1,0.6c0,0.2,0,0.5-0.1,0.7c-0.1,0.2-0.2,0.4-0.4,0.5c-0.2,0.1-0.4,0.3-0.6,0.3c-0.3,0.1-0.6,0.1-0.9,0.1h-0.6&#xA;&#x9;&#x9;V15h-1.1v-5H12z M12,12.5c0.3,0,0.5-0.1,0.6-0.2c0.1-0.1,0.2-0.3,0.2-0.6c0-0.1,0-0.2-0.1-0.3c-0.1-0.2-0.2-0.3-0.4-0.4&#xA;&#x9;&#x9;c-0.1,0-0.2-0.1-0.4-0.1h-0.6v1.6H12z M18,10.9h-1.4V15h-1.1v-4.1h-1.4V10H18V10.9z"/></g></svg>