<svg version="1.1" id="Vlt-icon-heart" xmlns="http://www.w3.org/2000/svg" xmlns:xlink="http://www.w3.org/1999/xlink" x="0px" y="0px" viewBox="0 0 24 24" style="enable-background:new 0 0 24 24;" xml:space="preserve"><path d="M12,20.6l7.6-8.4c1-1,1.6-2.4,1.6-3.9c0-2.9-2.1-5.1-4.6-5.1c-1.4,0-2.7,0.7-3.5,2.1L12,7.1l-1.1-1.8&#xA;&#x9;C10.1,4,8.8,3.3,7.4,3.3c-2.5,0-4.6,2.3-4.6,5.1c0,1.5,0.6,2.9,1.7,3.9L12,20.6z M11.5,4c0.2,0.2,0.3,0.4,0.5,0.7&#xA;&#x9;c0.2-0.2,0.3-0.5,0.5-0.7c0.2-0.3,0.4-0.4,0.3-0.4c1-1,2.3-1.6,3.8-1.6c3.3,0,5.9,2.9,5.9,6.4c0,1.9-0.7,3.6-2,4.8l-7.7,8.4&#xA;&#x9;C12.6,21.9,12.3,22,12,22c-0.3,0-0.6-0.1-0.9-0.4l-7.6-8.4c-1.3-1.2-2-3-2-4.8C1.5,4.9,4.1,2,7.4,2c1.4,0,2.7,0.6,3.8,1.6&#xA;&#x9;C11.2,3.6,11.5,4,11.5,4z"/></svg>