<svg version="1.1" id="Vlt-icon-tag-add" xmlns="http://www.w3.org/2000/svg" xmlns:xlink="http://www.w3.org/1999/xlink" x="0px" y="0px" viewBox="0 0 24 24" style="enable-background:new 0 0 24 24;" xml:space="preserve"><path id="path-1_1_" d="M19.7,4.1H22v1.3h-2.3v2.3h-1.3V5.4h-2.3V4.1h2.3V1.8h1.3V4.1z M19.2,12.5c0.4,0.4,0.7,1,0.7,1.6&#xA;&#x9;s-0.2,1.2-0.7,1.6l-5.9,5.9c-0.4,0.4-1,0.7-1.6,0.7s-1.2-0.2-1.6-0.7L2.6,14c-0.4-0.4-0.7-1-0.7-1.6V6.5c0-1.2,1-2.3,2.3-2.3h5.9&#xA;&#x9;c0.6,0,1.2,0.2,1.6,0.7L19.2,12.5z M18.4,13.3l-7.6-7.6c-0.2-0.2-0.4-0.3-0.7-0.3H4.2c-0.6,0-1.1,0.5-1.1,1.1v5.9&#xA;&#x9;c0,0.3,0.1,0.6,0.3,0.8l7.6,7.6c0.2,0.2,0.5,0.3,0.8,0.3s0.6-0.1,0.8-0.3l5.9-5.9c0.2-0.2,0.3-0.5,0.3-0.8&#xA;&#x9;C18.7,13.8,18.6,13.5,18.4,13.3z M5.4,9.6c-1,0-1.8-0.8-1.8-1.8S4.4,6,5.4,6s1.8,0.8,1.8,1.8C7.3,8.8,6.4,9.6,5.4,9.6z M5.4,8.5&#xA;&#x9;c0.4,0,0.7-0.3,0.7-0.7c0-0.4-0.3-0.7-0.7-0.7S4.7,7.4,4.7,7.8C4.7,8.2,5,8.5,5.4,8.5z"/></svg>