<svg version="1.1" id="Vlt-icon-expand" xmlns="http://www.w3.org/2000/svg" xmlns:xlink="http://www.w3.org/1999/xlink" x="0px" y="0px" viewBox="0 0 24 24" style="enable-background:new 0 0 24 24;" xml:space="preserve"><path d="M21.5,21.1v1.4H4.6c-1.2,0-2.1-0.9-2.1-2.1V3.6c0-1.2,1-2.1,2.1-2.1h16.9v1.4h-8.1V9H12V2.9H4.6c-0.4,0-0.7,0.3-0.7,0.7&#xA;&#x9;c0,0,0,0,0,0v16.8c0,0.4,0.3,0.7,0.7,0.7H12v-7h1.4v7H21.5z M15.3,9.4l1-1.1l3.6,3.3L16.2,15l-0.9-0.9l1.9-1.8H7.8v-1.4H17&#xA;&#x9;C17,10.9,15.3,9.4,15.3,9.4z"/></svg>