<svg version="1.1" id="Vlt-icon-cloud-upload" xmlns="http://www.w3.org/2000/svg" xmlns:xlink="http://www.w3.org/1999/xlink" x="0px" y="0px" viewBox="0 0 24 24" style="enable-background:new 0 0 24 24;" xml:space="preserve"><path d="M11.9,8.5l4.9,5c0.3,0.3,0.3,0.7,0,1c-0.3,0.3-0.7,0.3-1,0l-3.2-3.3v10.1c0,0.4-0.3,0.7-0.7,0.7c-0.4,0-0.7-0.3-0.7-0.7&#xA;&#x9;V11.3L8,14.5c-0.3,0.3-0.7,0.3-1,0c-0.3-0.3-0.3-0.7,0-1l0,0L11.9,8.5L11.9,8.5z M15.8,18c-0.4,0-0.7-0.3-0.7-0.7&#xA;&#x9;c0-0.4,0.3-0.7,0.7-0.7c1.4,0,2.8,0,3.4,0c1.9,0,3.4-1.5,3.4-3.4c0-1.2-0.7-2.4-1.8-3l-0.5-0.3l0.1-0.5c0.1-0.3,0.1-0.6,0.1-0.9&#xA;&#x9;c0-2.8-2.2-5-4.9-5c-1.8,0-3.5,1-4.4,2.7l-0.4,0.8l-0.7-0.5C9.7,6,9.1,5.8,8.4,5.8c-1.7,0-3,1.4-3,3.1c0,0,0,0.1,0,0.1l0,0.7l-0.7,0&#xA;&#x9;c-1.8,0.1-3.3,1.6-3.3,3.4c0,1.9,1.5,3.4,3.4,3.4c0.3,0,1.7,0,3.2,0c0.4,0,0.7,0.3,0.7,0.7C8.7,17.7,8.4,18,8,18c0,0,0,0,0,0&#xA;&#x9;c-1.5,0-2.8,0-3.2,0C2.2,18,0,15.8,0,13.1c0-2.4,1.7-4.4,4-4.8c0.3-2.3,2.2-4,4.5-4c0.7,0,1.4,0.2,2,0.5C11.6,3.1,13.5,2,15.6,2&#xA;&#x9;C19.1,2,22,4.9,22,8.4c0,0.2,0,0.5,0,0.7c1.3,0.9,2.1,2.4,2.1,4c0,2.7-2.2,4.9-4.8,4.9C18.7,18,17.2,18,15.8,18L15.8,18z"/></svg>