<svg version="1.1" id="Vlt-icon-check-circle-negative" xmlns="http://www.w3.org/2000/svg" xmlns:xlink="http://www.w3.org/1999/xlink" x="0px" y="0px" viewBox="0 0 24 24" style="enable-background:new 0 0 24 24;" xml:space="preserve"><path id="path-1" d="M19.3,8.4l-8.7,8.7c-0.2,0.2-0.5,0.3-0.8,0.3c-0.3,0-0.6-0.1-0.8-0.3l-4.4-4.4c-0.4-0.4-0.4-1.1,0-1.5&#xA;&#x9;c0.4-0.4,1.1-0.4,1.5,0l3.6,3.6l8-8c0.4-0.4,1.1-0.4,1.5,0C19.7,7.3,19.7,8,19.3,8.4L19.3,8.4z M12,0C5.4,0,0,5.4,0,12s5.4,12,12,12&#xA;&#x9;s12-5.4,12-12S18.6,0,12,0L12,0z"/></svg>