<svg version="1.1" id="Vlt-icon-call-forward" xmlns="http://www.w3.org/2000/svg" xmlns:xlink="http://www.w3.org/1999/xlink" x="0px" y="0px" viewBox="0 0 24 24" style="enable-background:new 0 0 24 24;" xml:space="preserve"><path d="M24,20.5c0.1,1.4-0.7,2.2-2.1,2.4c-1,0.2-2.2,0-2.8-0.3c-1.8-1-2.9-3-3.6-6.5h1.3c0.6,3,1.5,4.7,2.9,5.4&#xA;&#x9;c0.3,0.2,1.3,0.3,2,0.2c0.8-0.1,1.1-0.4,1-1c-0.1-1.1-0.2-1.7-0.4-2.5c-0.2-0.8-0.5-1.4-0.7-1.8c-0.1-0.1-0.1-0.1-0.5-0.1l-0.1,0&#xA;&#x9;l-0.1,0c-1.1-0.1-1.6-0.2-1.9-1.2c-0.6-1.9-0.7-4.6-0.2-6.1c0.2-0.8,0.4-0.8,1.8-1.1l0,0l0,0c0.3-0.1,0.5-0.1,0.6-0.2&#xA;&#x9;c0.7-3.5,0.7-4.4,0.4-4.6c-1-0.9-2.5-1-3.4,0c-0.8,0.9-1.4,2.2-1.7,3.8h-1.3c0.4-2,1.1-3.6,2.1-4.7c1.5-1.7,3.9-1.3,5.2-0.1&#xA;&#x9;c0.9,0.8,0.8,2,0,6c-0.1,0.6-0.5,0.8-1.6,1l-0.1,0c-0.6,0.1-0.8,0.2-0.8,0.3c-0.4,1.3-0.3,3.8,0.2,5.4c0.1,0.2,0.1,0.2,0.7,0.2&#xA;&#x9;l0.1,0c0.7,0,1.1,0.2,1.5,0.6c0.4,0.5,0.7,1.3,1,2.2C23.8,18.7,23.9,19.5,24,20.5L24,20.5z M13.2,7.8l3.9,3.9l-3.9,3.9l-0.9-0.9&#xA;&#x9;l2.4-2.4H7.1v-1.3h7.4l-2.2-2.2L13.2,7.8L13.2,7.8z M8.5,17.8c0.2,0.9,0.3,1.7,0.5,2.7c0.1,1.4-0.7,2.2-2.1,2.4&#xA;&#x9;c-1,0.2-2.2,0-2.8-0.3c-2.2-1.2-3.4-4.1-4-9.3c-0.5-5,0.3-9,2.3-11.1C4,0.4,6.3,0.9,7.6,2c0.9,0.8,0.8,2,0,6C7.5,8.6,7.1,8.8,6,9&#xA;&#x9;L5.9,9C5.3,9.2,5.1,9.3,5.1,9.3c-0.4,1.4-0.3,3.8,0.2,5.4C5.3,14.9,5.4,14.9,6,15l0.1,0c0.7,0,1.1,0.2,1.5,0.6&#xA;&#x9;C8,16.1,8.3,16.9,8.5,17.8L8.5,17.8z M6.7,21.7c0.8-0.1,1.1-0.4,1-1c-0.1-1.1-0.2-1.7-0.4-2.5c-0.2-0.8-0.5-1.4-0.7-1.8&#xA;&#x9;c-0.1-0.1-0.1-0.1-0.5-0.1c0,0,0,0-0.1,0l-0.1,0C4.8,16.2,4.3,16,4,15.1c-0.6-1.9-0.7-4.6-0.2-6.1c0.2-0.8,0.4-0.8,1.8-1.1l0,0l0,0&#xA;&#x9;c0.3-0.1,0.5-0.1,0.6-0.2C7.1,4.1,7.1,3.2,6.8,3c-1-0.9-2.5-1-3.4,0C1.7,4.8,0.9,8.6,1.4,13.1C2,18,3,20.5,4.8,21.5&#xA;&#x9;C5.1,21.7,6,21.8,6.7,21.7L6.7,21.7z"/></svg>