<svg version="1.1" id="Vlt-icon-telephone-3" xmlns="http://www.w3.org/2000/svg" xmlns:xlink="http://www.w3.org/1999/xlink" x="0px" y="0px" viewBox="0 0 24 24" style="enable-background:new 0 0 24 24;" xml:space="preserve"><path d="M15.5,9.8H8.5c-0.3,0-0.6-0.3-0.7-0.6c0-0.3,0.3-0.6,0.6-0.7c0,0,0,0,0.1,0h6.9c0.3,0,0.7,0.2,0.7,0.6&#xA;&#x9;C16.2,9.5,15.9,9.8,15.5,9.8C15.5,9.8,15.5,9.8,15.5,9.8z M18.9,11.7c0.3-0.2,0.7-0.1,0.9,0.2l1.7,2.8v4.5c0,1.5-1.2,2.8-2.7,2.8&#xA;&#x9;H5.1c-1.5,0-2.7-1.2-2.7-2.8v-4.5L4,11.9c0.2-0.3,0.6-0.4,0.9-0.2c0.3,0.2,0.4,0.6,0.2,0.9c0,0,0,0,0,0l-1.5,2.5v4.1&#xA;&#x9;c0,0.8,0.7,1.5,1.5,1.5h13.7c0.8,0,1.5-0.7,1.5-1.5v-4.1l-1.5-2.5C18.5,12.2,18.6,11.9,18.9,11.7C18.9,11.7,18.9,11.7,18.9,11.7&#xA;&#x9;L18.9,11.7z M7,13.5c0-3.1,9.9-3.1,9.9,0c0,1.5-2.5,2.3-5,2.3C9.5,15.8,7,15,7,13.5L7,13.5z M12,12.5c-2.4,0-3.7,0.8-3.7,1.1&#xA;&#x9;c0,0.3,1.3,1.1,3.7,1.1c2.4,0,3.7-0.8,3.7-1.1C15.7,13.2,14.4,12.5,12,12.5z M12,2c5,0,12,1.8,12,5.7V9c0,0.9-0.7,1.6-1.7,1.6h-3.1&#xA;&#x9;c-0.9,0-1.7-0.7-1.7-1.6V8.2c0-1-2.5-2.2-5.6-2.2S6.4,7.2,6.4,8.2V9c0,0.9-0.7,1.6-1.7,1.6H1.7C0.7,10.6,0,9.9,0,9V7.7&#xA;&#x9;C0,3.8,7,2,12,2z M22.7,9V7.7c0-2.6-5.7-4.4-10.7-4.4S1.3,5.1,1.3,7.7V9c0,0.2,0.2,0.4,0.4,0.4h3.1c0.2,0,0.4-0.2,0.4-0.4l0,0V8.2&#xA;&#x9;c0-2.2,3.5-3.4,6.9-3.4c3.4,0,6.9,1.3,6.9,3.4V9c0,0.2,0.2,0.4,0.4,0.4h3.1C22.6,9.4,22.7,9.2,22.7,9L22.7,9z"/></svg>