<svg version="1.1" id="Vlt-icon-queue" xmlns="http://www.w3.org/2000/svg" xmlns:xlink="http://www.w3.org/1999/xlink" x="0px" y="0px" viewBox="0 0 24 24" style="enable-background:new 0 0 24 24;" xml:space="preserve"><path d="M19.5,15.6c0,0-0.1,0-0.1,0c-0.7-0.8-1.6-1.6-2.8-2c-0.4-0.1-0.7-0.3-1.1-0.4h0.1c0.8,0,1.8,0,2.4-0.7&#xA;&#x9;c0.6-0.9,0.1-1.7-0.3-2.3c-0.1-0.1-0.2-0.3-0.3-0.5c-0.7-1.3-0.8-1.8-0.8-2.4l0-0.2c-0.2-1.5-0.8-2.6-1.9-3.2&#xA;&#x9;c0.2-0.5,0.9-1.3,2.4-1.3c2,0,2.5,1.6,2.5,1.6c0.2,0.7,0.1,1.5,0.1,1.5l0,0.5l0.5,0.1c0,0,0.1,0,0.1,0.1c0,0,0.1,0.3-0.3,0.8&#xA;&#x9;c-0.2,0.1-0.3,0.2-0.4,0.4c-0.1,0.3-0.4,1.1-1,1.7l-0.2,0.3l0.1,0.3c0,0.1,0.5,1.3,1.9,1.8c1.2,0.5,2.4,1.1,2.6,3.1&#xA;&#x9;C22.2,15.1,20.7,15.6,19.5,15.6 M15.8,19.3c-0.7-2.2-2.4-3-3.8-3.4c-0.5-0.2-1.1-0.4-1.5-0.7c0.6-0.6,1-1.4,1.3-2.1&#xA;&#x9;c0.1-0.1,0.3-0.2,0.3-0.3c0.5-0.9,0.6-1.6,0.4-2.2c-0.1-0.2-0.2-0.4-0.4-0.5c0-0.6-0.1-1.1-0.2-1.7c-0.2-0.6-0.6-1.5-1.6-2.1&#xA;&#x9;c0.4-1.1,1.2-1.7,2.4-1.8c1.6,0.1,2.5,1,2.7,2.8l0,0.1c0.1,0.8,0.1,1.4,1,2.9c0.1,0.2,0.2,0.4,0.3,0.5c0.5,0.7,0.5,0.8,0.3,1&#xA;&#x9;c-0.2,0.3-0.9,0.3-1.5,0.3c-0.4,0-0.8,0-1.1,0.1c-0.2,0.1-0.4,0.3-0.4,0.5c0,1.1,0.4,1.4,2.1,2c1.4,0.5,2.4,1.6,2.9,2.4&#xA;&#x9;C18.5,17.9,17.6,18.9,15.8,19.3 M8.1,21.4c-3.3,0-5.9-0.4-6.9-0.6c0.3-2.5,1.8-3.4,3.3-3.8c0.7-0.2,1.4-0.6,2-1.1&#xA;&#x9;c0.5,0.3,1,0.5,1.6,0.5c0.6,0,1.1-0.2,1.6-0.5c0.3,0.3,1,0.7,2.1,1.1c1.5,0.5,3,1.3,3.3,3.8C14,21,11.4,21.4,8.1,21.4 M4.9,12&#xA;&#x9;L4.9,12c-0.4-0.7-0.3-1-0.3-1c0,0,0.1-0.1,0-0.1l0.5-0.1l0-0.5c0,0,0-0.9,0.2-1.7c0-0.1,0.5-1.8,2.8-1.8c2.3,0,2.8,1.8,2.8,1.8&#xA;&#x9;c0.2,0.8,0.2,1.7,0.2,1.7l0,0.6l0.5,0.1c0,0,0.1,0.3-0.3,1l0,0c-0.2,0.1-0.3,0.2-0.4,0.5c-0.2,0.6-1.3,2.8-2.8,2.8&#xA;&#x9;c-1.5,0-2.6-2.2-2.8-2.8C5.2,12.2,5,12.1,4.9,12 M20.7,10.7c-0.5-0.2-0.8-0.5-1.1-0.9c0.5-0.6,0.8-1.2,0.9-1.7&#xA;&#x9;c0.1-0.1,0.2-0.1,0.3-0.2c0.5-0.8,0.7-1.4,0.5-1.9c-0.1-0.2-0.2-0.4-0.4-0.6c0-0.5-0.1-1-0.2-1.5c-0.2-0.8-1.3-2.4-3.6-2.4&#xA;&#x9;c-2,0-3,1.2-3.4,2c-0.3-0.1-0.6-0.1-0.9-0.1c-1.7,0.1-2.9,1-3.4,2.5C8.9,5.8,8.5,5.7,8.1,5.7c-2.5,0-3.6,1.7-3.9,2.7&#xA;&#x9;C4,8.9,4,9.5,4,10c-0.2,0.1-0.3,0.3-0.4,0.5c-0.3,0.5-0.1,1.3,0.4,2.2C4,12.8,4.1,12.9,4.3,13c0.2,0.5,0.6,1.4,1.3,2.1&#xA;&#x9;c-0.5,0.3-1,0.6-1.5,0.8c-1.6,0.5-3.8,1.6-4.1,5c0,0.3,0.2,0.9,0.6,1c0.8,0.2,3.6,0.6,7.4,0.6c3.7,0,6.5-0.5,7.3-0.6&#xA;&#x9;c0.5-0.1,0.8-0.6,0.7-1c0-0.2,0-0.4-0.1-0.5c2.3-0.5,3.5-1.9,4.1-2.7l0.1-0.1c0.1-0.2,0.2-0.4,0.1-0.6c0-0.1-0.1-0.2-0.1-0.2&#xA;&#x9;c1.2-0.1,2.4-0.5,3.1-0.7c0.5-0.2,0.8-0.7,0.7-1C23.7,11.9,21.7,11.2,20.7,10.7"/></svg>