<svg version="1.1" id="Vlt-icon-group-3" xmlns="http://www.w3.org/2000/svg" xmlns:xlink="http://www.w3.org/1999/xlink" x="0px" y="0px" viewBox="0 0 24 24" style="enable-background:new 0 0 24 24;" xml:space="preserve"><path d="M14.8,21.8c0.2,0,0.3-0.1,0.3-0.3v-9c0-1.7-1.4-3.2-3.2-3.2l0,0c-1.7,0-3.2,1.4-3.2,3.2l0,0v9c0,0.2,0.1,0.3,0.3,0.3H14.8&#xA;&#x9;L14.8,21.8z M14.8,23H9.2c-0.9,0-1.6-0.7-1.6-1.6l0,0v-9C7.6,10,9.6,8,12,8s4.4,2,4.4,4.4v9C16.4,22.3,15.7,23,14.8,23z M17.6,11.7&#xA;&#x9;c-0.3,0-0.6-0.3-0.6-0.6s0.3-0.6,0.6-0.6l0,0h0.5c2.4,0,4.4,2,4.4,4.4v6.6c0,0.9-0.7,1.6-1.6,1.6h-3.3c-0.3,0-0.6-0.3-0.6-0.6&#xA;&#x9;c0-0.3,0.3-0.6,0.6-0.6h3.3c0.2,0,0.3-0.1,0.3-0.3V15c0-1.7-1.4-3.2-3.2-3.2l0,0L17.6,11.7L17.6,11.7z M6.3,21.8&#xA;&#x9;C6.7,21.8,7,22,7,22.4C7,22.7,6.7,23,6.3,23H3.1c-0.9,0-1.6-0.7-1.6-1.6l0,0v-6.6c0-2.4,2-4.4,4.4-4.4h0.5C6.7,10.4,7,10.7,7,11&#xA;&#x9;s-0.3,0.6-0.6,0.6H5.9c-1.7,0-3.2,1.4-3.2,3.2l0,0v6.6c0,0.2,0.1,0.3,0.3,0.3C3.1,21.8,6.3,21.8,6.3,21.8z M12,7.9&#xA;&#x9;c-1.9,0-3.4-1.5-3.4-3.4l0,0c0-2,1.5-3.5,3.4-3.5s3.4,1.5,3.4,3.4S13.9,7.9,12,7.9L12,7.9z M12,6.7c1.2,0,2.2-1,2.2-2.2l0,0&#xA;&#x9;c0-1.2-1-2.2-2.2-2.2s-2.2,1-2.2,2.2l0,0C9.8,5.7,10.8,6.7,12,6.7z M18.1,9.8c-1.6,0-3-1.3-3-3l0,0c0-1.6,1.3-3,3-3l0,0&#xA;&#x9;c1.6,0,3,1.3,3,3l0,0C21.1,8.4,19.8,9.8,18.1,9.8L18.1,9.8z M18.1,8.6c1,0,1.7-0.8,1.7-1.7S19,5.2,18.1,5.2S16.4,6,16.4,6.9&#xA;&#x9;S17.2,8.6,18.1,8.6z M5.9,9.8c-1.6,0-3-1.3-3-3l0,0c0-1.6,1.3-3,3-3l0,0c1.6,0,3,1.3,3,3l0,0C8.8,8.4,7.5,9.8,5.9,9.8L5.9,9.8z&#xA;&#x9; M5.9,8.6c1,0,1.7-0.8,1.7-1.7S6.8,5.1,5.9,5.1S4.1,5.8,4.1,6.8S4.9,8.6,5.9,8.6z"/></svg>