<svg version="1.1" id="Vlt-icon-menu" xmlns="http://www.w3.org/2000/svg" xmlns:xlink="http://www.w3.org/1999/xlink" x="0px" y="0px" viewBox="0 0 24 24" style="enable-background:new 0 0 24 24;" xml:space="preserve"><path d="M21.2,6H2.8C2.3,6,2,5.7,2,5.3c0-0.4,0.3-0.8,0.7-0.8c0,0,0,0,0.1,0h18.5c0.4,0,0.8,0.3,0.8,0.7C22,5.6,21.7,6,21.2,6&#xA;&#x9;C21.3,6,21.3,6,21.2,6z M21.2,12.8H2.8c-0.4,0-0.8-0.3-0.8-0.7s0.3-0.8,0.7-0.8c0,0,0,0,0.1,0h18.5c0.4,0,0.8,0.3,0.8,0.7&#xA;&#x9;S21.7,12.8,21.2,12.8C21.3,12.8,21.3,12.8,21.2,12.8z M21.2,19.5H2.8c-0.4,0-0.8-0.3-0.8-0.7C2,18.4,2.3,18,2.7,18c0,0,0,0,0.1,0&#xA;&#x9;h18.5c0.4,0,0.8,0.3,0.8,0.7C22,19.1,21.7,19.5,21.2,19.5C21.3,19.5,21.3,19.5,21.2,19.5z"/></svg>