<svg version="1.1" id="Vlt-icon-transfer" xmlns="http://www.w3.org/2000/svg" xmlns:xlink="http://www.w3.org/1999/xlink" x="0px" y="0px" viewBox="0 0 24 24" style="enable-background:new 0 0 24 24;" xml:space="preserve"><path d="M3,21.5c-0.7,1-2.2,0.3-2-0.8C2.4,13.2,6.6,8.3,13.1,6.9V3.1c0-1,1.2-1.5,1.9-0.8l7.7,8.3c0.4,0.4,0.4,1.1,0,1.5L15,20.5&#xA;&#x9;c-0.7,0.7-1.9,0.2-1.9-0.7V16C8.5,16.2,5.3,18,3,21.5z M13.7,14.7l0.6,0v4.6l7.4-8l-7.4-8v4.5L13.8,8c-6.1,1.1-10,5.4-11.5,12.2&#xA;&#x9;C5,16.6,8.7,14.8,13.7,14.7z"/></svg>