<svg version="1.1" id="Vlt-icon-app" xmlns="http://www.w3.org/2000/svg" xmlns:xlink="http://www.w3.org/1999/xlink" x="0px" y="0px" viewBox="0 0 24 24" style="enable-background:new 0 0 24 24;" xml:space="preserve"><path d="M20.7,1h-17C2.2,1,1,2.2,1,3.7v17c0,1.5,1.2,2.7,2.7,2.7h17c1.5,0,2.6-1.2,2.6-2.7v-17C23.3,2.2,22.1,1,20.7,1z M3.7,2.4h17&#xA;&#x9;C21.4,2.4,22,3,22,3.7V4H2.3V3.7C2.3,3,2.9,2.4,3.7,2.4z M20.7,22h-17c-0.7,0-1.4-0.6-1.4-1.3V5.4H22v15.3C22,21.4,21.4,22,20.7,22z&#xA;&#x9; M6.2,8.8l1.1,0.7l1-1.5L7.1,7.3L6.2,8.8z M4.2,7.5v1.3h1V7.5H4.2z"/></svg>