<svg version="1.1" id="Vlt-icon-copy" xmlns="http://www.w3.org/2000/svg" xmlns:xlink="http://www.w3.org/1999/xlink" x="0px" y="0px" viewBox="0 0 24 24" style="enable-background:new 0 0 24 24;" xml:space="preserve"><path d="M20.7,7.5h-3.1c-0.9,0-1.6-0.7-1.6-1.6c0,0,0,0,0,0V2.3H7.8c-0.2,0-0.3,0.1-0.3,0.3c0,0,0,0,0,0v2.2h5.3l5,5.6v7.6h2.6&#xA;&#x9;c0.2,0,0.3-0.1,0.3-0.3c0,0,0,0,0,0V7.5z M19.9,6.2l-2.6-2.9v2.5c0,0.2,0.2,0.3,0.3,0.3H19.9z M6.2,4.8V2.6C6.2,1.7,6.9,1,7.8,1H17&#xA;&#x9;l5,5.6v11.1c0,0.9-0.7,1.6-1.6,1.6h-2.6v2.2c0,0.9-0.7,1.6-1.6,1.6H3.6C2.7,23,2,22.3,2,21.4V6.4c0-0.9,0.7-1.6,1.6-1.6&#xA;&#x9;C3.6,4.8,6.2,4.8,6.2,4.8z M13.1,7.1v2.5c0,0.2,0.2,0.3,0.3,0.3h2.2C15.7,9.9,13.1,7.1,13.1,7.1z M16.5,11.2h-3.1&#xA;&#x9;c-0.9,0-1.6-0.7-1.6-1.6c0,0,0,0,0,0V6.1H3.6c-0.2,0-0.3,0.1-0.3,0.3c0,0,0,0,0,0v15.1c0,0.2,0.1,0.3,0.3,0.3h12.6&#xA;&#x9;c0.2,0,0.3-0.1,0.3-0.3c0,0,0,0,0,0L16.5,11.2L16.5,11.2z"/></svg>