<svg version="1.1" id="Vlt-icon-file-edit" xmlns="http://www.w3.org/2000/svg" xmlns:xlink="http://www.w3.org/1999/xlink" x="0px" y="0px" viewBox="0 0 24 24" style="enable-background:new 0 0 24 24;" xml:space="preserve"><path d="M20.1,15.7l2.8,2.8L18.4,23l-3.8,1l1-3.8C15.6,20.2,20.1,15.7,20.1,15.7z M16.4,21.7l-0.2,0.7l0.7-0.2L16.4,21.7z&#xA;&#x9; M18.1,21.7l3.2-3.2l-1.2-1.2l-3.2,3.2L18.1,21.7z M3.6,22.1c0,0.2,0.2,0.4,0.4,0.4h8.8v1.1H4.1c-0.9,0-1.6-0.7-1.6-1.6V2.6&#xA;&#x9;C2.5,1.7,3.2,1,4.1,1h11l6.2,6.2v6.6h-1.1V8h-5.9V2.1H4.1c-0.2,0-0.4,0.2-0.4,0.4C3.6,2.6,3.6,22.1,3.6,22.1z M15.4,3v3.9h3.9&#xA;&#x9;C19.3,6.9,15.4,3,15.4,3z M6,8.8V7.7h5.9v1.1H6z M6,11.7v-1.1h11.8v1.1L6,11.7L6,11.7z M6,14.6v-1.1h6.9v1.1L6,14.6L6,14.6z M6,17.5&#xA;&#x9;v-1.1h6.9v1.1L6,17.5L6,17.5z"/></svg>