<svg version="1.1" id="Vlt-icon-home-user" xmlns="http://www.w3.org/2000/svg" xmlns:xlink="http://www.w3.org/1999/xlink" x="0px" y="0px" viewBox="0 0 24 24" style="enable-background:new 0 0 24 24;" xml:space="preserve"><path d="M23.5,10.8c0.7,0.7,0.2,2-0.8,2H21V21c0,0.9-0.8,1.7-1.7,1.7H4.8c-0.9,0-1.7-0.8-1.7-1.7v-8.1H1.5c-1.1,0-1.6-1.3-0.8-2&#xA;&#x9;l10.5-9.1c0.5-0.4,1.1-0.4,1.6,0l2.7,2.6v-1c0-0.6,0.5-1.2,1.2-1.2h2.6c0.6,0,1.2,0.5,1.2,1.2v4.5L23.5,10.8L23.5,10.8z M19.2,8.4&#xA;&#x9;V3.5h-2.3v3.9L12,2.7L1.9,11.5h2.5V21c0,0.2,0.2,0.4,0.4,0.4h14.5c0.2,0,0.4-0.2,0.4-0.4c0,0,0,0,0,0v-9.4h2.7L19.2,8.4L19.2,8.4z&#xA;&#x9; M10.1,13.7c-0.5-0.7-0.8-1.4-0.8-2.3c0-1.7,1.2-3.2,2.9-3.2c1.6,0.1,2.7,1.5,2.7,3.2c0,0.8-0.3,1.6-0.8,2.3l-0.2,0.2&#xA;&#x9;c0.3,0.1,0.4,0.1,0.6,0.2c1.7,0.6,3.1,1.6,2.9,2.9c-0.2,1.5-1.7,1.8-4.9,1.8h-0.8c-3.2,0-4.6-0.3-4.9-1.8c-0.2-1.3,1.2-2.4,2.9-2.9&#xA;&#x9;C9.8,14,10,14,10.2,13.9L10.1,13.7L10.1,13.7z M10,15.3c-1.1,0.4-2.1,1.1-2,1.5c0.1,0.4,1.1,0.7,3.6,0.7h0.8c2.4,0,3.5-0.3,3.6-0.7&#xA;&#x9;c0.1-0.4-1-1.1-2-1.5c-0.2-0.1-0.4-0.1-0.6-0.2c-0.5-0.1-0.8-0.3-0.9-0.8c-0.1-0.5,0.1-0.9,0.6-1.5c0.4-0.4,0.5-0.9,0.5-1.5&#xA;&#x9;c0-1-0.7-1.9-1.5-1.9c-0.8,0-1.5,0.8-1.5,1.9c0,0.5,0.2,1,0.5,1.5c0.5,0.6,0.7,1,0.6,1.5c-0.1,0.5-0.4,0.6-0.9,0.8&#xA;&#x9;C10.5,15.2,10.3,15.3,10,15.3L10,15.3z"/></svg>