<svg version="1.1" id="Vlt-icon-call-block" xmlns="http://www.w3.org/2000/svg" xmlns:xlink="http://www.w3.org/1999/xlink" x="0px" y="0px" viewBox="0 0 24 24" style="enable-background:new 0 0 24 24;" xml:space="preserve"><g><path d="M9.7,11.4c0.6,0.7,1.1,1.2,1.3,1.5c0.3,0.3,0.8,0.8,1.6,1.4c0.6,0.5,1,0.7,1.4,0.8c0.4-0.5,1-0.8,1.9-1.1&#xA;&#x9;&#x9;c1.1-0.3,2.4,0.1,3.8,1c1.1,0.7,1.9,1.2,2.2,1.4c0.5,0.3,0.8,0.7,1,1.1c0.2,0.5,0.2,1,0.1,1.5v0.1l-0.4,1c-0.4,1-1.2,1.8-2.3,2.4&#xA;&#x9;&#x9;c-1,0.5-2.1,0.5-3.4,0.2c-1.1-0.3-2.3-0.7-3.5-1.3c-1.2-0.6-2.3-1.3-3.4-2.1c-1.1-0.8-2-1.6-2.8-2.4s-1.6-1.7-2.4-2.8&#xA;&#x9;&#x9;s-1.5-2.2-2.1-3.4C1.9,9.5,1.5,8.4,1.2,7.2C0.9,5.9,0.9,4.8,1.4,3.8c0.5-1.1,1.3-1.9,2.4-2.3l1-0.4h0.1C5.4,1,5.9,1,6.4,1.2&#xA;&#x9;&#x9;s0.9,0.6,1.1,1c0.2,0.3,0.6,1,1.4,2.1c0.9,1.5,1.3,2.7,1,3.8c-0.2,0.9-0.5,1.6-1,2C8.9,10.4,9.2,10.9,9.7,11.4z M2.6,4.4&#xA;&#x9;&#x9;C2.3,5,2.3,5.9,2.5,6.9S3.1,9,3.7,10.1s1.3,2.2,2,3.2c0.8,1,1.5,1.9,2.3,2.7c0.7,0.7,1.6,1.5,2.7,2.3c1,0.8,2.1,1.4,3.2,2&#xA;&#x9;&#x9;s2.2,1,3.2,1.2s1.9,0.2,2.5-0.1c0.8-0.4,1.3-0.9,1.6-1.6l0.4-1c0.1-0.2,0-0.4,0-0.6c-0.1-0.2-0.3-0.4-0.5-0.5&#xA;&#x9;&#x9;c-0.3-0.2-1-0.6-2.1-1.4s-2.1-1-2.8-0.8c-0.7,0.2-1.1,0.5-1.3,0.8c-0.2,0.3-0.6,0.4-1.2,0.3c-0.6-0.1-1.2-0.5-2-1.1&#xA;&#x9;&#x9;s-1.3-1.1-1.7-1.4c-0.3-0.3-0.8-0.9-1.4-1.6c-0.6-0.8-1-1.4-1.1-2s0-1,0.3-1.2C8.2,9,8.4,8.5,8.6,7.9c0.2-0.7-0.1-1.6-0.8-2.8&#xA;&#x9;&#x9;C7,3.9,6.6,3.2,6.4,3C6.3,2.7,6.1,2.5,5.9,2.4s-0.4-0.1-0.6,0l-1,0.4C3.5,3,3,3.6,2.6,4.4z"/><path d="M22.9,7.3c0,2.9-2.3,5.2-5.1,5.3c-2.9,0-5.2-2.3-5.3-5.1V7.4c0-2.9,2.4-5.2,5.3-5.1C20.6,2.2,22.9,4.4,22.9,7.3L22.9,7.3z&#xA;&#x9;&#x9; M17.7,3.1c-2.3,0-4.2,1.9-4.2,4.2l0,0c0,1,0.3,1.8,0.9,2.5L20.2,4C19.5,3.4,18.6,3.1,17.7,3.1z M17.7,11.4c2.3,0,4.2-1.9,4.2-4.2&#xA;&#x9;&#x9;l0,0c0-1-0.3-1.8-0.9-2.5l-5.8,5.8C15.9,11.1,16.8,11.4,17.7,11.4z"/></g></svg>