<svg version="1.1" id="Vlt-icon-profile" xmlns="http://www.w3.org/2000/svg" xmlns:xlink="http://www.w3.org/1999/xlink" x="0px" y="0px" viewBox="0 0 24 24" style="enable-background:new 0 0 24 24;" xml:space="preserve"><path id="path-1_1_" d="M16,18.7l2.6,0.9c0.3,0.1,0.5,0.5,0.4,0.8s-0.5,0.5-0.8,0.4l-2.6-0.9c-1.3-0.5-2.1-2.4-2.1-3.6&#xA;&#x9;c0-0.2,0.1-0.4,0.2-0.5c0.6-0.5,1-1.2,1-1.6c0-0.5,0.1-0.9,0.4-1.1c0.1-0.1,0.1-0.1,0.2-0.2c0-0.1,0.1-0.2,0.1-0.4&#xA;&#x9;c0-0.1,0.1-0.3,0.1-0.4c0-0.1,0-0.2,0.1-0.3c-0.2-0.1-0.4-0.3-0.4-0.6V8.7c0-0.7-0.1-1.1-0.3-1.3c0-0.1-0.4-0.3-0.5-0.4&#xA;&#x9;c-0.1-0.2-0.2-0.4-0.1-0.6C14.2,6,13.5,5.5,12,5.5c-1.8,0-3.2,1.7-3.2,3.2v2.6c0,0.3-0.2,0.5-0.4,0.6c0,0.1,0,0.2,0.1,0.3&#xA;&#x9;c0,0.1,0.1,0.3,0.1,0.4c0,0.1,0.1,0.3,0.1,0.4c0.1,0,0.1,0.1,0.2,0.2c0.2,0.3,0.4,0.7,0.4,1.1c0,0.4,0.5,1.1,1,1.6&#xA;&#x9;c0.1,0.1,0.2,0.3,0.2,0.5c0,1.2-0.8,3-2.1,3.6l-2.6,0.9C5.5,21,5.1,20.8,5,20.5c-0.1-0.3,0.1-0.7,0.4-0.8l2.5-0.8&#xA;&#x9;c0.6-0.3,1.2-1.4,1.3-2.1c-0.7-0.7-1.3-1.6-1.3-2.4c0-0.2,0-0.2,0-0.3c0,0,0,0,0.1,0c-0.2-0.1-0.3-0.2-0.4-0.4&#xA;&#x9;c-0.1-0.1-0.1-0.4-0.2-0.7c-0.1-0.2-0.1-0.4-0.1-0.5c-0.1-0.3-0.1-0.5-0.1-0.8v-0.2c0-0.1,0.1-0.3,0.2-0.4c0.1-0.1,0.1-0.2,0.2-0.3&#xA;&#x9;V8.7c0-2.2,2-4.5,4.5-4.5c2.1,0,3.4,1,3.6,2.1c0.1,0.1,0.2,0.2,0.3,0.3c0.4,0.5,0.6,1.1,0.6,2.1v2.1c0.1,0.1,0.2,0.2,0.2,0.3&#xA;&#x9;c0.1,0.1,0.1,0.3,0.2,0.4v0.2c0,0.2,0,0.5-0.1,0.8c0,0.2-0.1,0.3-0.1,0.5c-0.1,0.3-0.2,0.5-0.2,0.7c-0.1,0.2-0.2,0.3-0.3,0.4&#xA;&#x9;c0,0,0,0.1,0,0.3c0,0.8-0.5,1.7-1.3,2.4C14.9,17.3,15.4,18.4,16,18.7z M16.1,13.9L16.1,13.9L16.1,13.9L16.1,13.9z M8,14L8,14L8,14z&#xA;&#x9; M8.4,11.8L8.4,11.8L8.4,11.8z M23.6,12c0,6.4-5.2,11.6-11.6,11.6S0.3,18.4,0.3,12S5.6,0.3,12,0.3S23.6,5.6,23.6,12z M22.4,12&#xA;&#x9;c0-5.7-4.6-10.4-10.4-10.4S1.6,6.3,1.6,12S6.3,22.4,12,22.4S22.4,17.7,22.4,12z M15.6,11.8L15.6,11.8L15.6,11.8z"/></svg>