<svg version="1.1" id="Vlt-icon-open" xmlns="http://www.w3.org/2000/svg" xmlns:xlink="http://www.w3.org/1999/xlink" x="0px" y="0px" viewBox="0 0 24 24" style="enable-background:new 0 0 24 24;" xml:space="preserve"><title>Vlt-icon-open</title><desc>Created with Sketch.</desc><g id="Symbols"><g id="Icons_x2F_Vlt-icon-open"><g id="Vlt-icon-open_1_" transform="translate(2.000000, 1.000000)"><polygon id="Shape" points="14.1,0.1 14.1,1.4 17.4,1.4 8.8,10 9.7,10.9 18.3,2.3 18.3,5.6 19.6,5.6 19.6,0.1 &#x9;&#x9;&#x9;"/><path id="Shape_1_" d="M14.4,18.6c0,0.2-0.2,0.4-0.4,0.4H1.7c-0.2,0-0.4-0.2-0.4-0.4V6.3c0-0.2,0.2-0.4,0.3-0.4h7.9V4.6H1.7&#xA;&#x9;&#x9;&#x9;&#x9;C0.8,4.6,0,5.3,0,6.3v12.4c0,0.9,0.8,1.6,1.7,1.6h12.4c0.9,0,1.7-0.7,1.7-1.7V9.7h-1.3L14.4,18.6C14.5,18.6,14.4,18.6,14.4,18.6z&#xA;&#x9;&#x9;&#x9;&#x9;"/></g></g></g></svg>