<svg version="1.1" id="Vlt-icon-method-post" xmlns="http://www.w3.org/2000/svg" xmlns:xlink="http://www.w3.org/1999/xlink" x="0px" y="0px" viewBox="0 0 24 24" style="enable-background:new 0 0 24 24;" xml:space="preserve"><path id="Post" d="M2.8,13v1.1h0.6c0.2,0,0.4,0,0.5,0.1C4,14.3,4,14.4,4,14.7c0,0.2,0,0.3-0.1,0.4s-0.3,0.1-0.5,0.1H1.5&#xA;&#x9;c-0.2,0-0.4,0-0.5-0.1s-0.2-0.2-0.2-0.5c0-0.2,0-0.3,0.1-0.4s0.2-0.1,0.4-0.1h0.1v-4l0,0C1.2,10.1,1.1,10,1,9.9&#xA;&#x9;C0.9,9.8,0.8,9.7,0.8,9.5S0.9,9.1,1,9s0.3-0.1,0.5-0.1h2.2c0.9,0,1.5,0.2,2,0.5c0.4,0.3,0.7,0.8,0.7,1.5s-0.2,1.2-0.7,1.6&#xA;&#x9;c-0.4,0.4-1.1,0.5-2,0.5H2.8z M2.8,10.1v1.7h0.8c0.4,0,0.7-0.1,1-0.2c0.2-0.1,0.3-0.4,0.3-0.6c0-0.3-0.1-0.5-0.3-0.6&#xA;&#x9;c-0.2-0.1-0.5-0.2-0.9-0.2L2.8,10.1L2.8,10.1z M9.1,11.3c-0.4,0-0.8,0.1-1,0.4c-0.3,0.3-0.4,0.6-0.4,1.1c0,0.4,0.1,0.8,0.4,1.1&#xA;&#x9;s0.6,0.4,1,0.4s0.8-0.1,1-0.4c0.3-0.3,0.4-0.6,0.4-1.1c0-0.4-0.1-0.8-0.4-1.1C9.9,11.4,9.6,11.3,9.1,11.3z M9.1,10.2&#xA;&#x9;c0.9,0,1.6,0.2,2.1,0.7S12,12,12,12.8s-0.3,1.4-0.8,1.9s-1.2,0.7-2.1,0.7S7.5,15.2,7,14.7s-0.8-1.1-0.8-1.9c0-0.8,0.3-1.4,0.8-1.9&#xA;&#x9;C7.6,10.4,8.3,10.2,9.1,10.2z M13.3,15.2c-0.1,0.1-0.2,0.1-0.3,0.2c-0.1,0-0.2,0.1-0.3,0.1c-0.2,0-0.3,0-0.3-0.1&#xA;&#x9;c-0.1-0.1-0.1-0.2-0.1-0.5v-0.7c0-0.2,0-0.4,0.1-0.5s0.2-0.1,0.4-0.1s0.4,0.1,0.5,0.3c0.1,0.1,0.1,0.2,0.2,0.2&#xA;&#x9;c0.2,0.2,0.4,0.3,0.6,0.4c0.2,0.1,0.5,0.1,0.8,0.1s0.5-0.1,0.6-0.2c0.2-0.1,0.2-0.2,0.2-0.4c0-0.3-0.4-0.5-1.2-0.6&#xA;&#x9;c-0.2,0-0.3,0-0.4-0.1c-0.6-0.1-1.1-0.3-1.4-0.5c-0.3-0.3-0.5-0.6-0.5-1c0-0.5,0.2-0.9,0.5-1.2c0.4-0.3,0.9-0.4,1.6-0.4&#xA;&#x9;c0.2,0,0.5,0,0.7,0.1s0.5,0.1,0.8,0.2c0.1-0.1,0.2-0.2,0.2-0.2c0.1,0,0.2-0.1,0.3-0.1c0.1,0,0.3,0,0.3,0.1c0.1,0.1,0.1,0.2,0.1,0.4&#xA;&#x9;v0.7c0,0.2,0,0.3-0.1,0.4c-0.1,0.1-0.2,0.1-0.3,0.1c-0.1,0-0.4-0.1-0.8-0.4S14.9,11,14.6,11c-0.3,0-0.5,0-0.6,0.1&#xA;&#x9;c-0.2,0.1-0.2,0.2-0.2,0.4c0,0.3,0.3,0.4,1,0.5c0.2,0,0.3,0,0.4,0.1c0.8,0.1,1.4,0.3,1.7,0.5s0.5,0.6,0.5,1c0,0.5-0.2,1-0.6,1.3&#xA;&#x9;s-1,0.4-1.7,0.4c-0.3,0-0.6,0-0.8-0.1C13.8,15.3,13.6,15.2,13.3,15.2z M20,10.6h1.6c0.2,0,0.4,0,0.5,0.1s0.2,0.2,0.2,0.4&#xA;&#x9;s-0.1,0.4-0.2,0.5s-0.3,0.1-0.5,0.1H20v1.4c0,0.4,0.1,0.7,0.2,0.8s0.3,0.2,0.6,0.2c0.3,0,0.6-0.1,1-0.2s0.6-0.2,0.8-0.2&#xA;&#x9;c0.1,0,0.3,0.1,0.4,0.2c0.1,0.1,0.2,0.3,0.2,0.4c0,0.3-0.2,0.5-0.7,0.8c-0.5,0.2-1.1,0.3-1.7,0.3c-0.4,0-0.7-0.1-1-0.2&#xA;&#x9;c-0.3-0.1-0.5-0.2-0.7-0.4c-0.1-0.1-0.2-0.3-0.3-0.5c-0.1-0.2-0.1-0.5-0.1-1v-1.5h-0.5c-0.2,0-0.4,0-0.5-0.1s-0.2-0.2-0.2-0.5&#xA;&#x9;c0-0.2,0.1-0.4,0.2-0.4c0.1-0.1,0.3-0.1,0.5-0.1h0.5V9.3c0-0.2,0.1-0.4,0.2-0.5s0.3-0.2,0.5-0.2s0.4,0.1,0.5,0.2&#xA;&#x9;c0,0.1,0.1,0.3,0.1,0.5V10.6z"/></svg>