<svg version="1.1" id="Vlt-icon-checkbox" xmlns="http://www.w3.org/2000/svg" xmlns:xlink="http://www.w3.org/1999/xlink" x="0px" y="0px" viewBox="0 0 24 24" style="enable-background:new 0 0 24 24;" xml:space="preserve"><path d="M18.5,20.7c1.2,0,2.3-1,2.3-2.2c0,0,0,0,0,0V5.6c0-1.4-1-2.4-2.3-2.4H5.6c-1.3,0-2.4,1-2.4,2.3c0,0,0,0,0,0v12.8&#xA;&#x9;c0,1.2,1.1,2.3,2.4,2.3L18.5,20.7L18.5,20.7z M18.5,22H5.6c-2,0-3.6-1.6-3.6-3.5V5.6C2,3.6,3.6,2,5.6,2c0,0,0,0,0,0h12.8&#xA;&#x9;c2,0,3.5,1.6,3.5,3.6v12.8C22,20.4,20.4,22,18.5,22C18.5,22,18.5,22,18.5,22z M18,6.5l-7.2,8.7l-4.1-2.7L6,13.6l5.1,3.4L19,7.3&#xA;&#x9;L18,6.5z"/></svg>