<svg version="1.1" id="Vlt-icon-user-small" xmlns="http://www.w3.org/2000/svg" xmlns:xlink="http://www.w3.org/1999/xlink" x="0px" y="0px" viewBox="0 0 24 24" style="enable-background:new 0 0 24 24;" xml:space="preserve"><path d="M4.1,20.1c0.4-3,2.1-4,3.7-4.6c0.7-0.3,1.4-0.6,2-1.1c0.6,0.4,1.4,0.7,2.2,0.7c0.8,0,1.5-0.3,2.2-0.7c0.6,0.5,1.3,0.8,2,1.1&#xA;&#x9;c1.6,0.6,3.3,1.6,3.7,4.6H4.1L4.1,20.1z M8.8,8.6l0-0.8c0,0,0-1,0.2-1.9c0.1-0.2,0.6-2,3.1-2c2.4,0,3,1.8,3.1,2&#xA;&#x9;c0.2,0.9,0.2,1.9,0.2,1.9l0,0.8l0.7,0.1c0,0.1,0,0.4-0.3,0.9c-0.2,0.1-0.5,0.3-0.6,0.7c-0.2,0.7-1.5,3.1-3,3.1c-1.5,0-2.8-2.3-3-3.1&#xA;&#x9;C8.9,9.9,8.7,9.7,8.4,9.6C8.2,9.1,8.1,8.8,8.1,8.7C8.1,8.7,8.8,8.6,8.8,8.6z M22,21c-0.2-5-3-6.5-5.1-7.3c-0.4-0.2-0.9-0.4-1.3-0.6&#xA;&#x9;c0.6-0.7,1-1.5,1.2-2c0.2-0.1,0.3-0.2,0.4-0.4c0.7-1.2,0.8-2.1,0.4-2.8c-0.1-0.2-0.3-0.4-0.4-0.6c0-0.6-0.1-1.3-0.3-1.9&#xA;&#x9;C16.6,4.2,15.2,2,12,2C8.8,2,7.4,4.2,7,5.4C6.9,6,6.8,6.6,6.8,7.3C6.6,7.4,6.5,7.6,6.4,7.8C6,8.6,6.1,9.5,6.8,10.7&#xA;&#x9;C6.9,10.8,7,11,7.2,11.1c0.2,0.5,0.6,1.3,1.2,2c-0.4,0.3-0.8,0.5-1.3,0.6C5,14.5,2.3,16.1,2,21l0,1h20L22,21L22,21z"/></svg>