<svg version="1.1" id="Vlt-icon-save" xmlns="http://www.w3.org/2000/svg" xmlns:xlink="http://www.w3.org/1999/xlink" x="0px" y="0px" viewBox="0 0 24 24" style="enable-background:new 0 0 24 24;" xml:space="preserve"><path d="M21.3,20.6c0,0.4-0.3,0.7-0.7,0.7h-1.7V15c0-0.9-0.7-1.6-1.6-1.6H6.6c-0.9,0-1.6,0.7-1.6,1.6v6.3H3.4&#xA;&#x9;c-0.4,0-0.7-0.3-0.7-0.7l0-17.2c0-0.4,0.3-0.7,0.7-0.7h2.7v5.1c0,0.9,0.7,1.6,1.6,1.6h6.6c0.9,0,1.6-0.7,1.6-1.6V2.7h0.7&#xA;&#x9;c0.2,0,0.3,0.1,0.5,0.2L21.1,7c0.1,0.1,0.2,0.3,0.2,0.5L21.3,20.6L21.3,20.6z M17.6,21.3l-11.3,0V15c0-0.2,0.2-0.3,0.3-0.3h10.7&#xA;&#x9;c0.2,0,0.3,0.1,0.3,0.3L17.6,21.3L17.6,21.3z M7.3,2.7h2.5v3.3c0,0.3,0.3,0.6,0.6,0.6c0.3,0,0.6-0.3,0.6-0.6V2.7h3.5v5.1&#xA;&#x9;c0,0.2-0.1,0.3-0.3,0.3H7.7c-0.2,0-0.3-0.2-0.3-0.3L7.3,2.7L7.3,2.7z M21.9,6.1l-4.1-4.1c-0.4-0.4-0.8-0.6-1.4-0.6H3.4v0&#xA;&#x9;c-1.1,0-1.9,0.9-1.9,1.9h0l0,17.2c0,1.1,0.9,1.9,1.9,1.9h17.2c1.1,0,1.9-0.9,1.9-1.9V7.5C22.5,7,22.3,6.5,21.9,6.1L21.9,6.1z"/></svg>