<svg version="1.1" id="Vlt-icon-tool-circle" xmlns="http://www.w3.org/2000/svg" xmlns:xlink="http://www.w3.org/1999/xlink" x="0px" y="0px" viewBox="0 0 24 24" style="enable-background:new 0 0 24 24;" xml:space="preserve"><path id="path-1" d="M12,24C5.4,24,0,18.6,0,12S5.4,0,12,0s12,5.4,12,12S18.6,24,12,24z M16.1,13.2c-0.5,0-0.9-0.2-1.2-0.4l-3.6-3.6&#xA;&#x9;C11,8.8,10.8,8.4,10.8,8c0-0.7-0.3-1.4-0.9-2.1C9.4,5.3,8.6,5,7.9,5l0,0C7.2,5,6.6,5.2,6.1,5.7C6,5.7,6,5.8,6,5.9s0,0.2,0.1,0.2&#xA;&#x9;l1.8,1.1C7.8,7.7,7.5,8.2,7,8.5l-1.6-1c-0.1-0.1-0.2-0.1-0.3,0c0,0-0.1,0.1-0.1,0.2c0,0.8,0.2,1.6,0.8,2.2c0.5,0.6,1.3,0.9,2.1,0.9&#xA;&#x9;c0.2,0,0.4,0,0.7-0.1l4.1,4.1c0.3,0.3,0.5,0.7,0.5,1.1c0,0.7,0.3,1.4,0.9,2.1c0.6,0.6,1.3,0.9,2,0.9l0,0c0.6,0,1.2-0.2,1.7-0.5&#xA;&#x9;c0.1-0.1,0.1-0.2,0.1-0.3c0-0.1-0.1-0.2-0.1-0.2l-2-1.2c0.1-0.5,0.4-1,0.9-1.3l1.9,1.1c0.1,0.1,0.2,0.1,0.3,0c0.1,0,0.1-0.1,0.2-0.2&#xA;&#x9;v-0.1c0-0.1,0-0.2,0-0.3C19,14.5,17.7,13.2,16.1,13.2z"/></svg>