<svg version="1.1" id="Vlt-icon-clipboard-add" xmlns="http://www.w3.org/2000/svg" xmlns:xlink="http://www.w3.org/1999/xlink" x="0px" y="0px" viewBox="0 0 24 24" style="enable-background:new 0 0 24 24;" xml:space="preserve"><path d="M17.9,16.6h2.3v1h-2.3V20h-1v-2.3h-2.3v-1h2.3v-2.3h1V16.6L17.9,16.6z M11.9,15.2H7.2v-1h5.2c0.3-0.5,0.6-1,1-1.4H7.2v-1&#xA;&#x9;h7.6c0.8-0.4,1.7-0.6,2.5-0.6V5.8h-1l0.3,0.9H6.1l0.3-0.9h-1v10.8h3.2v3.3h3.7c-0.5-0.9-0.7-1.8-0.7-2.8&#xA;&#x9;C11.6,16.5,11.7,15.8,11.9,15.2L11.9,15.2z M6,17.6l1.6,1.6v-1.6C7.6,17.6,6,17.6,6,17.6z M16.1,4.8h2.2v6.6c0.2,0,0.5,0.1,0.7,0.2&#xA;&#x9;V4.8C19,4.4,18.7,4,18.3,4h-2.4L16.1,4.8L16.1,4.8z M6.6,4.8L6.8,4H4.4C4,4,3.6,4.4,3.6,4.8v16.1c0,0.4,0.3,0.8,0.7,0.8h9.4&#xA;&#x9;c-0.3-0.2-0.5-0.5-0.8-0.7H7.9l-3.5-3.6V4.8H6.6L6.6,4.8z M15.5,2.7h2.8c1.1,0,2,0.9,2,2.1v7.3c1.7,1.1,2.8,3,2.8,5&#xA;&#x9;c0,3.2-2.6,5.9-5.8,5.9h-13c-1.1,0-2-0.9-2-2.1V4.8c0-1.1,0.9-2.1,2-2.1h2.8l0.1-0.3h2.2c0-1,0.9-1.9,1.9-1.9c1,0,1.9,0.8,1.9,1.9&#xA;&#x9;h2.2L15.5,2.7L15.5,2.7z M7.2,10.5v-1h3.2v1C10.4,10.5,7.2,10.5,7.2,10.5z M12.2,3.4v-1c0-0.5-0.4-0.9-0.9-0.9&#xA;&#x9;c-0.5,0-0.9,0.4-0.9,0.9v1H8L7.4,5.7h8l-0.6-2.3L12.2,3.4L12.2,3.4z M17.4,21.7c2.5,0,4.4-2,4.4-4.6c0-2.5-2-4.6-4.5-4.6&#xA;&#x9;c-2.5,0-4.4,2-4.4,4.6C12.9,19.6,14.9,21.7,17.4,21.7z"/></svg>