<svg version="1.1" id="Vlt-icon-bar-chart-2" xmlns="http://www.w3.org/2000/svg" xmlns:xlink="http://www.w3.org/1999/xlink" x="0px" y="0px" viewBox="0 0 24 24" style="enable-background:new 0 0 24 24;" xml:space="preserve"><path id="path-1_1_" d="M21.2,22H1.5V3L1.1,3.5L0.4,2.8L2.2,1L4,2.8L3.2,3.5L2.8,3v17.7h18.7L21,20.2l0.7-0.7l1.8,1.7L21.8,23&#xA;&#x9;L21,22.2L21.2,22z M8.8,20H4.1V3.5h4.7C8.8,3.5,8.8,20,8.8,20z M5.3,18.8h2.1v-14H5.3V18.8z M14.1,20H9.4V7.8h4.7&#xA;&#x9;C14.1,7.8,14.1,20,14.1,20z M10.8,18.8h2.1V9.1h-2.1C10.8,9.1,10.8,18.8,10.8,18.8z M19.5,20h-4.8v-6.6h4.7L19.5,20L19.5,20z&#xA;&#x9; M16,18.8h2.1v-4H16V18.8z"/></svg>