<svg version="1.1" id="Vlt-icon-design-tools" xmlns="http://www.w3.org/2000/svg" xmlns:xlink="http://www.w3.org/1999/xlink" x="0px" y="0px" viewBox="0 0 24 24" style="enable-background:new 0 0 24 24;" xml:space="preserve"><path d="M9.5,0H3v22.8h6.6c0.9,0,1.7-0.6,1.7-1.6V1.6C11.3,0.7,10.5,0,9.5,0z M10,21.2c0,0.1-0.2,0.3-0.4,0.3H4.3v-0.7h2.1v-1.3H4.3&#xA;&#x9;v-0.7h3.5v-1.3H4.3v-0.7h2.1v-1.3H4.3v-0.7h3.5v-1.3H4.3v-0.7h2.1v-1.3H4.3v-0.7h3.5V9.5H4.3V8.8h2.1V7.5H4.3V6.8h3.5V5.5H4.3V4.8&#xA;&#x9;h2.1V3.5H4.3V1.3h5.3c0.2,0,0.4,0.2,0.4,0.4V21.2z M20.1,0.5c0.7,0,1.2,0.5,1.1,1.1v15.1c0,0.6-0.4,1-0.9,1.1l-2.4,5.4l-2.5-5.6&#xA;&#x9;c-0.3-0.2-0.5-0.5-0.5-0.9V1.6c0-0.6,0.6-1.1,1.2-1.1C16.1,0.5,20.1,0.5,20.1,0.5z M20,16.5V1.8h-1.2v14.7H20z M16.3,1.8v14.7h1.2&#xA;&#x9;V1.8H16.3z M17,17.8l0.9,2.2l1-2.2H17z"/></svg>