<svg version="1.1" id="Vlt-icon-upload" xmlns="http://www.w3.org/2000/svg" xmlns:xlink="http://www.w3.org/1999/xlink" x="0px" y="0px" viewBox="0 0 24 24" style="enable-background:new 0 0 24 24;" xml:space="preserve"><path d="M18.2,8.4c0.3,0.3,0.3,0.7,0,1c-0.1,0.1-0.3,0.2-0.5,0.2c-0.2,0-0.4-0.1-0.5-0.2L12.7,5v12.2c0,0.4-0.3,0.7-0.7,0.7&#xA;&#x9;c0,0,0,0,0,0c-0.4,0-0.7-0.3-0.7-0.7c0,0,0,0,0,0V5L6.9,9.4c-0.3,0.3-0.7,0.3-1,0c-0.3-0.3-0.3-0.7,0-1c0,0,0,0,0,0L12,2.2L18.2,8.4&#xA;&#x9;z M19.7,21.8H4.3c-1.3,0-2.3-1-2.3-2.2v-3.9c0-0.4,0.3-0.7,0.7-0.7s0.7,0.3,0.7,0.7v3.9c0,0.4,0.4,0.8,0.8,0.8h15.5&#xA;&#x9;c0.5,0,0.8-0.4,0.8-0.8v-3.9c0-0.4,0.3-0.7,0.7-0.7c0.4,0,0.7,0.3,0.7,0.7v3.9C22,20.7,21,21.8,19.7,21.8z"/></svg>