<svg version="1.1" id="Vlt-icon-palette" xmlns="http://www.w3.org/2000/svg" xmlns:xlink="http://www.w3.org/1999/xlink" x="0px" y="0px" viewBox="0 0 24 24" style="enable-background:new 0 0 24 24;" xml:space="preserve"><path d="M20.9,5.1c-3.6-4.4-10.5-4.9-15.3-1c-5.8,4.6-6.2,13.1-0.5,14c0.5,0.1,0.9,0.1,1.5,0C7.4,18,8,17.7,9.2,17.2&#xA;&#x9;c2-0.9,2.6-1,2.9-0.7c0.1,0.1,0.1,0.2,0.1,0.2c0,0.2-0.1,0.3-0.6,1.2c-0.4,0.6-0.6,0.9-0.7,1.4c-0.5,1.9,1.1,3.4,3,3.2&#xA;&#x9;c1.4-0.1,2.7-0.8,4.4-2.2C23.3,16.4,24.5,9.6,20.9,5.1z M17.6,19.3c-1.6,1.3-2.7,1.9-3.9,2c-1.2,0.1-2-0.6-1.8-1.6&#xA;&#x9;c0.1-0.3,0.2-0.6,0.6-1c0.7-1.2,0.8-1.4,0.8-2c0-0.3-0.2-0.7-0.5-0.9c-0.9-1-1.8-0.9-4.3,0.3c-1.1,0.5-1.6,0.7-2.2,0.8&#xA;&#x9;c-0.4,0.1-0.7,0.1-1.1,0C0.9,16.1,1.3,9.2,6.4,5.1c4.3-3.5,10.4-3,13.6,0.8C23,9.9,22.1,15.8,17.6,19.3z M6.7,9.4&#xA;&#x9;c-1.5,0-2.7,1.3-2.7,2.7c0,1.4,1.3,2.7,2.7,2.7s2.7-1.3,2.7-2.7C9.4,10.7,8.3,9.4,6.7,9.4z M6.7,13.7c-0.8,0-1.5-0.7-1.5-1.5&#xA;&#x9;s0.7-1.5,1.5-1.5s1.5,0.7,1.5,1.5C8.3,13,7.6,13.7,6.7,13.7L6.7,13.7z M9.7,5.2c-1.2,0-2.1,0.9-2.1,2.1c0,0,0,0,0,0&#xA;&#x9;c0,1.2,0.9,2.1,2.1,2.1c1.2,0,2.1-0.9,2.1-2.1c0,0,0,0,0,0C11.8,6.2,10.8,5.2,9.7,5.2C9.7,5.2,9.7,5.2,9.7,5.2z M9.7,8.1&#xA;&#x9;c-0.4,0-0.8-0.3-0.8-0.8c0,0,0,0,0,0c0-0.5,0.4-0.8,0.8-0.8c0.5,0,0.8,0.3,0.8,0.8C10.5,7.8,10.1,8.1,9.7,8.1z M14.6,4.8&#xA;&#x9;c-0.8,0-1.5,0.7-1.5,1.5c0,0.8,0.7,1.5,1.5,1.5c0.8,0,1.5-0.7,1.5-1.5S15.4,4.8,14.6,4.8z M14.6,6.6c-0.1,0-0.4-0.1-0.4-0.3&#xA;&#x9;c0-0.2,0.1-0.3,0.4-0.3s0.4,0.1,0.4,0.3C14.9,6.5,14.7,6.6,14.6,6.6z M18.4,7.2c-0.7,0-1.2,0.5-1.2,1.2c0,0.7,0.5,1.2,1.2,1.2&#xA;&#x9;s1.2-0.5,1.2-1.2C19.6,7.7,19.1,7.2,18.4,7.2z M18.4,8.4C18.4,8.4,18.3,8.4,18.4,8.4c-0.1-0.1,0-0.2,0-0.2S18.5,8.3,18.4,8.4&#xA;&#x9;C18.5,8.4,18.5,8.4,18.4,8.4z"/></svg>