<svg version="1.1" id="Vlt-icon-store" xmlns="http://www.w3.org/2000/svg" xmlns:xlink="http://www.w3.org/1999/xlink" x="0px" y="0px" viewBox="0 0 24 24" style="enable-background:new 0 0 24 24;" xml:space="preserve"><path id="path-1_1_" d="M18.5,21.9h1.4c0.2,0,0.3-0.2,0.3-0.3v-7.8c-0.2,0-0.3,0-0.5,0c-1.1,0-2-0.5-2.6-1.3&#xA;&#x9;c-0.6,0.8-1.6,1.3-2.6,1.3s-2-0.5-2.6-1.3c-0.7,0.9-1.6,1.4-2.7,1.4s-2-0.5-2.6-1.3C6,13.4,5,13.9,4,13.9c-0.2,0-0.3,0-0.5,0v7.8&#xA;&#x9;c0,0.2,0.2,0.3,0.3,0.3h7.4v-7h7.3V21.9z M17.2,21.9v-5.7h-4.7v5.7C12.5,21.9,17.2,21.9,17.2,21.9z M3.7,4V2.6&#xA;&#x9;c0-0.9,0.7-1.7,1.7-1.7h13c0.9,0,1.6,0.7,1.6,1.7V4c0.6,0.1,1,0.5,1.2,1.1l1.8,5.3v0.2c0,1.2-0.6,2.2-1.5,2.8v8.2&#xA;&#x9;c0,0.9-0.7,1.6-1.6,1.6h-16c-0.9,0-1.6-0.7-1.6-1.6v-8.2c-0.9-0.6-1.5-1.6-1.5-2.8v-0.2l1.8-5.3C2.6,4.5,3.1,4.1,3.7,4z M5,3.9h13.7&#xA;&#x9;V2.6c0-0.2-0.2-0.4-0.3-0.4h-13C5.1,2.2,5,2.4,5,2.6V3.9z M12.5,10.6c0,1.1,0.9,2,2,2s2-0.9,2-2h1.3c0,1.1,0.9,2,2,2s1.9-0.8,2-1.9&#xA;&#x9;l-1.7-5.2c0-0.1-0.2-0.2-0.3-0.2H4c-0.2,0-0.3,0.1-0.3,0.2L2,10.7c0.1,1,0.9,1.9,2,1.9s2-0.9,2-2h1.2c0,1.1,0.9,2,2,2s2-0.9,2-2&#xA;&#x9;C11.2,10.6,12.5,10.6,12.5,10.6z M9.2,15.6h1.3v3.7H4.2v-3.7h1.3v2.3h3.7V15.6z"/></svg>