<svg version="1.1" id="Vlt-icon-minimize" xmlns="http://www.w3.org/2000/svg" xmlns:xlink="http://www.w3.org/1999/xlink" x="0px" y="0px" viewBox="0 0 24 24" style="enable-background:new 0 0 24 24;" xml:space="preserve"><path d="M16.2,8.7h2.5c0.4,0,0.7,0.3,0.7,0.7s-0.3,0.7-0.7,0.7h-4.8V5.3c0-0.4,0.3-0.7,0.7-0.7s0.7,0.3,0.7,0.7v2.5l0.3-0.3l1.3-1.3&#xA;&#x9;L18.1,5l1.3-1.3l2.5-2.5c0.3-0.3,0.7-0.3,1,0c0.3,0.3,0.3,0.7,0,1l-2.5,2.5L19,5.9l-1.3,1.3l-1.3,1.3C16.5,8.4,16.2,8.7,16.2,8.7z&#xA;&#x9; M7.8,15.3H5.3c-0.4,0-0.7-0.3-0.7-0.7s0.3-0.7,0.7-0.7h4.8v4.8c0,0.4-0.3,0.7-0.7,0.7s-0.7-0.3-0.7-0.7v-2.5l-0.3,0.3l-1.3,1.3&#xA;&#x9;L5.9,19l-1.3,1.3l-2.5,2.5c-0.3,0.3-0.7,0.3-1,0c-0.3-0.3-0.3-0.7,0-1l0,0l2.5-2.5L5,18.1l1.3-1.3l1.3-1.3&#xA;&#x9;C7.5,15.5,7.8,15.3,7.8,15.3z M8.7,7.8V5.3c0-0.4,0.3-0.7,0.7-0.7c0.4,0,0.7,0.3,0.7,0.7v4.8H5.3c-0.4,0-0.7-0.3-0.7-0.7&#xA;&#x9;s0.3-0.7,0.7-0.7h2.5L1.2,2.1c-0.3-0.3-0.3-0.7,0-1s0.7-0.3,1,0C2.1,1.2,8.7,7.8,8.7,7.8z M16.2,15.3l6.6,6.6c0.3,0.3,0.3,0.7,0,1&#xA;&#x9;s-0.7,0.3-1,0l-6.6-6.6v2.5c0,0.4-0.3,0.7-0.7,0.7c-0.4,0-0.7-0.3-0.7-0.7v-4.8h4.8c0.4,0,0.7,0.3,0.7,0.7s-0.3,0.7-0.7,0.7&#xA;&#x9;C18.7,15.3,16.2,15.3,16.2,15.3z"/></svg>