<?xml version="1.0" encoding="utf-8"?>
<!-- Generator: Adobe Illustrator 22.0.1, SVG Export Plug-In . SVG Version: 6.00 Build 0)  -->
<svg version="1.1" id="Layer_1" xmlns="http://www.w3.org/2000/svg" xmlns:xlink="http://www.w3.org/1999/xlink" x="0px" y="0px"
	 viewBox="0 0 512 512" style="enable-background:new 0 0 512 512;" xml:space="preserve">
<g>
	<path style="fill:#82AFFF;" d="M512,200.1H0v-103c0-4.9,4-8.8,8.8-8.8h494.3c4.9,0,8.8,4,8.8,8.8L512,200.1L512,200.1z"/>
	<path style="fill:#82AFFF;" d="M503.2,423.7H8.8c-4.9,0-8.8-4-8.8-8.8v-103h512v103C512,419.8,508,423.7,503.2,423.7z"/>
</g>
<rect y="200.1" style="fill:#FFE15A;" width="512" height="111.8"/>
<path style="fill:#464655;" d="M3.3,421.6l202.8-161c2.9-2.3,2.9-6.8,0-9.2L3.3,90.4c-2,1.6-3.3,4-3.3,6.7v317.8
	C0,417.6,1.3,420,3.3,421.6z"/>
</svg>
