<?xml version="1.0" encoding="utf-8"?>
<!-- Generator: Adobe Illustrator 22.0.1, SVG Export Plug-In . SVG Version: 6.00 Build 0)  -->
<svg version="1.1" id="Layer_1" xmlns="http://www.w3.org/2000/svg" xmlns:xlink="http://www.w3.org/1999/xlink" x="0px" y="0px"
	 viewBox="0 0 512 512" style="enable-background:new 0 0 512 512;" xml:space="preserve">
<path style="fill:#F5F5F5;" d="M211.9,423.7H8.8c-4.9,0-8.8-4-8.8-8.8V97.1c0-4.9,4-8.8,8.8-8.8h203L211.9,423.7L211.9,423.7z"/>
<path style="fill:#FF4B55;" d="M141.2,88.3l70.6,21l-70.6,21l70.6,21l-70.6,21l70.6,21l-70.6,21l70.6,21l-70.6,21l70.6,21l-70.6,21
	l70.6,21l-70.6,21l70.6,21l-70.6,21l70.6,21l-70.6,21h361.9c4.9,0,8.8-4,8.8-8.8V97.1c0-4.9-4-8.8-8.8-8.8L141.2,88.3L141.2,88.3z"
	/>
</svg>
