<?xml version="1.0" encoding="utf-8"?>
<!-- Generator: Adobe Illustrator 22.0.1, SVG Export Plug-In . SVG Version: 6.00 Build 0)  -->
<svg version="1.1" id="Layer_1" xmlns="http://www.w3.org/2000/svg" xmlns:xlink="http://www.w3.org/1999/xlink" x="0px" y="0px"
	 viewBox="0 0 512 512" style="enable-background:new 0 0 512 512;" xml:space="preserve">
<path style="fill:#73AF00;" d="M0,344.3V97.1c0-4.9,4-8.8,8.8-8.8h379.6L0,344.3z"/>
<path style="fill:#4173CD;" d="M512,167.7v247.2c0,4.9-4,8.8-8.8,8.8H123.6L512,167.7z"/>
<path style="fill:#FFE15A;" d="M512,172.7V97.1c0-4.9-4-8.8-8.8-8.8h-120L0,339.3v75.6c0,4.9,4,8.8,8.8,8.8h120L512,172.7z"/>
<path style="fill:#464655;" d="M512,141V97.1c0-4.9-4-8.8-8.8-8.8h-71.7L0,371v43.9c0,4.9,4,8.8,8.8,8.8h71.7L512,141z"/>
</svg>
